<?xml version="1.0" encoding="UTF-8"?>
<svg xmlns="http://www.w3.org/2000/svg" width="174" height="76" viewBox="0 0 174 76" fill="none">
  <g id="aafp" opacity="0.9">
    <path id="Vector" d="M0.285156 37.5777C0.352712 37.8057 0.42027 38.0337 0.538493 38.4222C0.648271 38.0253 0.724274 37.7888 0.791829 37.544C1.68694 34.3266 3.97538 32.3675 6.81272 30.932C10.5958 29.0151 14.6745 27.8835 18.6603 26.5155C19.6821 26.1608 20.6954 25.688 21.5737 25.08C24.4363 23.0871 24.4279 19.4813 21.7425 17.2266C19.3528 15.2337 16.5239 14.4906 13.5767 13.9248C12.7407 13.7644 11.8963 13.528 11.111 13.1817C9.52341 12.4808 8.56073 11.2311 8.3074 9.49151C8.06251 7.81107 8.19762 6.17286 8.95762 4.51775C9.66696 5.32841 9.57406 6.71331 11.0603 6.94975C10.2918 4.28131 12.1243 2.4573 12.9856 0.059082C13.3318 0.531971 13.7119 0.827523 13.7794 1.19063C14.0665 2.62619 14.2692 4.08706 14.4972 5.53106C14.5816 6.05462 14.6407 6.57819 14.7083 7.10175C14.8181 7.12708 14.9279 7.14396 15.0292 7.16929C15.7892 5.65773 16.5492 4.14618 17.3007 2.63463C18.3225 4.99063 18.2381 7.45641 17.3261 10.032C17.6976 10.1924 18.0016 10.3444 18.3225 10.4542C20.6785 11.2226 22.8572 12.3035 24.5799 14.1275C27.147 16.8382 28.3546 19.9711 27.1892 23.6866C26.4461 26.0426 24.7741 27.6555 22.6208 28.7702C21.7341 29.2262 20.8052 29.6062 19.775 30.0622C19.2852 33.288 18.8208 36.5897 18.2888 39.8831C17.7652 43.1342 17.4865 46.436 16.7772 49.7631C14.1763 48.1671 11.7696 46.6555 9.32918 45.2031C8.47629 44.6964 8.07095 44.0377 7.95273 43.0582C7.65718 40.7022 7.27718 38.3631 6.91407 36.0155C6.87184 35.7537 6.71139 35.5173 6.53405 35.1119C6.06116 35.6355 5.68961 35.9817 5.4025 36.3871C3.18161 39.444 3.66294 42.4586 6.85495 44.7386C8.63673 46.0138 10.579 47.0608 12.4367 48.2346C14.5141 49.5435 16.6252 50.8186 18.6434 52.2204C22.1057 54.6355 23.2963 58.8577 21.4723 62.3031C20.3914 64.3382 18.5928 65.6808 16.5745 66.728C15.9665 67.0404 15.2825 67.2262 14.7083 67.5893C14.3959 67.792 14.075 68.2057 14.0159 68.5604C13.7118 70.6293 13.4839 72.7066 13.2136 74.784C13.1883 74.9782 13.0616 75.1555 12.9856 75.3413C12.9096 75.3413 12.8252 75.3413 12.7492 75.3497C12.4452 73.1204 12.1496 70.8995 11.8372 68.6111C11.2376 68.6111 10.7225 68.628 10.2074 68.6111C8.89851 68.5435 8.1385 67.4289 8.55228 66.2129C8.78873 65.5204 9.3714 65.3346 9.99629 65.132C11.7443 64.5493 13.5261 64.0511 15.1896 63.2742C16.6843 62.5733 17.9256 61.4502 18.4576 59.7866C18.9896 58.1315 17.8412 55.7248 16.0594 54.8889C15.6963 57.3124 15.3332 59.6937 14.9785 62.0582C13.9145 62.4382 12.9519 62.8266 11.9639 63.1222C11.1954 63.3502 10.9167 63.0884 10.807 62.2946C10.3003 58.6888 9.81051 55.0831 9.24473 51.4942C9.16873 51.0298 8.7634 50.5315 8.37495 50.236C6.69451 48.9777 4.88739 47.8715 3.25761 46.5373C1.81361 45.3551 1.01138 43.6831 0.504708 41.8337C0.411819 42.0026 0.352712 42.1209 0.285156 42.2306C0.285156 40.6769 0.285156 39.1231 0.285156 37.5777Z" fill="white"></path>
    <path id="Vector_2" d="M95.1755 44.7897C93.7146 44.7897 92.2368 44.7728 90.7675 44.7897C86.7901 44.8319 82.8212 44.891 78.8439 44.9333C78.371 44.9417 78.143 45.1191 77.9741 45.5835C77.1381 47.9142 76.2599 50.2279 75.3479 52.7022C75.0861 52.4911 74.8666 52.4066 74.8159 52.2631C74.5288 51.3848 74.3683 50.5235 74.7314 49.5946C76.2599 45.6764 77.7461 41.7497 79.2408 37.8231C81.3181 32.3679 83.3786 26.9044 85.4559 21.4493C85.6079 21.0355 85.8444 20.6471 85.9288 20.2248C86.123 19.2791 86.7057 19.0511 87.5924 19.0342C89.9906 18.9919 89.9906 18.9582 90.8773 21.1368C95.547 32.655 100.192 44.1902 104.929 55.6915C105.571 57.2622 106.457 58.8075 107.547 60.1079C109.523 62.4724 112.36 61.3155 113.255 58.9004C113.458 58.3346 113.525 57.6928 113.525 57.0933C113.542 46.3097 113.534 35.5261 113.534 24.7426C113.534 21.8039 112.436 20.5964 109.506 20.267C109.176 20.2333 108.847 20.1741 108.467 20.1235C108.416 19.9715 108.366 19.811 108.281 19.5493C118.372 19.5493 128.388 19.5493 138.479 19.5493C138.394 21.787 138.597 23.9995 138.242 26.1866C138.141 26.1951 138.04 26.2035 137.938 26.2119C137.854 26.0177 137.736 25.8235 137.693 25.6208C137.119 23.0537 135.43 21.5422 132.931 21.2719C129.882 20.9342 126.8 20.9342 123.726 20.8413C122.324 20.799 120.914 20.8835 119.504 20.9173C119.301 20.9257 119.099 20.9764 118.812 21.0186C118.812 27.3773 118.812 33.7022 118.812 40.1115C118.947 40.1453 119.141 40.2297 119.335 40.2297C123.093 40.2128 126.859 40.1875 130.617 40.1537C131.073 40.1453 131.529 40.0693 131.985 40.0186C133.691 39.816 134.636 38.7182 135.261 37.2319C135.481 36.7084 135.751 36.2186 136.004 35.7119C136.08 35.7373 136.165 35.7542 136.241 35.7795C136.241 39.1742 136.241 42.5604 136.241 45.9551C136.173 45.9888 136.114 46.0226 136.047 46.0564C135.844 45.7862 135.548 45.5497 135.456 45.2457C134.628 42.6026 132.694 41.6146 130.102 41.6062C126.513 41.5977 122.932 41.6146 119.344 41.6315C119.175 41.6315 119.006 41.6822 118.744 41.7328C118.744 42.6533 118.744 43.5399 118.744 44.4266C118.727 48.3279 118.702 52.2377 118.693 56.1391C118.693 56.5275 118.702 56.9159 118.769 57.2959C119.242 60.0235 120.365 61.1382 123.152 61.687C123.549 61.763 123.92 61.9826 124.309 62.1346C124.284 62.2022 124.25 62.2613 124.224 62.3288C114.598 62.3288 104.971 62.3288 95.3444 62.3288C95.319 62.2782 95.2853 62.2275 95.2599 62.1684C95.5133 62.0333 95.7582 61.8306 96.0284 61.7799C96.8222 61.6364 97.6328 61.5942 98.4266 61.4422C100.056 61.1297 100.724 60.2346 100.386 58.6133C100.149 57.4648 99.7524 56.3502 99.3386 55.2524C98.1142 52.0519 96.839 48.8684 95.5893 45.6764C95.4879 45.4146 95.3697 45.2035 95.1755 44.7897ZM86.4017 23.003C83.8599 29.8853 81.3857 36.5564 78.8692 43.371C84.1301 43.5315 89.2644 43.5484 94.4915 43.3373C91.7808 36.5142 89.1293 29.8684 86.4017 23.003Z" fill="white"></path>
    <path id="Vector_3" d="M139.879 19.5056C139.972 19.4802 140.074 19.438 140.166 19.438C146.213 19.5055 152.259 19.5056 158.297 19.6576C162.139 19.7589 165.711 20.8482 168.768 23.314C172.872 26.6158 173.911 32.2144 171.124 36.6224C169.393 39.3669 166.699 40.8024 163.659 41.6976C159.977 42.7784 156.211 42.8544 152.419 42.5927C151.811 42.5504 151.203 42.4998 150.553 42.4491C150.519 42.6687 150.477 42.8375 150.477 43.0064C150.469 47.6171 150.435 52.2193 150.469 56.83C150.486 59.5998 151.693 60.9762 154.412 61.5251C154.843 61.6095 155.274 61.6856 155.746 61.7784C155.797 61.922 155.848 62.0824 155.915 62.2682C150.595 62.2682 145.318 62.2682 140.048 62.2682C140.023 62.2007 139.989 62.1331 139.964 62.074C140.259 61.9305 140.538 61.7531 140.842 61.6433C141.568 61.3984 142.337 61.2549 143.046 60.9509C144.422 60.3682 145.157 59.2535 145.208 57.7842C145.258 55.994 145.199 54.1953 145.191 52.4051C145.191 43.3104 145.182 34.2242 145.191 25.1296C145.191 23.3816 144.828 21.8024 143.147 20.9158C142.497 20.5695 141.712 20.4851 141.002 20.2487C140.58 20.1136 140.183 19.9193 139.77 19.7505C139.812 19.6745 139.846 19.59 139.879 19.5056ZM150.638 41.1318C151.161 41.174 151.566 41.1993 151.963 41.2331C154.809 41.4358 157.655 41.6807 160.442 40.8447C163.389 39.9664 165.762 38.3789 166.446 35.1869C166.783 33.6162 166.91 31.9358 166.8 30.3313C166.538 26.354 164.579 23.3562 160.881 21.794C157.807 20.4936 154.522 20.6202 151.262 21.0509C150.671 21.1269 150.469 21.4309 150.469 22.0051C150.486 28.1104 150.486 34.2073 150.494 40.3127C150.502 40.5744 150.587 40.8447 150.638 41.1318Z" fill="white"></path>
    <path id="Vector_4" d="M47.7378 44.8827C47.3746 45.8623 47.0284 46.8165 46.6738 47.7708C45.5929 50.7094 44.512 53.6397 43.448 56.5868C43.2791 57.0597 43.1524 57.5663 43.0849 58.073C42.7724 60.2094 43.5662 61.1383 45.6182 61.5436C46.0151 61.6196 46.4204 61.6534 46.868 61.7041C46.8933 61.8645 46.9102 62.025 46.9524 62.2952C45.7111 62.2952 44.5457 62.2952 43.372 62.2952C40.9062 62.2867 38.4488 62.2868 35.9831 62.253C35.6959 62.253 35.4004 62.101 35.1133 62.0165C35.1217 61.949 35.1302 61.873 35.1302 61.8054C35.2822 61.7548 35.4342 61.6703 35.5862 61.6534C38.28 61.3241 40.0702 59.745 41.1257 57.3805C42.2235 54.9063 43.1271 52.3476 44.0982 49.8228C47.7546 40.2468 51.4027 30.6708 55.0507 21.0863C55.1267 20.8921 55.2364 20.6979 55.2618 20.4952C55.3884 19.3805 56.064 19.0934 57.1027 19.0343C59.4249 18.9161 59.4334 18.8823 60.2862 20.9934C64.88 32.3512 69.4738 43.7174 74.1014 55.0667C74.6587 56.4263 75.368 57.7352 76.1027 59.0103C76.964 60.5303 78.3152 61.3663 80.0801 61.5352C80.4094 61.569 80.7387 61.6872 81.0681 61.7716C81.0765 61.8476 81.085 61.9152 81.1018 61.9912C80.8907 62.0841 80.6796 62.2614 80.477 62.2614C76.1196 62.2699 71.7538 62.2614 67.3965 62.2614C66.5774 62.2614 65.7583 62.2614 64.8463 62.101C65.0742 61.9743 65.2938 61.7716 65.5387 61.7294C66.4169 61.569 67.3205 61.5268 68.1987 61.3241C69.6258 61.0032 70.1747 60.1587 69.896 58.7316C69.7356 57.8872 69.4907 57.0596 69.1783 56.2574C67.7934 52.6432 66.3747 49.0459 64.9645 45.4485C64.9053 45.2881 64.8209 45.1361 64.7027 44.8912C59.0787 44.8828 53.4462 44.8827 47.7378 44.8827ZM63.968 43.3628C61.2573 36.565 58.6227 29.9783 55.988 23.3832C55.912 23.3832 55.836 23.3832 55.76 23.3832C53.2942 30.0121 50.8284 36.641 48.3204 43.3628C53.5644 43.3628 58.6564 43.3628 63.968 43.3628Z" fill="white"></path>
    <path id="Vector_5" d="M4.36117 19.0155C10.1034 18.7706 15.8034 18.9648 21.6132 18.8804C21.4781 19.6826 21.3683 20.3328 21.2501 20.9831C21.0897 21.8951 20.963 22.8239 20.7265 23.719C20.6505 24.0315 20.3465 24.4199 20.0594 24.5213C16.5128 25.7626 12.9407 26.9448 9.39407 28.1862C8.5074 28.4986 7.6714 28.9631 6.81851 29.3768C6.23584 29.6555 5.89806 29.4866 5.80517 28.8702C5.31539 25.7288 4.84251 22.5875 4.36117 19.4462C4.35273 19.3786 4.36117 19.311 4.36117 19.0155Z" fill="white"></path>
  </g>
</svg>
