<svg xmlns="http://www.w3.org/2000/svg" width="52" height="59" viewBox="0 0 52 59" fill="none">
  <path d="M2.78003 46.3399L25.5791 58.9439L48.3782 46.3399V0H2.78003V46.3399Z" fill="#DDDDDD"/>
  <path d="M48.0999 46.1758L25.5789 58.6263L3.05786 46.1758V0.277954H48.0999V46.1758Z" stroke="black" stroke-width="0.296573"/>
  <path d="M5.0061 44.7485L25.5809 56.1636L46.1556 44.7485V2.7804H5.0061V44.7485Z" fill="white"/>
  <path d="M22.3725 41.1494L23.0998 42.623L24.7258 42.8588L23.5491 44.0054L23.8272 45.6247L22.373 44.8601L20.9189 45.6247L21.1969 44.0054L20.0203 42.8588L21.6457 42.6225L22.3725 41.1494ZM29.2467 41.1494L29.974 42.623L31.5994 42.8588L30.4233 44.0054L30.7013 45.6247L29.2467 44.8601L27.7925 45.6247L28.0706 44.0054L26.8939 42.8588L28.5199 42.6225L29.2467 41.1494ZM25.7089 46.7369L26.4363 48.2105L28.0622 48.4468L26.8856 49.5929L27.1636 51.2127L25.7095 50.4475L24.2553 51.2127L24.5334 49.5929L23.3567 48.4468L24.9821 48.2099L25.7089 46.7369Z" fill="#FF492C"/>
  <path d="M15.9749 27.9099C15.3743 27.9099 14.8538 27.7964 14.4134 27.5695C13.9924 27.3549 13.6442 27.0206 13.4125 26.6086C13.1789 26.1882 13.0621 25.6911 13.0621 25.1172V20.7732H14.6736V25.1172C14.6736 25.3842 14.727 25.6144 14.8338 25.8079C14.9406 26.0014 15.0907 26.1515 15.2842 26.2583C15.4844 26.3651 15.7213 26.4185 15.9949 26.4185C16.2618 26.4185 16.4953 26.3651 16.6955 26.2583C16.8957 26.1515 17.0492 26.0014 17.156 25.8079C17.2627 25.6144 17.3161 25.3842 17.3161 25.1172V20.7732H18.9276V25.1172C18.9276 25.6911 18.8075 26.1882 18.5673 26.6086C18.3337 27.0224 17.9934 27.3427 17.5463 27.5695C17.1059 27.7964 16.5821 27.9099 15.9749 27.9099ZM21.9021 27.8998C21.5751 27.8998 21.2681 27.8531 20.9812 27.7597C20.712 27.6723 20.4611 27.5367 20.2405 27.3593C20.0364 27.1831 19.8784 26.9598 19.7801 26.7087L21.0713 26.1682C21.158 26.3351 21.2781 26.4618 21.4316 26.5486C21.5851 26.6287 21.7419 26.6687 21.9021 26.6687C22.0622 26.6687 22.189 26.642 22.2824 26.5886C22.3758 26.5286 22.4225 26.4485 22.4225 26.3484C22.4237 26.298 22.4112 26.2482 22.3866 26.2042C22.362 26.1602 22.326 26.1236 22.2824 26.0982C22.189 26.0381 22.0522 25.9847 21.872 25.938L21.4316 25.8379C20.9712 25.7178 20.6142 25.5176 20.3606 25.2374C20.1139 24.9745 19.9777 24.6269 19.9803 24.2665C19.9803 23.7526 20.1571 23.3556 20.5108 23.0753C20.8644 22.7951 21.3549 22.6549 21.9821 22.6549C22.3425 22.6549 22.6561 22.705 22.923 22.8051C23.1966 22.8985 23.4235 23.032 23.6037 23.2055C23.7905 23.3723 23.924 23.5658 24.004 23.786L22.7629 24.3065C22.7162 24.173 22.6194 24.0696 22.4726 23.9962C22.3266 23.923 22.1654 23.8853 22.0022 23.8861C21.8554 23.8861 21.7419 23.9195 21.6618 23.9862C21.6239 24.0158 21.5933 24.0538 21.5725 24.0972C21.5516 24.1406 21.5411 24.1883 21.5417 24.2364C21.5417 24.3165 21.5884 24.3866 21.6819 24.4466C21.782 24.5 21.9254 24.5501 22.1123 24.5968L22.6428 24.7269C22.9564 24.807 23.22 24.9304 23.4335 25.0972C23.647 25.2574 23.8072 25.4476 23.9139 25.6678C24.0207 25.8813 24.0741 26.1115 24.0741 26.3584C24.0741 26.6787 23.9807 26.9556 23.7938 27.1892C23.6137 27.4161 23.3601 27.5929 23.0331 27.7197C22.7061 27.8398 22.3291 27.8998 21.9021 27.8998ZM27.2126 27.8998C26.6915 27.8998 26.2311 27.7897 25.8307 27.5695C25.4374 27.3563 25.1115 27.0373 24.8899 26.6487C24.663 26.255 24.5495 25.7979 24.5495 25.2774C24.5495 24.7569 24.663 24.2998 24.8899 23.9061C25.1115 23.5175 25.4374 23.1985 25.8307 22.9853C26.2378 22.7651 26.7049 22.6549 27.232 22.6549C27.7058 22.6549 28.1329 22.7684 28.5132 22.9953C28.8936 23.2221 29.1939 23.5625 29.4141 24.0162C29.641 24.4633 29.7544 25.0172 29.7544 25.6778H25.9914L26.1616 25.4876C26.1616 25.7145 26.2083 25.9147 26.3017 26.0882C26.3951 26.2617 26.5253 26.3951 26.6921 26.4885C26.8589 26.5753 27.0458 26.6186 27.2526 26.6186C27.4995 26.6186 27.7064 26.5653 27.8732 26.4585C28.04 26.3451 28.1568 26.2049 28.2235 26.0381L29.6148 26.5085C29.4917 26.8146 29.2959 27.086 29.0443 27.2993C28.8041 27.5061 28.5271 27.6596 28.2135 27.7597C27.8884 27.8548 27.5513 27.902 27.2126 27.8998ZM26.2011 24.847L26.0409 24.6368H28.283L28.1329 24.847C28.1329 24.5934 28.0828 24.3966 27.9827 24.2564C27.8915 24.1173 27.7633 24.0063 27.6124 23.9361C27.4723 23.8694 27.3288 23.8361 27.182 23.8361C27.0352 23.8361 26.885 23.8694 26.7316 23.9361C26.5789 24.0077 26.4477 24.1182 26.3512 24.2564C26.2511 24.3966 26.2011 24.5934 26.2011 24.847ZM31.5616 25.1873C31.5616 24.6468 31.669 24.1964 31.8825 23.8361C32.1021 23.4757 32.3757 23.2055 32.7027 23.0253C33.0216 22.8489 33.3798 22.7559 33.7442 22.755V24.2765C33.4508 24.2748 33.1583 24.3084 32.8729 24.3766C32.6059 24.4433 32.3891 24.5467 32.2223 24.6868C32.0554 24.8203 31.972 24.9938 31.972 25.2073L31.5616 25.1873ZM30.4111 27.7797V22.7751H31.9731V27.7797H30.4111ZM36.281 27.8998C35.9541 27.8998 35.6471 27.8531 35.3602 27.7597C35.091 27.6723 34.84 27.5367 34.6195 27.3593C34.4154 27.1831 34.2574 26.9598 34.1591 26.7087L35.4503 26.1682C35.537 26.3351 35.6571 26.4618 35.8106 26.5486C35.9641 26.6287 36.1209 26.6687 36.281 26.6687C36.4412 26.6687 36.568 26.642 36.6614 26.5886C36.7548 26.5286 36.8015 26.4485 36.8015 26.3484C36.8026 26.298 36.7902 26.2482 36.7656 26.2042C36.7409 26.1602 36.705 26.1236 36.6614 26.0982C36.568 26.0381 36.4312 25.9847 36.251 25.938L35.8106 25.8379C35.3502 25.7178 34.9932 25.5176 34.7396 25.2374C34.4929 24.9745 34.3567 24.6269 34.3592 24.2665C34.3592 23.7526 34.5361 23.3556 34.8897 23.0753C35.2434 22.7951 35.7339 22.6549 36.3611 22.6549C36.7215 22.6549 37.0351 22.705 37.302 22.8051C37.5756 22.8985 37.8025 23.032 37.9826 23.2055C38.1695 23.3723 38.3029 23.5658 38.383 23.786L37.1418 24.3065C37.0951 24.173 36.9984 24.0696 36.8516 23.9962C36.7056 23.923 36.5444 23.8853 36.3811 23.8861C36.2343 23.8861 36.1209 23.9195 36.0408 23.9862C36.0029 24.0158 35.9723 24.0538 35.9515 24.0972C35.9306 24.1406 35.9201 24.1883 35.9207 24.2364C35.9207 24.3165 35.9674 24.3866 36.0608 24.4466C36.1609 24.5 36.3044 24.5501 36.4912 24.5968L37.0217 24.7269C37.3354 24.807 37.5989 24.9304 37.8125 25.0972C38.026 25.2574 38.1862 25.4476 38.2929 25.6678C38.3997 25.8813 38.4531 26.1115 38.4531 26.3584C38.4531 26.6787 38.3597 26.9556 38.1728 27.1892C37.9926 27.4161 37.7391 27.5929 37.4121 27.7197C37.0851 27.8398 36.7081 27.8998 36.281 27.8998ZM8.08472 36.6769V29.6704H9.69622V35.1955H12.6785V36.6769H8.08472ZM15.7908 36.797C15.2636 36.797 14.7999 36.6869 14.3995 36.4667C14.0056 36.2462 13.6775 35.925 13.4486 35.5359C13.2217 35.1422 13.1083 34.6884 13.1083 34.1746C13.1083 33.6608 13.2184 33.207 13.4386 32.8133C13.6603 32.4247 13.9862 32.1057 14.3795 31.8925C14.7865 31.6656 15.247 31.5521 15.7608 31.5521C16.2879 31.5521 16.7517 31.6656 17.1521 31.8925C17.5482 32.1019 17.875 32.4218 18.0929 32.8133C18.3198 33.207 18.4333 33.6608 18.4333 34.1746C18.4333 34.6884 18.3198 35.1422 18.0929 35.5359C17.8755 35.9268 17.5531 36.2492 17.1621 36.4667C16.7617 36.6869 16.3046 36.797 15.7908 36.797ZM15.7908 35.3557C15.991 35.3557 16.1678 35.3056 16.3213 35.2056C16.4814 35.1055 16.6049 34.9687 16.6916 34.7952C16.7879 34.6027 16.836 34.3897 16.8318 34.1746C16.8318 33.941 16.7851 33.7375 16.6916 33.564C16.6113 33.3911 16.4827 33.2451 16.3213 33.1436C16.1559 33.0421 15.9649 32.99 15.7708 32.9935C15.5639 32.9935 15.3804 33.0435 15.2203 33.1436C15.0576 33.2465 14.926 33.3919 14.8399 33.564C14.7532 33.7375 14.7098 33.941 14.7098 34.1746C14.7098 34.4081 14.7532 34.615 14.8399 34.7952C14.9333 34.9687 15.0601 35.1055 15.2203 35.2056C15.3871 35.3056 15.5773 35.3557 15.7908 35.3557ZM20.662 36.6769L22.4937 31.6723H24.1052L22.0733 36.6769H20.662ZM20.5219 36.6769L18.49 31.6723H20.1015L21.9332 36.6769H20.5219ZM26.9045 36.797C26.384 36.797 25.9236 36.6869 25.5232 36.4667C25.1299 36.2535 24.804 35.9345 24.5823 35.5459C24.3555 35.1522 24.242 34.6951 24.242 34.1746C24.242 33.6541 24.3555 33.197 24.5823 32.8033C24.804 32.4147 25.1299 32.0957 25.5232 31.8825C25.9303 31.6622 26.3974 31.5521 26.9245 31.5521C27.3983 31.5521 27.8254 31.6656 28.2057 31.8925C28.5861 32.1193 28.8864 32.4597 29.1066 32.9134C29.3334 33.3605 29.4469 33.9144 29.4469 34.575H25.6834L25.8535 34.3848C25.8535 34.6117 25.9002 34.8119 25.9937 34.9854C26.0871 35.1588 26.2172 35.2923 26.384 35.3857C26.5508 35.4725 26.7377 35.5158 26.9445 35.5158C27.1914 35.5158 27.3983 35.4625 27.5651 35.3557C27.7319 35.2423 27.8487 35.1021 27.9155 34.9353L29.3068 35.4057C29.1837 35.7118 28.9878 35.9832 28.7362 36.1965C28.496 36.4033 28.2191 36.5568 27.9054 36.6569C27.5804 36.7519 27.2432 36.7992 26.9045 36.797ZM25.8936 33.7442L25.7334 33.534H27.9755L27.8254 33.7442C27.8254 33.4906 27.7753 33.2938 27.6752 33.1536C27.584 33.0145 27.4557 32.9035 27.3049 32.8333C27.1648 32.7666 27.0213 32.7332 26.8745 32.7332C26.7277 32.7332 26.5775 32.7666 26.4241 32.8333C26.2714 32.9049 26.1402 33.0154 26.0437 33.1536C25.9436 33.2938 25.8936 33.4906 25.8936 33.7442ZM35.4319 36.8071C34.8314 36.8071 34.3109 36.6936 33.8705 36.4667C33.4494 36.2521 33.1012 35.9178 32.8695 35.5058C32.636 35.0854 32.5192 34.5883 32.5192 34.0144V29.6704H34.1307V34.0144C34.1307 34.2814 34.1841 34.5116 34.2908 34.7051C34.3976 34.8986 34.5478 35.0487 34.7413 35.1555C34.9415 35.2623 35.1783 35.3157 35.4519 35.3157C35.7188 35.3157 35.9524 35.2623 36.1526 35.1555C36.3528 35.0487 36.5063 34.8986 36.613 34.7051C36.7198 34.5116 36.7732 34.2814 36.7732 34.0144V29.6704H38.3847V34.0144C38.3847 34.5883 38.2646 35.0854 38.0243 35.5058C37.7908 35.9196 37.4505 36.2399 37.0034 36.4667C36.563 36.6936 36.0392 36.8071 35.4319 36.8071ZM41.3586 36.797C41.0316 36.797 40.7246 36.7503 40.4377 36.6569C40.1685 36.5695 39.9176 36.4339 39.697 36.2565C39.4929 36.0803 39.3349 35.857 39.2366 35.6059L40.5278 35.0654C40.6145 35.2322 40.7346 35.359 40.8881 35.4458C41.0416 35.5259 41.1984 35.5659 41.3586 35.5659C41.5187 35.5659 41.6455 35.5392 41.7389 35.4858C41.8323 35.4258 41.879 35.3457 41.879 35.2456C41.8801 35.1952 41.8677 35.1454 41.8431 35.1014C41.8185 35.0574 41.7825 35.0208 41.7389 34.9954C41.6455 34.9353 41.5087 34.8819 41.3285 34.8352L40.8881 34.7351C40.4277 34.615 40.0707 34.4148 39.8171 34.1346C39.5704 33.8717 39.4342 33.5241 39.4368 33.1636C39.4368 32.6498 39.6136 32.2528 39.9673 31.9725C40.3209 31.6923 40.8114 31.5521 41.4386 31.5521C41.799 31.5521 42.1126 31.6022 42.3795 31.7023C42.6531 31.7957 42.88 31.9292 43.0601 32.1027C43.247 32.2695 43.3804 32.463 43.4605 32.6832L42.2194 33.2037C42.1726 33.0702 42.0759 32.9668 41.9291 32.8934C41.7831 32.8202 41.6219 32.7825 41.4587 32.7833C41.3119 32.7833 41.1984 32.8167 41.1183 32.8834C41.0804 32.913 41.0498 32.951 41.029 32.9944C41.0081 33.0378 40.9976 33.0855 40.9982 33.1336C40.9982 33.2137 41.0449 33.2838 41.1384 33.3438C41.2384 33.3972 41.3819 33.4472 41.5688 33.494L42.0993 33.6241C42.4129 33.7042 42.6765 33.8276 42.89 33.9944C43.1035 34.1546 43.2637 34.3448 43.3704 34.565C43.4772 34.7785 43.5306 35.0087 43.5306 35.2556C43.5306 35.5759 43.4372 35.8528 43.2503 36.0864C43.0702 36.3133 42.8166 36.4901 42.4896 36.6169C42.1626 36.737 41.7856 36.797 41.3586 36.797Z" fill="black"/>
  <path d="M0.278076 2.5022H39.7594V13.6237H0.278076V2.5022Z" fill="#DDDDDD"/>
  <path d="M0.278076 2.5022H39.7594V13.6237H0.278076V2.5022Z" stroke="black" stroke-width="0.296573"/>
  <path d="M7.86353 9.17516V6.4504H8.44351L9.23759 7.62594L10.0317 6.4504H10.6078V9.17516H10.0784V7.2834L9.23759 8.52122L8.3968 7.28729V9.17516H7.86353ZM11.5903 9.17516V6.4504H12.1236V9.17516H11.5903ZM13.1045 9.17516V6.4504H13.6384V8.6886H14.8367V9.17516H13.1045ZM15.5846 9.17516V6.4504H17.309V6.93696H16.1179V7.55587H17.1455V8.03076H16.1179V8.6886H17.3246V9.17516H15.5846ZM19.1808 9.22187C19.0506 9.22285 18.9209 9.20582 18.7954 9.17127C18.6827 9.14047 18.5752 9.09325 18.4762 9.03114C18.3887 8.97412 18.31 8.90462 18.2427 8.82484C18.186 8.75574 18.146 8.67448 18.1259 8.58739L18.6475 8.43169C18.6808 8.52011 18.7409 8.59629 18.8265 8.66135C18.9122 8.72363 19.0201 8.75588 19.1496 8.75866C19.2875 8.76144 19.3987 8.73142 19.4844 8.66914C19.5251 8.64345 19.5586 8.60782 19.5818 8.5656C19.6049 8.52338 19.617 8.47595 19.6167 8.4278C19.6171 8.38639 19.6078 8.34545 19.5896 8.30828C19.5713 8.2711 19.5446 8.23871 19.5116 8.21371C19.4301 8.14703 19.3341 8.10037 19.2314 8.07747L18.8771 7.98405C18.7526 7.95371 18.6341 7.90237 18.5268 7.83224C18.429 7.76592 18.3478 7.67803 18.2894 7.57534C18.2305 7.46674 18.2009 7.34463 18.2037 7.22112C18.2037 6.96421 18.2883 6.76458 18.4567 6.62167C18.628 6.47653 18.8694 6.40369 19.1808 6.40369C19.3548 6.40369 19.5066 6.42982 19.6367 6.48154C19.7685 6.53103 19.8792 6.60221 19.967 6.69563C20.0555 6.78905 20.1228 6.89915 20.1695 7.02649L19.6523 7.18608C19.6191 7.09523 19.5592 7.01654 19.4805 6.96032C19.3885 6.89533 19.2777 6.86249 19.1652 6.8669C19.0356 6.8669 18.9333 6.89693 18.8577 6.95643C18.8212 6.9873 18.7924 7.02622 18.7734 7.07012C18.7545 7.11402 18.7461 7.16171 18.7487 7.20944C18.7487 7.29507 18.7776 7.36236 18.8343 7.41185C18.8944 7.46134 18.9745 7.4986 19.0757 7.52473L19.4338 7.61426C19.6673 7.67154 19.8492 7.77385 19.9787 7.92177C20.1088 8.06969 20.1734 8.23428 20.1734 8.41612C20.1734 8.57738 20.1344 8.71863 20.0566 8.84041C19.9787 8.95996 19.8658 9.05338 19.7179 9.12067C19.57 9.18795 19.391 9.22187 19.1808 9.22187ZM21.5958 9.17516V6.93696H20.7784V6.4504H22.9426V6.93696H22.1291V9.17516H21.5958ZM24.9278 9.22187C24.6525 9.22187 24.409 9.16237 24.196 9.04282C23.9893 8.92434 23.8185 8.75219 23.7016 8.54457C23.5799 8.32157 23.5184 8.0707 23.5231 7.81667C23.5231 7.53864 23.5826 7.29507 23.7022 7.08488C23.8218 6.8719 23.9852 6.70619 24.1927 6.58663C24.4141 6.46441 24.6638 6.40266 24.9167 6.40758C25.1919 6.40758 25.4333 6.46875 25.6407 6.59053C25.8509 6.71008 26.0155 6.87579 26.1356 7.08877C26.2546 7.29897 26.3141 7.54142 26.3141 7.81667C26.3141 8.08915 26.2546 8.3316 26.135 8.54457C26.0183 8.75477 25.8548 8.92104 25.6446 9.04282C25.4259 9.165 25.1782 9.2268 24.9278 9.22187ZM24.9278 8.73531C25.0941 8.73531 25.2392 8.69638 25.3638 8.61853C25.4911 8.5379 25.5895 8.42947 25.6596 8.29156C25.7345 8.14466 25.7719 7.98153 25.7686 7.81667C25.7686 7.63484 25.7324 7.47524 25.6596 7.33789C25.5895 7.20182 25.4827 7.08811 25.3513 7.00967C25.2199 6.93123 25.0691 6.89121 24.9161 6.89414C24.7637 6.89181 24.6137 6.93213 24.483 7.01054C24.3524 7.08895 24.2462 7.20234 24.1765 7.33789C24.1042 7.47524 24.0675 7.63484 24.0675 7.81667C24.0675 7.99573 24.1037 8.15421 24.1765 8.29156C24.2488 8.42891 24.3506 8.5379 24.4802 8.61853C24.6097 8.69638 24.7593 8.73531 24.9278 8.73531ZM27.1354 9.17516V6.4504H27.6915L29.0233 8.27988V6.4504H29.5527V9.17516H29.0233L27.6687 7.31064V9.17516H27.1349H27.1354ZM30.5353 9.17516V6.4504H32.2591V6.93696H31.0691V7.55587H32.0967V8.03076H31.0691V8.6886H32.2758V9.17516H30.5353Z" fill="black"/>
  <path d="M39.76 2.5022H50.8815V13.6237H39.76V2.5022Z" fill="#FF492C" stroke="black" stroke-width="0.296573"/>
  <path fill-rule="evenodd" clip-rule="evenodd" d="M47.8526 6.6957H46.855C46.8817 6.53944 46.9785 6.45214 47.1742 6.35316L47.3577 6.25974C47.6869 6.09125 47.8615 5.90163 47.8615 5.59245C47.865 5.50301 47.8461 5.41412 47.8067 5.33376C47.7673 5.25339 47.7086 5.18407 47.6358 5.13202C47.4879 5.0208 47.3071 4.96631 47.0992 4.96631C46.9329 4.96631 46.7822 5.00857 46.6437 5.09587C46.5131 5.17308 46.4082 5.28724 46.3423 5.42396L46.6315 5.71256C46.7427 5.48679 46.9062 5.37558 47.1203 5.37558C47.301 5.37558 47.4128 5.469 47.4128 5.59801C47.4128 5.70644 47.3583 5.79653 47.1503 5.90163L47.0324 5.9589C46.7766 6.08847 46.5987 6.23583 46.4958 6.40376C46.3935 6.56947 46.3423 6.783 46.3423 7.0388V7.10775H47.8526V6.69626V6.6957ZM47.717 7.58598H46.0676L45.2424 9.01509H46.8923L47.717 10.4436L48.5416 9.01453L47.717 7.58542V7.58598Z" fill="white"/>
  <path fill-rule="evenodd" clip-rule="evenodd" d="M45.3813 9.96881C44.8759 9.96837 44.3913 9.76751 44.0337 9.41027C43.6762 9.05303 43.4749 8.56857 43.474 8.06314C43.4747 7.55766 43.676 7.07313 44.0335 6.71586C44.3911 6.35858 44.8759 6.15777 45.3813 6.15747L46.0342 4.79175C45.5501 4.69492 45.0506 4.7067 44.5717 4.82624C44.0928 4.94578 43.6463 5.1701 43.2645 5.48303C42.8828 5.79596 42.5752 6.18971 42.364 6.63587C42.1528 7.08204 42.0432 7.56951 42.0432 8.06314C42.0434 8.50134 42.1298 8.93521 42.2977 9.33999C42.4655 9.74477 42.7114 10.1125 43.0214 10.4222C43.3314 10.732 43.6994 10.9776 44.1043 11.1451C44.5092 11.3126 44.9431 11.3987 45.3813 11.3985C46.0879 11.3996 46.7764 11.1756 47.3471 10.759L46.6242 9.50782C46.29 9.79476 45.8557 9.96937 45.3813 9.96937V9.96881Z" fill="white"/>
  <path d="M3.33645 16.6822L0 13.9019H3.33645V16.6822ZM47.8224 16.6822L51.1589 13.9019H47.8224V16.6822Z" fill="black"/>
</svg>