<svg width="524" height="287" viewBox="0 0 524 287" fill="none" xmlns="http://www.w3.org/2000/svg">
<g clip-path="url(#clip0_10735_17168)">
<path d="M198.266 0.5H164.217C159.538 0.5 155.746 4.28369 155.746 8.95154V33.5195C155.746 38.1874 159.538 41.971 164.217 41.971H169.88C170.597 41.971 171.183 42.5561 171.183 43.2713V52.1259C171.183 53.3286 172.675 53.8877 173.47 52.984L182.352 42.8617C182.848 42.2961 183.564 41.971 184.314 41.971H198.279C202.957 41.971 206.75 38.1874 206.75 33.5195V8.95154C206.75 4.28369 202.957 0.5 198.279 0.5H198.266Z" fill="#8CB2B6"/>
<path d="M185.044 12.9106C188.68 12.9106 191.019 15.4071 191.019 19.4118C191.019 22.5454 187.839 26.095 181.538 30.1583C181.355 30.2753 181.127 30.2753 180.945 30.1583C174.643 26.095 171.463 22.5454 171.463 19.4118C171.463 15.4071 173.796 12.9106 177.439 12.9106C179.101 12.9106 180.384 13.4762 181.238 14.5945C182.098 13.4762 183.382 12.9106 185.037 12.9106H185.044Z" fill="#FF8D6E"/>
<path d="M56.9495 217.809C63.5312 217.054 67.617 216.346 72.8693 215.195C73.6187 217.126 74.5831 219.83 75.5215 223.159C76.0689 225.109 76.6293 226.566 76.4794 226.839C75.9255 227.853 69.2592 230.518 60.0514 230.349C63.844 241.005 62.5537 265.04 56.0633 277.808C72.5956 268.511 87.7008 257.732 114.092 246.271C107.778 231.786 104.982 212.731 104.787 193.397C104.389 154.598 102.656 146.12 102.656 146.12C102.656 146.12 98.9026 119.348 93.5591 111.417C93.0573 110.676 90.8091 107.984 89.8382 105.176C88.6978 101.886 89.0106 101.6 88.8868 99.8121C88.802 98.6224 85.6872 100.651 82.7222 102.744C75.9581 107.51 72.55 109.869 72.2241 110.221C43.265 141.621 53.0071 198.24 56.9561 217.809H56.9495Z" fill="#8CB2B6"/>
<path d="M119.501 109.096C122.492 111.118 127.041 112.964 131.465 117.814C136.639 123.483 139.07 127.312 143.671 131.837C150.891 138.936 159.577 142.447 163.663 143.39C176.273 146.302 183.89 141.849 189.514 138.546C191.163 142.609 195.32 148.909 200.155 152.881C194.343 156.86 180.111 167.698 158.665 163.602C143.351 160.676 134.424 155.547 129.589 152.069C126.552 157.835 124.656 164.596 124.721 168.159C125.47 210.56 148.18 229.16 155.733 233.997C149.347 234.861 135.036 237.969 128.344 240.777C124.551 218.881 123.033 205.385 118.589 193.754C114.692 183.567 113.363 181.116 113.877 168.068C114.373 155.683 121.736 149.189 117.018 134.262C115.487 129.425 113.343 123.567 114.334 117.632C115.122 112.906 117.442 111.391 119.508 109.089L119.501 109.096Z" fill="#8CB2B6"/>
<path d="M94.9861 81.2708C94.7319 81.2708 94.4778 81.2383 94.2236 81.1733C93.2722 80.9262 92.399 80.2761 91.6236 79.2229C90.3137 77.4546 89.6816 75.1077 89.8837 72.7998C90.1704 69.5167 91.5388 68.4115 92.6336 68.0669C94.6407 67.4298 96.9605 68.9251 97.749 69.8612C98.2899 70.5048 98.2378 70.9599 98.0944 71.233C97.9315 71.5515 97.534 71.6751 97.2147 71.5125C96.9671 71.3825 96.8302 71.1159 96.8693 70.8494C96.6021 70.3748 94.8818 69.0356 93.37 69.2306C92.1188 69.3866 91.3824 70.6284 91.1804 72.9103C91.0045 74.9126 91.5454 76.928 92.6727 78.4493C93.2657 79.2489 93.8978 79.743 94.5494 79.912C95.1555 80.0681 95.9831 79.873 96.2633 79.2879C96.4197 78.9629 96.8041 78.8264 97.13 78.9824C97.4558 79.1384 97.5926 79.522 97.4362 79.847C97.0192 80.7312 96.0352 81.2708 94.9861 81.2708Z" fill="#004952"/>
<path d="M119.045 80.159C118.902 80.159 118.752 80.1135 118.634 80.0095C118.354 79.782 118.315 79.3724 118.543 79.0929C119.397 78.0592 120.804 77.5196 121.906 77.1685C120.785 75.6407 119.26 72.4812 121.117 68.1579C121.261 67.8263 121.645 67.6768 121.971 67.8198C122.303 67.9628 122.453 68.3464 122.316 68.6715C120.355 73.2288 122.727 76.2388 123.496 77.0515C123.646 77.214 123.711 77.4416 123.652 77.6561C123.593 77.8706 123.437 78.0462 123.228 78.1177C123.085 78.1632 122.922 78.2152 122.74 78.2737C121.762 78.5793 120.277 79.0343 119.553 79.9185C119.423 80.0745 119.24 80.159 119.051 80.159H119.045Z" fill="#004952"/>
<path d="M120.583 90.4113C118.035 90.4113 115.48 89.6767 113.376 88.2269C113.082 88.0254 113.004 87.6158 113.206 87.3233C113.408 87.0307 113.819 86.9527 114.112 87.1542C117.585 89.5401 122.394 89.7677 126.083 87.7198C126.396 87.5443 126.793 87.6613 126.969 87.9734C127.145 88.2854 127.034 88.682 126.715 88.8575C124.845 89.8977 122.714 90.4113 120.583 90.4113Z" fill="#004952"/>
<path d="M127.959 72.0778C126.949 72.0778 125.939 71.8633 125.027 71.4212C124.701 71.2652 124.564 70.8751 124.721 70.5565C124.877 70.2315 125.268 70.095 125.587 70.251C127.288 71.0701 129.413 70.9271 130.996 69.8999C131.296 69.7049 131.7 69.7894 131.895 70.0885C132.091 70.3875 132.006 70.7906 131.706 70.9856C130.599 71.7072 129.276 72.0778 127.959 72.0778Z" fill="#004952"/>
<path d="M113.532 72.3772C113.48 72.3772 113.428 72.3772 113.376 72.3772C111.799 72.3381 110.235 71.701 109.081 70.6283C108.821 70.3813 108.801 69.9717 109.049 69.7117C109.296 69.4451 109.707 69.4321 109.967 69.6792C110.893 70.5373 112.144 71.0444 113.402 71.0769C114.659 71.1094 115.937 70.6608 116.907 69.8547C117.181 69.6207 117.592 69.6597 117.826 69.9327C118.061 70.2058 118.022 70.6153 117.748 70.8494C116.582 71.8246 115.057 72.3772 113.532 72.3772Z" fill="#004952"/>
<path d="M131.889 64.6994C131.85 64.6994 131.804 64.6994 131.765 64.6864C123.73 63.1391 115.324 63.4577 107.198 63.7697L106.279 63.8022C105.96 63.8087 105.68 63.5942 105.614 63.2821C105.608 63.2431 104.741 59.0369 103.998 56.976C103.875 56.6379 104.057 56.2673 104.396 56.1438C104.735 56.0203 105.106 56.1958 105.23 56.5404C105.843 58.2567 106.514 61.2538 106.781 62.4825L107.152 62.4695C115.115 62.1704 123.333 61.8584 131.296 63.2756C131.511 59.6155 131.244 52.1976 126.233 47.9718C118.002 41.0286 110.033 44.2077 106.618 47.1787C106.344 47.4127 105.934 47.3867 105.699 47.1137C105.465 46.8406 105.491 46.4311 105.764 46.197C112.659 40.1964 121.645 42.3938 127.08 46.9772C132.905 51.8921 132.847 60.5906 132.554 64.0948C132.54 64.2768 132.443 64.4458 132.299 64.5564C132.182 64.6409 132.045 64.6864 131.908 64.6864L131.889 64.6994Z" fill="#004952"/>
<path d="M97.508 69.0681C97.306 69.0681 97.104 68.9706 96.9802 68.7951C96.7717 68.5025 96.8368 68.0994 97.1301 67.8914C99.0003 66.5587 100.401 64.6213 101.066 62.4239C101.737 60.233 101.659 57.8406 100.844 55.6952C100.721 55.3571 100.89 54.9866 101.222 54.8565C101.561 54.7265 101.933 54.902 102.063 55.2336C102.975 57.6455 103.06 60.3305 102.311 62.801C101.561 65.2649 99.9843 67.4493 97.8795 68.9446C97.7622 69.0291 97.6319 69.0681 97.5015 69.0681H97.508Z" fill="#004952"/>
<path d="M91.0762 82.7594C90.8872 82.7594 90.7047 82.6813 90.5744 82.5253L88.4175 79.9248C88.1894 79.6453 88.2285 79.2357 88.5022 79.0082C88.7824 78.7806 89.1929 78.8196 89.421 79.0927L91.578 81.6932C91.806 81.9727 91.7669 82.3823 91.4932 82.6098C91.3694 82.7074 91.2261 82.7594 91.0762 82.7594Z" fill="#004952"/>
<path d="M90.809 85.3143C90.6786 85.3143 90.5483 85.2753 90.4375 85.1973L90.0139 84.8982C89.9032 84.8202 89.825 84.7162 89.7794 84.5927L88.4239 83.3444C88.3392 83.3054 88.261 83.2534 88.1959 83.1819L87.9547 82.9089C87.7267 82.6488 87.7397 82.2587 87.9873 82.0117C88.235 81.7711 88.6325 81.7647 88.8866 81.9987L91.2586 84.1766C91.5127 84.4106 91.5388 84.7942 91.3238 85.0608C91.1934 85.2168 91.0045 85.3013 90.8155 85.3013L90.809 85.3143Z" fill="#004952"/>
<path d="M89.9946 103.765C89.9033 103.765 89.8121 103.745 89.7274 103.706C89.4016 103.557 89.2517 103.173 89.4016 102.848C92.3666 96.3145 93.4483 90.6129 93.1355 83.1756C93.1225 82.818 93.4027 82.5125 93.7611 82.4995C94.126 82.4865 94.4258 82.7595 94.4388 83.1236C94.7646 90.782 93.6503 96.6525 90.5876 103.388C90.4768 103.628 90.2422 103.771 89.9946 103.771V103.765Z" fill="#004952"/>
<path d="M113.897 106.021C113.597 106.021 113.33 105.819 113.265 105.514L112.079 100.28C112.001 99.9291 112.222 99.5846 112.568 99.5001C112.92 99.422 113.265 99.6431 113.35 99.9876L114.536 105.221C114.614 105.572 114.392 105.917 114.047 106.001C114.001 106.014 113.949 106.014 113.904 106.014L113.897 106.021Z" fill="#004952"/>
<path d="M79.0403 50.9555C78.9752 50.9555 78.9165 50.949 78.8514 50.9295C78.506 50.8255 78.3105 50.4614 78.4148 50.1169C79.49 46.5347 83.1131 43.1021 88.1113 40.9372C94.9275 37.9856 102.734 38.0637 109.003 41.1647C109.322 41.3273 109.459 41.7108 109.296 42.0359C109.14 42.3544 108.742 42.491 108.423 42.3284C102.5 39.4029 95.0969 39.3249 88.6326 42.1334C84.058 44.1163 80.6173 47.3213 79.6659 50.4939C79.5812 50.7735 79.3206 50.9555 79.0403 50.9555Z" fill="#004952"/>
<path d="M72.9084 92.9079C72.5761 92.9079 72.2372 92.8949 71.8918 92.8624C68.4837 92.5503 65.0886 90.574 62.5863 87.4404C60.4424 84.7554 59.0935 80.8482 57.9531 77.032C57.8488 76.6874 58.0443 76.3234 58.3897 76.2259C58.7351 76.1218 59.1 76.3169 59.1977 76.6614C60.299 80.3541 61.5958 84.1183 63.6029 86.6278C65.8836 89.4883 68.9464 91.2891 72.0091 91.5687C76.0819 91.9392 81.7773 89.3452 84.6446 82.7726C86.9318 77.5391 86.8927 71.454 86.8602 66.0775C86.8602 65.72 87.1469 65.4274 87.5053 65.4209C87.8898 65.4339 88.1569 65.7069 88.1634 66.0645C88.196 71.5645 88.2351 77.7991 85.8371 83.2861C83.7583 88.045 78.8905 92.9014 72.9019 92.9014L72.9084 92.9079Z" fill="#004952"/>
<path d="M64.665 81.0495C62.6123 81.0495 60.2599 79.7232 58.0964 77.2788C57.8553 77.0122 57.8814 76.5962 58.1551 76.3621C58.4223 76.1216 58.8393 76.1476 59.0739 76.4206C61.3938 79.0341 63.9417 80.2368 65.7272 79.5672C67.9689 78.7221 69.22 75.0229 69.2396 69.1523C69.2722 60.0897 74.0683 55.6689 78.1737 54.6417C81.6013 53.7835 84.8531 55.1228 86.4496 58.0678C86.619 58.3864 86.5017 58.7764 86.1889 58.952C85.8696 59.121 85.4786 59.004 85.3027 58.6919C83.9798 56.254 81.3733 55.1878 78.493 55.9094C74.8438 56.8261 70.5755 60.8438 70.5429 69.1653C70.5168 77.4348 68.1579 80.0548 66.1899 80.7959C65.7077 80.978 65.1994 81.0625 64.6715 81.0625L64.665 81.0495Z" fill="#004952"/>
<path d="M83.7713 68.0731C83.6606 68.0731 83.5433 68.0406 83.439 67.9821C83.1327 67.8001 83.0285 67.397 83.2175 67.0914L84.8335 64.3999C85.016 64.0944 85.42 63.9904 85.7263 64.1789C86.0326 64.3609 86.1368 64.764 85.9478 65.0696L84.3318 67.761C84.208 67.9626 83.9929 68.0796 83.7713 68.0796V68.0731Z" fill="#004952"/>
<path d="M101.19 178.125C100.844 178.125 100.558 177.859 100.538 177.507C99.274 153.96 91.6627 144.52 80.6304 137.59C80.4609 137.486 80.3501 137.311 80.3306 137.116C80.3111 136.921 80.3762 136.726 80.5131 136.583L93.3244 123.658L74.5766 117.794C74.368 117.729 74.2051 117.56 74.1465 117.352C74.0878 117.144 74.1334 116.916 74.2768 116.747C82.253 107.49 88.2937 99.4868 88.3524 99.4088C88.5674 99.1227 88.978 99.0642 89.2647 99.2787C89.5514 99.4933 89.6101 99.9029 89.395 100.189C89.3364 100.267 83.5888 107.873 75.9059 116.845L94.732 122.735C94.947 122.8 95.1165 122.976 95.1686 123.197C95.2207 123.418 95.1621 123.652 94.9992 123.808L82.0053 136.914C93.0182 144.02 100.571 153.811 101.841 177.429C101.861 177.787 101.587 178.093 101.222 178.112C101.209 178.112 101.196 178.112 101.19 178.112V178.125Z" fill="#004952"/>
<path d="M58.3311 271.976C58.2529 271.976 58.1747 271.963 58.0965 271.931C57.7576 271.801 57.5947 271.424 57.7185 271.092C62.8991 257.635 62.645 239.614 60.1948 233.119C60.071 232.781 60.2404 232.41 60.5728 232.28C60.9116 232.157 61.283 232.326 61.4134 232.657C63.9939 239.503 64.3067 257.609 58.9371 271.554C58.8394 271.814 58.5917 271.97 58.3311 271.97V271.976Z" fill="#004952"/>
<path d="M59.4975 229.309C59.2238 229.309 58.9696 229.134 58.8784 228.86C51.6777 206.88 40.1501 122.449 84.3969 101.021C84.7227 100.865 85.1137 101.002 85.2701 101.32C85.4265 101.645 85.2896 102.035 84.9703 102.191C61.9216 113.354 55.2357 142.187 53.6913 164.414C51.8211 191.297 56.5129 217.444 60.123 228.457C60.2338 228.802 60.0514 229.166 59.706 229.277C59.6408 229.296 59.5691 229.309 59.504 229.309H59.4975Z" fill="#004952"/>
<path d="M52.1534 218.459C51.795 218.459 51.5017 218.166 51.5017 217.808C51.5017 217.451 51.795 217.158 52.1534 217.158C63.1988 217.158 71.1489 215.995 77.0984 213.492C72.3805 190.991 71.9569 167.145 75.8798 144.501C75.9385 144.15 76.2773 143.909 76.6357 143.974C76.9876 144.033 77.2287 144.371 77.1636 144.729C73.2407 167.385 73.6968 191.258 78.4799 213.745C78.5451 214.044 78.3887 214.35 78.1085 214.473C71.8526 217.23 63.8439 218.459 52.1534 218.459Z" fill="#004952"/>
<path d="M76.0428 225.409C75.7951 225.409 75.5605 225.272 75.4498 225.031C74.9089 223.874 73.1234 219.837 72.7454 216.638C72.7063 216.281 72.9605 215.956 73.3189 215.917C73.6773 215.871 74.0031 216.131 74.0422 216.489C74.3224 218.875 75.5671 222.184 76.6358 224.485C76.7856 224.81 76.6423 225.2 76.3164 225.35C76.2252 225.389 76.134 225.409 76.0428 225.409Z" fill="#004952"/>
<path d="M57.0929 230.993C51.6386 230.993 46.1843 230.193 40.9712 228.561C40.6258 228.451 40.4368 228.087 40.5411 227.749C40.6519 227.404 41.0168 227.216 41.3556 227.326C55.9851 231.903 72.5109 229.784 85.5569 221.657C85.8631 221.469 86.2672 221.56 86.4561 221.865C86.6451 222.171 86.5539 222.567 86.2476 222.762C77.5351 228.191 67.3042 230.999 57.0864 230.999L57.0929 230.993Z" fill="#004952"/>
<path d="M56.0567 278.451C55.8286 278.451 55.6135 278.334 55.4897 278.126C55.3073 277.814 55.418 277.418 55.7308 277.236C61.4718 273.94 66.4309 271.027 70.8034 268.459C85.3221 259.936 94.9665 254.28 113.239 245.933C104.656 225.512 104.233 203.07 103.822 181.363L103.777 179.081C103.379 158.622 102.884 133.163 92.9594 111.683L90.0401 106.43C89.8837 106.157 89.9553 105.806 90.1964 105.611C90.4441 105.41 90.796 105.416 91.0306 105.624C97.9445 111.599 107.38 111.93 114.503 106.45C114.79 106.229 115.2 106.281 115.415 106.567C115.63 106.853 115.585 107.262 115.298 107.477C108.495 112.717 99.717 112.996 92.6532 108.459L94.1194 111.098C104.181 132.871 104.676 158.479 105.074 179.061L105.119 181.343C105.53 203.135 105.96 225.668 114.679 246.011C114.816 246.336 114.672 246.713 114.353 246.856C95.768 255.314 86.0976 260.989 71.4616 269.577C67.0825 272.145 62.117 275.058 56.376 278.36C56.2717 278.419 56.1609 278.445 56.0501 278.445L56.0567 278.451Z" fill="#004952"/>
<path d="M128.344 241.427C128.233 241.427 128.129 241.401 128.031 241.349C127.862 241.258 127.744 241.096 127.705 240.914C126.5 235.102 125.62 229.517 124.766 224.121C122.942 212.543 121.215 201.601 116.556 189.918C112.822 180.557 112.079 170.012 114.451 160.221C114.848 158.57 115.343 156.918 115.819 155.313C116.927 151.594 118.074 147.745 118.067 143.864C118.067 139.957 116.888 136.076 115.754 132.318L115.65 131.98C114.346 127.65 113.278 123.736 113.454 119.66C113.662 114.836 115.787 110.682 119.149 108.543C119.423 108.368 119.794 108.426 120.003 108.673C122.14 111.241 124.942 114.622 127.744 118.009C130.54 121.383 133.329 124.757 135.46 127.312C135.668 127.559 135.662 127.923 135.44 128.164L125.561 139.027C128.279 140.015 129.875 143.045 130.025 145.73C130.201 148.87 128.937 151.841 127.816 154.468L117.917 177.651C117.774 177.982 117.396 178.132 117.064 177.995C116.732 177.852 116.582 177.475 116.718 177.144L126.617 153.96C127.679 151.47 128.885 148.642 128.728 145.808C128.585 143.253 126.871 140.399 124.265 140.041C124.023 140.009 123.821 139.846 123.743 139.619C123.659 139.391 123.711 139.138 123.874 138.962L134.104 127.715C132.026 125.212 129.386 122.027 126.747 118.841C124.108 115.655 121.469 112.47 119.39 109.967C116.666 111.956 114.946 115.558 114.77 119.719C114.607 123.593 115.643 127.397 116.914 131.609L117.018 131.947C118.178 135.79 119.377 139.768 119.384 143.864C119.384 147.934 118.217 151.874 117.083 155.683C116.614 157.27 116.125 158.908 115.734 160.527C113.421 170.057 114.151 180.323 117.781 189.437C122.492 201.25 124.225 212.263 126.063 223.92C126.878 229.069 127.712 234.393 128.839 239.906C137.082 236.85 146.649 234.855 153.83 233.652C132.664 220.812 123.502 186.798 123.997 167.262C124.004 166.904 124.304 166.605 124.669 166.631C125.027 166.638 125.314 166.937 125.301 167.294C125.02 178.223 127.686 191.778 132.43 203.545C136.45 213.524 143.814 226.813 156.052 233.424C156.3 233.554 156.43 233.834 156.384 234.107C156.339 234.38 156.117 234.595 155.843 234.64C148.382 235.823 137.591 237.956 128.585 241.388C128.507 241.414 128.429 241.434 128.35 241.434L128.344 241.427Z" fill="#004952"/>
<path d="M143.214 283.828C142.915 283.828 142.648 283.627 142.582 283.321C141.468 278.458 139.956 270.982 138.49 263.753C137.03 256.53 135.512 249.066 134.404 244.223C134.326 243.872 134.541 243.527 134.893 243.443C135.245 243.358 135.59 243.579 135.675 243.93C136.789 248.787 138.301 256.263 139.767 263.492C141.233 270.715 142.745 278.185 143.853 283.029C143.931 283.38 143.716 283.724 143.364 283.809C143.319 283.822 143.267 283.828 143.221 283.828H143.214Z" fill="#004952"/>
<path d="M63.466 284.979H63.44C63.0816 284.966 62.8014 284.66 62.8144 284.303L63.0685 278.309C63.0816 277.951 63.3813 277.672 63.7463 277.685C64.1047 277.698 64.3849 278.003 64.3718 278.361L64.1177 284.355C64.1047 284.706 63.8114 284.979 63.466 284.979Z" fill="#004952"/>
<path d="M109.928 283.828C109.583 283.828 109.296 283.562 109.277 283.217L107.537 252.505C107.517 252.148 107.791 251.842 108.149 251.823C108.514 251.803 108.814 252.076 108.834 252.434L110.574 283.145C110.593 283.503 110.319 283.809 109.961 283.828C109.948 283.828 109.935 283.828 109.922 283.828H109.928Z" fill="#004952"/>
<path d="M107.257 200.515C107.074 200.515 106.898 200.515 106.716 200.515C106.357 200.509 106.071 200.21 106.077 199.852C106.084 199.495 106.403 199.222 106.742 199.215C110.632 199.3 113.956 198.526 117.207 196.797C117.527 196.628 117.918 196.751 118.087 197.063C118.257 197.382 118.133 197.772 117.82 197.941C114.562 199.67 111.101 200.515 107.257 200.515Z" fill="#004952"/>
<path d="M172.115 144.976C167.879 144.976 163.064 144.163 157.616 142.174C148.154 138.722 141.605 130.68 135.825 123.58C131.635 118.438 128.018 113.998 124.128 112.275C123.802 112.132 123.652 111.748 123.795 111.417C123.939 111.085 124.323 110.942 124.656 111.085C128.839 112.932 132.547 117.482 136.835 122.755C142.511 129.724 148.936 137.616 158.065 140.945C178.195 148.285 189.332 139.034 194.173 132.864L194.388 132.591C197.503 128.762 197.594 123.06 197.666 118.893C197.725 115.298 197.77 112.463 199.914 112.463C202.514 112.463 202.586 115.317 202.645 117.612C202.677 118.861 202.716 120.414 203.212 120.746C203.251 120.772 203.361 120.843 203.668 120.733C205.46 120.07 208.822 115.077 210.191 110.188C210.288 109.843 210.647 109.642 210.992 109.739C211.338 109.837 211.54 110.194 211.442 110.539C210.021 115.616 206.528 121.058 204.117 121.949C203.348 122.235 202.801 122.04 202.482 121.825C201.42 121.123 201.38 119.433 201.335 117.645C201.27 114.96 201.048 113.764 199.908 113.764C199.048 113.764 199.002 116.384 198.963 118.919C198.891 123.275 198.793 129.236 195.392 133.417L195.19 133.677C191.449 138.442 184.125 144.976 172.108 144.976H172.115Z" fill="#004952"/>
<path d="M167.788 165.019C157.01 165.019 145.574 161.782 133.609 155.326C133.29 155.157 133.173 154.76 133.349 154.448C133.518 154.13 133.916 154.013 134.235 154.188C153.27 164.46 170.89 166.443 186.601 160.078C207.936 151.438 219.738 129.529 222.996 119.16C223.107 118.815 223.471 118.627 223.81 118.731C224.156 118.841 224.345 119.205 224.24 119.543C220.917 130.121 208.881 152.459 187.097 161.281C180.932 163.777 174.494 165.026 167.801 165.026L167.788 165.019Z" fill="#004952"/>
<path d="M215.599 127.618C215.482 127.618 215.358 127.585 215.254 127.52C214.948 127.332 214.856 126.928 215.052 126.623C217.808 122.254 219.991 117.71 221.21 113.835C221.321 113.491 221.686 113.302 222.025 113.406C222.37 113.517 222.559 113.881 222.455 114.219C221.204 118.197 218.968 122.846 216.16 127.306C216.036 127.501 215.821 127.611 215.606 127.611L215.599 127.618Z" fill="#004952"/>
<path d="M210.816 127.578C210.686 127.578 210.556 127.539 210.438 127.455C210.145 127.247 210.08 126.837 210.289 126.545C214.172 121.116 217.3 115.142 218.864 110.162C218.975 109.817 219.34 109.629 219.679 109.733C220.024 109.843 220.213 110.207 220.109 110.545C218.506 115.649 215.313 121.753 211.351 127.292C211.22 127.468 211.025 127.565 210.823 127.565L210.816 127.578Z" fill="#004952"/>
<path d="M208.503 123.996C208.379 123.996 208.255 123.964 208.145 123.886C207.845 123.691 207.76 123.288 207.962 122.982C211.142 118.178 213.638 113.159 214.987 108.855C215.098 108.511 215.463 108.322 215.801 108.426C216.147 108.537 216.336 108.901 216.232 109.239C214.844 113.653 212.296 118.789 209.05 123.697C208.927 123.886 208.718 123.99 208.503 123.99V123.996Z" fill="#004952"/>
<path d="M208.503 157.861C205.74 157.861 201.426 155.261 197.243 151.081C191.195 145.041 187.592 137.994 187.598 132.234C187.598 131.876 187.891 131.583 188.25 131.583C188.608 131.583 188.901 131.876 188.901 132.234C188.895 137.656 192.355 144.358 198.168 150.164C202 153.993 206.151 156.561 208.51 156.561C208.868 156.561 209.161 156.854 209.161 157.211C209.161 157.569 208.868 157.861 208.51 157.861H208.503Z" fill="#004952"/>
<path d="M85.2506 148.5C80.8129 148.5 77.1963 144.898 77.1963 140.464C77.1963 136.03 80.8064 132.429 85.2506 132.429C89.6949 132.429 93.305 136.03 93.305 140.464C93.305 144.898 89.6949 148.5 85.2506 148.5ZM85.2506 133.729C81.5297 133.729 78.4996 136.752 78.4996 140.464C78.4996 144.176 81.5297 147.199 85.2506 147.199C88.9715 147.199 92.0017 144.176 92.0017 140.464C92.0017 136.752 88.9715 133.729 85.2506 133.729Z" fill="#FF8D6E"/>
<path d="M85.2506 144.371C87.4136 144.371 89.167 142.622 89.167 140.464C89.167 138.306 87.4136 136.557 85.2506 136.557C83.0877 136.557 81.3342 138.306 81.3342 140.464C81.3342 142.622 83.0877 144.371 85.2506 144.371Z" fill="#FF8D6E"/>
<path d="M83.628 134.19C83.3934 134.19 83.1718 134.067 83.0545 133.852C80.5261 129.185 78.1411 124.582 76.8052 119.537C75.7495 115.539 74.9676 109.583 77.2809 103.901C79.4379 98.5965 84.1167 94.7218 89.193 94.0326C89.5514 93.9806 89.8772 94.2342 89.9294 94.5918C89.975 94.9493 89.7274 95.2744 89.369 95.3264C84.7488 95.9505 80.4805 99.5131 78.493 104.396C76.3165 109.746 77.0593 115.402 78.0694 119.212C79.3662 124.12 81.7121 128.645 84.2079 133.241C84.3773 133.56 84.26 133.95 83.9473 134.125C83.8495 134.177 83.7452 134.203 83.6345 134.203L83.628 134.19Z" fill="#FF8D6E"/>
<path d="M129.471 140.529C129.36 140.529 129.25 140.503 129.145 140.444C128.833 140.262 128.728 139.866 128.904 139.554C132.43 133.456 133.173 125.836 130.898 119.172C128.624 112.509 123.365 106.931 116.842 104.259C116.51 104.122 116.354 103.745 116.49 103.407C116.627 103.076 117.005 102.913 117.344 103.056C124.212 105.871 129.745 111.742 132.143 118.756C134.541 125.771 133.753 133.787 130.045 140.204C129.921 140.412 129.706 140.529 129.478 140.529H129.471Z" fill="#FF8D6E"/>
<path d="M131.459 164.369C131.381 164.369 131.303 164.356 131.224 164.323C130.807 164.161 130.41 164.07 129.993 163.966C129.55 163.855 129.093 163.745 128.605 163.556C128.266 163.426 128.103 163.049 128.227 162.718C128.357 162.38 128.729 162.211 129.067 162.341C129.484 162.503 129.882 162.594 130.299 162.698C130.599 162.77 130.905 162.848 131.224 162.945C134.678 158.316 135.968 152.244 134.678 146.614C134.092 144.053 132.547 141.199 129.98 140.88C127.653 140.588 125.575 142.532 124.232 144.209C121.235 147.973 119.13 153.271 118.556 158.459L120.948 159.734C121.267 159.903 121.384 160.299 121.215 160.611C121.046 160.93 120.648 161.047 120.335 160.878L117.559 159.396C117.331 159.272 117.194 159.025 117.22 158.758C117.748 153.109 119.931 147.505 123.216 143.39C125.431 140.607 127.829 139.294 130.143 139.58C133.381 139.983 135.265 143.325 135.955 146.315C137.363 152.478 135.877 159.129 131.974 164.102C131.85 164.265 131.654 164.349 131.459 164.349V164.369Z" fill="#FF8D6E"/>
<path d="M81.4839 65.8435C81.3145 65.8435 81.1451 65.7785 81.0147 65.6484C80.7671 65.3884 80.7736 64.9788 81.0278 64.7318L84.6965 61.1886C84.9572 60.9416 85.3677 60.9481 85.6154 61.2016C85.863 61.4617 85.8565 61.8712 85.6023 62.1183L81.9335 65.6614C81.8097 65.785 81.6468 65.8435 81.4774 65.8435H81.4839Z" fill="#004952"/>
<path d="M324.887 101.658C324.887 101.658 311.235 127.52 312.897 143.539C314.552 159.506 321.681 183.71 325.506 198.844C330.302 217.808 334.356 228.431 334.356 228.431L332.068 234.542C332.068 234.542 337.809 222.548 339.947 199.221C341.185 185.738 339.406 172.807 339.406 172.807C339.406 172.807 349.467 169.563 353.781 168.315C358.095 167.067 363.823 165.864 363.823 165.864C363.823 165.864 362.253 139.248 352.556 124.516C340.872 106.755 324.874 101.658 324.874 101.658H324.887Z" fill="#8CB2B6"/>
<path d="M361.823 192.721C360.226 217.802 379.704 248.254 386.891 260.307H354.961C354.961 260.307 351.709 251.212 348.627 242.78C357.059 220.656 358.408 209.026 361.823 192.721Z" fill="#8CB2B6"/>
<path d="M279.832 94.1562C279.832 94.1562 257.253 100.202 244.037 117.918C235.82 128.938 231.78 141.582 231.78 141.582L250.736 151.867C250.736 151.867 251.622 158.719 252.743 164.909C267.366 159.071 269.054 144.534 269.315 142.532C269.882 138.104 270.214 132.669 271.921 132.936C273.407 133.17 271.986 138.923 273.648 139.268C275.29 130.673 276.945 121.949 276.196 113.198C275.72 107.601 274.508 101.763 274.189 100.365C276.209 96.0871 279.845 94.1562 279.845 94.1562H279.832Z" fill="#8CB2B6"/>
<path d="M270.683 176.435C270.683 176.435 266.167 221.365 263.645 248.611C247.621 252.96 229.134 246.713 224.56 244.827C233.298 227.768 242.232 213.836 243.112 187.864C244.311 188.111 246.39 188.313 251.069 187.981C258.51 187.448 270.683 176.442 270.683 176.442V176.435Z" fill="#8CB2B6"/>
<path d="M234.093 221.436C230.079 221.436 226.071 220.845 222.24 219.649C221.894 219.538 221.705 219.174 221.81 218.836C221.92 218.491 222.285 218.303 222.624 218.413C233.292 221.748 245.334 220.201 254.842 214.285C255.148 214.096 255.552 214.188 255.741 214.493C255.93 214.799 255.839 215.195 255.532 215.39C249.127 219.382 241.6 221.449 234.087 221.449L234.093 221.436Z" fill="#004952"/>
<path d="M270.716 46.9381H270.696C270.338 46.9251 270.058 46.6261 270.064 46.2685C270.605 30.2041 277.877 22.0581 291.679 22.0581C299.466 22.0581 305.331 24.2295 309.098 28.5073C314.168 34.2608 313.809 41.8802 313.418 44.8903C313.373 45.2478 313.047 45.5014 312.688 45.4494C312.33 45.4038 312.082 45.0788 312.128 44.7212C312.493 41.8867 312.838 34.7159 308.12 29.3589C304.608 25.3737 299.075 23.3518 291.679 23.3518C278.529 23.3518 271.889 30.8607 271.367 46.301C271.354 46.6521 271.068 46.9316 270.716 46.9316V46.9381Z" fill="#004952"/>
<path d="M285.026 87.3491C284.172 87.3491 283.293 87.3166 282.38 87.2451C277.662 86.8875 272.944 84.3586 270.077 80.6399C267.471 77.2658 266.526 73.157 267.34 68.7492C267.666 66.9939 267.985 65.4726 268.298 64.0099C269.269 59.4395 270.032 55.8249 270.005 49.0246C270.005 48.6671 270.292 48.3745 270.657 48.3745C271.015 48.3745 271.309 48.6671 271.309 49.0246C271.335 55.9679 270.559 59.6411 269.569 64.2894C269.256 65.7522 268.937 67.2604 268.617 68.9963C267.875 73.027 268.735 76.7847 271.107 79.8597C273.759 83.2924 278.118 85.6328 282.478 85.9644C294.755 86.894 301.03 81.0885 302.262 76.9537C302.366 76.6091 302.725 76.4141 303.07 76.5181C303.415 76.6222 303.611 76.9797 303.507 77.3243C302.255 81.5435 296.338 87.3621 285.026 87.3621V87.3491Z" fill="#004952"/>
<path d="M282.048 61.8516C281.852 61.8516 281.663 61.7671 281.533 61.5981C281.514 61.5786 279.819 59.4332 277.682 59.3552C277.408 59.3422 277.167 59.1667 277.082 58.9001C276.998 58.6401 277.082 58.354 277.304 58.185C280.953 55.3895 282.009 53.101 282.009 48.0041C282.009 47.6466 282.302 47.354 282.66 47.354C283.019 47.354 283.312 47.6466 283.312 48.0041C283.312 52.932 282.282 55.63 279.181 58.3345C281.155 59.0171 282.484 60.7139 282.556 60.7984C282.778 61.0845 282.726 61.4876 282.439 61.7086C282.322 61.7996 282.178 61.8451 282.041 61.8451L282.048 61.8516Z" fill="#004952"/>
<path d="M284.739 73.5861C281.527 73.5861 278.138 72.4549 275.356 70.1795C275.075 69.9519 275.036 69.5423 275.264 69.2628C275.492 68.9832 275.903 68.9442 276.183 69.1718C281.233 73.2935 288.747 73.2545 292.272 69.0938C292.507 68.8207 292.917 68.7882 293.191 69.0157C293.465 69.2498 293.504 69.6594 293.269 69.9324C291.217 72.3574 288.076 73.5796 284.746 73.5796L284.739 73.5861Z" fill="#004952"/>
<path d="M313.738 59.9469C312.858 59.9469 311.796 59.6544 310.545 58.8547C310.238 58.6597 310.154 58.2566 310.349 57.9575C310.545 57.652 310.949 57.5675 311.248 57.7625C313.262 59.0498 314.819 58.9457 315.882 57.4505C317.589 55.0515 317.335 50.0911 315.432 48.6089C313.744 47.2891 311.359 49.558 310.088 51.0338C309.854 51.3068 309.443 51.3393 309.17 51.0988C308.896 50.8648 308.87 50.4552 309.104 50.1821C312.773 45.9369 315.145 46.7365 316.233 47.5882C318.664 49.4865 319.049 55.2401 316.937 58.2046C316.475 58.8547 315.445 59.9534 313.731 59.9534L313.738 59.9469Z" fill="#004952"/>
<path d="M317.204 101.008C316.917 101.008 316.65 100.82 316.572 100.527C313.373 88.5846 311.313 75.5627 310.466 61.8388C310.447 61.4812 310.72 61.1691 311.079 61.1496C311.437 61.1236 311.75 61.4032 311.769 61.7607C312.61 75.4002 314.65 88.3376 317.83 100.196C317.921 100.54 317.719 100.898 317.367 100.989C317.308 101.002 317.256 101.008 317.198 101.008H317.204Z" fill="#004952"/>
<path d="M282.426 100.105C282.387 100.105 282.348 100.105 282.309 100.092C281.957 100.027 281.722 99.6888 281.787 99.3312C282.087 97.7059 282.374 96.2431 282.66 94.7804C282.947 93.3241 283.227 91.8678 283.534 90.2556C283.599 89.9045 283.938 89.6704 284.296 89.7355C284.648 89.8005 284.883 90.1385 284.817 90.4961C284.518 92.1149 284.231 93.5777 283.944 95.0339C283.657 96.4902 283.371 97.953 283.071 99.5717C283.012 99.8838 282.739 100.105 282.432 100.105H282.426Z" fill="#004952"/>
<path d="M299.577 108.803C291.445 108.803 283.475 106.3 276.326 101.327C276.033 101.119 275.961 100.716 276.163 100.423C276.372 100.131 276.776 100.059 277.069 100.261C289.757 109.089 305.142 109.876 319.27 102.413C319.589 102.244 319.98 102.367 320.15 102.686C320.319 103.004 320.195 103.394 319.876 103.563C313.249 107.061 306.354 108.803 299.571 108.803H299.577Z" fill="#004952"/>
<path d="M247.185 188.963C244.357 188.963 241.678 188.365 239.385 187.175C235.761 185.296 232.783 181.831 230.998 177.417C229.603 173.965 228.887 169.953 228.743 164.785C228.294 149.098 233.07 133.417 242.2 120.635C251.329 107.854 264.623 98.2258 279.637 93.532C279.982 93.4215 280.347 93.6165 280.451 93.9546C280.562 94.2991 280.367 94.6632 280.028 94.7672C265.288 99.3831 252.229 108.836 243.262 121.39C234.295 133.943 229.603 149.338 230.046 164.746C230.19 169.752 230.881 173.627 232.21 176.929C233.878 181.057 236.635 184.288 239.984 186.024C243.744 187.968 248.677 188.196 253.512 186.642C257.781 185.27 261.554 182.553 265.196 179.926L265.731 179.543C276.854 171.54 285.684 154.507 292.135 142.07C293.035 140.34 293.888 138.696 294.696 137.168C294.866 136.849 295.257 136.726 295.576 136.895C295.895 137.064 296.013 137.454 295.85 137.773C295.042 139.294 294.195 140.932 293.295 142.661C286.785 155.215 277.871 172.404 266.5 180.589L265.965 180.973C262.238 183.658 258.38 186.434 253.916 187.871C251.662 188.599 249.374 188.956 247.185 188.956V188.963Z" fill="#004952"/>
<path d="M283.794 148.35C283.664 148.35 283.527 148.311 283.41 148.227C283.117 148.019 283.052 147.609 283.267 147.316C287.809 141.088 289.874 137.454 292.878 130.413C293.022 130.082 293.4 129.926 293.732 130.069C294.064 130.212 294.214 130.589 294.077 130.92C291.028 138.065 288.929 141.758 284.322 148.084C284.192 148.259 283.996 148.35 283.794 148.35Z" fill="#004952"/>
<path d="M281.201 144.403C281.077 144.403 280.953 144.371 280.842 144.293C280.543 144.091 280.464 143.688 280.66 143.389C284.576 137.545 289.138 127.208 290.917 123.034C291.06 122.703 291.438 122.553 291.771 122.69C292.103 122.833 292.253 123.21 292.116 123.541C290.324 127.747 285.717 138.175 281.742 144.111C281.618 144.299 281.409 144.397 281.201 144.397V144.403Z" fill="#004952"/>
<path d="M277.825 141.719C277.708 141.719 277.597 141.686 277.486 141.628C277.18 141.439 277.082 141.043 277.265 140.737C279.754 136.622 283.886 128.573 285.756 124.172C285.899 123.841 286.277 123.685 286.609 123.828C286.942 123.971 287.092 124.348 286.955 124.679C285.059 129.12 280.895 137.246 278.379 141.407C278.255 141.608 278.04 141.719 277.819 141.719H277.825Z" fill="#004952"/>
<path d="M252.919 165.292C252.574 165.292 252.235 165.253 251.909 165.175C249.166 164.519 247.784 161.346 247.804 155.748C247.804 155.391 248.097 155.098 248.456 155.098C248.814 155.098 249.107 155.391 249.107 155.748C249.088 160.598 250.163 163.42 252.216 163.907C255.422 164.675 262.075 159.428 266.187 151.263C268.116 147.42 268.689 142.597 269.152 138.715C269.569 135.179 269.823 133.046 270.911 132.396C271.172 132.24 271.596 132.104 272.156 132.325C273.577 132.877 273.492 134.756 273.414 136.407C273.381 137.181 273.329 138.351 273.564 138.598C273.564 138.598 273.577 138.611 273.642 138.611C273.941 138.611 275.616 138.065 279.337 127.306C279.454 126.968 279.826 126.786 280.165 126.903C280.504 127.02 280.686 127.39 280.569 127.728C276.835 138.52 274.906 139.905 273.642 139.905C273.238 139.905 272.879 139.762 272.619 139.489C272 138.839 272.052 137.682 272.11 136.342C272.162 135.244 272.228 133.742 271.674 133.527C271.609 133.501 271.583 133.501 271.576 133.501C271.048 133.703 270.696 136.68 270.436 138.858C269.986 142.629 269.373 147.791 267.34 151.835C263.906 158.654 257.54 165.279 252.919 165.279V165.292Z" fill="#004952"/>
<path d="M252.737 163.302C252.424 163.302 252.15 163.081 252.098 162.763C249.505 147.765 249.101 137.909 250.71 128.729C250.775 128.378 251.108 128.138 251.466 128.203C251.818 128.261 252.059 128.599 251.994 128.957C250.41 137.974 250.814 147.706 253.382 162.542C253.441 162.893 253.206 163.231 252.848 163.296C252.808 163.302 252.776 163.302 252.737 163.302Z" fill="#004952"/>
<path d="M295.602 236.044C286.89 236.044 278.014 234.998 268.285 232.93C267.933 232.852 267.712 232.508 267.783 232.157C267.855 231.805 268.207 231.584 268.559 231.656C290.22 236.265 307.593 235.745 328.523 229.855C328.869 229.758 329.227 229.959 329.325 230.304C329.423 230.648 329.221 231.006 328.875 231.103C317.126 234.406 306.491 236.038 295.602 236.038V236.044Z" fill="#004952"/>
<path d="M248.918 151.158C248.814 151.158 248.71 151.132 248.612 151.08L227.029 139.58C226.71 139.411 226.593 139.014 226.762 138.702C226.932 138.384 227.329 138.267 227.642 138.436L249.225 149.936C249.544 150.105 249.661 150.502 249.492 150.814C249.374 151.035 249.146 151.158 248.918 151.158Z" fill="#004952"/>
<path d="M338.35 270.903C338.272 270.903 338.187 270.89 338.109 270.858C337.777 270.721 337.614 270.344 337.751 270.013C385.92 150.957 355.482 118.152 328.393 103.83C328.074 103.661 327.956 103.27 328.119 102.952C328.289 102.633 328.68 102.516 328.999 102.679C356.531 117.235 387.517 150.463 338.956 270.494C338.852 270.747 338.611 270.903 338.35 270.903Z" fill="#004952"/>
<path d="M323.525 269.863C323.447 269.863 323.362 269.85 323.284 269.818C322.952 269.681 322.789 269.304 322.926 268.973C322.958 268.895 326.223 260.781 328.719 253.721C328.836 253.383 329.208 253.207 329.553 253.324C329.892 253.441 330.068 253.812 329.95 254.156C327.448 261.243 324.17 269.376 324.138 269.46C324.034 269.714 323.792 269.87 323.532 269.87L323.525 269.863Z" fill="#004952"/>
<path d="M326.256 275.923C326.178 275.923 326.093 275.91 326.015 275.877C325.682 275.741 325.519 275.364 325.656 275.032C328.823 267.198 331.169 261.022 333.75 253.728C333.867 253.39 334.238 253.214 334.584 253.331C334.923 253.448 335.099 253.819 334.981 254.163C332.394 261.477 330.048 267.666 326.868 275.526C326.764 275.78 326.523 275.936 326.262 275.936L326.256 275.923Z" fill="#004952"/>
<path d="M332.218 274.33C332.14 274.33 332.055 274.317 331.977 274.284C331.645 274.154 331.482 273.771 331.612 273.439C331.651 273.342 335.509 263.655 337.888 256.978C338.011 256.64 338.383 256.465 338.722 256.582C339.06 256.705 339.236 257.076 339.119 257.414C336.734 264.11 332.863 273.816 332.824 273.914C332.72 274.167 332.479 274.323 332.218 274.323V274.33Z" fill="#004952"/>
<path d="M320.964 262.751C320.84 262.751 320.717 262.719 320.606 262.641C320.306 262.446 320.221 262.043 320.417 261.744C323.056 257.745 325.435 250.523 325.852 247.506C325.891 247.246 325.852 247.155 325.852 247.155C325.558 247.051 324.138 247.636 323.291 247.981C321.271 248.813 318.755 249.84 317.96 247.968C316.878 245.406 319.244 244.171 321.981 242.741C325.213 241.05 329.644 238.742 331.964 233.229C341.276 211.106 343.185 168.302 330.029 137.734C329.885 137.402 330.042 137.018 330.368 136.882C330.7 136.739 331.084 136.895 331.221 137.22C337.379 151.529 340.768 169.797 340.774 188.657C340.774 205.801 337.998 222.229 333.163 233.73C330.661 239.672 325.995 242.11 322.58 243.891C319.589 245.452 318.592 246.121 319.159 247.46C319.452 248.15 321.466 247.324 322.795 246.778C324.503 246.076 325.852 245.523 326.679 246.16C327.083 246.472 327.24 246.986 327.148 247.681C326.718 250.815 324.249 258.311 321.512 262.459C321.388 262.647 321.179 262.751 320.964 262.751Z" fill="#004952"/>
<path d="M340.892 173.159C340.624 173.159 340.377 172.996 340.279 172.736C340.155 172.398 340.325 172.027 340.664 171.897C350.582 168.198 360.91 165.481 371.369 163.816C371.721 163.758 372.06 163.998 372.112 164.356C372.164 164.714 371.93 165.045 371.571 165.097C361.197 166.748 350.953 169.44 341.12 173.113C341.042 173.139 340.97 173.152 340.892 173.152V173.159Z" fill="#004952"/>
<path d="M252.665 284.907H252.652C252.294 284.9 252.007 284.601 252.014 284.244C252.059 281.864 252.098 279.621 252.137 277.502C252.313 267.698 252.444 260.612 252.854 253.903C252.874 253.545 253.187 253.266 253.545 253.292C253.903 253.311 254.177 253.623 254.157 253.981C253.753 260.664 253.623 267.737 253.447 277.528C253.408 279.654 253.369 281.89 253.323 284.276C253.317 284.634 253.024 284.913 252.672 284.913L252.665 284.907Z" fill="#004952"/>
<path d="M362.8 282.873C362.533 282.873 362.279 282.704 362.187 282.443L349.8 247.818C349.676 247.48 349.858 247.11 350.197 246.986C350.536 246.863 350.907 247.045 351.031 247.383L363.419 282.008C363.543 282.346 363.36 282.717 363.022 282.84C362.95 282.866 362.878 282.879 362.8 282.879V282.873Z" fill="#004952"/>
<path d="M295.042 282.872C294.696 282.872 294.41 282.599 294.39 282.255L292.983 253.968C292.963 253.61 293.243 253.305 293.602 253.285C293.967 253.259 294.266 253.545 294.286 253.903L295.693 282.19C295.713 282.547 295.433 282.853 295.074 282.872C295.061 282.872 295.055 282.872 295.042 282.872Z" fill="#004952"/>
<path d="M333.059 226.631C332.772 226.631 332.511 226.442 332.433 226.15C331.743 223.595 330.719 219.941 329.527 215.709C324.125 196.478 315.093 164.291 312.656 146.874C310.303 130.088 318.69 112.892 323.199 103.654C323.603 102.829 323.975 102.068 324.301 101.379C324.457 101.054 324.842 100.917 325.167 101.073C325.493 101.229 325.63 101.613 325.474 101.938C325.141 102.627 324.77 103.394 324.366 104.226C319.922 113.341 311.646 130.296 313.94 146.692C316.364 164.024 325.389 196.153 330.778 215.358C331.964 219.59 332.994 223.25 333.684 225.812C333.776 226.156 333.574 226.514 333.222 226.611C333.163 226.624 333.111 226.631 333.052 226.631H333.059Z" fill="#004952"/>
<path d="M329.351 197.336C329.051 197.336 328.784 197.128 328.719 196.829C328.699 196.738 326.621 187.389 325.578 176.201C324.21 161.573 325.148 150.703 328.354 143.877L320.801 140.808C320.612 140.73 320.469 140.568 320.417 140.366C320.365 140.165 320.417 139.95 320.547 139.794L335.574 121.701L324.333 101.983C324.157 101.671 324.262 101.275 324.574 101.099C324.887 100.924 325.285 101.034 325.461 101.34L336.93 121.448C337.067 121.682 337.04 121.975 336.865 122.183L322.118 139.937L329.494 142.934C329.664 143.006 329.794 143.136 329.859 143.311C329.924 143.487 329.911 143.669 329.827 143.832C321.825 159.512 329.911 196.173 329.99 196.543C330.068 196.894 329.846 197.239 329.494 197.317C329.449 197.33 329.397 197.33 329.351 197.33V197.336Z" fill="#004952"/>
<path d="M386.891 260.964H358.955C358.597 260.964 358.304 260.671 358.304 260.313C358.304 259.956 358.597 259.663 358.955 259.663H385.614C381.841 254.358 365.126 229.576 361.451 202.011C361.405 201.653 361.653 201.328 362.011 201.283C362.37 201.237 362.696 201.484 362.741 201.842C366.821 232.469 387.198 259.65 387.406 259.923C387.556 260.118 387.582 260.385 387.471 260.606C387.361 260.827 387.132 260.964 386.885 260.964H386.891Z" fill="#004952"/>
<path d="M251.049 250.717C238.609 250.717 227.974 246.908 224.319 245.432C224.149 245.36 224.012 245.224 223.954 245.048C223.888 244.873 223.908 244.684 223.993 244.522C237.175 220.051 239.912 212.139 242.278 191.602C242.317 191.244 242.643 190.991 243.001 191.03C243.36 191.069 243.614 191.394 243.575 191.752C241.203 212.315 238.472 220.344 225.485 244.496C230.972 246.628 246.885 251.861 263.007 248.097C263.105 244.08 264.238 233.418 265.542 221.163C267.197 205.612 269.067 187.987 269.067 181.213C269.067 180.856 269.36 180.563 269.719 180.563C270.077 180.563 270.37 180.856 270.37 181.213C270.37 188.059 268.494 205.723 266.832 221.306C265.529 233.561 264.297 245.133 264.297 248.617C264.297 248.916 264.095 249.176 263.802 249.248C259.475 250.308 255.161 250.724 251.049 250.724V250.717Z" fill="#004952"/>
<path d="M261.065 155.592C260.713 155.592 260.42 155.306 260.413 154.955C260.413 154.786 260.113 138.032 257.103 127.839C257.044 127.644 257.083 127.435 257.201 127.273C257.318 127.11 257.507 127.013 257.709 127.006L268.155 126.662L257.846 116.787C257.722 116.663 257.65 116.501 257.644 116.325C257.644 116.149 257.709 115.98 257.833 115.857L273.713 99.903C273.876 99.734 274.124 99.6754 274.345 99.734C274.574 99.799 274.749 99.9745 274.808 100.202C274.828 100.293 277.076 109.271 277.076 118.841C277.076 125.225 275.929 130.745 275.922 130.797C275.851 131.148 275.505 131.369 275.153 131.297C274.802 131.226 274.574 130.881 274.652 130.53C274.665 130.478 275.779 125.082 275.779 118.841C275.779 111.41 274.404 104.337 273.818 101.652L259.234 116.299L270.181 126.785C270.37 126.967 270.436 127.24 270.338 127.488C270.247 127.735 270.012 127.897 269.751 127.904L258.595 128.268C261.443 138.683 261.73 154.76 261.73 154.922C261.73 155.28 261.449 155.579 261.091 155.586H261.078L261.065 155.592Z" fill="#004952"/>
<path d="M328.002 138.702C323.564 138.702 319.948 135.101 319.948 130.667C319.948 126.233 323.558 122.631 328.002 122.631C332.446 122.631 336.056 126.233 336.056 130.667C336.056 135.101 332.446 138.702 328.002 138.702ZM328.002 123.932C324.281 123.932 321.251 126.955 321.251 130.667C321.251 134.379 324.281 137.402 328.002 137.402C331.723 137.402 334.753 134.379 334.753 130.667C334.753 126.955 331.723 123.932 328.002 123.932Z" fill="#FF8D6E"/>
<path d="M328.002 134.574C330.165 134.574 331.918 132.824 331.918 130.666C331.918 128.509 330.165 126.759 328.002 126.759C325.839 126.759 324.086 128.509 324.086 130.666C324.086 132.824 325.839 134.574 328.002 134.574Z" fill="#FF8D6E"/>
<path d="M259.735 112.574C259.377 112.574 259.09 112.288 259.084 111.93C258.953 100.254 263.886 94.5459 268.05 91.8154C272.592 88.8313 277.376 88.6233 279.181 89.4229C279.506 89.566 279.656 89.956 279.513 90.2811C279.37 90.6062 278.979 90.7557 278.653 90.6127C277.363 90.0406 273.003 90.1251 268.767 92.9011C264.877 95.456 260.263 100.826 260.387 111.911C260.387 112.268 260.1 112.561 259.742 112.567H259.735V112.574Z" fill="#FF8D6E"/>
<path d="M329.735 123.931C329.625 123.931 329.514 123.905 329.41 123.847C329.097 123.665 328.993 123.268 329.169 122.956C332.049 117.983 332.655 111.761 330.798 106.326C328.94 100.891 324.653 96.3403 319.322 94.1559C318.99 94.0194 318.833 93.6423 318.97 93.3043C319.107 92.9727 319.485 92.8167 319.824 92.9532C325.493 95.2806 330.055 100.124 332.036 105.91C334.017 111.696 333.365 118.314 330.302 123.606C330.179 123.814 329.964 123.931 329.735 123.931Z" fill="#FF8D6E"/>
<path d="M266.174 138.748C266.174 138.748 266.141 138.748 266.128 138.748C264.694 138.65 264.101 138.585 263.287 138.494L262.805 138.442C262.446 138.403 262.186 138.085 262.225 137.727C262.264 137.37 262.583 137.116 262.942 137.149L263.424 137.201C264.154 137.279 264.668 137.337 265.737 137.415C267.607 132.442 269.36 121.656 265.574 116.052C264.082 113.842 261.84 112.724 258.914 112.724C256.581 112.724 254.64 113.562 253.134 115.22C248.403 120.434 248.957 132.123 249.342 136.401L250.182 136.446C251.095 136.498 251.837 136.537 252.763 136.609C253.121 136.635 253.388 136.953 253.362 137.311C253.336 137.669 253.017 137.935 252.659 137.909C251.74 137.838 251.01 137.799 250.111 137.747L248.703 137.669C248.384 137.649 248.123 137.402 248.09 137.084C247.699 133.228 246.852 120.2 252.157 114.349C253.916 112.405 256.19 111.423 258.901 111.423C262.29 111.423 264.89 112.737 266.643 115.324C270.82 121.507 268.78 133.365 266.767 138.345C266.669 138.592 266.428 138.748 266.161 138.748H266.174Z" fill="#FF8D6E"/>
<path d="M474.942 245.647C477.933 253.481 482.684 263.701 484.261 279.524C484.808 284.998 485.746 285.785 482.358 285.974C480.716 286.065 462.065 286.565 453.568 286.494C440.124 262.595 433.934 210.41 433.934 210.41C433.934 210.41 437.479 231.357 441.154 250.204C431.568 261.074 432.52 280.103 434.559 285.987H404.271C404.271 285.987 405.033 261.815 405.985 243.982C406.936 226.15 408.885 215.02 411.289 196.446C448.133 204.644 471.814 196.569 476.525 194.833C477.086 199.553 477.366 216.144 474.942 245.653V245.647Z" fill="#8CB2B6"/>
<path d="M427.685 68.3399C427.391 68.3399 427.124 68.1384 427.052 67.8394C426.577 65.85 424.987 63.7761 424.967 63.7566C424.837 63.5876 424.798 63.3665 424.863 63.165C424.928 62.9635 425.084 62.8009 425.286 62.7359C426.85 62.2353 429.157 60.506 430.949 57.1514C431.119 56.8329 431.51 56.7158 431.829 56.8849C432.148 57.0539 432.266 57.4505 432.096 57.7625C430.61 60.545 428.564 62.6839 426.492 63.6526C427.059 64.4977 427.952 66.006 428.317 67.5273C428.401 67.8784 428.186 68.2294 427.834 68.3139C427.782 68.3269 427.73 68.3334 427.685 68.3334V68.3399Z" fill="#004952"/>
<path d="M429.62 92.667C425.325 92.667 421.005 91.4318 417.682 89.2214C414.541 87.1345 405.02 79.0795 414.371 62.9371C415.857 60.3691 416.822 57.4306 417.753 54.5896C420.034 47.6333 422.4 40.4365 432.702 40.4365C432.989 40.4365 433.243 40.6251 433.328 40.8981C433.412 41.1712 433.308 41.4702 433.067 41.6262C430.93 43.0695 430.487 46.034 432.07 48.368C434.383 51.7876 440.691 53.3544 450.864 46.5216C451.131 46.3461 451.489 46.3851 451.704 46.6191C451.926 46.8532 451.939 47.2108 451.737 47.4643C451.593 47.6463 448.257 52.0281 450.805 57.3071C450.961 57.6321 450.824 58.0222 450.499 58.1717C450.173 58.3278 449.782 58.1912 449.632 57.8662C447.892 54.258 448.563 51.0269 449.423 48.9661C439.701 54.6936 433.465 52.7433 430.995 49.0961C429.392 46.7232 429.463 43.8171 430.995 41.8148C423.084 42.5299 421.181 48.3355 418.998 54.9927C418.047 57.8987 417.056 60.9022 415.505 63.5872C409.575 73.8201 410.663 82.9998 418.405 88.1422C425.371 92.7645 436.97 92.8881 442.47 85.6717C442.685 85.3857 443.096 85.3272 443.383 85.5482C443.669 85.7628 443.728 86.1723 443.506 86.4584C440.222 90.7687 434.944 92.6735 429.626 92.6735L429.62 92.667Z" fill="#004952"/>
<path d="M459.439 100.3C459.283 100.3 459.133 100.248 459.009 100.137C445.09 87.8696 449.534 73.983 449.58 73.8465C449.639 73.6775 449.762 73.5345 449.932 73.463C450.095 73.3849 450.29 73.3849 450.453 73.463C454.441 75.1533 457.074 72.5203 458.019 71.3111C460.247 68.457 460.814 64.3093 459.25 62.2484C457.999 60.5971 455.464 60.4411 452.102 61.8063C451.769 61.9429 451.391 61.7803 451.255 61.4488C451.118 61.1172 451.281 60.7336 451.613 60.6036C456.95 58.4387 459.342 60.2135 460.293 61.4683C462.215 64.0037 461.655 68.7756 459.048 72.1172C456.826 74.9647 453.796 75.9659 450.649 74.9322C450.003 77.7342 448.322 88.9943 459.876 99.1816C460.143 99.4222 460.169 99.8317 459.935 100.098C459.804 100.241 459.628 100.319 459.446 100.319L459.439 100.3Z" fill="#004952"/>
<path d="M450.42 69.2436C450.303 69.2436 450.186 69.2111 450.082 69.1461C449.775 68.9576 449.678 68.561 449.867 68.2555C450.01 68.0214 451.32 65.967 453.157 65.7915C454.05 65.7005 454.878 66.0646 455.621 66.8642C455.862 67.1307 455.849 67.5403 455.582 67.7809C455.314 68.0214 454.904 68.0084 454.663 67.7419C454.213 67.2543 453.757 67.0332 453.288 67.0787C452.265 67.1763 451.274 68.4505 450.981 68.9316C450.857 69.1331 450.642 69.2436 450.427 69.2436H450.42Z" fill="#004952"/>
<path d="M440.62 110.136C431.014 110.136 422.08 106.014 416.216 98.7265C415.987 98.4469 416.033 98.0373 416.313 97.8098C416.594 97.5822 417.004 97.6278 417.232 97.9073C423.553 105.754 433.588 109.765 444.093 108.641C453.203 107.666 460.69 103.004 464.118 96.1715C464.281 95.8529 464.672 95.7229 464.991 95.8789C465.311 96.0415 465.441 96.4315 465.285 96.7501C461.661 103.986 453.79 108.907 444.236 109.928C443.024 110.058 441.825 110.123 440.626 110.123L440.62 110.136Z" fill="#004952"/>
<path d="M468.028 81.0561C464.555 81.0561 460.814 79.6843 457.087 76.9928C456.794 76.7848 456.728 76.3752 456.943 76.0827C457.152 75.7901 457.562 75.7251 457.856 75.9396C463.317 79.8858 468.738 80.809 473.13 78.5271C477.412 76.3037 480.227 71.2458 480.142 65.9473C480.057 61.0714 477.529 57.0862 473.195 55.0188C472.993 54.9213 472.857 54.7263 472.831 54.5052C472.805 54.2842 472.902 54.0631 473.078 53.9201C477.926 50.1429 478.22 44.0058 475.998 39.8971C473.182 34.6831 467.735 34.3191 463.577 35.7168C463.349 35.7948 463.095 35.7363 462.919 35.5738C462.743 35.4113 462.671 35.1577 462.737 34.9302C463.89 30.7434 463.186 24.9769 457.419 22.5324C453.379 20.8161 447.547 21.4597 444.288 26.9207C444.152 27.1483 443.891 27.2718 443.63 27.2328C443.37 27.1938 443.155 26.9987 443.096 26.7387C441.63 20.5301 435.289 17.8516 430.252 18.9438C425.586 19.9515 421.246 24.3007 423.058 33.4999C423.103 33.721 423.025 33.9485 422.862 34.1045C422.699 34.2605 422.465 34.3126 422.243 34.254C417.675 32.9928 413.948 33.786 411.745 36.4775C409.536 39.1754 409.178 43.5637 410.892 46.9184C411.758 48.6087 413.876 51.4172 418.34 51.1571C418.698 51.1376 419.005 51.4107 419.031 51.7682C419.05 52.1258 418.776 52.4314 418.418 52.4574C414.619 52.6654 411.452 50.8711 409.738 47.51C407.77 43.6613 408.181 38.7854 410.742 35.6583C412.143 33.942 415.381 31.374 421.611 32.7588C420.699 26.6087 422.348 19.3208 429.978 17.676C435.237 16.5448 441.773 19.0803 443.963 25.0874C447.592 20.27 453.581 19.4899 457.934 21.3427C461.818 22.9875 465.656 27.2978 464.268 34.163C470.765 32.4532 475.157 35.6063 477.144 39.286C479.503 43.6483 479.321 50.0649 474.642 54.3102C478.897 56.7026 481.367 60.8829 481.452 65.9343C481.55 71.7139 478.448 77.2464 473.743 79.6908C471.964 80.614 470.048 81.0691 468.041 81.0691L468.028 81.0561Z" fill="#004952"/>
<path d="M422.276 79.4116C419.141 79.4116 416.105 78.3324 413.635 76.226C409.725 72.8974 408.161 67.7355 409.64 63.0611C409.751 62.7166 410.116 62.528 410.455 62.6385C410.8 62.7491 410.989 63.1131 410.879 63.4512C409.536 67.6835 410.918 72.2018 414.482 75.2313C418.327 78.5014 423.455 79.0345 428.206 76.6616C428.525 76.4991 428.916 76.6291 429.079 76.9541C429.242 77.2727 429.112 77.6628 428.786 77.8253C426.674 78.8785 424.446 79.3986 422.269 79.3986L422.276 79.4116Z" fill="#004952"/>
<path d="M442.308 60.7268C442.079 60.7268 441.858 60.6098 441.741 60.3953C441.343 59.6997 440.6 59.2121 439.747 59.0885C438.912 58.9715 438.104 59.2186 437.531 59.7777C437.27 60.0247 436.86 60.0182 436.612 59.7647C436.365 59.5046 436.371 59.095 436.625 58.848C437.492 58.0094 438.704 57.6323 439.936 57.8078C441.18 57.9898 442.281 58.718 442.874 59.7647C443.05 60.0767 442.94 60.4733 442.627 60.6488C442.523 60.7073 442.418 60.7333 442.308 60.7333V60.7268Z" fill="#004952"/>
<path d="M427.45 57.145C427.183 57.145 426.935 56.9825 426.837 56.7159C426.577 56.0138 425.912 55.4742 425.052 55.2792C424.153 55.0776 423.266 55.2922 422.68 55.8578C422.419 56.1048 422.009 56.0983 421.761 55.8448C421.513 55.5847 421.52 55.1752 421.774 54.9281C422.68 54.0505 424.016 53.7124 425.345 54.0179C426.635 54.3105 427.652 55.1557 428.063 56.2739C428.186 56.6119 428.01 56.9825 427.678 57.106C427.606 57.132 427.528 57.145 427.456 57.145H427.45Z" fill="#004952"/>
<path d="M491.429 231.377C491.429 231.377 491.376 231.377 491.344 231.377C490.985 231.331 490.731 231.006 490.777 230.648C494.348 202.407 497.072 174.634 491.246 145.385C486.268 120.375 477.77 106.84 464.496 102.796C464.151 102.692 463.955 102.328 464.066 101.983C464.17 101.639 464.535 101.444 464.881 101.554C478.663 105.754 487.447 119.602 492.53 145.132C498.388 174.576 495.658 202.466 492.074 230.811C492.035 231.142 491.754 231.383 491.429 231.383V231.377Z" fill="#004952"/>
<path d="M479.301 234.627C479.262 234.627 479.23 234.627 479.191 234.62C478.839 234.562 478.598 234.224 478.656 233.873C479.008 231.766 479.399 226.201 479.595 220.337C479.608 219.98 479.901 219.7 480.266 219.707C480.624 219.72 480.904 220.019 480.898 220.376C480.702 226.292 480.305 231.929 479.947 234.081C479.894 234.399 479.614 234.62 479.308 234.62L479.301 234.627Z" fill="#004952"/>
<path d="M482.703 239.698C482.664 239.698 482.631 239.698 482.592 239.692C482.24 239.633 481.999 239.295 482.058 238.944C482.475 236.48 482.977 228.893 483.094 220.455C483.094 220.097 483.387 219.818 483.752 219.811C484.111 219.811 484.397 220.11 484.397 220.468C484.286 228.081 483.824 236.292 483.342 239.152C483.289 239.471 483.009 239.692 482.703 239.692V239.698Z" fill="#004952"/>
<path d="M487.024 236.018C486.984 236.018 486.952 236.018 486.913 236.012C486.561 235.953 486.32 235.615 486.378 235.264C486.737 233.145 487.141 226.91 487.336 220.441C487.349 220.084 487.643 219.804 488.008 219.811C488.366 219.824 488.653 220.123 488.64 220.48C488.47 226.071 488.079 233.021 487.662 235.479C487.61 235.797 487.33 236.018 487.024 236.018Z" fill="#004952"/>
<path d="M474.694 246.297C474.694 246.297 474.642 246.297 474.616 246.297C474.258 246.251 474.004 245.933 474.049 245.575C475.046 237.24 476.741 215.084 476.043 190.874C475.489 171.637 473.189 145.957 465.376 132.877C465.193 132.571 465.291 132.168 465.604 131.986C465.917 131.804 466.314 131.902 466.497 132.214C470.889 139.567 476.33 155.703 477.347 190.835C478.05 215.117 476.343 237.357 475.346 245.724C475.307 246.056 475.027 246.297 474.701 246.297H474.694Z" fill="#004952"/>
<path d="M443.291 200.762C436.456 200.762 429.294 200.177 421.487 199.026C420.862 198.909 406.812 196.172 400.96 194.06C400.791 194.001 400.661 193.878 400.589 193.715C400.517 193.552 400.511 193.37 400.582 193.208C406.864 177.625 410.657 153.239 410.878 142.343C411.283 122.28 413.915 112.223 422.119 99.3113C423.644 96.9059 423.429 94.2989 423.429 94.2729C423.397 93.9153 423.657 93.5968 424.016 93.5643C424.374 93.5318 424.693 93.7918 424.726 94.1494C424.739 94.2729 424.993 97.2179 423.221 100.007C415.166 112.684 412.586 122.586 412.182 142.369C411.96 153.219 408.233 177.319 402.049 193.058C408.161 195.113 421.572 197.72 421.715 197.746C442.073 200.749 457.38 199.943 474.525 194.95C474.87 194.853 475.235 195.048 475.333 195.392C475.431 195.737 475.235 196.101 474.89 196.198C464.359 199.267 454.252 200.769 443.304 200.769L443.291 200.762Z" fill="#004952"/>
<path d="M433.927 284.907C433.634 284.907 433.367 284.706 433.295 284.413C430.017 271.021 436.202 254.261 438.476 252.453C438.756 252.232 439.167 252.278 439.395 252.557C439.616 252.837 439.571 253.247 439.29 253.474C437.59 254.826 431.334 270.93 434.559 284.108C434.644 284.459 434.429 284.81 434.084 284.894C434.032 284.907 433.979 284.914 433.927 284.914V284.907Z" fill="#004952"/>
<path d="M404.271 284.907C403.912 284.907 403.619 284.615 403.619 284.257C403.619 243.514 410.22 199.189 410.285 198.747C410.338 198.389 410.67 198.142 411.028 198.201C411.387 198.253 411.628 198.585 411.576 198.942C411.511 199.384 404.922 243.618 404.922 284.257C404.922 284.615 404.629 284.907 404.271 284.907Z" fill="#004952"/>
<path d="M484.554 285.655C484.215 285.655 483.935 285.395 483.902 285.057C482.599 269.265 479.125 255.379 474.108 245.952C473.938 245.634 474.062 245.244 474.375 245.075C474.694 244.905 475.085 245.029 475.255 245.341C480.351 254.917 483.876 268.979 485.192 284.946C485.225 285.304 484.958 285.616 484.599 285.648C484.58 285.648 484.56 285.648 484.547 285.648L484.554 285.655Z" fill="#004952"/>
<path d="M452.023 284.29C451.789 284.29 451.561 284.16 451.443 283.939C441.734 265.274 438.808 243.768 436.677 228.061C435.595 220.116 434.748 213.849 433.334 210.67C433.191 210.345 433.334 209.955 433.667 209.812C433.992 209.669 434.383 209.812 434.527 210.144C436.012 213.485 436.873 219.843 437.967 227.885C440.092 243.495 442.992 264.877 452.603 283.34C452.766 283.659 452.643 284.049 452.323 284.218C452.225 284.27 452.128 284.29 452.023 284.29Z" fill="#004952"/>
<path d="M453.47 130.387L453.431 126.525L448.726 126.571L448.681 121.877L444.81 121.916L444.855 126.61L440.151 126.655L440.19 130.517L444.894 130.472L444.94 135.165L448.811 135.126L448.765 130.433L453.47 130.387Z" fill="#FF8D6E"/>
<path d="M384.708 145.892C378.159 145.892 371.402 145.197 364.364 143.805C364.012 143.734 363.784 143.396 363.849 143.045C363.921 142.694 364.26 142.46 364.618 142.531C380.473 145.658 394.894 145.223 408.702 141.198C409.047 141.101 409.412 141.296 409.51 141.641C409.614 141.985 409.412 142.349 409.067 142.447C401.188 144.742 393.115 145.892 384.708 145.892Z" fill="#004952"/>
<path d="M374.666 121.097C368.228 121.097 360.943 120.434 352.719 118.848C352.367 118.783 352.133 118.438 352.204 118.087C352.276 117.736 352.615 117.509 352.967 117.574C394.118 125.518 411.348 110.052 415.649 105.117C415.883 104.844 416.294 104.818 416.567 105.052C416.841 105.286 416.867 105.696 416.633 105.969C413.081 110.039 400.98 121.097 374.666 121.097Z" fill="#004952"/>
<path d="M467.429 32.6156C467.22 32.6156 467.018 32.5181 466.888 32.3296C466.686 32.0305 466.764 31.6275 467.057 31.4259C468.725 30.2882 470.556 29.4951 472.505 29.0595C473.821 28.7669 475.177 28.6499 476.532 28.7019C476.89 28.7149 477.171 29.0205 477.158 29.378C477.145 29.7356 476.838 30.0152 476.48 30.0022C475.235 29.9501 473.991 30.0607 472.785 30.3272C471 30.7238 469.318 31.4519 467.787 32.4986C467.676 32.5766 467.546 32.6091 467.422 32.6091L467.429 32.6156Z" fill="#004952"/>
<path d="M467.083 29.4825C466.907 29.4825 466.731 29.411 466.607 29.2745C466.36 29.0079 466.379 28.5983 466.64 28.3578C468.035 27.0706 469.631 26.0759 471.391 25.3933C472.72 24.8797 474.121 24.5611 475.548 24.4441C475.906 24.4116 476.219 24.6781 476.252 25.0422C476.278 25.3998 476.017 25.7118 475.652 25.7443C474.349 25.8483 473.072 26.1409 471.86 26.609C470.257 27.2266 468.797 28.1368 467.526 29.3135C467.402 29.4305 467.24 29.489 467.083 29.489V29.4825Z" fill="#004952"/>
<path d="M492.51 204.267C485.153 204.267 479.373 203.441 476.819 203.071C476.46 203.019 476.213 202.693 476.265 202.336C476.317 201.978 476.643 201.731 477.001 201.783C484.071 202.798 494.895 203.896 507.231 201.744C507.583 201.686 507.922 201.92 507.987 202.271C508.046 202.622 507.811 202.96 507.459 203.025C502.142 203.948 497.033 204.267 492.51 204.267Z" fill="#004952"/>
<path d="M312.773 56.0008C312.61 56.0008 312.447 55.9423 312.317 55.8123C311.698 55.2076 311.385 54.5315 311.385 53.7904C311.385 52.5942 312.219 51.7425 312.317 51.6515C312.571 51.398 312.988 51.4045 313.236 51.6645C313.49 51.9245 313.483 52.3341 313.223 52.5812C313.223 52.5812 312.682 53.1338 312.682 53.7969C312.682 54.174 312.858 54.525 313.223 54.8761C313.477 55.1296 313.483 55.5392 313.236 55.7928C313.105 55.9228 312.936 55.9878 312.773 55.9878V56.0008Z" fill="#004952"/>
<path d="M96.0809 75.7641C95.7876 75.7641 95.5204 75.569 95.4488 75.27C95.1685 74.1518 93.7805 73.9047 93.7675 73.9047C93.4156 73.8462 93.1745 73.5082 93.2332 73.1571C93.2918 72.806 93.6307 72.5655 93.9826 72.624C94.0738 72.637 96.2242 73.0271 96.7064 74.9579C96.7912 75.309 96.5826 75.6601 96.2307 75.7446C96.1786 75.7576 96.1265 75.7641 96.0743 75.7641H96.0809Z" fill="#004952"/>
<path d="M290.031 50.5524C290.571 50.5524 291.008 50.1158 291.008 49.5772C291.008 49.0387 290.571 48.6021 290.031 48.6021C289.491 48.6021 289.053 49.0387 289.053 49.5772C289.053 50.1158 289.491 50.5524 290.031 50.5524Z" fill="#004952"/>
<path d="M275.18 50.5524C275.719 50.5524 276.157 50.1158 276.157 49.5772C276.157 49.0387 275.719 48.6021 275.18 48.6021C274.64 48.6021 274.202 49.0387 274.202 49.5772C274.202 50.1158 274.64 50.5524 275.18 50.5524Z" fill="#004952"/>
<path d="M507.348 285.655H16.6516C16.2932 285.655 16 285.362 16 285.005C16 284.647 16.2932 284.354 16.6516 284.354H507.348C507.707 284.354 508 284.647 508 285.005C508 285.362 507.707 285.655 507.348 285.655Z" fill="#004952"/>
<path d="M118.107 98.2323C112.19 98.2323 106.8 95.8204 104.298 93.584C104.031 93.3434 104.005 92.9338 104.246 92.6673C104.487 92.4007 104.898 92.3747 105.165 92.6153C107.107 94.3511 112.15 96.9321 118.1 96.9321C124.46 96.9321 131.042 92.6218 131.042 85.4055C131.042 81.9599 130.305 79.9575 129.445 77.6431C128.468 74.9906 127.353 71.9805 127.353 66.2595C127.353 65.9019 127.647 65.6094 128.005 65.6094C128.363 65.6094 128.657 65.9019 128.657 66.2595C128.657 71.7465 129.68 74.516 130.664 77.1945C131.524 79.5284 132.338 81.7323 132.338 85.412C132.338 92.6023 126.083 98.2388 118.093 98.2388L118.107 98.2323Z" fill="#004952"/>
</g>
<defs>
<clipPath id="clip0_10735_17168">
<rect width="492" height="286" fill="white" transform="translate(16 0.5)"/>
</clipPath>
</defs>
</svg>
