<svg width="508" height="293" viewBox="0 0 508 293" fill="none" xmlns="http://www.w3.org/2000/svg">
<g clip-path="url(#clip0_7486_110782)">
<path d="M186.554 60.1444C198.503 60.1444 208.189 50.4582 208.189 38.5097C208.189 26.5612 198.503 16.875 186.554 16.875C174.606 16.875 164.919 26.5612 164.919 38.5097C164.919 50.4582 174.606 60.1444 186.554 60.1444Z" fill="#CBDDE0"/>
<path d="M186.555 60.5915C174.376 60.5915 164.473 50.6836 164.473 38.5099C164.473 26.3362 174.381 16.4238 186.555 16.4238C198.728 16.4238 208.636 26.3317 208.636 38.5099C208.636 50.688 198.728 60.5915 186.555 60.5915V60.5915ZM186.555 17.3176C174.872 17.3176 165.366 26.8233 165.366 38.5099C165.366 50.1965 174.872 59.6977 186.555 59.6977C198.237 59.6977 207.743 50.192 207.743 38.5099C207.743 26.8278 198.237 17.3176 186.555 17.3176V17.3176Z" fill="#004952"/>
<path d="M434.3 292.978H400.415C400.169 292.978 399.968 292.777 399.968 292.531C399.968 292.285 400.169 292.084 400.415 292.084H434.3C434.546 292.084 434.747 292.285 434.747 292.531C434.747 292.777 434.546 292.978 434.3 292.978Z" fill="#004952"/>
<path d="M507.553 292.978H473.668C473.422 292.978 473.221 292.777 473.221 292.531C473.221 292.285 473.422 292.084 473.668 292.084H507.553C507.799 292.084 508 292.285 508 292.531C508 292.777 507.799 292.978 507.553 292.978Z" fill="#004952"/>
<path d="M230.468 96.0133C230.468 96.0133 219.912 98.1898 216.895 99.3517C213.879 100.514 201.816 108.553 201.816 108.553C201.816 108.553 204.324 115.132 207.595 119.632C210.866 124.133 215.188 127.753 215.188 127.753L208.605 132.432C208.605 132.432 207.979 132.561 211.367 133.871C213.557 133.348 249.395 133.603 263.982 133.625C265.113 133.625 272.174 130.666 272.174 130.666L272.67 114.077C272.67 114.077 269.68 109.05 264.152 106.033C258.623 103.016 256.612 102.011 256.612 102.011C256.612 102.011 250.579 104.277 244.55 104.151C238.517 104.022 230.477 96.0044 230.477 96.0044L230.468 96.0133Z" fill="#CBDDE0"/>
<path d="M251.763 96.2319C245.667 96.2319 239.884 92.241 237.587 86.0871C237.502 85.8548 237.619 85.6 237.851 85.5106C238.083 85.4257 238.338 85.5419 238.428 85.7743C240.935 92.4958 247.848 96.4822 254.503 95.0431C258.248 94.2342 260.813 92.1517 262.118 88.8446C264.943 81.7075 261.18 71.0398 257.747 66.0747C256.152 63.7687 254.186 61.7978 252.353 60.6716C252.143 60.542 252.076 60.2694 252.206 60.0549C252.335 59.8449 252.608 59.7778 252.823 59.9074C253.962 60.6046 256.21 62.2671 258.485 65.5653C260.527 68.5193 262.302 72.7023 263.236 76.7513C264.013 80.1254 264.594 85.0146 262.95 89.1708C261.524 92.7684 258.749 95.0387 254.691 95.9101C253.716 96.1202 252.738 96.223 251.768 96.223L251.763 96.2319Z" fill="#004952"/>
<path d="M254.597 59.2372C254.566 59.2372 254.53 59.2372 254.498 59.2283C254.257 59.1747 254.105 58.9333 254.163 58.692C255.133 54.433 251.866 48.8511 251.227 48.002C251.08 47.8054 251.12 47.5238 251.316 47.3764C251.513 47.2289 251.795 47.2646 251.942 47.4657C252.662 48.4176 256.094 54.2453 255.039 58.8931C254.99 59.0987 254.807 59.2417 254.606 59.2417L254.597 59.2372Z" fill="#004952"/>
<path d="M222.423 59.2373C222.178 59.2373 221.977 59.0406 221.977 58.7948C221.977 58.549 222.173 58.3479 222.419 58.3434C225.194 58.3256 227.849 57.8295 230.303 56.8687C232.242 56.1044 233.489 55.2732 234.691 54.4643C235.482 53.937 236.296 53.3873 237.297 52.8689C240.729 51.0768 244.872 50.3841 249.609 50.8086C249.855 50.831 250.038 51.0499 250.016 51.2957C249.993 51.5415 249.774 51.7203 249.529 51.7024C244.966 51.2913 240.993 51.9527 237.712 53.6643C236.756 54.1604 235.996 54.6699 235.192 55.2106C233.949 56.0464 232.662 56.9044 230.629 57.7044C228.072 58.7099 225.311 59.2238 222.423 59.2417V59.2373Z" fill="#004952"/>
<path d="M232.479 84.8761C232.309 84.8761 232.144 84.7778 232.068 84.6079C231.456 83.2225 227.291 73.1806 226.629 70.9818C226.455 70.3964 226.298 69.7573 226.129 69.078C225.583 66.8658 224.909 64.1129 223.045 61.0292C222.915 60.8192 222.987 60.5421 223.197 60.417C223.407 60.2874 223.684 60.3589 223.809 60.5689C225.744 63.7687 226.437 66.5932 226.996 68.8679C227.161 69.5338 227.313 70.164 227.483 70.7271C228.135 72.8945 232.274 82.8695 232.881 84.2459C232.98 84.4739 232.881 84.7375 232.654 84.8359C232.595 84.8627 232.533 84.8761 232.475 84.8761H232.479Z" fill="#004952"/>
<path d="M229.963 98.4445C229.905 98.4445 229.842 98.4311 229.784 98.4042C229.556 98.3059 229.458 98.0422 229.556 97.8143L236.613 81.8196C235.978 82.0252 235.165 82.1324 234.334 81.8285C232.93 81.3101 232.407 79.956 232.059 79.0577C231.04 76.421 230.897 72.0145 233.301 70.9464C234.968 70.2045 236.979 71.4335 237.766 71.9966C237.967 72.1396 238.012 72.4212 237.869 72.6223C237.726 72.8234 237.444 72.8681 237.243 72.7251C236.725 72.3541 234.941 71.1967 233.663 71.7642C231.862 72.5642 232.005 76.4254 232.894 78.7359C233.198 79.527 233.618 80.6129 234.642 80.9928C235.777 81.4129 236.93 80.747 237.261 80.537C237.426 80.4297 237.645 80.4431 237.793 80.5727C237.945 80.7023 237.994 80.9124 237.913 81.0956L230.374 98.1853C230.298 98.3506 230.137 98.4534 229.963 98.4534V98.4445Z" fill="#004952"/>
<path d="M239.013 71.8042C238.83 71.8042 238.66 71.6925 238.593 71.5093L236.582 65.9811C236.497 65.7487 236.618 65.4939 236.85 65.409C237.082 65.3241 237.337 65.4448 237.422 65.6772L239.433 71.2054C239.518 71.4378 239.397 71.6925 239.165 71.7774C239.116 71.7953 239.062 71.8042 239.013 71.8042V71.8042Z" fill="#004952"/>
<path d="M240.018 69.793C239.831 69.793 239.656 69.6723 239.594 69.4891L238.088 64.9664C238.012 64.734 238.137 64.4793 238.369 64.4033C238.602 64.3229 238.856 64.4525 238.932 64.6849L240.438 69.2075C240.514 69.4399 240.389 69.6947 240.157 69.7751C240.112 69.793 240.063 69.7975 240.014 69.7975L240.018 69.793Z" fill="#004952"/>
<path d="M246.552 66.7764C246.356 66.7764 246.177 66.6468 246.123 66.4501L244.112 59.4114C244.045 59.1745 244.184 58.9287 244.42 58.8572C244.657 58.7902 244.903 58.9287 244.975 59.1656L246.986 66.2043C247.053 66.4412 246.914 66.687 246.677 66.7585C246.637 66.7719 246.597 66.7764 246.552 66.7764Z" fill="#004952"/>
<path d="M249.064 66.276C248.84 66.276 248.644 66.1062 248.621 65.8782C248.532 65.0559 248.367 64.2381 248.134 63.4426C247.888 62.6024 247.558 61.7846 247.16 61.007C247.048 60.788 247.133 60.5198 247.352 60.4036C247.571 60.2919 247.839 60.3768 247.956 60.5958C248.38 61.4226 248.729 62.2941 248.992 63.1879C249.243 64.0325 249.417 64.904 249.511 65.7799C249.538 66.0257 249.359 66.2447 249.113 66.2715C249.095 66.2715 249.082 66.2715 249.064 66.2715V66.276Z" fill="#004952"/>
<path d="M245.046 67.2817C244.992 67.2817 244.939 67.2727 244.885 67.2504C244.273 67.0135 243.634 66.8527 242.981 66.7767C242.351 66.7007 241.708 66.7007 241.077 66.7767C240.832 66.8035 240.608 66.6337 240.581 66.3879C240.555 66.1421 240.724 65.9186 240.97 65.8918C241.672 65.8069 242.387 65.8069 243.089 65.8918C243.813 65.9812 244.528 66.1599 245.207 66.4192C245.435 66.5085 245.551 66.7677 245.462 66.9957C245.395 67.1744 245.225 67.2817 245.046 67.2817V67.2817Z" fill="#004952"/>
<path d="M250.574 65.2706C250.454 65.2706 250.328 65.2214 250.239 65.1231C250.074 64.9399 250.092 64.6583 250.275 64.493C250.758 64.0595 251.303 63.6975 251.888 63.4159C252.402 63.1701 252.943 62.9914 253.502 62.8796C253.743 62.8305 253.98 62.9869 254.029 63.2282C254.078 63.4696 253.922 63.7064 253.68 63.7556C253.193 63.8539 252.724 64.0103 252.277 64.2248C251.768 64.4662 251.294 64.7835 250.874 65.1589C250.789 65.2348 250.682 65.2706 250.574 65.2706V65.2706Z" fill="#004952"/>
<path d="M243.035 73.8151C242.95 73.8151 242.861 73.7883 242.785 73.7392C242.579 73.6006 242.526 73.3236 242.664 73.118C242.839 72.8588 243.808 71.5538 245.511 71.4153C246.57 71.3304 247.393 71.737 247.795 71.9828C248.005 72.1124 248.067 72.3895 247.938 72.5996C247.808 72.8096 247.531 72.8722 247.321 72.7426C247.017 72.5504 246.383 72.242 245.583 72.3046C244.287 72.4074 243.54 73.4174 243.402 73.6185C243.317 73.7481 243.174 73.8151 243.031 73.8151H243.035Z" fill="#004952"/>
<path d="M253.086 72.3093C252.983 72.3093 252.876 72.2735 252.796 72.202C252.608 72.0411 252.59 71.7596 252.751 71.5719C252.885 71.4199 254.087 70.0926 255.692 70.4233C256.13 70.5127 256.536 70.7138 256.898 71.0222C257.086 71.1831 257.108 71.4646 256.948 71.6523C256.787 71.84 256.505 71.8624 256.317 71.7015C256.072 71.4914 255.799 71.3574 255.513 71.2948C254.391 71.0624 253.435 72.1439 253.426 72.1528C253.336 72.2556 253.211 72.3093 253.086 72.3093V72.3093Z" fill="#004952"/>
<path d="M252.585 79.8486C252.442 79.8486 252.299 79.7771 252.214 79.6475C252.076 79.4419 252.134 79.1648 252.34 79.0263L254.784 77.3951C254.051 76.899 253.372 76.3225 252.764 75.6835C251.625 74.4857 250.749 73.0825 250.159 71.5138C250.074 71.2814 250.19 71.0267 250.418 70.9373C250.65 70.8479 250.905 70.9686 250.994 71.1965C251.544 72.6534 252.357 73.9539 253.412 75.0667C254.123 75.8175 254.936 76.4655 255.83 77.0018C255.96 77.0823 256.044 77.2208 256.049 77.3728C256.053 77.5247 255.977 77.6722 255.848 77.7571L252.831 79.7682C252.755 79.8173 252.67 79.8441 252.585 79.8441V79.8486Z" fill="#004952"/>
<path d="M254.851 87.3921C254.762 87.3921 254.673 87.3921 254.579 87.3921C251.366 87.2893 249.296 85.3318 248.738 84.7375C248.568 84.5587 248.577 84.2727 248.76 84.1073C248.939 83.9375 249.225 83.9464 249.39 84.1297C249.886 84.6615 251.736 86.4089 254.606 86.5027C257.296 86.5921 259.151 85.2067 259.821 84.6034C260.004 84.438 260.286 84.4559 260.451 84.6391C260.617 84.8224 260.599 85.1039 260.416 85.2693C259.687 85.9218 257.712 87.3965 254.847 87.3965L254.851 87.3921Z" fill="#004952"/>
<path d="M238.007 77.8377C237.828 77.8377 237.663 77.7304 237.592 77.5561C237.507 77.3461 237.162 76.6266 236.331 76.2959C235.576 75.9964 234.906 76.1975 234.651 76.2959C234.423 76.3852 234.164 76.2735 234.07 76.0456C233.98 75.8177 234.092 75.5585 234.32 75.4646C234.673 75.3261 235.612 75.0445 236.662 75.4646C237.819 75.9294 238.298 76.926 238.418 77.221C238.512 77.4489 238.4 77.7081 238.173 77.8019C238.119 77.8243 238.061 77.8332 238.007 77.8332V77.8377Z" fill="#004952"/>
<path d="M246.521 104.602C243.88 104.602 240.635 104.111 237.301 102.417C231.035 99.2351 228.385 93.8096 227.536 91.6243C227.447 91.3964 227.563 91.1371 227.791 91.0478C228.019 90.9584 228.278 91.0746 228.367 91.3025C229.176 93.3896 231.71 98.5781 237.703 101.622C243.656 104.647 249.31 103.659 251.464 103.096C251.701 103.034 251.946 103.177 252.009 103.414C252.072 103.65 251.928 103.896 251.692 103.959C250.646 104.231 248.809 104.602 246.521 104.602V104.602Z" fill="#004952"/>
<path d="M260.626 159.768C258.346 159.768 237.793 159.648 218.562 155.487C198.063 151.049 187.372 143.894 186.787 134.219C186.059 122.188 195.725 113.456 200.914 108.763L201.508 108.222C209.928 100.58 219.126 97.6575 225.355 96.5537C225.597 96.509 225.829 96.6744 225.874 96.9157C225.919 97.157 225.753 97.3894 225.512 97.4341C219.394 98.5201 210.371 101.389 202.107 108.888L201.508 109.429C196.427 114.019 186.975 122.564 187.672 134.165C188.056 140.511 193.754 149.208 218.741 154.616C237.882 158.758 258.342 158.879 260.612 158.879C260.858 158.879 261.059 159.08 261.059 159.326C261.059 159.572 260.858 159.773 260.612 159.773L260.626 159.768Z" fill="#004952"/>
<path d="M256.505 146.469C252.872 146.469 248.836 145.982 247.924 145.289C247.746 145.151 247.643 144.99 247.616 144.806C247.522 144.096 248.425 143.774 249.672 143.332C250.66 142.979 252.318 142.389 252.166 141.808C252.103 141.562 251.991 141.473 251.906 141.419C251.357 141.097 249.882 141.486 248.179 141.937C245.739 142.581 242.396 143.47 238.405 143.363C234.253 143.256 223.014 142.013 208.368 132.816C208.239 132.736 208.158 132.593 208.158 132.441C208.158 132.289 208.234 132.146 208.359 132.061C212.48 129.37 215.733 127.015 221.128 122.291C225.378 118.564 229.422 114.52 233.15 110.27C233.31 110.082 233.596 110.064 233.78 110.229C233.967 110.39 233.985 110.676 233.82 110.86C230.066 115.141 225.994 119.212 221.713 122.966C217.079 127.024 213.905 129.478 209.432 132.427C223.603 141.173 234.401 142.366 238.423 142.469C242.289 142.572 245.56 141.705 247.947 141.075C250.079 140.512 251.486 140.141 252.353 140.646C252.688 140.842 252.916 141.155 253.028 141.58C253.386 142.952 251.495 143.627 249.971 144.172C249.551 144.319 248.966 144.529 248.662 144.695C249.962 145.271 256.036 145.928 260.063 145.37C260.308 145.334 260.532 145.508 260.568 145.749C260.603 145.991 260.429 146.219 260.188 146.254C259.133 146.402 257.846 146.469 256.505 146.469V146.469Z" fill="#004952"/>
<path d="M258.865 149.963C258.78 149.963 258.699 149.963 258.614 149.963C256.25 149.95 253.859 149.78 251.517 149.458C251.272 149.423 251.102 149.199 251.138 148.953C251.173 148.708 251.397 148.538 251.643 148.574C253.949 148.895 256.295 149.061 258.619 149.074C261.108 149.088 263.629 148.918 266.096 148.574C266.341 148.542 266.565 148.712 266.601 148.953C266.636 149.199 266.462 149.423 266.221 149.458C263.794 149.794 261.318 149.968 258.869 149.968L258.865 149.963Z" fill="#004952"/>
<path d="M260.067 153.449C256.997 153.449 253.926 153.06 250.946 152.296C250.709 152.234 250.561 151.992 250.624 151.751C250.686 151.51 250.928 151.367 251.169 151.429C254.11 152.185 257.117 152.551 260.156 152.555C262.641 152.551 265.139 152.283 267.575 151.755C267.816 151.702 268.053 151.858 268.107 152.1C268.161 152.341 268.004 152.578 267.763 152.631C265.265 153.168 262.704 153.445 260.156 153.449C260.125 153.449 260.094 153.449 260.067 153.449V153.449Z" fill="#004952"/>
<path d="M260.474 156.815C260.013 156.815 259.553 156.806 259.097 156.792C256.344 156.699 253.582 156.314 250.901 155.657C250.659 155.599 250.516 155.358 250.574 155.117C250.633 154.875 250.874 154.732 251.115 154.79C253.739 155.434 256.438 155.805 259.128 155.899C261.278 155.975 263.446 155.867 265.582 155.59C265.828 155.559 266.051 155.729 266.082 155.975C266.114 156.22 265.944 156.444 265.698 156.475C263.968 156.703 262.216 156.815 260.474 156.815V156.815Z" fill="#004952"/>
<path d="M259.62 131.117C259.419 131.117 259.236 130.979 259.187 130.778C258.507 127.967 257.828 125.089 257.176 122.228C255.987 117.022 255.33 114.157 254.659 110.654C253.842 106.377 253.162 101.97 252.644 97.5548C252.617 97.309 252.791 97.0855 253.037 97.0587C253.283 97.0274 253.506 97.2062 253.533 97.452C254.047 101.85 254.722 106.234 255.54 110.488C256.21 113.979 256.863 116.839 258.047 122.032C258.699 124.892 259.379 127.766 260.058 130.577C260.116 130.818 259.969 131.059 259.727 131.117C259.692 131.126 259.656 131.131 259.62 131.131V131.117Z" fill="#004952"/>
<path d="M270.681 112.017C270.574 112.017 270.462 111.977 270.377 111.896C268.652 110.287 266.806 108.781 264.894 107.409C262.235 105.505 259.383 103.83 256.416 102.422C256.192 102.315 256.098 102.051 256.201 101.827C256.309 101.604 256.572 101.51 256.796 101.613C259.808 103.038 262.708 104.746 265.408 106.681C267.352 108.075 269.229 109.608 270.981 111.239C271.159 111.409 271.173 111.691 271.003 111.869C270.914 111.963 270.797 112.012 270.677 112.012L270.681 112.017Z" fill="#004952"/>
<path d="M216.895 129.611C216.797 129.611 216.703 129.58 216.618 129.518C212.743 126.465 209.333 122.886 206.478 118.868C203.702 114.966 201.486 110.703 199.886 106.194C199.805 105.961 199.926 105.706 200.158 105.622C200.391 105.541 200.645 105.662 200.73 105.894C202.304 110.327 204.484 114.519 207.206 118.349C210.013 122.296 213.365 125.817 217.172 128.811C217.364 128.963 217.4 129.245 217.248 129.437C217.159 129.549 217.029 129.607 216.895 129.607V129.611Z" fill="#004952"/>
<path d="M257.546 134.112H214.254C214.008 134.112 213.807 133.91 213.807 133.665C213.807 133.419 214.008 133.218 214.254 133.218H257.546C257.792 133.218 257.993 133.419 257.993 133.665C257.993 133.91 257.792 134.112 257.546 134.112Z" fill="#004952"/>
<path d="M184.914 134.112H152.585C152.339 134.112 152.138 133.91 152.138 133.665C152.138 133.419 152.339 133.218 152.585 133.218H184.914C185.16 133.218 185.361 133.419 185.361 133.665C185.361 133.91 185.16 134.112 184.914 134.112Z" fill="#004952"/>
<path d="M271.182 149.718C271.079 149.718 270.981 149.682 270.9 149.619C270.788 149.53 270.726 149.396 270.735 149.253L272.746 101.501C272.755 101.309 272.884 101.139 273.072 101.09L320.324 87.9329C320.561 87.8658 320.807 88.0044 320.874 88.2457C320.941 88.4826 320.802 88.7284 320.561 88.7954L273.622 101.867L271.651 148.69L320.829 135.774C321.066 135.712 321.312 135.855 321.374 136.091C321.437 136.328 321.294 136.574 321.057 136.637L271.293 149.704C271.258 149.713 271.217 149.718 271.182 149.718Z" fill="#004952"/>
<path d="M271.182 149.718C271.114 149.718 271.047 149.704 270.98 149.669L248.863 138.612C248.702 138.532 248.604 138.357 248.617 138.179C248.63 137.996 248.755 137.844 248.925 137.785L269.532 131.252C269.769 131.176 270.02 131.305 270.096 131.542C270.171 131.779 270.042 132.029 269.805 132.105L250.248 138.308L271.378 148.873C271.597 148.985 271.687 149.253 271.579 149.472C271.499 149.628 271.342 149.718 271.177 149.718H271.182Z" fill="#004952"/>
<path d="M302.224 110.636C298.743 111.543 296.705 115.011 296.799 117.528C296.919 120.745 300.012 123.963 303.918 123.436C309.062 122.743 311.211 115.972 308.423 112.92C307.636 112.057 306.456 111.494 304.838 111.45" fill="#FF8D6E"/>
<path d="M303.082 123.94C301.527 123.94 300.034 123.395 298.805 122.358C297.339 121.125 296.423 119.324 296.356 117.545C296.249 114.752 298.537 111.137 302.117 110.207C302.354 110.145 302.6 110.288 302.662 110.529C302.725 110.766 302.582 111.011 302.34 111.074C299.181 111.896 297.156 115.069 297.25 117.514C297.308 119.047 298.104 120.602 299.382 121.679C300.651 122.747 302.242 123.216 303.864 122.997C306.094 122.698 307.931 121.12 308.785 118.774C309.54 116.687 309.272 114.511 308.101 113.228C307.332 112.388 306.233 111.941 304.834 111.901C304.588 111.892 304.392 111.686 304.401 111.441C304.41 111.195 304.615 110.994 304.861 111.007C306.488 111.056 307.837 111.615 308.762 112.625C310.179 114.176 310.51 116.647 309.629 119.078C308.664 121.742 306.555 123.538 303.989 123.882C303.69 123.923 303.391 123.94 303.091 123.94H303.082Z" fill="#004952"/>
<path d="M409.201 127.238C408.236 122.867 401.791 110.202 385.287 100.58C385.287 97.443 385.287 95.3291 383.016 90.2612C386.386 81.6047 388.093 57.6059 367.518 54.4597C353.976 53.8161 349.78 66.1596 346.861 78.8294C344.828 86.7664 345.605 93.7694 351.527 98.1715C351.527 100.978 351.147 99.7893 349.744 100.259C333.378 103.999 339.277 142.058 333.199 167.772C335.724 168.394 345.427 168.805 345.427 168.805L346.441 162.593L347.402 157.771C347.402 157.771 364.541 158.495 381.555 157.744C379.991 156.055 386.315 154.683 389.877 152.251C384.098 147.666 382.94 141.874 382.94 137.2C382.94 132.525 385.662 125.468 385.662 125.468C385.662 125.468 396.326 133.705 397.094 134.205C396.906 139.792 394.806 146.527 392.536 149.825C393.988 153.163 396.929 156.805 400.383 158.754C403.141 154.902 404.508 153.239 406.734 148.421C409.264 142.947 411.377 135.019 409.192 127.238H409.201ZM357.073 93.9527C351.715 92.8354 348.327 88.9786 349.882 79.893C352.604 72.5057 352.363 62.0213 362.105 62.7363C368.233 62.7363 373.609 69.2254 373.609 78.016C373.609 96.1693 361.542 94.8867 357.069 93.9527H357.073Z" fill="#FF8D6E"/>
<path d="M332.172 192.495C332.127 192.495 332.078 192.486 332.029 192.473C331.796 192.397 331.667 192.142 331.747 191.905C332.569 189.434 333.302 183.347 333.284 181.265C332.829 181.89 332.145 182.954 331.6 183.799C330.585 185.376 329.624 186.869 329.083 187.392C328.543 187.915 327.761 187.977 327.144 187.553C326.527 187.133 326.308 186.386 326.599 185.698C326.692 185.475 326.925 185.104 327.273 184.545C328.172 183.11 329.669 180.711 330.339 178.369C334.33 164.407 335.349 149.718 336.247 136.753C337.602 117.232 338.67 101.809 349.378 99.4944C349.619 99.4408 349.856 99.5972 349.91 99.8385C349.963 100.08 349.807 100.317 349.565 100.37C339.514 102.542 338.464 117.67 337.137 136.815C336.234 149.82 335.211 164.559 331.197 178.615C330.496 181.077 328.954 183.544 328.033 185.019C327.743 185.483 327.492 185.886 327.425 186.042C327.278 186.395 327.443 186.672 327.653 186.815C327.863 186.958 328.19 187.016 328.471 186.748C328.94 186.297 329.959 184.715 330.858 183.316C332.927 180.103 333.258 179.656 333.803 179.973C334.053 180.116 334.473 180.357 333.879 185.323C333.62 187.503 333.128 190.614 332.601 192.192C332.538 192.379 332.364 192.495 332.176 192.495H332.172Z" fill="#004952"/>
<path d="M334.875 196.343C334.853 196.343 334.826 196.343 334.804 196.339C334.558 196.299 334.397 196.071 334.433 195.825C334.839 193.34 335.179 190.811 335.434 188.313C335.666 186.038 335.818 184.089 335.934 181.801C335.948 181.555 336.167 181.363 336.404 181.377C336.649 181.39 336.842 181.6 336.828 181.846C336.712 184.152 336.56 186.114 336.323 188.402C336.064 190.923 335.724 193.465 335.313 195.968C335.277 196.187 335.09 196.343 334.871 196.343H334.875Z" fill="#004952"/>
<path d="M337.78 195.767C337.753 195.767 337.722 195.767 337.695 195.758C337.454 195.713 337.293 195.476 337.342 195.235C337.727 193.237 338.04 191.204 338.272 189.188C338.513 187.074 338.656 185.269 338.737 183.142C338.746 182.896 338.956 182.699 339.201 182.713C339.447 182.721 339.639 182.932 339.631 183.177C339.546 185.327 339.407 187.155 339.161 189.291C338.929 191.329 338.612 193.385 338.223 195.405C338.183 195.619 337.995 195.767 337.785 195.767H337.78Z" fill="#004952"/>
<path d="M340.587 194.364C340.556 194.364 340.525 194.364 340.493 194.355C340.252 194.306 340.096 194.064 340.149 193.823C340.538 191.986 340.851 190.114 341.079 188.25C341.342 186.1 341.499 183.915 341.544 181.748C341.548 181.502 341.754 181.319 341.999 181.31C342.245 181.314 342.442 181.52 342.437 181.765C342.393 183.96 342.232 186.181 341.968 188.357C341.736 190.243 341.418 192.147 341.025 194.006C340.98 194.216 340.793 194.359 340.587 194.359V194.364Z" fill="#004952"/>
<path d="M341.195 169.23C340.354 169.23 339.519 169.189 338.679 169.109C334.674 168.729 330.728 167.415 327.264 165.306C327.054 165.176 326.987 164.904 327.117 164.694C327.247 164.484 327.519 164.417 327.729 164.546C331.077 166.584 334.893 167.858 338.763 168.224C342.012 168.533 345.262 168.224 348.417 167.304C348.654 167.236 348.904 167.371 348.971 167.607C349.038 167.844 348.904 168.095 348.667 168.162C346.218 168.872 343.715 169.23 341.199 169.23H341.195Z" fill="#004952"/>
<path d="M351.54 269.399C348.738 269.399 346.128 268.809 344.104 267.634C343.97 267.558 343.889 267.415 343.88 267.263C341.986 208.62 342.973 186.619 345.753 162.07C345.78 161.824 346.003 161.646 346.249 161.677C346.495 161.704 346.669 161.927 346.642 162.173C343.871 186.641 342.884 208.58 344.765 266.986C348.613 269.1 354.606 269.019 359.858 266.785C363.057 225.187 364.894 212.74 366.798 201.796C366.838 201.554 367.071 201.393 367.316 201.434C367.558 201.474 367.723 201.706 367.678 201.952C365.775 212.897 363.938 225.356 360.725 267.129C360.711 267.294 360.608 267.437 360.461 267.504C357.574 268.773 354.454 269.412 351.536 269.412L351.54 269.399Z" fill="#004952"/>
<path d="M387.593 269.399C385.814 269.399 384.053 269.256 382.494 268.961C382.297 268.925 382.154 268.765 382.132 268.568C382.038 267.629 381.166 263.384 379.844 256.957C375.808 237.343 367.406 196.531 364.93 169.65C364.908 169.404 365.087 169.185 365.332 169.163C365.578 169.14 365.797 169.319 365.819 169.565C368.291 196.402 376.684 237.177 380.72 256.774C381.931 262.66 382.766 266.722 382.981 268.139C387.119 268.858 392.594 268.501 395.78 267.303C395.696 254.544 396.209 245.253 396.728 237.843C397.072 232.923 397.354 227.908 397.631 223.064C398.131 214.255 398.645 205.148 399.534 196.214L399.548 196.075C399.883 192.733 400.504 186.507 399.07 178.57C398.238 173.963 396.835 169.435 394.891 165.114C394.788 164.89 394.891 164.622 395.115 164.524C395.338 164.421 395.606 164.524 395.704 164.747C397.675 169.136 399.101 173.735 399.946 178.409C401.398 186.467 400.772 192.773 400.433 196.16L400.419 196.299C399.53 205.21 399.016 214.309 398.516 223.109C398.243 227.958 397.957 232.972 397.613 237.901C397.094 245.356 396.576 254.714 396.67 267.603C396.67 267.786 396.563 267.951 396.393 268.018C394.216 268.912 390.878 269.399 387.589 269.399H387.593Z" fill="#004952"/>
<path d="M398.484 175.906C395.807 175.906 392.639 175.214 389.89 172.72C389.707 172.555 389.693 172.273 389.859 172.09C390.024 171.907 390.306 171.893 390.489 172.058C395.016 176.17 400.826 175.008 403.119 174.32C403.356 174.248 403.606 174.382 403.677 174.619C403.749 174.856 403.615 175.106 403.378 175.178C402.319 175.495 400.549 175.911 398.484 175.911V175.906Z" fill="#004952"/>
<path d="M356.698 152.368C352.399 152.368 348.788 152.35 346.602 152.305C346.365 152.301 346.173 152.109 346.164 151.872C346.084 149.284 346.576 147.439 347.201 145.097C347.483 144.042 347.8 142.849 348.1 141.45C348.935 137.526 346.906 134.38 344.94 131.337C342.897 128.168 340.784 124.892 342.03 120.839C342.379 119.704 343.161 118.198 344.064 116.455C345.856 113 348.086 108.701 348.086 105.072C348.086 104.826 348.287 104.625 348.533 104.625C348.779 104.625 348.98 104.826 348.98 105.072C348.98 108.915 346.692 113.322 344.855 116.866C343.97 118.568 343.206 120.043 342.88 121.102C341.753 124.758 343.666 127.721 345.686 130.854C347.746 134.049 349.878 137.356 348.967 141.638C348.663 143.059 348.341 144.265 348.059 145.329C347.487 147.465 347.031 149.181 347.045 151.42C352.368 151.514 364.707 151.465 375.629 151.42C378.959 151.407 382.159 151.394 385.001 151.385C385.247 151.385 385.448 151.586 385.448 151.832C385.448 152.077 385.251 152.278 385.001 152.278C382.159 152.287 378.959 152.301 375.629 152.314C369.238 152.341 362.365 152.368 356.689 152.368H356.698Z" fill="#004952"/>
<path d="M387.817 150.875C387.682 150.875 387.544 150.812 387.459 150.696C387.343 150.54 387.164 150.334 386.954 150.093C384.84 147.671 379.218 141.231 384.259 126.756C384.34 126.523 384.594 126.398 384.827 126.479C385.059 126.559 385.184 126.814 385.104 127.046C380.232 141.03 385.604 147.184 387.629 149.499C387.861 149.762 388.04 149.972 388.179 150.151C388.326 150.348 388.286 150.629 388.089 150.777C388.009 150.835 387.915 150.866 387.821 150.866L387.817 150.875Z" fill="#004952"/>
<path d="M382.177 175.317C382.029 175.317 381.886 175.245 381.801 175.115C381.667 174.91 381.725 174.633 381.931 174.499C386.172 171.719 407.432 156.801 409.349 135.895C410.412 124.32 402.882 112.861 386.967 101.841C386.766 101.702 386.713 101.421 386.856 101.22C386.994 101.019 387.276 100.965 387.477 101.108C403.678 112.325 411.333 124.056 410.238 135.98C408.281 157.297 386.722 172.434 382.418 175.249C382.342 175.299 382.257 175.321 382.172 175.321L382.177 175.317Z" fill="#004952"/>
<path d="M375.513 172.934C375.361 172.934 375.213 172.858 375.133 172.72C375.003 172.51 375.07 172.233 375.28 172.103C380.286 169.046 381.872 168.05 385.121 165.52C385.318 165.368 385.595 165.404 385.747 165.596C385.899 165.793 385.863 166.07 385.671 166.222C382.382 168.783 380.782 169.784 375.745 172.863C375.674 172.908 375.593 172.93 375.513 172.93V172.934Z" fill="#004952"/>
<path d="M375.951 169.498C375.79 169.498 375.638 169.413 375.558 169.261C375.442 169.042 375.522 168.774 375.741 168.657C379.267 166.758 380.791 165.811 382.865 163.952C383.048 163.786 383.33 163.804 383.495 163.987C383.66 164.17 383.643 164.452 383.459 164.617C381.319 166.539 379.759 167.509 376.161 169.444C376.094 169.48 376.023 169.498 375.951 169.498V169.498Z" fill="#004952"/>
<path d="M378.288 174.633C378.145 174.633 378.007 174.566 377.922 174.441C377.779 174.24 377.832 173.958 378.034 173.819C381.059 171.715 382.766 170.517 385.573 168.318C385.765 168.166 386.047 168.202 386.199 168.394C386.351 168.586 386.315 168.868 386.123 169.02C383.298 171.232 381.582 172.439 378.543 174.548C378.467 174.602 378.378 174.628 378.288 174.628V174.633Z" fill="#004952"/>
<path d="M376.943 164.282C376.76 164.282 376.59 164.171 376.523 163.992C376.438 163.759 376.554 163.505 376.787 163.42C381.618 161.641 384.675 159.116 385.349 158.45C385.104 158.289 384.228 158.374 383.642 158.432C382.587 158.54 381.591 158.638 381.086 158.097C380.925 157.923 380.751 157.61 380.836 157.096C381.005 156.077 382.377 155.478 384.281 154.651C386.847 153.534 390.364 152.006 392.165 148.81C393.738 146.017 395.74 141.2 396.366 134.058C395.141 132.927 392.151 130.456 388.992 127.846C385.385 124.865 381.653 121.786 379.571 119.9C379.388 119.735 379.374 119.453 379.54 119.27C379.705 119.087 379.986 119.073 380.17 119.239C382.243 121.111 385.962 124.186 389.564 127.158C392.88 129.897 396.008 132.48 397.139 133.553C397.237 133.647 397.286 133.781 397.277 133.915C396.661 141.338 394.583 146.352 392.947 149.248C390.998 152.703 387.325 154.303 384.639 155.469C383.182 156.104 381.805 156.703 381.72 157.239C381.707 157.311 381.698 157.431 381.743 157.48C381.948 157.699 382.918 157.601 383.557 157.538C384.545 157.44 385.474 157.346 385.98 157.802C386.123 157.932 386.297 158.169 386.297 158.557C386.297 158.611 386.288 158.665 386.27 158.714C386.118 159.134 382.592 162.226 377.099 164.251C377.05 164.269 376.997 164.278 376.943 164.278V164.282Z" fill="#004952"/>
<path d="M362.088 158.361C361.936 158.361 361.784 158.361 361.632 158.361C356.448 158.352 351.192 158.227 346.008 157.977C345.856 157.968 345.718 157.883 345.642 157.749C345.566 157.615 345.566 157.454 345.637 157.315L345.771 157.069C346.294 156.1 346.643 155.461 346.473 153.539C346.45 153.293 346.634 153.074 346.879 153.056C347.13 153.029 347.344 153.217 347.362 153.463C347.532 155.38 347.215 156.243 346.759 157.119C351.697 157.342 356.698 157.463 361.632 157.467C367.679 157.476 373.81 157.32 379.844 157.002C380.089 156.989 380.3 157.177 380.313 157.427C380.326 157.673 380.139 157.883 379.888 157.896C373.989 158.209 368.001 158.365 362.083 158.365L362.088 158.361Z" fill="#004952"/>
<path d="M404.129 160.747C404.088 160.747 404.044 160.743 404.004 160.729C397.394 158.812 392.187 151.97 390.149 146.428C390.064 146.196 390.185 145.941 390.413 145.856C390.645 145.771 390.9 145.892 390.985 146.12C392.947 151.461 397.939 158.043 404.249 159.871C404.486 159.938 404.625 160.189 404.553 160.425C404.495 160.622 404.316 160.747 404.124 160.747H404.129Z" fill="#004952"/>
<path d="M334.509 281.336C334.294 281.336 334.102 281.179 334.067 280.96C334.026 280.719 334.192 280.486 334.438 280.446C343.251 279.016 344.819 276.674 344.819 270.797C344.819 270.552 345.02 270.351 345.266 270.351C345.512 270.351 345.713 270.552 345.713 270.797C345.713 276.831 344.104 279.785 334.585 281.331C334.563 281.331 334.536 281.336 334.513 281.336H334.509Z" fill="#004952"/>
<path d="M322.331 286.73C322.085 286.73 321.884 286.529 321.884 286.283C321.884 284.759 323.591 282.855 326.04 282.56C326.286 282.529 326.509 282.708 326.536 282.949C326.567 283.195 326.389 283.418 326.147 283.445C324.092 283.691 322.778 285.286 322.778 286.278C322.778 286.524 322.577 286.725 322.331 286.725V286.73Z" fill="#004952"/>
<path d="M354.044 293L323.015 292.978C321.812 292.978 320.972 291.896 320.972 290.926V289.228C320.972 288.249 321.736 287.431 322.711 287.36L326.612 287.083C327.113 287.047 327.51 286.631 327.519 286.131L327.055 281.555C327.055 281.555 327.055 281.523 327.055 281.51C327.055 280.88 327.506 280.348 328.127 280.25L331.908 279.637C332.252 279.584 332.61 279.669 332.887 279.879C333.168 280.093 333.343 280.402 333.383 280.75C333.562 282.332 334.196 286.462 334.344 286.904C334.362 286.962 334.415 287.002 334.478 287.007C337.432 287.11 340.431 287.105 343.389 286.993C344.332 286.958 345.396 286.958 346.544 286.958C349.811 286.958 353.914 286.958 355.147 285.966C357.458 284.102 356.949 281.407 356.354 278.288C355.84 275.584 355.308 272.791 356.564 270.168C356.671 269.944 356.94 269.85 357.159 269.957C357.382 270.065 357.476 270.333 357.369 270.552C356.242 272.912 356.743 275.562 357.23 278.122C357.82 281.237 358.432 284.46 355.706 286.663C354.227 287.856 350.325 287.856 346.54 287.856C345.409 287.856 344.346 287.856 343.421 287.892C340.444 288.003 337.423 288.008 334.447 287.905C334.018 287.892 333.633 287.606 333.499 287.195C333.307 286.618 332.663 282.292 332.498 280.862C332.485 280.759 332.435 280.665 332.351 280.603C332.266 280.54 332.158 280.513 332.056 280.531L328.275 281.144C328.096 281.175 327.962 281.322 327.953 281.505L328.418 286.077C328.418 286.077 328.418 286.109 328.418 286.122C328.418 287.101 327.653 287.919 326.679 287.99L322.778 288.267C322.268 288.303 321.87 288.732 321.87 289.241V290.94C321.87 291.409 322.317 292.097 323.019 292.097L354.048 292.119C354.732 292.119 356.001 291.976 356.77 291.02C357.525 290.082 357.681 288.558 357.235 286.488C357.181 286.247 357.333 286.01 357.574 285.957C357.816 285.903 358.052 286.055 358.106 286.296C358.616 288.643 358.401 290.417 357.467 291.579C356.461 292.826 354.893 293.013 354.048 293.013L354.044 293Z" fill="#004952"/>
<path d="M373.037 281.336C372.822 281.336 372.63 281.179 372.594 280.96C372.554 280.719 372.72 280.486 372.965 280.446C381.778 279.016 383.347 276.674 383.347 270.797C383.347 270.552 383.548 270.351 383.794 270.351C384.04 270.351 384.241 270.552 384.241 270.797C384.241 276.831 382.632 279.785 373.113 281.331C373.09 281.331 373.064 281.336 373.041 281.336H373.037Z" fill="#004952"/>
<path d="M360.859 286.73C360.613 286.73 360.412 286.529 360.412 286.283C360.412 284.759 362.119 282.855 364.568 282.56C364.814 282.529 365.037 282.708 365.064 282.949C365.095 283.195 364.916 283.418 364.675 283.445C362.619 283.691 361.305 285.286 361.305 286.278C361.305 286.524 361.104 286.725 360.859 286.725V286.73Z" fill="#004952"/>
<path d="M392.37 292.978H361.837C360.394 292.978 359.5 291.914 359.5 290.926V289.228C359.5 288.249 360.264 287.431 361.238 287.36L365.14 287.083C365.641 287.047 366.038 286.631 366.047 286.131L365.582 281.555C365.582 281.555 365.582 281.523 365.582 281.51C365.582 280.88 366.034 280.348 366.655 280.25L370.436 279.637C370.78 279.584 371.138 279.669 371.415 279.879C371.696 280.093 371.871 280.402 371.911 280.75C372.09 282.332 372.724 286.462 372.872 286.904C372.889 286.962 372.943 287.002 373.006 287.007C375.96 287.11 378.959 287.105 381.917 286.993C382.86 286.958 383.933 286.958 385.072 286.958C388.335 286.958 392.442 286.958 393.675 285.966C395.986 284.102 395.476 281.407 394.882 278.288C394.368 275.584 393.836 272.791 395.092 270.168C395.199 269.944 395.467 269.85 395.686 269.957C395.91 270.065 396.004 270.333 395.896 270.552C394.77 272.912 395.271 275.562 395.758 278.122C396.348 281.237 396.96 284.46 394.234 286.663C392.755 287.856 388.867 287.852 385.068 287.856C383.937 287.856 382.873 287.856 381.948 287.892C378.972 288.003 375.951 288.008 372.974 287.905C372.545 287.892 372.161 287.606 372.027 287.195C371.835 286.618 371.191 282.292 371.026 280.862C371.012 280.759 370.963 280.665 370.878 280.603C370.793 280.54 370.691 280.513 370.583 280.531L366.803 281.143C366.624 281.175 366.49 281.322 366.481 281.505L366.946 286.077C366.946 286.077 366.946 286.109 366.946 286.122C366.946 287.101 366.181 287.919 365.207 287.99L361.306 288.267C360.796 288.303 360.398 288.732 360.398 289.241V290.94C360.398 291.422 360.899 292.097 361.842 292.097H392.375C392.933 292.097 394.824 291.999 395.736 290.716C396.406 289.773 396.419 288.37 395.78 286.542C395.7 286.31 395.821 286.055 396.053 285.975C396.285 285.894 396.54 286.015 396.62 286.247C397.362 288.365 397.309 290.041 396.46 291.235C395.302 292.866 393.036 292.995 392.37 292.995V292.978Z" fill="#004952"/>
<path d="M488.242 252.47V290.336C488.242 291.561 487.219 292.553 485.959 292.553H441.339C440.079 292.553 439.055 291.561 439.055 290.336V252.47H488.242Z" fill="#FF8D6E"/>
<path d="M420.142 199.083C422.188 198.507 423.06 198.699 423.06 198.699C434.608 198.699 450.205 235.644 450.205 245.575H476.993C477.735 244.641 478.522 243.313 478.522 243.313C489.377 225.321 499.424 188.599 494.021 162.37C493.784 161.212 492.224 160.899 491.54 161.883C488.912 165.659 484.036 173.011 481.467 179.057C478.785 185.372 476.314 193.537 474.303 202.413C475.997 190.199 476.341 181.292 476.341 181.292C477.436 162.803 475.813 143.993 468.694 129.755C468.198 128.758 466.723 128.767 466.232 129.768C463.912 134.474 459.09 146.085 458.388 162.513C457.901 173.954 457.566 189.966 458.013 207.194C456.122 190.985 453.66 182.851 453.66 182.851C451.805 174.602 446.996 160.39 435.225 151.197C434.353 150.513 433.053 151.085 432.999 152.176C432.713 157.954 432.789 173.337 439.515 192.558C439.515 192.558 440.172 194.386 441.723 197.255C438.268 193.64 434.197 191.45 429.513 191.45C422.367 191.45 421.536 200.258 410.05 211.413C410.05 211.413 412.213 207.177 413.129 201.246C414.162 194.551 420.79 192.661 425.277 192.661" fill="#CBDDE0"/>
<path d="M431.882 252.466H495.419C496.745 252.466 497.819 251.391 497.819 250.066V247.97C497.819 246.645 496.745 245.57 495.419 245.57H431.882C430.557 245.57 429.482 246.645 429.482 247.97V250.066C429.482 251.391 430.557 252.466 431.882 252.466Z" fill="#FF8D6E"/>
<path d="M495.42 252.868H431.882C430.336 252.868 429.08 251.612 429.08 250.066V247.974C429.08 246.428 430.336 245.172 431.882 245.172H495.42C496.966 245.172 498.222 246.428 498.222 247.974V250.066C498.222 251.612 496.966 252.868 495.42 252.868ZM431.882 245.972C430.778 245.972 429.88 246.871 429.88 247.974V250.066C429.88 251.17 430.778 252.068 431.882 252.068H495.42C496.524 252.068 497.422 251.17 497.422 250.066V247.974C497.422 246.871 496.524 245.972 495.42 245.972H431.882Z" fill="#004952"/>
<path d="M485.958 292.951H441.339C439.859 292.951 438.657 291.775 438.657 290.332V255.026C438.657 254.807 438.836 254.624 439.059 254.624C439.283 254.624 439.462 254.803 439.462 255.026V290.332C439.462 291.333 440.306 292.151 441.343 292.151H485.963C487 292.151 487.844 291.337 487.844 290.332V255.026C487.844 254.807 488.023 254.624 488.247 254.624C488.47 254.624 488.649 254.803 488.649 255.026V290.332C488.649 291.775 487.447 292.951 485.967 292.951H485.958Z" fill="#004952"/>
<path d="M469.503 245.972C469.284 245.972 469.105 245.798 469.105 245.579C468.86 224.597 474.129 195.932 481.364 178.901C483.938 172.836 488.805 165.493 491.478 161.655C491.889 161.065 492.586 160.788 493.301 160.935C494.007 161.078 494.535 161.601 494.678 162.289C496.421 170.745 497.547 185.193 493.024 206.019C489.949 220.177 484.756 234.201 479.13 243.523C479.013 243.711 478.768 243.773 478.58 243.657C478.392 243.541 478.33 243.295 478.446 243.107C484.028 233.852 489.19 219.927 492.246 205.845C496.738 185.157 495.625 170.825 493.9 162.446C493.824 162.066 493.543 161.793 493.149 161.713C492.841 161.65 492.412 161.717 492.144 162.106C489.489 165.918 484.658 173.212 482.111 179.209C474.915 196.151 469.673 224.682 469.914 245.565C469.914 245.784 469.74 245.968 469.521 245.972H469.517H469.503Z" fill="#004952"/>
<path d="M473.244 245.972C473.212 245.972 473.177 245.972 473.145 245.959C472.931 245.905 472.801 245.686 472.855 245.472C472.967 245.025 484.242 200.446 490.307 170.677C490.351 170.463 490.562 170.32 490.78 170.365C490.995 170.409 491.138 170.619 491.093 170.838C485.024 200.625 473.744 245.221 473.632 245.668C473.588 245.851 473.422 245.972 473.244 245.972Z" fill="#004952"/>
<path d="M460.663 245.338C460.462 245.338 460.288 245.186 460.265 244.98C456.677 212.043 457.664 176.322 458.254 162.49C458.969 145.772 464.006 133.911 466.138 129.589C466.433 128.986 467.045 128.615 467.729 128.61C468.404 128.628 469.02 128.977 469.315 129.576C475.693 142.335 478.28 159.742 477.002 181.314C476.989 181.533 476.792 181.703 476.578 181.689C476.359 181.676 476.189 181.488 476.202 181.265C477.471 159.836 474.915 142.567 468.6 129.933C468.439 129.607 468.113 129.41 467.733 129.41C467.349 129.41 467.023 129.611 466.857 129.942C464.748 134.219 459.76 145.959 459.054 162.526C458.464 176.34 457.477 212.012 461.061 244.895C461.083 245.114 460.927 245.311 460.708 245.338C460.694 245.338 460.676 245.338 460.663 245.338Z" fill="#004952"/>
<path d="M464.574 245.337C464.574 245.337 464.56 245.337 464.556 245.337C464.337 245.328 464.167 245.141 464.176 244.917C464.212 244.216 467.568 174.561 467.474 139.676C467.474 139.457 467.653 139.273 467.872 139.273C468.091 139.273 468.27 139.452 468.274 139.671C468.368 174.574 465.007 244.251 464.972 244.953C464.963 245.168 464.784 245.333 464.574 245.333V245.337Z" fill="#004952"/>
<path d="M456.203 243.326C455.984 243.326 455.801 243.148 455.801 242.924C455.801 221.508 446.755 191.847 429.772 191.847C425.853 191.847 423.94 194.632 420.767 199.248C418.407 202.685 415.467 206.962 410.591 211.699C410.452 211.837 410.233 211.851 410.073 211.735C409.916 211.618 409.867 211.404 409.952 211.23C409.974 211.189 412.097 206.975 412.991 201.183C414.01 194.596 420.383 192.263 425.531 192.263C425.567 192.263 425.603 192.267 425.638 192.276C426.818 191.485 428.137 191.047 429.768 191.047C447.273 191.047 456.596 221.178 456.596 242.924C456.596 243.143 456.417 243.326 456.194 243.326H456.203ZM424.611 193.085C419.972 193.349 414.667 195.601 413.786 201.304C413.237 204.87 412.249 207.806 411.534 209.616C415.476 205.532 418.019 201.831 420.106 198.792C421.741 196.41 423.096 194.439 424.606 193.085H424.611Z" fill="#004952"/>
<path d="M450.465 245.972C450.246 245.972 450.062 245.794 450.062 245.57C450.062 240.556 446.022 228.708 440.865 218.59C434.546 206.202 428.15 199.096 423.319 199.096C423.1 199.096 422.917 198.918 422.917 198.694C422.917 198.471 423.096 198.292 423.319 198.292C426.34 198.292 432.736 200.88 441.58 218.224C446.787 228.436 450.867 240.444 450.867 245.566C450.867 245.785 450.688 245.968 450.465 245.968V245.972Z" fill="#004952"/>
<path d="M452.793 245.972C452.574 245.972 452.391 245.793 452.391 245.57C452.391 237.955 450.165 225.401 445.195 214.523C437.987 198.757 429.321 195.445 423.324 195.445C423.105 195.445 422.921 195.266 422.921 195.043C422.921 194.819 423.1 194.641 423.324 194.641C429.558 194.641 438.541 198.033 445.924 214.184C450.947 225.169 453.195 237.861 453.195 245.561C453.195 245.78 453.016 245.963 452.793 245.963V245.972Z" fill="#004952"/>
<path d="M439.775 192.956C439.609 192.956 439.453 192.853 439.399 192.688C432.646 173.386 432.575 157.91 432.861 152.154C432.892 151.51 433.281 150.942 433.88 150.665C434.497 150.384 435.207 150.464 435.734 150.88C447.779 160.283 452.547 174.892 454.317 182.762C454.366 182.977 454.232 183.191 454.013 183.24C453.799 183.289 453.584 183.155 453.535 182.936C451.788 175.169 447.091 160.761 435.243 151.51C434.943 151.278 434.559 151.233 434.215 151.394C433.884 151.546 433.679 151.841 433.661 152.194C433.379 157.905 433.451 173.256 440.159 192.424C440.23 192.634 440.123 192.862 439.913 192.934C439.868 192.947 439.824 192.956 439.779 192.956H439.775Z" fill="#004952"/>
<path d="M453.924 214.93C453.74 214.93 453.575 214.801 453.535 214.613C453.477 214.336 447.519 186.762 437.316 158.92C437.24 158.714 437.348 158.482 437.553 158.406C437.759 158.33 437.991 158.437 438.067 158.643C448.288 186.543 454.259 214.171 454.317 214.448C454.362 214.662 454.228 214.877 454.009 214.921C453.982 214.926 453.95 214.93 453.924 214.93V214.93Z" fill="#004952"/>
<path d="M319.153 191.436H144.518C142.882 191.436 141.55 190.109 141.55 188.478V177.417C141.55 175.786 142.882 174.458 144.518 174.458H322.456C322.701 174.458 322.903 174.66 322.903 174.905C322.903 175.151 322.701 175.352 322.456 175.352H144.518C143.374 175.352 142.444 176.277 142.444 177.417V188.478C142.444 189.618 143.374 190.543 144.518 190.543H319.153C319.399 190.543 319.6 190.744 319.6 190.99C319.6 191.235 319.399 191.436 319.153 191.436Z" fill="#004952"/>
<path d="M323.144 175.352H321.955C321.709 175.352 321.508 175.151 321.508 174.905C321.508 174.66 321.709 174.458 321.955 174.458H323.144C323.39 174.458 323.591 174.66 323.591 174.905C323.591 175.151 323.39 175.352 323.144 175.352Z" fill="#004952"/>
<path d="M148.491 172.336C148.245 172.336 148.044 172.134 148.044 171.889V2.95404C148.044 1.32284 149.371 0 150.998 0H318.939C320.57 0 321.893 1.32731 321.893 2.95404V170.003C321.893 170.249 321.691 170.45 321.446 170.45C321.2 170.45 320.999 170.249 320.999 170.003V2.95404C320.999 1.8189 320.074 0.89381 318.939 0.89381H151.002C149.867 0.89381 148.942 1.8189 148.942 2.95404V171.889C148.942 172.134 148.741 172.336 148.495 172.336H148.491Z" fill="#004952"/>
<path d="M119.535 292.54H84.6313L84.6313 195.087C84.6313 194.015 85.5028 193.143 86.5754 193.143H117.587C118.659 193.143 119.531 194.015 119.531 195.087L119.531 292.54H119.535Z" fill="#CBDDE0"/>
<path d="M84.6313 292.544H49.7275L49.7275 130.192C49.7275 129.12 50.599 128.248 51.6716 128.248H82.6873C83.7599 128.248 84.6313 129.12 84.6313 130.192L84.6313 292.544V292.544Z" fill="#D4E0DD"/>
<path d="M49.7275 292.544H14.8237L14.8237 158.048C14.8237 156.975 15.6952 156.104 16.7678 156.104H47.7835C48.8561 156.104 49.7275 156.975 49.7275 158.048L49.7275 292.544Z" fill="#CBDDE0"/>
<path d="M119.535 290.028C119.289 290.028 119.088 289.827 119.088 289.581V194.421C119.088 193.832 118.61 193.349 118.016 193.349H87.2413C86.9955 193.349 86.7944 193.148 86.7944 192.902C86.7944 192.656 86.9955 192.455 87.2413 192.455H118.016C119.097 192.455 119.982 193.335 119.982 194.421V289.581C119.982 289.827 119.781 290.028 119.535 290.028Z" fill="#004952"/>
<path d="M84.6315 290.028C84.3857 290.028 84.1846 289.827 84.1846 289.581V129.763C84.1846 129.173 83.7064 128.691 83.112 128.691H51.2472C50.6573 128.691 50.1746 129.169 50.1746 129.763V153.422C50.1746 153.668 49.9735 153.869 49.7277 153.869C49.4819 153.869 49.2808 153.668 49.2808 153.422V129.763C49.2808 128.682 50.1612 127.797 51.2472 127.797H83.1164C84.198 127.797 85.0829 128.677 85.0829 129.763V289.581C85.0829 289.827 84.8817 290.028 84.6359 290.028H84.6315Z" fill="#004952"/>
<path d="M49.7277 288.517C49.4819 288.517 49.2808 288.316 49.2808 288.07V157.619C49.2808 157.029 48.8026 156.546 48.2082 156.546H17.9835C17.7377 156.546 17.5366 156.345 17.5366 156.099C17.5366 155.853 17.7377 155.652 17.9835 155.652H48.2082C49.2897 155.652 50.1746 156.533 50.1746 157.619V288.07C50.1746 288.316 49.9735 288.517 49.7277 288.517V288.517Z" fill="#004952"/>
<path d="M14.8239 290.475C14.5781 290.475 14.377 290.274 14.377 290.028V158.289C14.377 158.043 14.5781 157.842 14.8239 157.842C15.0697 157.842 15.2708 158.043 15.2708 158.289V290.028C15.2708 290.274 15.0697 290.475 14.8239 290.475Z" fill="#004952"/>
<path d="M313.83 293H0.446912C0.20111 293 0 292.799 0 292.553C0 292.308 0.20111 292.106 0.446912 292.106H313.83C314.076 292.106 314.277 292.308 314.277 292.553C314.277 292.799 314.076 293 313.83 293Z" fill="#004952"/>
<path d="M360.349 94.7348C356.135 94.7348 352.89 93.2912 350.968 90.5607C348.743 87.3966 348.443 82.6236 350.173 77.7926C350.781 76.0943 351.237 74.4318 351.675 72.823C353.225 67.1607 354.562 62.2671 361.551 62.2671C365.484 62.2671 368.755 64.1262 371.021 67.6434C373.01 70.7315 374.105 74.9637 374.105 79.5623C374.105 89.2021 369.091 94.7348 360.349 94.7348V94.7348ZM361.556 63.1609C355.25 63.1609 354.115 67.3126 352.542 73.0598C352.099 74.6866 351.639 76.3669 351.018 78.0965C349.386 82.6549 349.641 87.1195 351.701 90.0467C353.449 92.527 356.439 93.8409 360.349 93.8409C368.523 93.8409 373.211 88.639 373.211 79.5623C373.211 68.2333 367.357 63.1609 361.556 63.1609V63.1609Z" fill="#004952"/>
<path d="M361.721 83.2943C361.587 83.2943 361.453 83.2317 361.363 83.1155C360.604 82.1011 358.289 82.034 357.457 82.0966C357.27 82.11 357.095 82.0072 357.019 81.8374C356.943 81.6676 356.979 81.4665 357.109 81.3369C357.98 80.4654 359.37 77.8153 359.37 74.4367C359.37 74.1909 359.571 73.9897 359.817 73.9897C360.063 73.9897 360.264 74.1909 360.264 74.4367C360.264 77.413 359.276 79.8442 358.36 81.1983C359.477 81.243 361.261 81.4933 362.079 82.5837C362.226 82.7804 362.186 83.0619 361.989 83.2094C361.909 83.272 361.815 83.2988 361.721 83.2988V83.2943Z" fill="#004952"/>
<path d="M363.822 102.377C363.482 102.377 363.138 102.368 362.794 102.355C356.778 102.1 351.156 99.4855 348.122 95.5304C342.879 88.6973 345.753 79.2944 347.652 73.0734C347.97 72.0366 348.269 71.0579 348.497 70.1954C350.513 62.6472 355.192 53.6465 366.038 53.6465C371.227 53.6465 375.754 55.6173 379.128 59.3401C383.781 64.475 385.845 72.3405 384.947 81.4887C384.969 82.1188 385.095 89.5732 379.683 95.5081C375.625 99.9593 370.02 102.373 363.817 102.373L363.822 102.377ZM366.043 54.5448C355.759 54.5448 351.299 63.1834 349.364 70.4322C349.132 71.3082 348.828 72.2958 348.51 73.3371C346.553 79.7457 343.871 88.523 348.832 94.9897C351.71 98.7392 357.073 101.22 362.834 101.465C369.185 101.738 374.932 99.4096 379.03 94.9137C382.1 91.5485 383.303 87.5845 383.767 84.8449C383.213 85.8683 382.409 87.0348 381.238 88.2057C375.826 93.6087 366.892 94.7394 360.349 94.7394C360.103 94.7394 359.902 94.5383 359.902 94.2925C359.902 94.0467 360.103 93.8456 360.349 93.8456C366.7 93.8456 375.356 92.7641 380.558 87.6202C383.606 84.6036 384.044 81.5468 384.062 81.435C384.929 72.6578 382.891 64.828 378.471 59.9523C375.272 56.4173 370.972 54.5492 366.043 54.5492V54.5448Z" fill="#004952"/>
<path d="M368.599 115.096C365.39 115.096 362.226 114.256 359.384 112.58C354.048 109.429 350.861 103.972 350.861 97.9928C350.861 97.747 351.062 97.5459 351.308 97.5459C351.554 97.5459 351.755 97.747 351.755 97.9928C351.755 103.655 354.776 108.821 359.84 111.811C365.207 114.98 371.808 115.002 377.497 111.865C382.722 108.987 385.13 104.477 384.666 98.4665C384.313 93.926 382.369 90.1809 382.346 90.1452C382.23 89.9262 382.315 89.658 382.534 89.5418C382.753 89.4256 383.021 89.5106 383.137 89.7295C383.218 89.886 391.173 105.349 377.931 112.651C374.968 114.287 371.763 115.1 368.604 115.1L368.599 115.096Z" fill="#004952"/>
<path d="M357.833 130.742C351.992 130.742 351.04 121.992 350.866 114.367V97.9928C350.866 97.747 351.067 97.5459 351.313 97.5459C351.558 97.5459 351.76 97.747 351.76 97.9928V114.358C351.925 121.567 352.77 129.853 357.833 129.853C360.559 129.853 362.226 128.418 363.084 125.339C363.88 122.488 363.875 118.546 363.875 114.734V114.171C363.875 113.925 364.076 113.724 364.322 113.724C364.568 113.724 364.769 113.925 364.769 114.171V114.734C364.769 118.604 364.769 122.608 363.947 125.576C362.977 129.053 360.979 130.746 357.833 130.746V130.742Z" fill="#004952"/>
<path d="M359.089 70.8254C359.089 70.8254 359.058 70.8254 359.044 70.8254C355.178 70.4321 352.591 69.878 351.134 69.1317C350.915 69.0199 350.826 68.7518 350.942 68.5283C351.053 68.3093 351.322 68.22 351.545 68.3362C352.841 68.9976 355.286 69.5249 358.812 69.9003L360.032 67.0223C360.103 66.8524 360.264 66.7452 360.461 66.7496C360.644 66.7541 360.81 66.8748 360.868 67.0491L361.855 69.9271C364.778 69.8735 368.823 69.4713 372.139 67.9473C372.362 67.8446 372.63 67.9429 372.733 68.1663C372.836 68.3898 372.738 68.6579 372.514 68.7607C368.934 70.4098 364.573 70.7941 361.542 70.8299C361.359 70.8299 361.176 70.7092 361.113 70.5305L360.398 68.4479L359.505 70.5573C359.433 70.7226 359.272 70.8299 359.093 70.8299L359.089 70.8254Z" fill="#004952"/>
<path d="M359.138 89.4211C357.457 89.4211 355.183 88.934 353.574 86.6994C353.431 86.4983 353.475 86.2213 353.677 86.0738C353.878 85.9308 354.155 85.9755 354.302 86.1766C355.737 88.1653 357.802 88.5541 359.285 88.5273C361.712 88.4826 364.121 87.2849 364.849 86.19C364.988 85.9844 365.265 85.9308 365.471 86.0648C365.676 86.2034 365.73 86.4805 365.596 86.686C364.724 87.991 362.137 89.3675 359.303 89.4211C359.25 89.4211 359.2 89.4211 359.147 89.4211H359.138Z" fill="#004952"/>
<path d="M364.483 77.3593C364.853 77.3593 365.153 77.0591 365.153 76.6889C365.153 76.3187 364.853 76.0186 364.483 76.0186C364.113 76.0186 363.812 76.3187 363.812 76.6889C363.812 77.0591 364.113 77.3593 364.483 77.3593Z" fill="#004952"/>
<path d="M355.232 77.3593C355.602 77.3593 355.902 77.0591 355.902 76.6889C355.902 76.3187 355.602 76.0186 355.232 76.0186C354.862 76.0186 354.562 76.3187 354.562 76.6889C354.562 77.0591 354.862 77.3593 355.232 77.3593Z" fill="#004952"/>
<path d="M186.554 63.6082C172.713 63.6082 161.451 52.3462 161.451 38.5055C161.451 24.6648 172.713 13.4028 186.554 13.4028C200.395 13.4028 211.657 24.6648 211.657 38.5055C211.657 52.3462 200.395 63.6082 186.554 63.6082ZM186.554 14.3011C173.205 14.3011 162.345 25.1609 162.345 38.51C162.345 51.859 173.205 62.7188 186.554 62.7188C199.903 62.7188 210.763 51.859 210.763 38.51C210.763 25.1609 199.903 14.3011 186.554 14.3011V14.3011Z" fill="#004952"/>
<path d="M186.555 60.5915C174.376 60.5915 164.473 50.6836 164.473 38.5099C164.473 26.3362 174.381 16.4238 186.555 16.4238C198.728 16.4238 208.636 26.3317 208.636 38.5099C208.636 50.688 198.728 60.5915 186.555 60.5915V60.5915ZM186.555 17.3176C174.872 17.3176 165.366 26.8233 165.366 38.5099C165.366 50.1965 174.872 59.6977 186.555 59.6977C198.237 59.6977 207.743 50.192 207.743 38.5099C207.743 26.8278 198.237 17.3176 186.555 17.3176V17.3176Z" fill="#004952"/>
<path d="M186.554 40.2974C187.542 40.2974 188.342 39.4971 188.342 38.5098C188.342 37.5225 187.542 36.7222 186.554 36.7222C185.567 36.7222 184.767 37.5225 184.767 38.5098C184.767 39.4971 185.567 40.2974 186.554 40.2974Z" fill="#004952"/>
<path d="M203.274 39.6271C203.891 39.6271 204.391 39.1269 204.391 38.5098C204.391 37.8928 203.891 37.3926 203.274 37.3926C202.656 37.3926 202.156 37.8928 202.156 38.5098C202.156 39.1269 202.656 39.6271 203.274 39.6271Z" fill="#004952"/>
<path d="M169.165 39.6271C169.782 39.6271 170.282 39.1269 170.282 38.5098C170.282 37.8928 169.782 37.3926 169.165 37.3926C168.548 37.3926 168.048 37.8928 168.048 38.5098C168.048 39.1269 168.548 39.6271 169.165 39.6271Z" fill="#004952"/>
<path d="M186.554 22.8952C187.171 22.8952 187.672 22.395 187.672 21.7779C187.672 21.1609 187.171 20.6606 186.554 20.6606C185.937 20.6606 185.437 21.1609 185.437 21.7779C185.437 22.395 185.937 22.8952 186.554 22.8952Z" fill="#004952"/>
<path d="M186.554 57.0163C187.171 57.0163 187.672 56.516 187.672 55.899C187.672 55.282 187.171 54.7817 186.554 54.7817C185.937 54.7817 185.437 55.282 185.437 55.899C185.437 56.516 185.937 57.0163 186.554 57.0163Z" fill="#004952"/>
<path d="M186.554 38.9569C186.309 38.9569 186.107 38.7558 186.107 38.51V29.3976C186.107 29.1518 186.309 28.9507 186.554 28.9507C186.8 28.9507 187.001 29.1518 187.001 29.3976V38.51C187.001 38.7558 186.8 38.9569 186.554 38.9569Z" fill="#004952"/>
<path d="M195.359 48.9721C195.233 48.9721 195.113 48.9229 195.023 48.8201L186.219 38.8005C186.058 38.6128 186.076 38.3313 186.259 38.1704C186.447 38.0095 186.729 38.0274 186.89 38.2106L195.694 48.2302C195.855 48.4179 195.837 48.6995 195.654 48.8604C195.569 48.9363 195.461 48.9721 195.359 48.9721Z" fill="#004952"/>
</g>
<defs>
<clipPath id="clip0_7486_110782">
<rect width="508" height="293" fill="white"/>
</clipPath>
</defs>
</svg>
