<svg width="103" height="28" viewBox="0 0 103 28" fill="none" xmlns="http://www.w3.org/2000/svg">
<g id="capterra-inc-vector-logo 1">
<path id="Vector" d="M3.20312 10.3893H11.8368H17.0799V5.19336L3.20312 10.3893Z" fill="#FF9D28"/>
<path id="Vector_2" d="M17.0781 5.19298V23.5593L23.6398 2.74414L17.0781 5.19298Z" fill="#68C5ED"/>
<path id="Vector_3" d="M17.079 10.3887H11.8359L17.079 23.5433V10.3887Z" fill="#044D80"/>
<path id="Vector_4" d="M3.20312 10.3887L13.1868 13.7637L11.8368 10.3887H3.20312Z" fill="#E54747"/>
<g id="Group">
<path id="Vector_5" d="M35.0067 18.709C34.9282 18.7875 34.8026 18.8817 34.63 18.9916C34.4573 19.1015 34.2218 19.2271 33.9393 19.3369C33.6567 19.4468 33.3114 19.5567 32.8875 19.6352C32.4794 19.7137 32.0085 19.7608 31.4747 19.7608C30.4544 19.7608 29.5596 19.5881 28.8061 19.2741C28.0526 18.9445 27.4404 18.4893 26.9538 17.8927C26.4672 17.2962 26.1061 16.6055 25.8864 15.805C25.6509 15.0044 25.541 14.1096 25.541 13.1521C25.541 12.1945 25.6666 11.2997 25.9178 10.4834C26.1689 9.66717 26.53 8.96077 27.0323 8.36426C27.5189 7.76775 28.1468 7.29682 28.8846 6.96717C29.6224 6.63752 30.5015 6.46484 31.5061 6.46484C31.9928 6.46484 32.448 6.51193 32.8404 6.59042C33.2329 6.68461 33.5939 6.7788 33.8922 6.90438C34.1904 7.02996 34.4416 7.15554 34.63 7.28112C34.834 7.40671 34.9753 7.53228 35.0695 7.61077C35.1794 7.70496 35.2893 7.83054 35.3678 7.97182C35.4462 8.1131 35.4933 8.27008 35.4933 8.42705C35.4933 8.67822 35.3992 8.92938 35.2108 9.18054C35.0224 9.4317 34.8183 9.66717 34.5829 9.88693C34.4259 9.72996 34.2532 9.57298 34.0649 9.416C33.8765 9.25903 33.6567 9.11775 33.4212 8.99217C33.1858 8.86659 32.9189 8.7724 32.6207 8.69392C32.3224 8.61543 31.9928 8.56833 31.616 8.56833C30.9724 8.56833 30.423 8.69391 29.9835 8.96077C29.5439 9.22763 29.1986 9.55728 28.9317 9.98112C28.6649 10.405 28.4765 10.8759 28.3666 11.4096C28.2567 11.9433 28.1939 12.4928 28.1939 13.0579C28.1939 13.6544 28.2567 14.2195 28.3666 14.7689C28.4765 15.3183 28.6806 15.7893 28.9631 16.2131C29.2457 16.6369 29.6067 16.9666 30.0619 17.2178C30.5172 17.4689 31.0666 17.5945 31.7416 17.5945C32.1026 17.5945 32.4166 17.5474 32.7149 17.4689C33.0131 17.3747 33.28 17.2648 33.4997 17.1393C33.7352 17.0137 33.9236 16.8724 34.0962 16.7468C34.2689 16.6055 34.4102 16.48 34.5201 16.3858C34.5986 16.48 34.6771 16.5898 34.7869 16.7154C34.8968 16.841 34.991 16.9823 35.0695 17.1079C35.1637 17.2491 35.2265 17.3904 35.305 17.5317C35.3678 17.673 35.3992 17.7986 35.3992 17.9084C35.3992 18.0811 35.3678 18.2067 35.305 18.3323C35.2422 18.4422 35.1323 18.5678 35.0067 18.709ZM44.8021 17.2491C44.8021 18.2538 44.9433 18.9916 45.2416 19.4468C45.0061 19.541 44.8021 19.6038 44.598 19.6352C44.3939 19.6666 44.1899 19.698 43.9701 19.698C43.5149 19.698 43.1695 19.6038 42.934 19.4311C42.6986 19.2584 42.5416 18.9916 42.4788 18.6619C42.1962 18.9602 41.8352 19.2114 41.3643 19.4154C40.909 19.6195 40.3439 19.7137 39.6846 19.7137C39.3393 19.7137 38.9939 19.6666 38.6486 19.5724C38.3032 19.4782 37.9893 19.3212 37.7067 19.1015C37.4242 18.8817 37.2044 18.5991 37.016 18.2381C36.8433 17.8771 36.7492 17.4375 36.7492 16.9195C36.7492 16.2759 36.9061 15.7422 37.2201 15.334C37.534 14.9259 37.9265 14.6119 38.3974 14.3765C38.8683 14.141 39.3864 13.984 39.9201 13.8898C40.4695 13.7957 40.9718 13.7486 41.4271 13.7172C41.584 13.7015 41.7253 13.7015 41.8823 13.7015H42.2904V13.3561C42.2904 12.8695 42.1649 12.5241 41.898 12.3044C41.6311 12.1003 41.2073 11.9904 40.6265 11.9904C40.0771 11.9904 39.5904 12.0846 39.1666 12.2573C38.7428 12.43 38.3189 12.634 37.9108 12.8695C37.7381 12.6497 37.5811 12.4143 37.4869 12.1474C37.3771 11.8805 37.33 11.6922 37.33 11.5666C37.33 11.3939 37.4242 11.2212 37.6282 11.0486C37.8323 10.8759 38.0992 10.7346 38.4445 10.5933C38.7899 10.4521 39.1823 10.3579 39.6375 10.2637C40.0771 10.1852 40.548 10.1381 41.0503 10.1381C41.741 10.1381 42.3218 10.2009 42.7928 10.3422C43.2637 10.4835 43.6561 10.7032 43.9544 10.9858C44.2526 11.284 44.4724 11.6451 44.598 12.0846C44.7236 12.5241 44.7864 13.0422 44.7864 13.623L44.8021 17.2491ZM42.3532 15.0358H42.0864C41.9922 15.0358 41.9137 15.0358 41.8195 15.0515C41.5056 15.0829 41.1916 15.1143 40.8776 15.1614C40.5637 15.2084 40.2811 15.3026 40.0457 15.4282C39.8102 15.5538 39.6061 15.7265 39.4492 15.9305C39.2922 16.1346 39.2137 16.4015 39.2137 16.7154C39.2137 17.0765 39.3079 17.3747 39.5119 17.6259C39.716 17.8771 40.0614 18.0026 40.548 18.0026C40.7835 18.0026 41.0189 17.9712 41.2387 17.9084C41.4585 17.8457 41.6468 17.7672 41.8195 17.6573C41.9922 17.5474 42.1178 17.4375 42.2119 17.3276C42.3061 17.2021 42.3532 17.0922 42.3532 16.998V15.0358ZM49.5585 11.2683C49.7625 11.0329 50.0765 10.7817 50.516 10.5305C50.9555 10.2794 51.4893 10.1538 52.1486 10.1538C52.6195 10.1538 53.0747 10.2323 53.4986 10.3893C53.9224 10.5462 54.2992 10.8131 54.6288 11.1584C54.9585 11.5195 55.2253 11.9904 55.4137 12.5712C55.6178 13.1521 55.7119 13.8741 55.7119 14.7375C55.7119 15.7265 55.6021 16.5584 55.3666 17.2021C55.1311 17.8457 54.8486 18.3637 54.4875 18.7247C54.1265 19.1015 53.7183 19.3683 53.2788 19.5253C52.8393 19.6823 52.384 19.7608 51.9445 19.7608C51.5835 19.7608 51.2538 19.7137 50.9869 19.6352C50.7201 19.5567 50.4846 19.4625 50.2962 19.3526C50.1079 19.2584 49.9666 19.1486 49.8567 19.0544C49.7625 18.9602 49.684 18.8817 49.6683 18.8503V23.5596H47.0625V10.4364C47.1253 10.4207 47.2038 10.405 47.298 10.405C47.3765 10.3893 47.4707 10.3893 47.5649 10.3736C47.6747 10.3736 47.7846 10.3579 47.9259 10.3579C48.3497 10.3579 48.7108 10.4207 49.009 10.5619C49.2916 10.7032 49.48 10.9387 49.5585 11.2683ZM53.0119 14.8003C53.0119 14.4236 52.9806 14.0625 52.9178 13.7329C52.855 13.4032 52.7451 13.1207 52.6038 12.8695C52.4625 12.634 52.2585 12.4457 52.0073 12.3044C51.7561 12.1631 51.4579 12.1003 51.0968 12.1003C50.5631 12.1003 50.1864 12.2102 49.9823 12.3986C49.7782 12.6026 49.6683 12.8224 49.6683 13.0736V17.1393C49.7625 17.2491 49.9509 17.359 50.2178 17.5003C50.4846 17.6416 50.7829 17.7044 51.1282 17.7044C51.7718 17.7044 52.2428 17.4532 52.5567 16.9352C52.855 16.4329 53.0119 15.7265 53.0119 14.8003ZM57.7213 18.0968C57.6271 17.8457 57.58 17.5788 57.5486 17.2962C57.5172 17.0137 57.5172 16.7311 57.5172 16.4486V7.57938C57.6114 7.56368 57.7056 7.54798 57.7997 7.54798C57.8939 7.53228 57.9881 7.53229 58.0823 7.51659C58.1765 7.51659 58.2864 7.50089 58.3806 7.50089C58.5846 7.50089 58.7887 7.51659 58.9928 7.56368C59.1968 7.59508 59.3852 7.67356 59.5422 7.79915C59.7149 7.90903 59.8404 8.06601 59.9503 8.27008C60.0445 8.47415 60.1073 8.72531 60.1073 9.03926V10.405H62.7916V12.3358H60.123V16.4172C60.123 17.3119 60.484 17.7515 61.2061 17.7515C61.3788 17.7515 61.5515 17.7201 61.7085 17.673C61.8654 17.6102 62.0067 17.5474 62.1323 17.4846C62.2579 17.4218 62.3678 17.3433 62.4619 17.2648C62.5561 17.1864 62.6189 17.1236 62.666 17.0922C62.8544 17.3747 63.0114 17.6102 63.1056 17.8143C63.1997 18.0183 63.2625 18.2067 63.2625 18.3951C63.2625 18.5678 63.1997 18.7247 63.0585 18.8817C62.9172 19.0387 62.7288 19.1957 62.4933 19.3212C62.2579 19.4625 61.9596 19.5724 61.6143 19.6509C61.2689 19.7294 60.8922 19.7765 60.484 19.7765C59.6992 19.7765 59.0712 19.6195 58.6317 19.3212C58.2236 18.9916 57.9096 18.5991 57.7213 18.0968ZM69.3846 17.8457C69.6986 17.8457 69.9811 17.8143 70.2323 17.7358C70.4678 17.673 70.6875 17.5788 70.8916 17.4846C71.08 17.3904 71.2526 17.2648 71.3939 17.155C71.5352 17.0294 71.6608 16.9195 71.7707 16.8253C71.9276 17.0137 72.0846 17.2648 72.2573 17.5631C72.43 17.8614 72.5085 18.1125 72.5085 18.3009C72.5085 18.5834 72.3515 18.8346 72.0375 19.0701C71.7707 19.2741 71.3939 19.4468 70.8916 19.6038C70.405 19.7451 69.8242 19.8236 69.1649 19.8236C68.5683 19.8236 67.9718 19.7451 67.391 19.5881C66.8102 19.4311 66.2922 19.1643 65.8369 18.7875C65.3817 18.4108 65.0207 17.8928 64.7381 17.2491C64.4556 16.6055 64.3143 15.7893 64.3143 14.816C64.3143 14.0154 64.4399 13.3247 64.691 12.7439C64.9422 12.1631 65.2718 11.6765 65.68 11.2997C66.0881 10.923 66.559 10.6404 67.0928 10.4521C67.6108 10.2794 68.1445 10.1852 68.6939 10.1852C69.4003 10.1852 70.0125 10.2951 70.5149 10.5148C71.0172 10.7346 71.4096 11.0329 71.7236 11.4096C72.0375 11.7864 72.2573 12.2102 72.3986 12.6968C72.5399 13.1835 72.6026 13.6858 72.6026 14.2195V14.4864C72.6026 14.5962 72.6026 14.6904 72.5869 14.816C72.5869 14.9259 72.5712 15.0358 72.5712 15.1457C72.5712 15.2555 72.5556 15.334 72.5399 15.3968H66.9044C66.9515 16.1032 67.1712 16.684 67.5637 17.155C67.9404 17.6102 68.5526 17.8457 69.3846 17.8457ZM70.2637 13.9683C70.2637 13.3561 70.1381 12.8538 69.9026 12.4771C69.6672 12.1003 69.2433 11.8962 68.6311 11.8962C68.0974 11.8962 67.6893 12.0846 67.3753 12.4457C67.0614 12.8067 66.9044 13.309 66.9044 13.9683H70.2637ZM77.1393 11.3154C77.2178 11.2055 77.3119 11.08 77.4375 10.9387C77.5631 10.7974 77.7201 10.6718 77.9085 10.5619C78.0968 10.4521 78.3009 10.3579 78.5207 10.2794C78.7404 10.2009 78.9759 10.1695 79.2428 10.1695C79.3997 10.1695 79.5567 10.1852 79.7294 10.2009C79.9021 10.2323 80.059 10.2794 80.2003 10.3422C80.3416 10.405 80.4672 10.4991 80.5614 10.6247C80.6556 10.7503 80.7026 10.8916 80.7026 11.0643C80.7026 11.3468 80.6399 11.6608 80.4986 12.0218C80.3573 12.3829 80.216 12.6968 80.0747 12.948C79.855 12.7753 79.6352 12.634 79.4311 12.5398C79.2114 12.4457 78.9602 12.3986 78.6619 12.3986C78.2695 12.3986 77.9398 12.5084 77.673 12.7439C77.4061 12.9794 77.2649 13.2462 77.2649 13.5759V19.7608H74.659V10.4207C74.7218 10.405 74.8003 10.3893 74.8945 10.3893C74.973 10.3736 75.0672 10.3736 75.1614 10.3579C75.2555 10.3579 75.3811 10.3422 75.5224 10.3422C75.9306 10.3422 76.2916 10.4207 76.5899 10.5776C76.8724 10.7503 77.0608 10.9858 77.1393 11.3154ZM84.5329 11.3154C84.6114 11.2055 84.7056 11.08 84.8311 10.9387C84.9567 10.7974 85.1137 10.6718 85.3021 10.5619C85.4904 10.4521 85.6945 10.3579 85.9143 10.2794C86.134 10.2009 86.3695 10.1695 86.6364 10.1695C86.7933 10.1695 86.9503 10.1852 87.123 10.2009C87.2957 10.2323 87.4526 10.2794 87.5939 10.3422C87.7352 10.405 87.8608 10.4991 87.955 10.6247C88.0492 10.7503 88.0962 10.8916 88.0962 11.0643C88.0962 11.3468 88.0335 11.6608 87.8922 12.0218C87.7509 12.3829 87.6096 12.6968 87.4683 12.948C87.2486 12.7753 87.0288 12.634 86.8247 12.5398C86.605 12.4457 86.3538 12.3986 86.0555 12.3986C85.6631 12.3986 85.3335 12.5084 85.0666 12.7439C84.7997 12.9794 84.6585 13.2462 84.6585 13.5759V19.7608H82.0526V10.4207C82.1154 10.405 82.1939 10.3893 82.2881 10.3893C82.3666 10.3736 82.4608 10.3736 82.555 10.3579C82.6492 10.3579 82.7747 10.3422 82.916 10.3422C83.3242 10.3422 83.6852 10.4207 83.9835 10.5776C84.266 10.7503 84.4544 10.9858 84.5329 11.3154ZM96.9497 17.2491C96.9497 18.2538 97.091 18.9916 97.3893 19.4468C97.1538 19.541 96.9497 19.6038 96.7457 19.6352C96.5416 19.6666 96.3375 19.698 96.1178 19.698C95.6625 19.698 95.3172 19.6038 95.0817 19.4311C94.8462 19.2584 94.6893 18.9916 94.6265 18.6619C94.3439 18.9602 93.9829 19.2114 93.5119 19.4154C93.0567 19.6195 92.4916 19.7137 91.8323 19.7137C91.4869 19.7137 91.1416 19.6666 90.7962 19.5724C90.4509 19.4782 90.1369 19.3212 89.8544 19.1015C89.5718 18.8817 89.3521 18.5991 89.1637 18.2381C88.991 17.8771 88.8968 17.4375 88.8968 16.9195C88.8968 16.2759 89.0538 15.7422 89.3678 15.334C89.6817 14.9259 90.0742 14.6119 90.5451 14.3765C91.016 14.141 91.534 13.984 92.0678 13.8898C92.6172 13.7957 93.1195 13.7486 93.5747 13.7172C93.7317 13.7015 93.873 13.7015 94.03 13.7015H94.4381V13.3561C94.4381 12.8695 94.3125 12.5241 94.0457 12.3044C93.7788 12.1003 93.355 11.9904 92.7742 11.9904C92.2247 11.9904 91.7381 12.0846 91.3143 12.2573C90.8904 12.43 90.4666 12.634 90.0585 12.8695C89.8858 12.6497 89.7288 12.4143 89.6346 12.1474C89.5247 11.8805 89.4776 11.6922 89.4776 11.5666C89.4776 11.3939 89.5718 11.2212 89.7759 11.0486C89.98 10.8759 90.2468 10.7346 90.5922 10.5933C90.9375 10.4521 91.33 10.3579 91.7852 10.2637C92.2247 10.1852 92.6957 10.1381 93.198 10.1381C93.8887 10.1381 94.4695 10.2009 94.9404 10.3422C95.4114 10.4835 95.8038 10.7032 96.1021 10.9858C96.4003 11.284 96.6201 11.6451 96.7457 12.0846C96.8712 12.5241 96.934 13.0422 96.934 13.623L96.9497 17.2491ZM94.5009 15.0358H94.234C94.1398 15.0358 94.0614 15.0358 93.9672 15.0515C93.6532 15.0829 93.3393 15.1143 93.0253 15.1614C92.7114 15.2084 92.4288 15.3026 92.1933 15.4282C91.9579 15.5538 91.7538 15.7265 91.5968 15.9305C91.4398 16.1346 91.3614 16.4015 91.3614 16.7154C91.3614 17.0765 91.4556 17.3747 91.6596 17.6259C91.8637 17.8771 92.209 18.0026 92.6957 18.0026C92.9311 18.0026 93.1666 17.9712 93.3864 17.9084C93.6061 17.8457 93.7945 17.7672 93.9672 17.6573C94.1398 17.5474 94.2654 17.4375 94.3596 17.3276C94.4538 17.2021 94.5009 17.0922 94.5009 16.998V15.0358Z" fill="white"/>
</g>
</g>
</svg>
