<?xml version="1.0" encoding="UTF-8"?>
<svg xmlns="http://www.w3.org/2000/svg" width="161" height="30" viewBox="0 0 161 30" fill="none">
  <g id="deloitte" opacity="0.9">
    <g id="g3359">
      <g id="g3371">
        <path id="path3356" d="M151.955 25.748C151.955 23.4001 153.861 21.4951 156.208 21.4951C158.556 21.4951 160.46 23.4001 160.46 25.748C160.46 28.096 158.556 29.9997 156.208 29.9997C153.861 29.9997 151.955 28.096 151.955 25.748Z" fill="white"></path>
        <path id="path3360" d="M16.3226 14.4855C16.3226 11.7917 15.8022 9.79324 14.7611 8.49127C13.7187 7.19054 12.1398 6.54077 10.0171 6.54077H7.75898V23.0135H9.48661C11.8444 23.0135 13.5723 22.3145 14.6724 20.9117C15.7713 19.5112 16.3226 17.3688 16.3226 14.4855ZM24.3756 14.2049C24.3756 19.1125 23.0564 22.8941 20.418 25.5485C17.7796 28.2041 14.0707 29.5319 9.28977 29.5319H0V0.124512H9.93823C14.548 0.124512 18.1069 1.33171 20.6148 3.7449C23.1216 6.15932 24.3756 9.64436 24.3756 14.2049Z" fill="white"></path>
        <path id="path3362" d="M50.1074 29.5319H57.4996V0.00146484H50.1074V29.5319Z" fill="white"></path>
        <path id="path3366" d="M67.8855 18.5164C67.8855 20.3992 68.1316 21.8353 68.6227 22.8222C69.1149 23.8104 69.9393 24.3039 71.0985 24.3039C72.2454 24.3039 73.0564 23.8104 73.5289 22.8222C74.0015 21.8353 74.2365 20.3992 74.2365 18.5164C74.2365 16.6435 73.9977 15.2307 73.5191 14.277C73.0391 13.3208 72.2209 12.8421 71.0605 12.8421C69.9259 12.8421 69.1149 13.3184 68.6227 14.266C68.1316 15.2147 67.8855 16.6312 67.8855 18.5164ZM81.7604 18.5164C81.7604 22.1036 80.8201 24.902 78.9349 26.9078C77.0509 28.9149 74.4138 29.919 71.0235 29.919C67.7723 29.919 65.1843 28.8927 63.2633 26.8401C61.34 24.7875 60.3789 22.0138 60.3789 18.5164C60.3789 14.9403 61.3204 12.1616 63.2057 10.1804C65.0908 8.19911 67.7341 7.2085 71.1379 7.2085C73.2411 7.2085 75.1017 7.66753 76.7138 8.58432C78.3271 9.50111 79.5725 10.8142 80.4474 12.5247C81.3236 14.2327 81.7604 16.2312 81.7604 18.5164Z" fill="white"></path>
        <path id="path3370" d="M84.6953 29.532H92.0887V18.2302V7.59668H84.6953V29.532Z" fill="white"></path>
        <path id="path3372" d="M84.6953 4.94328H92.0887V0H84.6953V4.94328Z" fill="white"></path>
        <path id="path3376" d="M107.067 23.9377C108.065 23.9377 109.253 23.6842 110.64 23.1809V28.7001C109.643 29.1382 108.696 29.452 107.795 29.6378C106.894 29.8261 105.837 29.9196 104.628 29.9196C102.145 29.9196 100.356 29.2957 99.2572 28.0504C98.1633 26.805 97.6144 24.8927 97.6144 22.3121V13.2697H95.0254V7.59916H97.6144V1.99751L105.065 0.70166V7.59916H109.781V13.2697H105.065V21.8076C105.065 23.2277 105.733 23.9377 107.067 23.9377Z" fill="white"></path>
        <path id="path3380" d="M124.179 23.9377C125.177 23.9377 126.366 23.6842 127.753 23.1809V28.7001C126.757 29.1382 125.809 29.452 124.908 29.6378C124.006 29.8261 122.952 29.9196 121.74 29.9196C119.258 29.9196 117.469 29.2957 116.372 28.0504C115.276 26.805 114.727 24.8927 114.727 22.3121V13.2697H112.137V7.59916H114.727V1.9126L122.176 0.70166V7.59916H126.895V13.2697H122.176V21.8076C122.176 23.2277 122.844 23.9377 124.179 23.9377Z" fill="white"></path>
        <path id="path3384" d="M137.081 15.845C137.182 14.644 137.525 13.7641 138.111 13.2017C138.699 12.6406 139.425 12.36 140.294 12.36C141.242 12.36 141.995 12.675 142.553 13.31C143.116 13.9413 143.409 14.7867 143.432 15.845H137.081ZM147.506 9.79547C145.749 8.07264 143.256 7.20996 140.031 7.20996C136.64 7.20996 134.032 8.20058 132.203 10.1818C130.375 12.1631 129.461 15.0058 129.461 18.7099C129.461 22.297 130.449 25.0634 132.421 27.0052C134.393 28.9471 137.163 29.9193 140.731 29.9193C142.444 29.9193 143.918 29.8024 145.154 29.5698C146.382 29.3397 147.57 28.9237 148.724 28.3232L147.588 23.3799C146.75 23.722 145.952 23.9854 145.199 24.1589C144.111 24.4112 142.918 24.5379 141.618 24.5379C140.193 24.5379 139.068 24.1896 138.244 23.4931C137.419 22.7954 136.98 21.8331 136.93 20.6074H150.144V17.2393C150.144 13.9991 149.265 11.5171 147.506 9.79547Z" fill="white"></path>
        <path id="path3388" d="M34.1862 15.845C34.2871 14.644 34.6305 13.7641 35.2161 13.2017C35.8032 12.6406 36.5306 12.36 37.4007 12.36C38.3458 12.36 39.0988 12.675 39.6587 13.31C40.2211 13.9413 40.5128 14.7867 40.5387 15.845H34.1862ZM44.6131 9.79547C42.8546 8.07264 40.3625 7.20996 37.136 7.20996C33.7444 7.20996 31.1368 8.20058 29.3093 10.1818C27.4819 12.1631 26.5664 15.0058 26.5664 18.7099C26.5664 22.297 27.5534 25.0634 29.5273 27.0052C31.4987 28.9471 34.2686 29.9193 37.8362 29.9193C39.5492 29.9193 41.0233 29.8024 42.2589 29.5698C43.487 29.3397 44.6759 28.9237 45.8302 28.3232L44.6931 23.3799C43.855 23.722 43.0576 23.9854 42.3057 24.1589C41.2154 24.4112 40.0229 24.5379 38.7233 24.5379C37.2996 24.5379 36.1738 24.1896 35.3493 23.4931C34.5235 22.7954 34.0854 21.8331 34.035 20.6074H47.249V17.2393C47.249 13.9991 46.3704 11.5171 44.6131 9.79547Z" fill="white"></path>
      </g>
    </g>
  </g>
</svg>
