<svg xmlns="http://www.w3.org/2000/svg" width="53" height="53" viewBox="0 0 53 53" fill="none">
  <path d="M1.25 26.25C1.25 12.4429 12.4429 1.25 26.25 1.25C40.0571 1.25 51.25 12.4429 51.25 26.25C51.25 40.0571 40.0571 51.25 26.25 51.25C12.4429 51.25 1.25 40.0571 1.25 26.25Z" fill="#F6F3EB"/>
  <path d="M1.25 26.25C1.25 12.4429 12.4429 1.25 26.25 1.25C40.0571 1.25 51.25 12.4429 51.25 26.25C51.25 40.0571 40.0571 51.25 26.25 51.25C12.4429 51.25 1.25 40.0571 1.25 26.25Z" stroke="white" stroke-width="2.5"/>
  <path d="M33.3317 33.4214C34.6256 35.6668 35.9051 37.8866 37.1836 40.104C31.5221 44.4384 22.714 44.9622 16.1935 39.9708C8.68978 34.2223 7.45648 24.4136 11.4738 17.353C16.0944 9.23168 24.7409 7.4356 30.3081 8.7526C30.1575 9.07968 26.8232 15.997 26.8232 15.997C26.8232 15.997 26.5596 16.0143 26.4105 16.0172C24.765 16.087 23.5394 16.4698 22.2257 17.149C20.7845 17.9011 19.5494 18.9947 18.6284 20.3343C17.7074 21.6738 17.1285 23.2186 16.9424 24.8336C16.7481 26.4714 16.9746 28.1316 17.6004 29.6576C18.1295 30.9476 18.8779 32.0934 19.8813 33.0607C21.4205 34.546 23.2522 35.4657 25.3754 35.7702C27.386 36.0588 29.3196 35.7731 31.1316 34.8625C31.8112 34.5215 32.3894 34.1449 33.0652 33.6283C33.1513 33.5725 33.2278 33.5018 33.3317 33.4214Z" fill="#FF492C"/>
  <path d="M33.3441 13.7332C33.0156 13.4099 32.7111 13.1117 32.4081 12.8116C32.2272 12.6326 32.0531 12.4465 31.8679 12.2719C31.8016 12.2089 31.7236 12.1228 31.7236 12.1228C31.7236 12.1228 31.7866 11.989 31.8136 11.9342C32.1681 11.2228 32.7236 10.7028 33.3826 10.2892C34.1113 9.82827 34.9603 9.59376 35.8223 9.61528C36.9252 9.63693 37.9507 9.91158 38.8161 10.6514C39.4548 11.1973 39.7824 11.89 39.8401 12.7168C39.9363 14.1117 39.3591 15.18 38.2129 15.9256C37.5395 16.3643 36.8131 16.7034 36.0849 17.105C35.6833 17.3268 35.3398 17.5216 34.9473 17.9227C34.602 18.3253 34.5851 18.7048 34.5851 18.7048L39.8026 18.6981V21.0218H31.7491C31.7491 21.0218 31.7491 20.8631 31.7491 20.7972C31.7183 19.6553 31.8516 18.5807 32.3744 17.5437C32.8554 16.5923 33.6029 15.8958 34.501 15.3594C35.1926 14.9463 35.9209 14.5946 36.614 14.1834C37.0416 13.9299 37.3437 13.5581 37.3413 13.0189C37.3413 12.5561 37.0046 12.1449 36.5236 12.0165C35.3894 11.7105 34.235 12.1988 33.6347 13.2368C33.5471 13.3883 33.4577 13.5388 33.3441 13.7332Z" fill="#FF492C"/>
  <path d="M43.4361 30.9548L39.0392 23.3617H30.3383L25.9131 31.0332H34.678L39.0032 38.5903L43.4361 30.9548Z" fill="#FF492C"/>
</svg>