<?xml version="1.0" encoding="UTF-8"?>
<svg xmlns="http://www.w3.org/2000/svg" width="186" height="178" viewBox="0 0 186 178" fill="none">
  <g clip-path="url(#clip0_2470_516)">
    <g clip-path="url(#clip1_2470_516)">
      <path d="M118.905 113.959H112.4C90.3748 113.959 72.5201 96.1042 72.5201 74.0793L20.7617 74.0793C20.7617 122.346 59.8899 161.475 108.157 161.475H118.905L118.905 113.959Z" fill="#F8F3EB"></path>
      <path d="M99.866 110.529C115.851 110.529 128.81 97.5704 128.81 81.5853C128.81 65.6001 115.851 52.6416 99.866 52.6416C83.8808 52.6416 70.9224 65.6001 70.9224 81.5853C70.9224 97.5704 83.8808 110.529 99.866 110.529Z" fill="#FF8D6E"></path>
      <path d="M91.218 77.9161V92.3939C91.218 92.7002 90.6785 92.9501 90.0105 92.9501H85.895C85.227 92.9501 84.6875 92.7002 84.6875 92.3939V77.9161C84.6875 77.6098 85.227 77.3623 85.895 77.3623H90.0105C90.6785 77.3623 91.218 77.6098 91.218 77.9161Z" fill="#F8F3EB"></path>
      <path d="M101.685 83.7044V92.1966C101.685 92.6109 101.14 92.9486 100.472 92.9486H96.3569C95.6889 92.9486 95.1494 92.6109 95.1494 92.1966V83.7044C95.1494 83.2902 95.6889 82.9556 96.3569 82.9556H100.472C101.14 82.9556 101.685 83.2902 101.685 83.7044Z" fill="#F8F3EB"></path>
      <path d="M112.15 68.5507V91.7337C112.15 92.4017 111.611 92.9463 110.943 92.9463H106.822C106.159 92.9463 105.615 92.4017 105.615 91.7337V68.5507C105.615 67.8828 106.159 67.3433 106.822 67.3433H110.943C111.611 67.3433 112.15 67.8828 112.15 68.5507Z" fill="#F8F3EB"></path>
      <path d="M130.407 112.282L154.302 136.178" stroke="#054A53" stroke-width="2" stroke-linecap="round" stroke-linejoin="round"></path>
      <path d="M120.32 42.1859C98.8985 30.839 72.3904 38.8707 60.9323 60.1767C49.5854 81.5978 57.6171 108.106 79.0382 119.453C100.459 130.8 126.967 122.768 138.314 101.347C143.809 91.1427 145.032 79.2804 141.714 68.2452" stroke="#054A53" stroke-width="2" stroke-linecap="round" stroke-linejoin="round"></path>
      <rect x="50.9624" y="42.0779" width="8.98552" height="8.98552" transform="rotate(-68.1333 50.9624 42.0779)" fill="#3A6D71"></rect>
      <path d="M32.7354 59.8789L53.1999 57.3744L45.1367 76.3495L32.7354 59.8789Z" fill="#FEC3B8"></path>
    </g>
    <path d="M172.735 75.7455C165.505 48.761 154.544 36.0839 139.118 27.4839C123.692 18.884 114.676 17.7527 102.163 18.2326" stroke="#FF8D6E" stroke-width="2" stroke-linecap="round" stroke-linejoin="round"></path>
    <path d="M105.105 14.2921L101.147 18.1755L105.332 21.6283" stroke="#FF8D6E" stroke-width="2" stroke-linecap="round" stroke-linejoin="round"></path>
  </g>
  <defs>
    <clipPath id="clip0_2470_516">
      <rect width="186" height="178" fill="white"></rect>
    </clipPath>
    <clipPath id="clip1_2470_516">
      <rect width="179" height="146" fill="white" transform="translate(3 26.0002)"></rect>
    </clipPath>
  </defs>
</svg>
