<svg xmlns="http://www.w3.org/2000/svg" xmlns:xlink="http://www.w3.org/1999/xlink" width="829" height="570.25" viewBox="0 0 829 570.25">
  <defs>
    <filter id="base" x="100" y="6.204" width="729" height="503.546" filterUnits="userSpaceOnUse">
      <feOffset dy="5" input="SourceAlpha"/>
      <feGaussianBlur stdDeviation="9" result="blur"/>
      <feFlood flood-color="#262d41" flood-opacity="0.051"/>
      <feComposite operator="in" in2="blur"/>
      <feComposite in="SourceGraphic"/>
    </filter>
    <filter id="Rectangle_4965" x="579.5" y="375.25" width="195" height="195" filterUnits="userSpaceOnUse">
      <feOffset dy="-5" input="SourceAlpha"/>
      <feGaussianBlur stdDeviation="9" result="blur-2"/>
      <feFlood flood-color="#262d41" flood-opacity="0.051"/>
      <feComposite operator="in" in2="blur-2"/>
      <feComposite in="SourceGraphic"/>
    </filter>
    <filter id="Ellipse_17" x="0" y="181.745" width="307.005" height="307.006" filterUnits="userSpaceOnUse">
      <feOffset dy="3" input="SourceAlpha"/>
      <feGaussianBlur stdDeviation="13" result="blur-3"/>
      <feFlood flood-opacity="0.051"/>
      <feComposite operator="in" in2="blur-3"/>
      <feComposite in="SourceGraphic"/>
    </filter>
    <clipPath id="clip-path">
      <path id="Oval" d="M89.388,178A88.834,88.834,0,0,0,178,89.388C178,39.846,138.152,0,89.388,0A89.166,89.166,0,0,0,0,89.388C0,138.152,39.846,178,89.388,178Z" fill="none" stroke="#e7edf3" stroke-miterlimit="10" stroke-width="10"/>
    </clipPath>
    <clipPath id="clip-path-2">
      <path id="Oval-2" data-name="Oval" d="M0,161.064A88.959,88.959,0,0,0,141.171,89.388C141.171,39.846,101.329,0,52.569,0" fill="none" stroke="#f6606e" stroke-linecap="round" stroke-linejoin="round" stroke-miterlimit="10" stroke-width="10"/>
    </clipPath>
  </defs>
  <g id="Illus-Website" transform="translate(-152 -2980.703)">
    <g id="Group_6610" data-name="Group 6610" transform="translate(0 -442.547)">
      <g id="Chrome_Base" data-name="Chrome Base" transform="translate(279 3451)">
        <g transform="matrix(1, 0, 0, 1, -127, -27.75)" filter="url(#base)">
          <rect id="base-2" data-name="base" width="675" height="449.546" rx="10" transform="translate(127 28.2)" fill="#fff"/>
        </g>
        <path id="base-3" data-name="base" d="M4.05,0h666.9A4.05,4.05,0,0,1,675,4.05V16.358a0,0,0,0,1,0,0H0a0,0,0,0,1,0,0V4.05A4.05,4.05,0,0,1,4.05,0Z" fill="#eaeef4"/>
        <ellipse id="Oval-3" data-name="Oval" cx="2.273" cy="2.272" rx="2.273" ry="2.272" transform="translate(7.275 5.907)" fill="#99a1b8"/>
        <ellipse id="Oval_Copy" data-name="Oval Copy" cx="2.273" cy="2.272" rx="2.273" ry="2.272" transform="translate(15.46 5.907)" fill="#d9dbe6"/>
        <ellipse id="Oval_Copy_2" data-name="Oval Copy 2" cx="2.273" cy="2.272" rx="2.273" ry="2.272" transform="translate(23.644 5.907)" fill="#fefeff"/>
        <path id="Path_18974" data-name="Path 18974" d="M0,0H317V429a4.745,4.745,0,0,1-4.44,5H0Z" transform="translate(-1 15.485)" fill="#f6f8fb"/>
        <rect id="Rectangle_4962" data-name="Rectangle 4962" width="356" height="158" rx="4" transform="translate(11.822 32)" fill="#eaeef4"/>
        <rect id="Rectangle_4963" data-name="Rectangle 4963" width="356" height="49" rx="4" transform="translate(11.822 203)" fill="#eaeef4"/>
        <g id="Group_6602" data-name="Group 6602" transform="translate(-1183.646 -1969)">
          <rect id="Rectangle_16_Copy" data-name="Rectangle 16 Copy" width="332" height="12" rx="4" transform="translate(1197.646 2243)" fill="#eaeef4"/>
          <rect id="Rectangle_16_Copy_4" data-name="Rectangle 16 Copy 4" width="314" height="12" rx="4" transform="translate(1197.646 2265)" fill="#eaeef4"/>
          <rect id="Rectangle_16_Copy_4-2" data-name="Rectangle 16 Copy 4" width="286" height="12" rx="4" transform="translate(1197.646 2287)" fill="#eaeef4"/>
          <rect id="Rectangle_16_Copy-2" data-name="Rectangle 16 Copy" width="176" height="12" rx="4" transform="translate(1197.646 2309)" fill="#eaeef4"/>
        </g>
        <rect id="Rectangle_4964" data-name="Rectangle 4964" width="85" height="25" rx="4" transform="translate(11.822 370)" fill="#f3f4f9"/>
      </g>
      <path id="Path_18767" data-name="Path 18767" d="M0,0H357V429a5,5,0,0,1-5,5H0Z" transform="translate(597 3467)" fill="#fff"/>
      <path id="Path_19152" data-name="Path 19152" d="M32.3,196.1l6.752,3.376V197.7l-4.832-2.368,4.832-2.352V191.2L32.3,194.592Zm10.832-6.272h-1.68v1.168a1.105,1.105,0,0,1-1.2,1.216h-.4v1.648H41.3v3.92a2.148,2.148,0,0,0,2.336,2.32,2.92,2.92,0,0,0,1.136-.176v-1.536a3.964,3.964,0,0,1-.64.064c-.688,0-.992-.288-.992-.976v-3.616h1.616v-1.648H43.136ZM48.5,200v-7.792h-1.84V200Zm-2.128-10.528a1.208,1.208,0,0,0,2.416,0,1.208,1.208,0,1,0-2.416,0Zm6.88.352h-1.68v1.168a1.105,1.105,0,0,1-1.2,1.216h-.4v1.648h1.44v3.92a2.148,2.148,0,0,0,2.336,2.32,2.92,2.92,0,0,0,1.136-.176v-1.536a3.964,3.964,0,0,1-.64.064c-.688,0-.992-.288-.992-.976v-3.616h1.616v-1.648H53.248ZM58.4,200V188.416H56.544V200Zm3.7-4.752A1.871,1.871,0,0,1,64,193.52a1.745,1.745,0,0,1,1.92,1.728Zm4.032,2.032a1.88,1.88,0,0,1-1.952,1.36,2.086,2.086,0,0,1-2.128-2.032h5.7a2.749,2.749,0,0,0,.048-.592c0-2.464-1.408-4.048-3.808-4.048a4.145,4.145,0,0,0,.192,8.272,3.51,3.51,0,0,0,3.52-2.464Zm9.52-2.688L68.9,191.2v1.792l4.864,2.352L68.9,197.712v1.76l6.752-3.376Zm12.624.608V200h1.92v-4.8l4-6.544h-2.16L89.3,193.408l-2.72-4.752H84.3Zm9.184,3.376a2.236,2.236,0,0,1-2.176-2.48,2.195,2.195,0,1,1,2.176,2.48Zm0-6.608A4.137,4.137,0,1,0,101.5,196.1,3.961,3.961,0,0,0,97.456,191.968Zm10.864,7.168a5.8,5.8,0,0,0,.064.864h1.776a12.684,12.684,0,0,1-.08-1.424v-6.368h-1.856v4.608a1.561,1.561,0,0,1-1.632,1.744c-1.12,0-1.568-.816-1.568-1.776v-4.576h-1.856v4.912a2.881,2.881,0,0,0,2.944,3.1A2.492,2.492,0,0,0,108.32,199.136Zm8.72-6.976a2.657,2.657,0,0,0-.5-.048,2.357,2.357,0,0,0-2.256,1.344v-1.248H112.48V200h1.856v-3.712c0-1.456.656-2.288,2.1-2.288a4.05,4.05,0,0,1,.608.048Zm7.568,1.712v-3.52h2a1.769,1.769,0,1,1,0,3.52Zm2.288,1.7a3.46,3.46,0,1,0,0-6.912h-4.208V200h1.92v-4.432Zm9.616-3.408a2.657,2.657,0,0,0-.5-.048,2.357,2.357,0,0,0-2.256,1.344v-1.248h-1.808V200h1.856v-3.712c0-1.456.656-2.288,2.1-2.288a4.05,4.05,0,0,1,.608.048Zm1.088,5.728a2.444,2.444,0,0,0,2.64,2.352,2.719,2.719,0,0,0,2.4-1.232,4.333,4.333,0,0,0,.08.992h1.728a7.068,7.068,0,0,1-.1-1.248V194.88c0-1.552-.912-2.912-3.312-2.912a3.052,3.052,0,0,0-3.28,2.544l1.7.384a1.5,1.5,0,0,1,1.6-1.408c1.024,0,1.472.528,1.472,1.184,0,.272-.128.5-.576.56l-2,.3A2.4,2.4,0,0,0,137.6,197.888Zm2.992.9a1.03,1.03,0,0,1-1.136-1.008c0-.64.464-.96,1.04-1.056l2.032-.3v.352A1.773,1.773,0,0,1,140.592,198.784Zm9.376-5.1a1.833,1.833,0,0,1,1.888,1.456l1.664-.608a3.484,3.484,0,0,0-3.568-2.56,3.96,3.96,0,0,0-3.984,4.128A4,4,0,0,0,150,200.24a3.613,3.613,0,0,0,3.584-2.544l-1.632-.592a1.966,1.966,0,0,1-1.952,1.44,2.216,2.216,0,0,1-2.176-2.448A2.182,2.182,0,0,1,149.968,193.68Zm7.616-3.856H155.9v1.168a1.105,1.105,0,0,1-1.2,1.216h-.4v1.648h1.44v3.92a2.148,2.148,0,0,0,2.336,2.32,2.92,2.92,0,0,0,1.136-.176v-1.536a3.964,3.964,0,0,1-.64.064c-.688,0-.992-.288-.992-.976v-3.616H159.2v-1.648h-1.616ZM162.944,200v-7.792H161.1V200Zm-2.128-10.528a1.208,1.208,0,0,0,2.416,0,1.208,1.208,0,1,0-2.416,0Zm7.92,4.208a1.833,1.833,0,0,1,1.888,1.456l1.664-.608a3.484,3.484,0,0,0-3.568-2.56,3.96,3.96,0,0,0-3.984,4.128,4,4,0,0,0,4.032,4.144,3.613,3.613,0,0,0,3.584-2.544l-1.632-.592a1.966,1.966,0,0,1-1.952,1.44,2.216,2.216,0,0,1-2.176-2.448A2.182,2.182,0,0,1,168.736,193.68Zm6.48,1.568a1.871,1.871,0,0,1,1.9-1.728,1.745,1.745,0,0,1,1.92,1.728Zm4.032,2.032a1.88,1.88,0,0,1-1.952,1.36,2.086,2.086,0,0,1-2.128-2.032h5.7a2.749,2.749,0,0,0,.048-.592c0-2.464-1.408-4.048-3.808-4.048a4.145,4.145,0,0,0,.192,8.272,3.51,3.51,0,0,0,3.52-2.464Zm3.1,1.52a1.291,1.291,0,0,0,1.3,1.3,1.3,1.3,0,0,0,1.312-1.3,1.318,1.318,0,0,0-1.312-1.312A1.3,1.3,0,0,0,182.352,198.8Zm8.192-2.7,6.752,3.376V197.7l-4.832-2.368,4.832-2.352V191.2l-6.752,3.392Zm14.576-7.52h-1.712l-5.584,11.5h1.712Zm3.5,1.248h-1.68v1.168a1.105,1.105,0,0,1-1.2,1.216h-.4v1.648h1.44v3.92a2.148,2.148,0,0,0,2.336,2.32,2.92,2.92,0,0,0,1.136-.176v-1.536a3.964,3.964,0,0,1-.64.064c-.688,0-.992-.288-.992-.976v-3.616h1.616v-1.648h-1.616ZM213.984,200v-7.792h-1.84V200Zm-2.128-10.528a1.208,1.208,0,0,0,2.416,0,1.208,1.208,0,1,0-2.416,0Zm6.88.352h-1.68v1.168a1.105,1.105,0,0,1-1.2,1.216h-.4v1.648h1.44v3.92a2.148,2.148,0,0,0,2.336,2.32,2.92,2.92,0,0,0,1.136-.176v-1.536a3.964,3.964,0,0,1-.64.064c-.688,0-.992-.288-.992-.976v-3.616h1.616v-1.648h-1.616ZM223.888,200V188.416h-1.856V200Zm3.7-4.752a1.871,1.871,0,0,1,1.9-1.728,1.745,1.745,0,0,1,1.92,1.728Zm4.032,2.032a1.88,1.88,0,0,1-1.952,1.36,2.086,2.086,0,0,1-2.128-2.032h5.7a2.749,2.749,0,0,0,.048-.592c0-2.464-1.408-4.048-3.808-4.048a4.145,4.145,0,0,0,.192,8.272,3.51,3.51,0,0,0,3.52-2.464Zm9.52-2.688-6.752-3.392v1.792l4.864,2.352-4.864,2.368v1.76l6.752-3.376Z" transform="translate(629 3519)" fill="#1db89a"/>
      <g transform="matrix(1, 0, 0, 1, 152, 3423.25)" filter="url(#Rectangle_4965)">
        <rect id="Rectangle_4965-2" data-name="Rectangle 4965" width="141" height="141" rx="10" transform="translate(606.5 407.25)" fill="#fff"/>
      </g>
      <path id="_20" data-name="20" d="M-28.911-23.085c-.057-.627-.171-1.311-.171-1.881,0-3.819,2.109-6.84,6.441-6.84,4.161,0,6.213,2.736,6.213,5.757,0,2.679-1.425,4.9-4.731,6.954l-6.1,3.819C-33.7-11.286-35.922-6.327-36.036,0H-9.3V-6.042H-27.6a7.709,7.709,0,0,1,3.762-4.218l7.182-4.446c4.446-2.736,7.125-6.669,7.125-11.457,0-6.327-4.845-11.628-13-11.628-8.379,0-13.167,5.757-13.167,12.141a19.726,19.726,0,0,0,.171,2.109Zm23.9,18.81A4.6,4.6,0,0,0-.4.342,4.647,4.647,0,0,0,4.275-4.275,4.7,4.7,0,0,0-.4-8.949,4.647,4.647,0,0,0-5.016-4.275ZM18.993-16.758a8.062,8.062,0,0,1,3.477-.627c3.135,0,6.555,1.824,6.555,6.1,0,3.363-2.508,6.27-7.011,6.27A7.153,7.153,0,0,1,14.661-12.2L7.992-10.83C8.448-4.674,13.521.855,22.071.855c8.778,0,13.851-5.757,13.851-12.084A10.988,10.988,0,0,0,24.864-22.458L34.9-31.236v-5.7H9.246v5.985H26.061l-10.2,9.12Z" transform="translate(829 3922)" fill="#07c597"/>
      <path id="_60" data-name="/60" d="M-37.443-7.672a3.127,3.127,0,0,0-3.36-2.464,3.164,3.164,0,0,0-3.276,2.954,2.746,2.746,0,0,0,2.422,2.716l1.414.308a1.617,1.617,0,0,1,1.484,1.54c0,.868-.672,1.582-2.044,1.582a2.256,2.256,0,0,1-2.38-2.128l-1.316.42A3.444,3.444,0,0,0-40.789.21a3.132,3.132,0,0,0,3.43-2.94,2.864,2.864,0,0,0-2.576-2.786l-1.484-.322A1.438,1.438,0,0,1-42.693-7.28a1.755,1.755,0,0,1,1.918-1.652,2.014,2.014,0,0,1,2.1,1.694Zm1.8,3.612a1.811,1.811,0,0,1,1.834-1.722A1.7,1.7,0,0,1-31.963-4.06Zm3.878,1.75a1.835,1.835,0,0,1-1.89,1.358A2,2,0,0,1-35.687-3h5.068a2.958,2.958,0,0,0,.028-.42c0-2.1-1.162-3.528-3.234-3.528a3.361,3.361,0,0,0-3.22,3.556A3.36,3.36,0,0,0-33.657.21a3.052,3.052,0,0,0,3.024-2.128Zm4.934-3.416A1.766,1.766,0,0,1-25.027-4.3l1.19-.5a2.929,2.929,0,0,0-3-2.142,3.376,3.376,0,0,0-3.388,3.57A3.407,3.407,0,0,0-26.819.21a3.094,3.094,0,0,0,3.038-2.1l-1.162-.5a1.831,1.831,0,0,1-1.876,1.386,2.117,2.117,0,0,1-2.058-2.366A2.094,2.094,0,0,1-26.833-5.726Zm6.656,4.76a2.153,2.153,0,0,1-2.1-2.408,2.148,2.148,0,0,1,2.1-2.394,2.148,2.148,0,0,1,2.1,2.394A2.153,2.153,0,0,1-20.177-.966Zm0-5.978a3.4,3.4,0,0,0-3.444,3.57A3.4,3.4,0,0,0-20.177.21a3.4,3.4,0,0,0,3.444-3.584A3.4,3.4,0,0,0-20.177-6.944Zm5.69,3.052c0-1.022.532-1.848,1.568-1.848,1.176,0,1.568.756,1.568,1.694V0h1.316V-4.27a2.364,2.364,0,0,0-2.408-2.66,2.306,2.306,0,0,0-2.072,1.162v-.966H-15.8V0h1.316Zm6.586.5c0-1.386.784-2.366,1.988-2.366s1.932.952,1.932,2.338S-4.723-.98-5.927-.98C-7.187-.98-7.9-2-7.9-3.388ZM-3.967-.91A5.64,5.64,0,0,0-3.9,0h1.274a10.654,10.654,0,0,1-.07-1.246v-8.89H-4v4.354A2.07,2.07,0,0,0-6.053-6.916,3.309,3.309,0,0,0-9.245-3.388c0,2,1.218,3.57,3.192,3.57a2.254,2.254,0,0,0,2.086-1.2Zm2.134-.84A2.543,2.543,0,0,0,.911.21,2.234,2.234,0,0,0,3.375-1.876a2.047,2.047,0,0,0-1.862-2L.421-4.116c-.518-.112-.77-.406-.77-.812a1.015,1.015,0,0,1,1.12-.9,1.306,1.306,0,0,1,1.4,1.12l1.162-.434A2.388,2.388,0,0,0,.771-6.944,2.3,2.3,0,0,0-1.623-4.816a1.916,1.916,0,0,0,1.68,1.89L1.2-2.674c.56.126.868.448.868.868,0,.476-.406.9-1.148.9A1.435,1.435,0,0,1-.643-2.17ZM8.889-8.862h-1.2V-7.77A.942.942,0,0,1,6.649-6.734H6.285v1.19H7.573v3.7A1.748,1.748,0,0,0,9.449.07a2.88,2.88,0,0,0,.9-.126v-1.12a2.664,2.664,0,0,1-.518.056c-.686,0-.938-.308-.938-.924v-3.5h1.456v-1.19H8.889Zm5.27,7.9a2.153,2.153,0,0,1-2.1-2.408,2.148,2.148,0,0,1,2.1-2.394,2.148,2.148,0,0,1,2.1,2.394A2.153,2.153,0,0,1,14.159-.966Zm0-5.978a3.4,3.4,0,0,0-3.444,3.57A3.4,3.4,0,0,0,14.159.21,3.4,3.4,0,0,0,17.6-3.374,3.4,3.4,0,0,0,14.159-6.944ZM22.6,0V-10.136H21.283V0Zm4.374-.966a2.153,2.153,0,0,1-2.1-2.408,2.148,2.148,0,0,1,2.1-2.394,2.148,2.148,0,0,1,2.1,2.394A2.153,2.153,0,0,1,26.973-.966Zm0-5.978a3.4,3.4,0,0,0-3.444,3.57A3.4,3.4,0,0,0,26.973.21a3.4,3.4,0,0,0,3.444-3.584A3.4,3.4,0,0,0,26.973-6.944Zm3.954,5.138A2.1,2.1,0,0,0,33.181.21a2.455,2.455,0,0,0,2.17-1.12,4.926,4.926,0,0,0,.07.91h1.288a6.334,6.334,0,0,1-.084-1.106V-4.48c0-1.316-.784-2.464-2.8-2.464A2.6,2.6,0,0,0,31.067-4.76l1.26.294a1.429,1.429,0,0,1,1.526-1.358c1.022,0,1.456.546,1.456,1.2,0,.238-.112.448-.518.5l-1.82.266A2.083,2.083,0,0,0,30.927-1.806Zm2.436.91a1.021,1.021,0,0,1-1.092-.98,1.007,1.007,0,0,1,.98-1.008l2.058-.308v.308A1.766,1.766,0,0,1,33.363-.9ZM38.7-3.388c0-1.386.784-2.366,1.988-2.366s1.932.952,1.932,2.338S41.881-.98,40.677-.98C39.417-.98,38.7-2,38.7-3.388ZM42.637-.91a5.641,5.641,0,0,0,.07.91h1.274a10.654,10.654,0,0,1-.07-1.246v-8.89h-1.3v4.354a2.07,2.07,0,0,0-2.058-1.134,3.309,3.309,0,0,0-3.192,3.528c0,2,1.218,3.57,3.192,3.57a2.254,2.254,0,0,0,2.086-1.2Z" transform="translate(829 3870)" fill="#07c597"/>
      <g id="Group_6603" data-name="Group 6603" transform="translate(-1068.12 1842.491)">
        <g transform="matrix(1, 0, 0, 1, 1220.12, 1580.76)" filter="url(#Ellipse_17)">
          <ellipse id="Ellipse_17-2" data-name="Ellipse 17" cx="114.503" cy="114.503" rx="114.503" ry="114.503" transform="translate(39 217.74)" fill="#fff"/>
        </g>
        <g id="Group_2" data-name="Group 2" transform="translate(1274.265 1813.798)">
          <g id="Group_4" data-name="Group 4" transform="translate(0 0)">
            <g id="Group">
              <path id="Oval-4" data-name="Oval" d="M89.388,178A88.834,88.834,0,0,0,178,89.388C178,39.846,138.152,0,89.388,0A89.166,89.166,0,0,0,0,89.388C0,138.152,39.846,178,89.388,178Z" transform="translate(10.092 10.396)" fill="none" stroke="#e1e8ef" stroke-miterlimit="10" stroke-width="10"/>
              <path id="Oval-5" data-name="Oval" d="M89.388,178A88.834,88.834,0,0,0,178,89.388C178,39.846,138.152,0,89.388,0A89.166,89.166,0,0,0,0,89.388C0,138.152,39.846,178,89.388,178Z" transform="matrix(0.988, -0.156, 0.156, 0.988, -2.644, 25.201)" fill="none" stroke="#07c597" stroke-miterlimit="10" stroke-width="10" stroke-dasharray="263 60"/>
            </g>
          </g>
        </g>
        <path id="_20-2" data-name="20" d="M-27.936-1.254C-26.055,0-22.407.855-19.386.855-6.846.855-.462-7.125-.462-20.52c0-11.8-6.9-17.271-14.592-17.271-7.752,0-13.908,5.244-13.908,12.882,0,7.866,6.1,12.426,12.768,12.426,4.389,0,7.638-1.881,9.006-4.275C-7.53-9.8-11.691-5.13-19.443-5.13a13.761,13.761,0,0,1-6.612-1.71ZM-8.1-25.137a6.848,6.848,0,0,1-7.068,6.9,6.716,6.716,0,0,1-7.068-6.9,6.8,6.8,0,0,1,7.068-6.84A6.871,6.871,0,0,1-8.1-25.137ZM9.468-23.085C9.411-23.712,9.3-24.4,9.3-24.966c0-3.819,2.109-6.84,6.441-6.84,4.161,0,6.213,2.736,6.213,5.757,0,2.679-1.425,4.9-4.731,6.954l-6.1,3.819C4.68-11.286,2.457-6.327,2.343,0H29.076V-6.042h-18.3a7.709,7.709,0,0,1,3.762-4.218l7.182-4.446c4.446-2.736,7.125-6.669,7.125-11.457,0-6.327-4.845-11.628-13-11.628-8.379,0-13.167,5.757-13.167,12.141a19.726,19.726,0,0,0,.171,2.109Z" transform="translate(1374.12 1931.062)" fill="#07c597"/>
        <path id="Your_score" data-name="Your score" d="M-31.1-1.884-33.48-8.508h-1.56L-31.872,0h1.464l3.216-8.508h-1.524ZM-20.8,0V-1.344h-3.816V-3.6h3.456V-4.908h-3.456V-7.164H-20.8V-8.508h-5.256V0Zm6.024,0h1.632l-1.92-3.5a2.4,2.4,0,0,0,1.92-2.424A2.511,2.511,0,0,0-15.8-8.508h-3.264V0h1.452V-3.36h1.056Zm-2.844-4.632v-2.6h1.548A1.306,1.306,0,0,1-14.6-5.928a1.3,1.3,0,0,1-1.464,1.3ZM-9.648-3.6V0h1.44V-3.6l3-4.908h-1.62L-8.88-4.944l-2.04-3.564h-1.7ZM6.456,0V-4.308H2.292v1.26H5.1A2.244,2.244,0,0,1,2.664-1.14,2.819,2.819,0,0,1-.144-4.26a2.831,2.831,0,0,1,2.82-3.1A2.47,2.47,0,0,1,5.16-5.58L6.516-6.1a3.833,3.833,0,0,0-3.84-2.592A4.237,4.237,0,0,0-1.608-4.26,4.16,4.16,0,0,0,2.58.18a2.94,2.94,0,0,0,2.6-1.26L5.292,0Zm2.7-4.26A2.835,2.835,0,0,1,12-7.332,2.838,2.838,0,0,1,14.856-4.26,2.838,2.838,0,0,1,12-1.188,2.835,2.835,0,0,1,9.156-4.26Zm-1.476,0A4.262,4.262,0,0,0,12,.18a4.272,4.272,0,0,0,4.332-4.44A4.268,4.268,0,0,0,12-8.688,4.259,4.259,0,0,0,7.68-4.26Zm11.136,0A2.835,2.835,0,0,1,21.66-7.332,2.838,2.838,0,0,1,24.516-4.26,2.838,2.838,0,0,1,21.66-1.188,2.835,2.835,0,0,1,18.816-4.26Zm-1.476,0A4.262,4.262,0,0,0,21.66.18a4.272,4.272,0,0,0,4.332-4.44A4.268,4.268,0,0,0,21.66-8.688,4.259,4.259,0,0,0,17.34-4.26ZM28.956-1.32V-7.188H30.48a2.629,2.629,0,0,1,2.688,2.952,2.619,2.619,0,0,1-2.7,2.916ZM30.516,0a3.964,3.964,0,0,0,4.152-4.236,3.971,3.971,0,0,0-4.14-4.272H27.516V0Z" transform="translate(1373.733 1957.389)" fill="#07c597"/>
        <path id="Your_score-2" data-name="Your score" d="M-25.812-3.6V0h1.44V-3.6l3-4.908h-1.62l-2.052,3.564-2.04-3.564h-1.7Zm6.888,2.532a1.677,1.677,0,0,1-1.632-1.86,1.655,1.655,0,0,1,1.632-1.836,1.649,1.649,0,0,1,1.632,1.836A1.664,1.664,0,0,1-18.924-1.068Zm0-4.956a2.971,2.971,0,0,0-3.024,3.1A2.974,2.974,0,0,0-18.924.18a2.976,2.976,0,0,0,3.036-3.108A2.973,2.973,0,0,0-18.924-6.024Zm8.148,5.376A4.35,4.35,0,0,0-10.728,0H-9.4a9.513,9.513,0,0,1-.06-1.068V-5.844h-1.392v3.456A1.171,1.171,0,0,1-12.072-1.08c-.84,0-1.176-.612-1.176-1.332V-5.844H-14.64V-2.16A2.161,2.161,0,0,0-12.432.168,1.869,1.869,0,0,0-10.776-.648Zm6.54-5.232a1.993,1.993,0,0,0-.372-.036A1.768,1.768,0,0,0-6.3-4.908v-.936H-7.656V0h1.392V-2.784c0-1.092.492-1.716,1.572-1.716a3.038,3.038,0,0,1,.456.036Zm3.6,4.3A2.2,2.2,0,0,0,1.776.18,1.986,1.986,0,0,0,3.984-1.692,1.839,1.839,0,0,0,2.3-3.468l-.888-.18A.642.642,0,0,1,.828-4.26a.76.76,0,0,1,.84-.672,1,1,0,0,1,1.08.876l1.176-.336A2.062,2.062,0,0,0,1.668-6.024,2.026,2.026,0,0,0-.48-4.14a1.765,1.765,0,0,0,1.572,1.7l.864.192c.468.1.684.336.684.648,0,.36-.3.672-.876.672a1.094,1.094,0,0,1-1.188-1ZM7.872-4.74A1.375,1.375,0,0,1,9.288-3.648L10.536-4.1A2.613,2.613,0,0,0,7.86-6.024a2.97,2.97,0,0,0-2.988,3.1A3,3,0,0,0,7.9.18a2.71,2.71,0,0,0,2.688-1.908L9.36-2.172A1.475,1.475,0,0,1,7.9-1.092,1.662,1.662,0,0,1,6.264-2.928,1.637,1.637,0,0,1,7.872-4.74Zm6.456,3.672A1.677,1.677,0,0,1,12.7-2.928a1.655,1.655,0,0,1,1.632-1.836A1.649,1.649,0,0,1,15.96-2.928,1.664,1.664,0,0,1,14.328-1.068Zm0-4.956a2.971,2.971,0,0,0-3.024,3.1A2.974,2.974,0,0,0,14.328.18a2.976,2.976,0,0,0,3.036-3.108A2.973,2.973,0,0,0,14.328-6.024Zm7.8.144a1.993,1.993,0,0,0-.372-.036,1.768,1.768,0,0,0-1.692,1.008v-.936H18.708V0H20.1V-2.784c0-1.092.492-1.716,1.572-1.716a3.038,3.038,0,0,1,.456.036ZM24.2-3.564a1.4,1.4,0,0,1,1.428-1.3,1.309,1.309,0,0,1,1.44,1.3ZM27.228-2.04a1.41,1.41,0,0,1-1.464,1.02,1.565,1.565,0,0,1-1.6-1.524H28.44a2.062,2.062,0,0,0,.036-.444A2.73,2.73,0,0,0,25.62-6.024a2.93,2.93,0,0,0-2.844,3.072A2.951,2.951,0,0,0,25.764.18,2.632,2.632,0,0,0,28.4-1.668Z" transform="translate(1373.957 1878.022)" fill="#697492"/>
      </g>
      <path id="Your_score-3" data-name="Your score" d="M-12.024,0V-3.432h3.456V-4.764h-3.456V-7.152h3.852V-8.508h-5.292V0ZM-1.56,0H.012L-3.3-8.508H-4.968L-8.28,0h1.524l.792-2.136h3.6Zm-2.6-6.948,1.3,3.48H-5.46ZM6.66-6.516A2.748,2.748,0,0,0,3.684-8.688a2.775,2.775,0,0,0-2.892,2.6A2.417,2.417,0,0,0,2.952-3.7l1.2.252c.732.156,1.14.6,1.14,1.152,0,.66-.528,1.176-1.548,1.176A1.829,1.829,0,0,1,1.8-2.82L.456-2.436A3.025,3.025,0,0,0,3.744.18,2.716,2.716,0,0,0,6.756-2.4a2.513,2.513,0,0,0-2.3-2.448L3.228-5.1a1.1,1.1,0,0,1-1-1.092A1.344,1.344,0,0,1,3.7-7.416,1.57,1.57,0,0,1,5.364-6.108Zm7.668-.636V-8.508H7.356v1.356h2.76V0h1.44V-7.152Z" transform="translate(829.547 3942.5)" fill="#07c597"/>
      <rect id="Rectangle_5040" data-name="Rectangle 5040" width="2" height="509" transform="translate(596 3423.25)" fill="#2c98f7"/>
      <path id="Path_19154" data-name="Path 19154" d="M16.432,56.1l6.752,3.376V57.7l-4.832-2.368,4.832-2.352V51.2l-6.752,3.392Zm10.336-.672a1.62,1.62,0,0,1,1.616-1.76c1.168,0,1.6.768,1.6,1.728V60H31.84V55.072a2.905,2.905,0,0,0-5.072-2.112V48.416H24.912V60h1.856Zm8.624-.176a1.871,1.871,0,0,1,1.9-1.728,1.745,1.745,0,0,1,1.92,1.728Zm4.032,2.032a1.88,1.88,0,0,1-1.952,1.36,2.086,2.086,0,0,1-2.128-2.032h5.7a2.749,2.749,0,0,0,.048-.592c0-2.464-1.408-4.048-3.808-4.048a4.145,4.145,0,0,0,.192,8.272,3.51,3.51,0,0,0,3.52-2.464Zm2.96.608a2.444,2.444,0,0,0,2.64,2.352,2.719,2.719,0,0,0,2.4-1.232A4.332,4.332,0,0,0,47.5,60h1.728a7.067,7.067,0,0,1-.1-1.248V54.88c0-1.552-.912-2.912-3.312-2.912a3.052,3.052,0,0,0-3.28,2.544l1.7.384a1.5,1.5,0,0,1,1.6-1.408c1.024,0,1.472.528,1.472,1.184,0,.272-.128.5-.576.56l-2,.3A2.4,2.4,0,0,0,42.384,57.888Zm2.992.9a1.03,1.03,0,0,1-1.136-1.008c0-.64.464-.96,1.04-1.056l2.032-.3v.352A1.773,1.773,0,0,1,45.376,58.784Zm7.232-2.7a2.174,2.174,0,0,1,2.112-2.432c1.216,0,2.048.928,2.048,2.416s-.848,2.5-2.064,2.5C53.44,58.56,52.608,57.568,52.608,56.08Zm5.952-7.664H56.752v4.7A2.377,2.377,0,0,0,54.464,52a3.827,3.827,0,0,0-3.712,4.08c0,2.352,1.5,4.112,3.744,4.112a2.563,2.563,0,0,0,2.288-1.2A7.8,7.8,0,0,0,56.864,60H58.64a12.774,12.774,0,0,1-.08-1.424Zm8.512,6.176L60.32,51.2v1.792l4.864,2.352L60.32,57.712v1.76L67.072,56.1ZM16.432,236.1l6.752,3.376V237.7l-4.832-2.368,4.832-2.352V231.2l-6.752,3.392Zm14.576-7.52H29.3l-5.584,11.5h1.712Zm3.056,6.848a1.62,1.62,0,0,1,1.616-1.76c1.168,0,1.6.768,1.6,1.728V240h1.856v-4.928a2.905,2.905,0,0,0-5.072-2.112v-4.544H32.208V240h1.856Zm8.624-.176a1.871,1.871,0,0,1,1.9-1.728,1.745,1.745,0,0,1,1.92,1.728Zm4.032,2.032a1.88,1.88,0,0,1-1.952,1.36,2.086,2.086,0,0,1-2.128-2.032h5.7a2.749,2.749,0,0,0,.048-.592c0-2.464-1.408-4.048-3.808-4.048a4.145,4.145,0,0,0,.192,8.272,3.51,3.51,0,0,0,3.52-2.464Zm2.96.608a2.444,2.444,0,0,0,2.64,2.352,2.719,2.719,0,0,0,2.4-1.232,4.332,4.332,0,0,0,.08.992h1.728a7.067,7.067,0,0,1-.1-1.248V234.88c0-1.552-.912-2.912-3.312-2.912a3.052,3.052,0,0,0-3.28,2.544l1.7.384a1.5,1.5,0,0,1,1.6-1.408c1.024,0,1.472.528,1.472,1.184,0,.272-.128.5-.576.56l-2,.3A2.4,2.4,0,0,0,49.68,237.888Zm2.992.9a1.03,1.03,0,0,1-1.136-1.008c0-.64.464-.96,1.04-1.056l2.032-.3v.352A1.773,1.773,0,0,1,52.672,238.784Zm7.232-2.7a2.174,2.174,0,0,1,2.112-2.432c1.216,0,2.048.928,2.048,2.416s-.848,2.5-2.064,2.5C60.736,238.56,59.9,237.568,59.9,236.08Zm5.952-7.664H64.048v4.7A2.377,2.377,0,0,0,61.76,232a3.827,3.827,0,0,0-3.712,4.08c0,2.352,1.5,4.112,3.744,4.112a2.563,2.563,0,0,0,2.288-1.2A7.794,7.794,0,0,0,64.16,240h1.776a12.772,12.772,0,0,1-.08-1.424Zm8.512,6.176L67.616,231.2v1.792l4.864,2.352-4.864,2.368v1.76l6.752-3.376ZM.56,276.1l6.752,3.376V277.7L2.48,275.328l4.832-2.352V271.2L.56,274.592ZM10.848,280v-1.04a2.677,2.677,0,0,0,2.4,1.232c2.272,0,3.664-1.776,3.664-4.128,0-2.288-1.264-4.064-3.6-4.064a2.809,2.809,0,0,0-2.448,1.168v-4.752H9.04V280Zm4.192-3.92c0,1.536-.88,2.464-2.1,2.464a2.184,2.184,0,0,1-2.1-2.464,2.146,2.146,0,0,1,2.1-2.432C14.176,273.648,15.04,274.528,15.04,276.08Zm7.088,2.5a2.236,2.236,0,0,1-2.176-2.48,2.195,2.195,0,1,1,2.176,2.48Zm0-6.608a4.137,4.137,0,1,0,4.048,4.128A3.961,3.961,0,0,0,22.128,271.968Zm7.088,4.112a2.174,2.174,0,0,1,2.112-2.432c1.216,0,2.048.928,2.048,2.416s-.848,2.5-2.064,2.5C30.048,278.56,29.216,277.568,29.216,276.08Zm5.952-7.664H33.36v4.7A2.377,2.377,0,0,0,31.072,272a3.827,3.827,0,0,0-3.712,4.08c0,2.352,1.5,4.112,3.744,4.112a2.563,2.563,0,0,0,2.288-1.2,7.794,7.794,0,0,0,.08,1.008h1.776a12.773,12.773,0,0,1-.08-1.424Zm4.8,14.736,4.96-10.944H42.96l-2.1,4.928-2.24-4.928h-2.1l3.328,6.864-1.872,4.08Zm12.56-8.56L45.776,271.2v1.792l4.864,2.352-4.864,2.368v1.76l6.752-3.376ZM8.5,316.1l6.752,3.376V317.7l-4.832-2.368,4.832-2.352V311.2L8.5,314.592Zm14.576-7.52H21.36l-5.584,11.5h1.712ZM26.08,320v-1.04a2.677,2.677,0,0,0,2.4,1.232c2.272,0,3.664-1.776,3.664-4.128,0-2.288-1.264-4.064-3.6-4.064a2.809,2.809,0,0,0-2.448,1.168v-4.752H24.272V320Zm4.192-3.92c0,1.536-.88,2.464-2.1,2.464a2.184,2.184,0,0,1-2.1-2.464,2.146,2.146,0,0,1,2.1-2.432C29.408,313.648,30.272,314.528,30.272,316.08Zm7.088,2.5a2.236,2.236,0,0,1-2.176-2.48,2.195,2.195,0,1,1,2.176,2.48Zm0-6.608a4.137,4.137,0,1,0,4.048,4.128A3.961,3.961,0,0,0,37.36,311.968Zm7.088,4.112a2.174,2.174,0,0,1,2.112-2.432c1.216,0,2.048.928,2.048,2.416s-.848,2.5-2.064,2.5C45.28,318.56,44.448,317.568,44.448,316.08Zm5.952-7.664H48.592v4.7A2.377,2.377,0,0,0,46.3,312a3.827,3.827,0,0,0-3.712,4.08c0,2.352,1.5,4.112,3.744,4.112a2.563,2.563,0,0,0,2.288-1.2A7.8,7.8,0,0,0,48.7,320H50.48a12.774,12.774,0,0,1-.08-1.424Zm4.8,14.736,4.96-10.944H58.192l-2.1,4.928-2.24-4.928h-2.1l3.328,6.864-1.872,4.08Zm12.56-8.56L61.008,311.2v1.792l4.864,2.352-4.864,2.368v1.76L67.76,316.1Z" transform="translate(629 3519)" fill="#828aa3"/>
      <path id="Path_19153" data-name="Path 19153" d="M.56-3.9,7.312-.528V-2.3L2.48-4.672,7.312-7.024V-8.8L.56-5.408Zm10.992-7.44H9.3L9.76-3.36H11.1ZM9.264-1.056A1.161,1.161,0,0,0,10.416.112,1.178,1.178,0,0,0,11.6-1.056,1.192,1.192,0,0,0,10.416-2.24,1.175,1.175,0,0,0,9.264-1.056Zm6.1-2.864a2.174,2.174,0,0,1,2.112-2.432c1.216,0,2.048.928,2.048,2.416s-.848,2.5-2.064,2.5C16.192-1.44,15.36-2.432,15.36-3.92Zm5.952-7.664H19.5v4.7A2.377,2.377,0,0,0,17.216-8,3.827,3.827,0,0,0,13.5-3.92c0,2.352,1.5,4.112,3.744,4.112a2.563,2.563,0,0,0,2.288-1.2A7.8,7.8,0,0,0,19.616,0h1.776a12.774,12.774,0,0,1-.08-1.424Zm5.856,10.16A2.236,2.236,0,0,1,24.992-3.9a2.207,2.207,0,0,1,2.176-2.448A2.2,2.2,0,0,1,29.344-3.9,2.218,2.218,0,0,1,27.168-1.424Zm0-6.608A3.961,3.961,0,0,0,23.136-3.9,3.965,3.965,0,0,0,27.168.24,3.969,3.969,0,0,0,31.216-3.9,3.964,3.964,0,0,0,27.168-8.032ZM36.4-6.32a1.833,1.833,0,0,1,1.888,1.456l1.664-.608a3.484,3.484,0,0,0-3.568-2.56A3.96,3.96,0,0,0,32.4-3.9,4,4,0,0,0,36.432.24,3.613,3.613,0,0,0,40.016-2.3L38.384-2.9a1.966,1.966,0,0,1-1.952,1.44A2.216,2.216,0,0,1,34.256-3.9,2.182,2.182,0,0,1,36.4-6.32Zm7.616-3.856h-1.68v1.168a1.105,1.105,0,0,1-1.2,1.216h-.4v1.648h1.44v3.92A2.148,2.148,0,0,0,44.512.1,2.92,2.92,0,0,0,45.648-.08V-1.616a3.963,3.963,0,0,1-.64.064c-.688,0-.992-.288-.992-.976V-6.144h1.616V-7.792H44.016ZM50.032,3.152l4.96-10.944H53.024l-2.1,4.928-2.24-4.928h-2.1L49.92-.928l-1.872,4.08Zm8.16-.112V-.88A2.816,2.816,0,0,0,60.56.192c2.24,0,3.664-1.76,3.664-4.1,0-2.3-1.3-4.064-3.6-4.064a2.8,2.8,0,0,0-2.48,1.232V-7.792H56.352V3.04ZM62.368-3.9a2.168,2.168,0,0,1-2.1,2.448,2.177,2.177,0,0,1-2.1-2.448,2.166,2.166,0,0,1,2.1-2.416A2.148,2.148,0,0,1,62.368-3.9Zm4.944-.848a1.871,1.871,0,0,1,1.9-1.728,1.745,1.745,0,0,1,1.92,1.728ZM71.344-2.72a1.88,1.88,0,0,1-1.952,1.36,2.086,2.086,0,0,1-2.128-2.032h5.7a2.749,2.749,0,0,0,.048-.592c0-2.464-1.408-4.048-3.808-4.048a3.906,3.906,0,0,0-3.792,4.1A3.935,3.935,0,0,0,69.392.24a3.51,3.51,0,0,0,3.52-2.464Zm9.264-1.856a1.62,1.62,0,0,1,1.616-1.76c1.168,0,1.6.768,1.6,1.728V0H85.68V-4.928a2.769,2.769,0,0,0-2.848-3.088,2.776,2.776,0,0,0-2.224.976v-4.544H78.752V0h1.856Zm9.68-5.6h-1.68v1.168a1.105,1.105,0,0,1-1.2,1.216h-.4v1.648h1.44v3.92A2.148,2.148,0,0,0,90.784.1,2.92,2.92,0,0,0,91.92-.08V-1.616a3.962,3.962,0,0,1-.64.064c-.688,0-.992-.288-.992-.976V-6.144H91.9V-7.792H90.288ZM95.5,0V-4.624A1.593,1.593,0,0,1,97.12-6.352a1.421,1.421,0,0,1,1.5,1.6V0h1.824V-4.624a1.62,1.62,0,0,1,1.616-1.728,1.422,1.422,0,0,1,1.5,1.6V0h1.792V-5.056a2.676,2.676,0,0,0-2.752-2.96A2.734,2.734,0,0,0,100.08-6.64a2.443,2.443,0,0,0-2.336-1.376A2.659,2.659,0,0,0,95.44-6.8v-.992H93.664V0Zm13.984,0V-11.584h-1.856V0Zm8.48-5.408L111.216-8.8v1.792l4.864,2.352-4.864,2.368v1.76L117.968-3.9ZM32.3,96.1l6.752,3.376V97.7l-4.832-2.368,4.832-2.352V91.2L32.3,94.592Zm10.32,3.9V95.376a1.593,1.593,0,0,1,1.616-1.728,1.421,1.421,0,0,1,1.5,1.6V100h1.824V95.376a1.62,1.62,0,0,1,1.616-1.728,1.422,1.422,0,0,1,1.5,1.6V100H52.48V94.944a2.676,2.676,0,0,0-2.752-2.96A2.734,2.734,0,0,0,47.2,93.36a2.443,2.443,0,0,0-2.336-1.376,2.659,2.659,0,0,0-2.3,1.216v-.992H40.784V100Zm13.424-4.752a1.871,1.871,0,0,1,1.9-1.728,1.745,1.745,0,0,1,1.92,1.728ZM60.08,97.28a1.88,1.88,0,0,1-1.952,1.36A2.086,2.086,0,0,1,56,96.608h5.7a2.749,2.749,0,0,0,.048-.592c0-2.464-1.408-4.048-3.808-4.048a4.145,4.145,0,0,0,.192,8.272,3.51,3.51,0,0,0,3.52-2.464Zm5.792-7.456h-1.68v1.168a1.105,1.105,0,0,1-1.2,1.216h-.4v1.648h1.44v3.92a2.148,2.148,0,0,0,2.336,2.32A2.92,2.92,0,0,0,67.5,99.92V98.384a3.963,3.963,0,0,1-.64.064c-.688,0-.992-.288-.992-.976V93.856h1.616V92.208H65.872Zm3.056,8.064a2.444,2.444,0,0,0,2.64,2.352,2.719,2.719,0,0,0,2.4-1.232,4.332,4.332,0,0,0,.08.992h1.728a7.067,7.067,0,0,1-.1-1.248V94.88c0-1.552-.912-2.912-3.312-2.912a3.052,3.052,0,0,0-3.28,2.544l1.7.384a1.5,1.5,0,0,1,1.6-1.408c1.024,0,1.472.528,1.472,1.184,0,.272-.128.5-.576.56l-2,.3A2.4,2.4,0,0,0,68.928,97.888Zm2.992.9a1.03,1.03,0,0,1-1.136-1.008c0-.64.464-.96,1.04-1.056l2.032-.3v.352A1.773,1.773,0,0,1,71.92,98.784Zm13.36-5.1a1.833,1.833,0,0,1,1.888,1.456l1.664-.608a3.484,3.484,0,0,0-3.568-2.56A3.96,3.96,0,0,0,81.28,96.1a4,4,0,0,0,4.032,4.144A3.613,3.613,0,0,0,88.9,97.7L87.264,97.1a1.966,1.966,0,0,1-1.952,1.44A2.216,2.216,0,0,1,83.136,96.1,2.182,2.182,0,0,1,85.28,93.68Zm7.12,1.744a1.62,1.62,0,0,1,1.616-1.76c1.168,0,1.6.768,1.6,1.728V100h1.856V95.072A2.905,2.905,0,0,0,92.4,92.96V88.416H90.544V100H92.4Zm6.848,2.464a2.444,2.444,0,0,0,2.64,2.352,2.719,2.719,0,0,0,2.4-1.232,4.333,4.333,0,0,0,.08.992H106.1a7.067,7.067,0,0,1-.1-1.248V94.88c0-1.552-.912-2.912-3.312-2.912a3.052,3.052,0,0,0-3.28,2.544l1.7.384a1.5,1.5,0,0,1,1.6-1.408c1.024,0,1.472.528,1.472,1.184,0,.272-.128.5-.576.56l-2,.3A2.4,2.4,0,0,0,99.248,97.888Zm2.992.9a1.03,1.03,0,0,1-1.136-1.008c0-.64.464-.96,1.04-1.056l2.032-.3v.352A1.773,1.773,0,0,1,102.24,98.784ZM112.8,92.16a2.657,2.657,0,0,0-.5-.048,2.357,2.357,0,0,0-2.256,1.344V92.208H108.24V100H110.1V96.288c0-1.456.656-2.288,2.1-2.288a4.05,4.05,0,0,1,.608.048Zm.88,5.728c.1.88.96,2.352,3.216,2.352a2.648,2.648,0,0,0,2.944-2.5,2.452,2.452,0,0,0-2.24-2.368l-1.184-.24a.856.856,0,0,1-.784-.816,1.013,1.013,0,0,1,1.12-.9,1.339,1.339,0,0,1,1.44,1.168l1.568-.448a2.75,2.75,0,0,0-3.008-2.176,2.7,2.7,0,0,0-2.864,2.512,2.354,2.354,0,0,0,2.1,2.272l1.152.256c.624.128.912.448.912.864,0,.48-.4.9-1.168.9A1.459,1.459,0,0,1,115.3,97.44Zm9.248-2.64a1.871,1.871,0,0,1,1.9-1.728,1.745,1.745,0,0,1,1.92,1.728Zm4.032,2.032a1.88,1.88,0,0,1-1.952,1.36,2.086,2.086,0,0,1-2.128-2.032h5.7a2.75,2.75,0,0,0,.048-.592c0-2.464-1.408-4.048-3.808-4.048a4.145,4.145,0,0,0,.192,8.272,3.51,3.51,0,0,0,3.52-2.464Zm5.792-7.456h-1.68v1.168a1.105,1.105,0,0,1-1.2,1.216h-.4v1.648h1.44v3.92a2.148,2.148,0,0,0,2.336,2.32,2.92,2.92,0,0,0,1.136-.176V98.384a3.963,3.963,0,0,1-.64.064c-.688,0-.992-.288-.992-.976V93.856h1.616V92.208h-1.616Zm10.88,4.688v-1.5h-7.6v1.5Zm0,3.152v-1.52h-7.6v1.52Zm1.568-7.12a2.29,2.29,0,0,0,.048.368l.7,2.96h.656l.72-2.96a1.364,1.364,0,0,0,.048-.368,1.088,1.088,0,1,0-2.176,0Zm2.88,0a2.29,2.29,0,0,0,.048.368l.7,2.96h.656l.72-2.96a1.364,1.364,0,0,0,.048-.368,1.088,1.088,0,1,0-2.176,0Zm9.04,8.592a5.8,5.8,0,0,0,.064.864h1.776a12.684,12.684,0,0,1-.08-1.424V92.208h-1.856v4.608a1.561,1.561,0,0,1-1.632,1.744c-1.12,0-1.568-.816-1.568-1.776V92.208h-1.856V97.12a2.881,2.881,0,0,0,2.944,3.1A2.492,2.492,0,0,0,157.12,99.136Zm6.512-9.312h-1.68v1.168a1.105,1.105,0,0,1-1.2,1.216h-.4v1.648h1.44v3.92a2.148,2.148,0,0,0,2.336,2.32,2.92,2.92,0,0,0,1.136-.176V98.384a3.963,3.963,0,0,1-.64.064c-.688,0-.992-.288-.992-.976V93.856h1.616V92.208h-1.616Zm6.944.176a2.38,2.38,0,0,1,.672.08V88.5a2.635,2.635,0,0,0-.976-.16,2.592,2.592,0,0,0-2.72,2.8v1.072h-1.36v1.616h1.36V100h1.872V93.824h1.808V92.208h-1.808V91.184A1.066,1.066,0,0,1,170.576,90Zm6.064,6.144V94.5h-4.512v1.648Zm5.232-2.192a1.558,1.558,0,0,1-1.7-1.52,1.722,1.722,0,0,1,3.408,0A1.563,1.563,0,0,1,181.872,93.952Zm0,4.672c-1.248,0-1.936-.736-1.936-1.584s.688-1.6,1.936-1.6c1.264,0,1.952.752,1.952,1.6S183.136,98.624,181.872,98.624Zm0,1.616c2.384,0,3.856-1.28,3.856-3.008a2.761,2.761,0,0,0-1.92-2.544,2.6,2.6,0,0,0,1.68-2.368c0-1.728-1.536-2.928-3.616-2.928s-3.6,1.2-3.6,2.928a2.587,2.587,0,0,0,1.68,2.368,2.74,2.74,0,0,0-1.92,2.544C178.032,98.96,179.5,100.24,181.872,100.24Zm5.12-9.7a2.29,2.29,0,0,0,.048.368l.7,2.96h.656l.72-2.96a1.364,1.364,0,0,0,.048-.368,1.088,1.088,0,1,0-2.176,0Zm2.88,0a2.29,2.29,0,0,0,.048.368l.7,2.96h.656l.72-2.96a1.364,1.364,0,0,0,.048-.368,1.088,1.088,0,1,0-2.176,0Zm10.048,4.048L193.168,91.2v1.792l4.864,2.352-4.864,2.368v1.76L199.92,96.1ZM32.3,116.1l6.752,3.376V117.7l-4.832-2.368,4.832-2.352V111.2L32.3,114.592Zm10.32,3.9v-4.624a1.593,1.593,0,0,1,1.616-1.728,1.421,1.421,0,0,1,1.5,1.6V120h1.824v-4.624a1.62,1.62,0,0,1,1.616-1.728,1.422,1.422,0,0,1,1.5,1.6V120H52.48v-5.056a2.676,2.676,0,0,0-2.752-2.96A2.734,2.734,0,0,0,47.2,113.36a2.443,2.443,0,0,0-2.336-1.376,2.659,2.659,0,0,0-2.3,1.216v-.992H40.784V120Zm13.424-4.752a1.871,1.871,0,0,1,1.9-1.728,1.745,1.745,0,0,1,1.92,1.728Zm4.032,2.032a1.88,1.88,0,0,1-1.952,1.36A2.086,2.086,0,0,1,56,116.608h5.7a2.749,2.749,0,0,0,.048-.592c0-2.464-1.408-4.048-3.808-4.048a4.145,4.145,0,0,0,.192,8.272,3.51,3.51,0,0,0,3.52-2.464Zm5.792-7.456h-1.68v1.168a1.105,1.105,0,0,1-1.2,1.216h-.4v1.648h1.44v3.92a2.148,2.148,0,0,0,2.336,2.32,2.92,2.92,0,0,0,1.136-.176v-1.536a3.963,3.963,0,0,1-.64.064c-.688,0-.992-.288-.992-.976v-3.616h1.616v-1.648H65.872Zm3.056,8.064a2.444,2.444,0,0,0,2.64,2.352,2.719,2.719,0,0,0,2.4-1.232,4.332,4.332,0,0,0,.08.992h1.728a7.067,7.067,0,0,1-.1-1.248V114.88c0-1.552-.912-2.912-3.312-2.912a3.052,3.052,0,0,0-3.28,2.544l1.7.384a1.5,1.5,0,0,1,1.6-1.408c1.024,0,1.472.528,1.472,1.184,0,.272-.128.5-.576.56l-2,.3A2.4,2.4,0,0,0,68.928,117.888Zm2.992.9a1.03,1.03,0,0,1-1.136-1.008c0-.64.464-.96,1.04-1.056l2.032-.3v.352A1.773,1.773,0,0,1,71.92,118.784Zm11.824-3.28a1.636,1.636,0,0,1,1.616-1.84c1.168,0,1.6.768,1.6,1.728V120h1.856v-4.928c0-1.712-.912-3.088-2.816-3.088a2.587,2.587,0,0,0-2.3,1.264v-1.04H81.888V120h1.856Zm6.848,2.384a2.444,2.444,0,0,0,2.64,2.352,2.719,2.719,0,0,0,2.4-1.232,4.332,4.332,0,0,0,.08.992H97.44a7.067,7.067,0,0,1-.1-1.248V114.88c0-1.552-.912-2.912-3.312-2.912a3.052,3.052,0,0,0-3.28,2.544l1.7.384a1.5,1.5,0,0,1,1.6-1.408c1.024,0,1.472.528,1.472,1.184,0,.272-.128.5-.576.56l-2,.3A2.4,2.4,0,0,0,90.592,117.888Zm2.992.9a1.03,1.03,0,0,1-1.136-1.008c0-.64.464-.96,1.04-1.056l2.032-.3v.352A1.773,1.773,0,0,1,93.584,118.784Zm7.84,1.216v-4.624a1.593,1.593,0,0,1,1.616-1.728,1.421,1.421,0,0,1,1.5,1.6V120h1.824v-4.624a1.62,1.62,0,0,1,1.616-1.728,1.422,1.422,0,0,1,1.5,1.6V120h1.792v-5.056a2.676,2.676,0,0,0-2.752-2.96A2.734,2.734,0,0,0,106,113.36a2.443,2.443,0,0,0-2.336-1.376,2.659,2.659,0,0,0-2.3,1.216v-.992H99.584V120Zm13.424-4.752a1.871,1.871,0,0,1,1.9-1.728,1.745,1.745,0,0,1,1.92,1.728Zm4.032,2.032a1.88,1.88,0,0,1-1.952,1.36,2.086,2.086,0,0,1-2.128-2.032h5.7a2.749,2.749,0,0,0,.048-.592c0-2.464-1.408-4.048-3.808-4.048a4.145,4.145,0,0,0,.192,8.272,3.51,3.51,0,0,0,3.52-2.464Zm10.832-2.768v-1.5h-7.6v1.5Zm0,3.152v-1.52h-7.6v1.52Zm1.568-7.12a2.29,2.29,0,0,0,.048.368l.7,2.96h.656l.72-2.96a1.364,1.364,0,0,0,.048-.368,1.088,1.088,0,1,0-2.176,0Zm2.88,0a2.29,2.29,0,0,0,.048.368l.7,2.96h.656l.72-2.96a1.364,1.364,0,0,0,.048-.368,1.088,1.088,0,1,0-2.176,0Zm11.216,1.664h-1.952l-2.016,5.568-2.064-5.568H137.3L140.464,120h1.856Zm3.2,7.792v-7.792h-1.84V120Zm-2.128-10.528a1.208,1.208,0,0,0,2.416,0,1.208,1.208,0,1,0-2.416,0Zm5.824,5.776a1.871,1.871,0,0,1,1.9-1.728,1.745,1.745,0,0,1,1.92,1.728Zm4.032,2.032a1.88,1.88,0,0,1-1.952,1.36,2.086,2.086,0,0,1-2.128-2.032h5.7a2.749,2.749,0,0,0,.048-.592c0-2.464-1.408-4.048-3.808-4.048a4.145,4.145,0,0,0,.192,8.272,3.51,3.51,0,0,0,3.52-2.464Zm7.744-5.072-1.84,5.392-1.584-5.392H158.64L161.168,120h1.9l1.888-5.6L166.9,120h1.856l2.5-7.792H169.36l-1.552,5.392-1.84-5.392ZM174.5,123.04v-3.92a2.816,2.816,0,0,0,2.368,1.072c2.24,0,3.664-1.76,3.664-4.1,0-2.3-1.3-4.064-3.6-4.064a2.8,2.8,0,0,0-2.48,1.232v-1.056h-1.792V123.04Zm4.176-6.944a2.117,2.117,0,1,1-2.1-2.416A2.168,2.168,0,0,1,178.672,116.1Zm7.072,2.48a2.236,2.236,0,0,1-2.176-2.48,2.195,2.195,0,1,1,2.176,2.48Zm0-6.608a4.137,4.137,0,1,0,4.048,4.128A3.961,3.961,0,0,0,185.744,111.968Zm10.4.192a2.657,2.657,0,0,0-.5-.048,2.357,2.357,0,0,0-2.256,1.344v-1.248h-1.808V120h1.856v-3.712c0-1.456.656-2.288,2.1-2.288a4.05,4.05,0,0,1,.608.048Zm4.24-2.336H198.7v1.168a1.105,1.105,0,0,1-1.2,1.216h-.4v1.648h1.44v3.92a2.148,2.148,0,0,0,2.336,2.32,2.92,2.92,0,0,0,1.136-.176v-1.536a3.963,3.963,0,0,1-.64.064c-.688,0-.992-.288-.992-.976v-3.616H202v-1.648h-1.616Zm2.928.72a2.29,2.29,0,0,0,.048.368l.7,2.96h.656l.72-2.96a1.364,1.364,0,0,0,.048-.368,1.088,1.088,0,1,0-2.176,0Zm2.88,0a2.29,2.29,0,0,0,.048.368l.7,2.96h.656l.72-2.96a1.364,1.364,0,0,0,.048-.368,1.088,1.088,0,1,0-2.176,0ZM36.336,133.68a1.833,1.833,0,0,1,1.888,1.456l1.664-.608a3.484,3.484,0,0,0-3.568-2.56,3.96,3.96,0,0,0-3.984,4.128,4,4,0,0,0,4.032,4.144,3.613,3.613,0,0,0,3.584-2.544L38.32,137.1a1.966,1.966,0,0,1-1.952,1.44,2.216,2.216,0,0,1-2.176-2.448A2.182,2.182,0,0,1,36.336,133.68Zm8.608,4.9a2.236,2.236,0,0,1-2.176-2.48,2.195,2.195,0,1,1,2.176,2.48Zm0-6.608a4.137,4.137,0,1,0,4.048,4.128A3.961,3.961,0,0,0,44.944,131.968Zm7.7,3.536a1.636,1.636,0,0,1,1.616-1.84c1.168,0,1.6.768,1.6,1.728V140h1.856v-4.928c0-1.712-.912-3.088-2.816-3.088a2.587,2.587,0,0,0-2.3,1.264v-1.04H50.784V140H52.64Zm9.68-5.68H60.64v1.168a1.105,1.105,0,0,1-1.2,1.216h-.4v1.648h1.44v3.92a2.148,2.148,0,0,0,2.336,2.32,2.92,2.92,0,0,0,1.136-.176v-1.536a3.964,3.964,0,0,1-.64.064c-.688,0-.992-.288-.992-.976v-3.616h1.616v-1.648H62.32Zm4.736,5.424a1.871,1.871,0,0,1,1.9-1.728,1.745,1.745,0,0,1,1.92,1.728Zm4.032,2.032a1.88,1.88,0,0,1-1.952,1.36,2.086,2.086,0,0,1-2.128-2.032h5.7a2.749,2.749,0,0,0,.048-.592c0-2.464-1.408-4.048-3.808-4.048a4.145,4.145,0,0,0,.192,8.272,3.51,3.51,0,0,0,3.52-2.464Zm5.3-1.776A1.636,1.636,0,0,1,78,133.664c1.168,0,1.6.768,1.6,1.728V140h1.856v-4.928c0-1.712-.912-3.088-2.816-3.088a2.587,2.587,0,0,0-2.3,1.264v-1.04H74.528V140h1.856Zm9.68-5.68h-1.68v1.168a1.105,1.105,0,0,1-1.2,1.216h-.4v1.648h1.44v3.92a2.148,2.148,0,0,0,2.336,2.32,2.92,2.92,0,0,0,1.136-.176v-1.536a3.964,3.964,0,0,1-.64.064c-.688,0-.992-.288-.992-.976v-3.616H87.68v-1.648H86.064Zm10.88,4.688v-1.5h-7.6v1.5Zm0,3.152v-1.52h-7.6v1.52Zm1.568-7.12a2.291,2.291,0,0,0,.048.368l.7,2.96h.656l.72-2.96a1.364,1.364,0,0,0,.048-.368,1.088,1.088,0,1,0-2.176,0Zm2.88,0a2.291,2.291,0,0,0,.048.368l.7,2.96h.656l.72-2.96a1.364,1.364,0,0,0,.048-.368,1.088,1.088,0,1,0-2.176,0Zm8.592,1.664-1.84,5.392-1.584-5.392h-1.984L107.1,140h1.9l1.888-5.6,1.936,5.6h1.856l2.5-7.792H115.3l-1.552,5.392-1.84-5.392ZM120.432,140v-7.792h-1.84V140ZM118.3,129.472a1.208,1.208,0,0,0,2.416,0,1.208,1.208,0,1,0-2.416,0Zm5.776,6.608a2.174,2.174,0,0,1,2.112-2.432c1.216,0,2.048.928,2.048,2.416s-.848,2.5-2.064,2.5C124.912,138.56,124.08,137.568,124.08,136.08Zm5.952-7.664h-1.808v4.7a2.376,2.376,0,0,0-2.288-1.12,3.827,3.827,0,0,0-3.712,4.08c0,2.352,1.5,4.112,3.744,4.112a2.563,2.563,0,0,0,2.288-1.2,7.8,7.8,0,0,0,.08,1.008h1.776a12.776,12.776,0,0,1-.08-1.424Zm4.784,1.408h-1.68v1.168a1.105,1.105,0,0,1-1.2,1.216h-.4v1.648h1.44v3.92a2.148,2.148,0,0,0,2.336,2.32,2.92,2.92,0,0,0,1.136-.176v-1.536a3.964,3.964,0,0,1-.64.064c-.688,0-.992-.288-.992-.976v-3.616h1.616v-1.648h-1.616Zm5.152,5.6a1.62,1.62,0,0,1,1.616-1.76c1.168,0,1.6.768,1.6,1.728V140h1.856v-4.928a2.905,2.905,0,0,0-5.072-2.112v-4.544h-1.856V140h1.856Zm14.672-.912v-1.5h-7.6v1.5Zm0,3.152v-1.52h-7.6v1.52Zm3.424-1.584a2.174,2.174,0,0,1,2.112-2.432c1.216,0,2.048.928,2.048,2.416s-.848,2.5-2.064,2.5C158.9,138.56,158.064,137.568,158.064,136.08Zm5.952-7.664h-1.808v4.7A2.376,2.376,0,0,0,159.92,132a3.827,3.827,0,0,0-3.712,4.08c0,2.352,1.5,4.112,3.744,4.112a2.563,2.563,0,0,0,2.288-1.2,7.8,7.8,0,0,0,.08,1.008H164.1a12.776,12.776,0,0,1-.08-1.424Zm3.728,6.832a1.871,1.871,0,0,1,1.9-1.728,1.745,1.745,0,0,1,1.92,1.728Zm4.032,2.032a1.88,1.88,0,0,1-1.952,1.36,2.086,2.086,0,0,1-2.128-2.032h5.7a2.749,2.749,0,0,0,.048-.592c0-2.464-1.408-4.048-3.808-4.048a4.145,4.145,0,0,0,.192,8.272,3.51,3.51,0,0,0,3.52-2.464Zm10.32-5.072h-1.952l-2.016,5.568-2.064-5.568h-2.048L177.184,140h1.856ZM185.3,140v-7.792h-1.84V140Zm-2.128-10.528a1.208,1.208,0,0,0,2.416,0,1.208,1.208,0,1,0-2.416,0Zm7.92,4.208a1.833,1.833,0,0,1,1.888,1.456l1.664-.608a3.484,3.484,0,0,0-3.568-2.56,3.96,3.96,0,0,0-3.984,4.128,4,4,0,0,0,4.032,4.144A3.613,3.613,0,0,0,194.7,137.7l-1.632-.592a1.966,1.966,0,0,1-1.952,1.44,2.216,2.216,0,0,1-2.176-2.448A2.182,2.182,0,0,1,191.088,133.68Zm6.48,1.568a1.871,1.871,0,0,1,1.9-1.728,1.745,1.745,0,0,1,1.92,1.728Zm4.032,2.032a1.88,1.88,0,0,1-1.952,1.36,2.086,2.086,0,0,1-2.128-2.032h5.7a2.749,2.749,0,0,0,.048-.592c0-2.464-1.408-4.048-3.808-4.048a4.145,4.145,0,0,0,.192,8.272,3.51,3.51,0,0,0,3.52-2.464Zm7.472-1.136V134.5H204.56v1.648Zm6.224-3.936-1.84,5.392-1.584-5.392h-1.984L212.416,140h1.9l1.888-5.6,1.936,5.6H220l2.5-7.792h-1.888l-1.552,5.392-1.84-5.392ZM225.744,140v-7.792H223.9V140Zm-2.128-10.528a1.208,1.208,0,0,0,2.416,0,1.208,1.208,0,1,0-2.416,0Zm5.776,6.608a2.174,2.174,0,0,1,2.112-2.432c1.216,0,2.048.928,2.048,2.416s-.848,2.5-2.064,2.5C230.224,138.56,229.392,137.568,229.392,136.08Zm5.952-7.664h-1.808v4.7a2.376,2.376,0,0,0-2.288-1.12,3.827,3.827,0,0,0-3.712,4.08c0,2.352,1.5,4.112,3.744,4.112a2.563,2.563,0,0,0,2.288-1.2,7.8,7.8,0,0,0,.08,1.008h1.776a12.776,12.776,0,0,1-.08-1.424Zm4.784,1.408h-1.68v1.168a1.105,1.105,0,0,1-1.2,1.216h-.4v1.648h1.44v3.92a2.148,2.148,0,0,0,2.336,2.32,2.92,2.92,0,0,0,1.136-.176v-1.536a3.964,3.964,0,0,1-.64.064c-.688,0-.992-.288-.992-.976v-3.616h1.616v-1.648h-1.616Zm5.152,5.6a1.62,1.62,0,0,1,1.616-1.76c1.168,0,1.6.768,1.6,1.728V140h1.856v-4.928a2.905,2.905,0,0,0-5.072-2.112v-4.544h-1.856V140h1.856Zm7.168,3.408a1.159,1.159,0,0,0,1.216,1.216.8.8,0,0,0,.384-.08,1.884,1.884,0,0,1-1.424,1.728v.944a3.114,3.114,0,0,0,2.608-3.328,1.512,1.512,0,0,0-1.456-1.7A1.264,1.264,0,0,0,252.448,138.832ZM34.784,160v-7.792h-1.84V160Zm-2.128-10.528a1.208,1.208,0,0,0,2.416,0,1.208,1.208,0,1,0-2.416,0ZM39.04,155.5a1.636,1.636,0,0,1,1.616-1.84c1.168,0,1.6.768,1.6,1.728V160h1.856v-4.928c0-1.712-.912-3.088-2.816-3.088a2.587,2.587,0,0,0-2.3,1.264v-1.04H37.184V160H39.04Zm9.168,4.5v-7.792h-1.84V160ZM46.08,149.472a1.208,1.208,0,0,0,2.416,0,1.208,1.208,0,1,0-2.416,0Zm6.88.352H51.28v1.168a1.105,1.105,0,0,1-1.2,1.216h-.4v1.648h1.44v3.92a2.148,2.148,0,0,0,2.336,2.32,2.92,2.92,0,0,0,1.136-.176v-1.536a3.964,3.964,0,0,1-.64.064c-.688,0-.992-.288-.992-.976v-3.616h1.616v-1.648H52.96ZM58.32,160v-7.792H56.48V160Zm-2.128-10.528a1.208,1.208,0,0,0,2.416,0,1.208,1.208,0,1,0-2.416,0Zm4.048,8.416a2.444,2.444,0,0,0,2.64,2.352,2.719,2.719,0,0,0,2.4-1.232,4.332,4.332,0,0,0,.08.992h1.728a7.068,7.068,0,0,1-.1-1.248V154.88c0-1.552-.912-2.912-3.312-2.912a3.052,3.052,0,0,0-3.28,2.544l1.7.384a1.5,1.5,0,0,1,1.6-1.408c1.024,0,1.472.528,1.472,1.184,0,.272-.128.5-.576.56l-2,.3A2.4,2.4,0,0,0,60.24,157.888Zm2.992.9a1.03,1.03,0,0,1-1.136-1.008c0-.64.464-.96,1.04-1.056l2.032-.3v.352A1.773,1.773,0,0,1,63.232,158.784ZM71.088,160V148.416H69.232V160Zm6.432-3.856V154.5H73.008v1.648Zm1.232,1.744c.1.88.96,2.352,3.216,2.352a2.648,2.648,0,0,0,2.944-2.5,2.452,2.452,0,0,0-2.24-2.368l-1.184-.24a.856.856,0,0,1-.784-.816,1.013,1.013,0,0,1,1.12-.9,1.339,1.339,0,0,1,1.44,1.168l1.568-.448a2.75,2.75,0,0,0-3.008-2.176,2.7,2.7,0,0,0-2.864,2.512,2.354,2.354,0,0,0,2.1,2.272l1.152.256c.624.128.912.448.912.864,0,.48-.4.9-1.168.9a1.459,1.459,0,0,1-1.584-1.328ZM90.1,153.68a1.833,1.833,0,0,1,1.888,1.456l1.664-.608a3.484,3.484,0,0,0-3.568-2.56A3.96,3.96,0,0,0,86.1,156.1a4,4,0,0,0,4.032,4.144,3.613,3.613,0,0,0,3.584-2.544L92.08,157.1a1.966,1.966,0,0,1-1.952,1.44,2.216,2.216,0,0,1-2.176-2.448A2.182,2.182,0,0,1,90.1,153.68Zm4.736,4.208a2.444,2.444,0,0,0,2.64,2.352,2.719,2.719,0,0,0,2.4-1.232,4.333,4.333,0,0,0,.08.992h1.728a7.067,7.067,0,0,1-.1-1.248V154.88c0-1.552-.912-2.912-3.312-2.912a3.052,3.052,0,0,0-3.28,2.544l1.7.384a1.5,1.5,0,0,1,1.6-1.408c1.024,0,1.472.528,1.472,1.184,0,.272-.128.5-.576.56l-2,.3A2.4,2.4,0,0,0,94.832,157.888Zm2.992.9a1.03,1.03,0,0,1-1.136-1.008c0-.64.464-.96,1.04-1.056l2.032-.3v.352A1.773,1.773,0,0,1,97.824,158.784ZM105.68,160V148.416h-1.856V160Zm3.7-4.752a1.871,1.871,0,0,1,1.9-1.728,1.745,1.745,0,0,1,1.92,1.728Zm4.032,2.032a1.88,1.88,0,0,1-1.952,1.36,2.086,2.086,0,0,1-2.128-2.032h5.7a2.749,2.749,0,0,0,.048-.592c0-2.464-1.408-4.048-3.808-4.048a4.145,4.145,0,0,0,.192,8.272,3.51,3.51,0,0,0,3.52-2.464Zm10.832-2.768v-1.5h-7.6v1.5Zm0,3.152v-1.52h-7.6v1.52ZM129.952,160V149.632h-1.664a2.646,2.646,0,0,1-2.736,1.952V152.9h2.512V160Zm1.648-10.368a1,1,0,0,0,1.056,1.056.625.625,0,0,0,.336-.08,1.585,1.585,0,0,1-1.264,1.44v.864a2.675,2.675,0,0,0,2.32-2.9,1.317,1.317,0,0,0-1.3-1.456A1.092,1.092,0,0,0,131.6,149.632Zm2.944,0a1.012,1.012,0,0,0,1.072,1.056.557.557,0,0,0,.32-.08,1.552,1.552,0,0,1-1.248,1.44v.864a2.675,2.675,0,0,0,2.3-2.9,1.314,1.314,0,0,0-1.28-1.456A1.106,1.106,0,0,0,134.544,149.632Zm10.32,4.96-6.752-3.392v1.792l4.864,2.352-4.864,2.368v1.76l6.752-3.376Z" transform="translate(629 3519)" fill="#817bed"/>
      <path id="Path_19151" data-name="Path 19151" d="M.56,36.1l6.752,3.376V37.7L2.48,35.328l4.832-2.352V31.2L.56,34.592ZM10.9,35.424a1.62,1.62,0,0,1,1.616-1.76c1.168,0,1.6.768,1.6,1.728V40h1.856V35.072a2.769,2.769,0,0,0-2.848-3.088,2.776,2.776,0,0,0-2.224.976V28.416H9.04V40H10.9Zm9.68-5.6H18.9v1.168a1.105,1.105,0,0,1-1.2,1.216h-.4v1.648h1.44v3.92a2.148,2.148,0,0,0,2.336,2.32,2.92,2.92,0,0,0,1.136-.176V38.384a3.962,3.962,0,0,1-.64.064c-.688,0-.992-.288-.992-.976V33.856h1.616V32.208H20.576ZM25.792,40V35.376a1.593,1.593,0,0,1,1.616-1.728,1.421,1.421,0,0,1,1.5,1.6V40h1.824V35.376a1.62,1.62,0,0,1,1.616-1.728,1.422,1.422,0,0,1,1.5,1.6V40h1.792V34.944a2.676,2.676,0,0,0-2.752-2.96,2.734,2.734,0,0,0-2.528,1.376,2.443,2.443,0,0,0-2.336-1.376,2.659,2.659,0,0,0-2.3,1.216v-.992H23.952V40Zm13.984,0V28.416H37.92V40Zm8.48-5.408L41.5,31.2v1.792l4.864,2.352L41.5,37.712v1.76L48.256,36.1ZM.56,336.1l6.752,3.376V337.7L2.48,335.328l4.832-2.352V331.2L.56,334.592Zm14.576-7.52H13.424L7.84,340.08H9.552Zm3.056,6.848a1.62,1.62,0,0,1,1.616-1.76c1.168,0,1.6.768,1.6,1.728V340h1.856v-4.928a2.769,2.769,0,0,0-2.848-3.088,2.776,2.776,0,0,0-2.224.976v-4.544H16.336V340h1.856Zm9.68-5.6h-1.68v1.168a1.105,1.105,0,0,1-1.2,1.216h-.4v1.648h1.44v3.92a2.148,2.148,0,0,0,2.336,2.32,2.921,2.921,0,0,0,1.136-.176v-1.536a3.964,3.964,0,0,1-.64.064c-.688,0-.992-.288-.992-.976v-3.616h1.616v-1.648H27.872ZM33.088,340v-4.624a1.593,1.593,0,0,1,1.616-1.728,1.421,1.421,0,0,1,1.5,1.6V340h1.824v-4.624a1.62,1.62,0,0,1,1.616-1.728,1.422,1.422,0,0,1,1.5,1.6V340h1.792v-5.056a2.676,2.676,0,0,0-2.752-2.96,2.734,2.734,0,0,0-2.528,1.376,2.443,2.443,0,0,0-2.336-1.376,2.659,2.659,0,0,0-2.3,1.216v-.992H31.248V340Zm13.984,0V328.416H45.216V340Zm8.48-5.408L48.8,331.2v1.792l4.864,2.352L48.8,337.712v1.76l6.752-3.376Z" transform="translate(629 3519)" fill="#fac444"/>
    </g>
  </g>
</svg>
