<svg xmlns="http://www.w3.org/2000/svg" xmlns:xlink="http://www.w3.org/1999/xlink" width="861.858" height="733.025" viewBox="0 0 861.858 733.025"><defs><filter id="a" x="56.18" y="130.267" width="679" height="456.233" filterUnits="userSpaceOnUse"><feOffset dy="5" input="SourceAlpha"/><feGaussianBlur stdDeviation="9" result="b"/><feFlood flood-color="#262d41" flood-opacity="0.051"/><feComposite operator="in" in2="b"/><feComposite in="SourceGraphic"/></filter><clipPath id="c"><path d="M21.744,9H11.256v4.25h6.037c-.563,2.7-2.916,4.25-6.037,4.25A6.564,6.564,0,0,1,4.6,11,6.651,6.651,0,0,1,15.4,5.95l3.274-3.2A11.354,11.354,0,0,0,11.256,0,11.1,11.1,0,0,0,0,11,11.1,11.1,0,0,0,11.256,22C16.884,22,22,18,22,11A8.929,8.929,0,0,0,21.744,9Z" fill="none"/></clipPath><filter id="g" x="0" y="1" width="330" height="205" filterUnits="userSpaceOnUse"><feOffset dy="5" input="SourceAlpha"/><feGaussianBlur stdDeviation="9" result="h"/><feFlood flood-color="#262d41" flood-opacity="0.051"/><feComposite operator="in" in2="h"/><feComposite in="SourceGraphic"/></filter><filter id="i" x="486.113" y="46" width="330" height="205" filterUnits="userSpaceOnUse"><feOffset dy="5" input="SourceAlpha"/><feGaussianBlur stdDeviation="9" result="j"/><feFlood flood-color="#262d41" flood-opacity="0.051"/><feComposite operator="in" in2="j"/><feComposite in="SourceGraphic"/></filter><filter id="k" x="89.613" y="507.5" width="339" height="214" filterUnits="userSpaceOnUse"><feOffset dy="-4" input="SourceAlpha"/><feGaussianBlur stdDeviation="10.5" result="l"/><feFlood flood-color="#262d41" flood-opacity="0.051"/><feComposite operator="in" in2="l"/><feComposite in="SourceGraphic"/></filter><filter id="m" x="554.852" y="426.019" width="307.005" height="307.006" filterUnits="userSpaceOnUse"><feOffset dy="3" input="SourceAlpha"/><feGaussianBlur stdDeviation="13" result="n"/><feFlood flood-opacity="0.051"/><feComposite operator="in" in2="n"/><feComposite in="SourceGraphic"/></filter><clipPath id="o"><path d="M89.388,178A88.834,88.834,0,0,0,178,89.388C178,39.846,138.152,0,89.388,0A89.166,89.166,0,0,0,0,89.388C0,138.152,39.846,178,89.388,178Z" fill="none" stroke="#e7edf3" stroke-miterlimit="10" stroke-width="10"/></clipPath><clipPath id="p"><path d="M0,161.064A88.959,88.959,0,0,0,141.171,89.388C141.171,39.846,101.329,0,52.569,0" fill="none" stroke="#f6606e" stroke-linecap="round" stroke-linejoin="round" stroke-miterlimit="10" stroke-width="10"/></clipPath></defs><g transform="translate(-915.886 -4351.203)"><g transform="translate(70 553.703)"><g transform="matrix(1, 0, 0, 1, 845.89, 3797.5)" filter="url(#a)"><rect width="625" height="402.233" rx="10" transform="translate(83.18 152.27)" fill="#fff"/></g><g transform="translate(979 4004)"><g transform="translate(231 47)"><rect width="88" height="266" rx="5" transform="translate(198 -9)" fill="#bcc0cd" opacity="0.12"/><rect width="110" height="266" rx="5" transform="translate(0 -10)" fill="#0ad287" opacity="0.08"/><rect width="88" height="246" transform="translate(110)" fill="#fff" opacity="0.08"/></g><g transform="translate(367 55)"><circle cx="18" cy="18" r="18" fill="#f0f3f8"/><g transform="translate(7 7)"><path d="M21.744,9H11.256v4.25h6.037c-.563,2.7-2.916,4.25-6.037,4.25A6.564,6.564,0,0,1,4.6,11,6.651,6.651,0,0,1,15.4,5.95l3.274-3.2A11.354,11.354,0,0,0,11.256,0,11.1,11.1,0,0,0,0,11,11.1,11.1,0,0,0,11.256,22C16.884,22,22,18,22,11A8.929,8.929,0,0,0,21.744,9Z" fill="none"/><g clip-path="url(#c)"><path d="M0,13V0L8.7,6.5Z" transform="translate(-1.023 4.5)" fill="#fbbc05"/></g><path d="M21.744,9H11.256v4.25h6.037c-.563,2.7-2.916,4.25-6.037,4.25A6.564,6.564,0,0,1,4.6,11,6.651,6.651,0,0,1,15.4,5.95l3.274-3.2A11.354,11.354,0,0,0,11.256,0,11.1,11.1,0,0,0,0,11,11.1,11.1,0,0,0,11.256,22C16.884,22,22,18,22,11A8.929,8.929,0,0,0,21.744,9Z" fill="none"/><g clip-path="url(#c)"><path d="M0,5.5,8.7,12l3.581-3.05L24.558,7V0H0Z" transform="translate(-1.023 -1)" fill="#ea4335"/></g><path d="M21.744,9H11.256v4.25h6.037c-.563,2.7-2.916,4.25-6.037,4.25A6.564,6.564,0,0,1,4.6,11,6.651,6.651,0,0,1,15.4,5.95l3.274-3.2A11.354,11.354,0,0,0,11.256,0,11.1,11.1,0,0,0,0,11,11.1,11.1,0,0,0,11.256,22C16.884,22,22,18,22,11A8.929,8.929,0,0,0,21.744,9Z" fill="none"/><g clip-path="url(#c)"><path d="M0,18.5,15.349,7l4.042.5L24.558,0V24H0Z" transform="translate(-1.023 -1)" fill="#34a853"/></g><path d="M21.744,9H11.256v4.25h6.037c-.563,2.7-2.916,4.25-6.037,4.25A6.564,6.564,0,0,1,4.6,11,6.651,6.651,0,0,1,15.4,5.95l3.274-3.2A11.354,11.354,0,0,0,11.256,0,11.1,11.1,0,0,0,0,11,11.1,11.1,0,0,0,11.256,22C16.884,22,22,18,22,11A8.929,8.929,0,0,0,21.744,9Z" fill="none"/><g clip-path="url(#c)"><path d="M17.907,18.5,2.047,6.5,0,5,17.907,0Z" transform="translate(5.628 4.5)" fill="#4285f4"/></g></g></g><g transform="translate(455 55)"><circle cx="18" cy="18" r="18" fill="#f55656"/><g transform="translate(9 7)"><path d="M0,2.215A7.468,7.468,0,0,1,6.83.15v9.927a.518.518,0,0,1-.874.318Z" transform="translate(1.63)" fill="#fff"/><path d="M3.918,0A7.591,7.591,0,0,1,7.289,5.135L.638,6.212A.856.856,0,0,1,0,5.259L3.918,0Z" transform="translate(10.011 5.82)" fill="#fff"/><path d="M.579,0A.656.656,0,0,0,.023.874L3.387,6.568A7.194,7.194,0,0,0,7.052,1.906L.579,0Z" transform="translate(10.243 14.317)" fill="#fff"/><path d="M4.05.028c.445-.058.86-.066.993.4l.2,6.353A5.433,5.433,0,0,1,0,4.634L4.05.028Z" transform="translate(3.376 15.132)" fill="#fff"/><path d="M6.552,2.224a.869.869,0,0,1,.079,1.271L.516,5.638A7.955,7.955,0,0,1,.516,0L6.552,2.224Z" transform="translate(0 10.011)" fill="#fff"/></g></g><path d="M34.744,6.112V4.656H25.592V6.112h3.792V16h1.568V6.112ZM37.96,14.9a2.461,2.461,0,0,1-2.4-2.752,2.421,2.421,0,1,1,4.8,0A2.461,2.461,0,0,1,37.96,14.9Zm0-6.832a3.881,3.881,0,0,0-3.936,4.08,3.939,3.939,0,1,0,7.872,0A3.881,3.881,0,0,0,37.96,8.064Zm7.792-2.192H44.376V7.12A1.077,1.077,0,0,1,43.192,8.3h-.416v1.36h1.472v4.224a2,2,0,0,0,2.144,2.192,3.292,3.292,0,0,0,1.024-.144v-1.28a3.044,3.044,0,0,1-.592.064c-.784,0-1.072-.352-1.072-1.056v-4h1.664V8.3H45.752Zm3.184,8.064a2.4,2.4,0,0,0,2.576,2.3,2.806,2.806,0,0,0,2.48-1.28,5.63,5.63,0,0,0,.08,1.04h1.472a7.239,7.239,0,0,1-.1-1.264V10.88c0-1.5-.9-2.816-3.2-2.816a2.968,2.968,0,0,0-3.152,2.5l1.44.336A1.633,1.633,0,0,1,52.28,9.344c1.168,0,1.664.624,1.664,1.376,0,.272-.128.512-.592.576l-2.08.3A2.38,2.38,0,0,0,48.936,13.936Zm2.784,1.04a1.167,1.167,0,0,1-1.248-1.12,1.151,1.151,0,0,1,1.12-1.152l2.352-.352V12.7A2.018,2.018,0,0,1,51.72,14.976ZM59.288,16V4.416h-1.5V16Z" transform="translate(242 66)" fill="#697492"/><path d="M6.432.24A5.16,5.16,0,0,0,11.68-3.616L9.616-4.24A3.152,3.152,0,0,1,6.432-1.92a3.5,3.5,0,0,1-3.52-3.744A3.494,3.494,0,0,1,6.4-9.456,2.966,2.966,0,0,1,9.52-7.168l2.08-.656a5,5,0,0,0-5.2-3.76A5.726,5.726,0,0,0,.624-5.664,5.664,5.664,0,0,0,6.432.24ZM16.624-1.7a2.029,2.029,0,0,1-2-2.24,2.02,2.02,0,0,1,2-2.24,2.02,2.02,0,0,1,2,2.24A2.02,2.02,0,0,1,16.624-1.7Zm0-6.416A4.032,4.032,0,0,0,12.5-3.936,4.041,4.041,0,0,0,16.624.24a4.041,4.041,0,0,0,4.128-4.176A4.032,4.032,0,0,0,16.624-8.112ZM24.56,0V-4.608A1.441,1.441,0,0,1,26.032-6.16a1.321,1.321,0,0,1,1.392,1.488V0h2.112V-4.608A1.446,1.446,0,0,1,30.992-6.16a1.313,1.313,0,0,1,1.392,1.488V0h2.064V-5.1A2.723,2.723,0,0,0,31.6-8.1a2.735,2.735,0,0,0-2.5,1.312A2.436,2.436,0,0,0,26.768-8.1a2.705,2.705,0,0,0-2.3,1.184v-.96H22.432V0ZM38.736,3.04V-.768a2.766,2.766,0,0,0,2.272.96c2.224,0,3.712-1.76,3.712-4.144,0-2.336-1.328-4.1-3.632-4.1a2.753,2.753,0,0,0-2.416,1.136v-.96H36.608V3.04Zm3.888-6.976a1.99,1.99,0,0,1-1.952,2.224A2.01,2.01,0,0,1,38.7-3.936a2,2,0,0,1,1.968-2.208A1.985,1.985,0,0,1,42.624-3.936Zm5.328-.9a1.7,1.7,0,0,1,1.76-1.552,1.583,1.583,0,0,1,1.76,1.552ZM51.68-2.784a1.738,1.738,0,0,1-1.792,1.2A1.917,1.917,0,0,1,47.9-3.376h5.632c0-.032.032-.352.032-.656,0-2.528-1.456-4.08-3.888-4.08a3.952,3.952,0,0,0-3.872,4.144A3.987,3.987,0,0,0,49.872.24a3.546,3.546,0,0,0,3.584-2.5Zm6.192-7.44h-1.92v1.1a1.134,1.134,0,0,1-1.216,1.248h-.4v1.888H55.76V-2.32a2.279,2.279,0,0,0,2.5,2.432,3.157,3.157,0,0,0,1.2-.192V-1.84a3.088,3.088,0,0,1-.656.064c-.608,0-.928-.224-.928-.912v-3.3h1.584V-7.872H57.872ZM63.392,0V-7.872H61.264V0ZM61.008-10.448a1.315,1.315,0,0,0,1.312,1.3,1.3,1.3,0,0,0,1.312-1.3,1.311,1.311,0,0,0-1.312-1.328A1.321,1.321,0,0,0,61.008-10.448Zm7.28.224h-1.92v1.1a1.134,1.134,0,0,1-1.216,1.248h-.4v1.888h1.424V-2.32a2.279,2.279,0,0,0,2.5,2.432,3.157,3.157,0,0,0,1.2-.192V-1.84a3.088,3.088,0,0,1-.656.064c-.608,0-.928-.224-.928-.912v-3.3h1.584V-7.872H68.288ZM75.136-1.7a2.029,2.029,0,0,1-2-2.24,2.02,2.02,0,0,1,2-2.24,2.02,2.02,0,0,1,2,2.24A2.02,2.02,0,0,1,75.136-1.7Zm0-6.416a4.032,4.032,0,0,0-4.128,4.176A4.041,4.041,0,0,0,75.136.24a4.041,4.041,0,0,0,4.128-4.176A4.032,4.032,0,0,0,75.136-8.112ZM85.744-7.9a4.845,4.845,0,0,0-.5-.032A2.341,2.341,0,0,0,83.008-6.7V-7.872H80.944V0h2.128V-3.6c0-1.7.944-2.224,2.032-2.224a3.2,3.2,0,0,1,.64.064Zm13.92-1.344v-2.1H90.272v2.1h3.584V0H96.08V-9.248Zm4.9,1.376-1.712,5.056-1.456-5.056h-2.24L101.664,0h2.16l1.808-5.376L107.472,0H109.6l2.464-7.872h-2.112L108.5-2.8l-1.7-5.072ZM116.72-1.7a2.029,2.029,0,0,1-2-2.24,2.02,2.02,0,0,1,2-2.24,2.02,2.02,0,0,1,2,2.24A2.02,2.02,0,0,1,116.72-1.7Zm0-6.416a4.032,4.032,0,0,0-4.128,4.176A4.041,4.041,0,0,0,116.72.24a4.041,4.041,0,0,0,4.128-4.176A4.032,4.032,0,0,0,116.72-8.112Z" transform="translate(15 178)" fill="#828aa3"/><path d="M12.06,8.44V5.82H.32V8.44H4.8V20H7.58V8.44Zm4.26,9.44a2.536,2.536,0,0,1-2.5-2.8,2.516,2.516,0,1,1,5,0A2.525,2.525,0,0,1,16.32,17.88Zm0-8.02a5.04,5.04,0,0,0-5.16,5.22,5.051,5.051,0,0,0,5.16,5.22,5.051,5.051,0,0,0,5.16-5.22A5.04,5.04,0,0,0,16.32,9.86Zm10.5-2.64h-2.4V8.6a1.418,1.418,0,0,1-1.52,1.56h-.5v2.36h1.78V17.1a2.848,2.848,0,0,0,3.12,3.04,3.946,3.946,0,0,0,1.5-.24V17.7a3.86,3.86,0,0,1-.82.08c-.76,0-1.16-.28-1.16-1.14V12.52H28.8V10.16H26.82Zm3.7,10.1a3.107,3.107,0,0,0,3.38,2.96,3.288,3.288,0,0,0,2.9-1.46A6.664,6.664,0,0,0,36.9,20h2.44a11.019,11.019,0,0,1-.12-1.56V13.6c0-1.98-1.16-3.74-4.28-3.74-2.64,0-4.06,1.7-4.22,3.24l2.36.5A1.747,1.747,0,0,1,34.96,12c1.12,0,1.66.58,1.66,1.28,0,.34-.18.62-.74.7l-2.42.36C31.82,14.58,30.52,15.56,30.52,17.32Zm3.94.98a1.155,1.155,0,0,1-1.28-1.14,1.242,1.242,0,0,1,1.22-1.24l2.22-.34v.44A2,2,0,0,1,34.46,18.3ZM44.56,20V5.52H41.9V20ZM55,14.34a1.853,1.853,0,0,1,1.84-2.04,1.73,1.73,0,0,1,1.82,1.96V20h2.66V13.8c0-2.16-1.12-3.9-3.56-3.9a3.269,3.269,0,0,0-2.84,1.48V10.16H52.34V20H55ZM70.38,20h2.54a16.186,16.186,0,0,1-.1-1.78V10.16H70.16v5.72a1.775,1.775,0,0,1-1.86,1.94,1.751,1.751,0,0,1-1.8-1.98V10.16H63.84v6.22a3.626,3.626,0,0,0,3.74,3.88,3.109,3.109,0,0,0,2.72-1.32A6.736,6.736,0,0,0,70.38,20Zm7.94,0V14.24a1.8,1.8,0,0,1,1.84-1.94,1.651,1.651,0,0,1,1.74,1.86V20h2.64V14.24a1.807,1.807,0,0,1,1.82-1.94,1.641,1.641,0,0,1,1.74,1.86V20h2.58V13.62A3.64,3.64,0,0,0,84,11.52a3.044,3.044,0,0,0-2.92-1.64,3.381,3.381,0,0,0-2.88,1.48v-1.2H75.66V20Zm17.64,0V18.8a3.331,3.331,0,0,0,2.92,1.44c2.8,0,4.64-2.22,4.64-5.2,0-2.92-1.66-5.14-4.54-5.14A3.5,3.5,0,0,0,96,11.24V5.52H93.38V20Zm4.9-4.94c0,1.8-1.08,2.8-2.44,2.8a2.52,2.52,0,0,1-2.46-2.8,2.47,2.47,0,1,1,4.9,0Zm6.7-1.1a2.129,2.129,0,0,1,2.2-1.94,1.979,1.979,0,0,1,2.2,1.94Zm4.66,2.56a2.173,2.173,0,0,1-2.24,1.5,2.4,2.4,0,0,1-2.48-2.24h7.04c0-.04.04-.44.04-.82,0-3.16-1.82-5.1-4.86-5.1a4.94,4.94,0,0,0-4.84,5.18,4.984,4.984,0,0,0,5.08,5.26,4.432,4.432,0,0,0,4.48-3.12Zm10.46-6.4a6.057,6.057,0,0,0-.62-.04,2.926,2.926,0,0,0-2.8,1.54V10.16h-2.58V20h2.66V15.5c0-2.12,1.18-2.78,2.54-2.78a4.005,4.005,0,0,1,.8.08Zm11.18,7.76a2.536,2.536,0,0,1-2.5-2.8,2.516,2.516,0,1,1,5,0A2.525,2.525,0,0,1,133.86,17.88Zm0-8.02a5.04,5.04,0,0,0-5.16,5.22,5.16,5.16,0,1,0,10.32,0A5.04,5.04,0,0,0,133.86,9.86Zm11.82-2.14a2.974,2.974,0,0,1,.84.1V5.58a3.867,3.867,0,0,0-1.32-.2,3.392,3.392,0,0,0-3.58,3.66v1.12h-1.64v2.28h1.64V20h2.68V12.44h2.22V10.16H144.3V9.08A1.253,1.253,0,0,1,145.68,7.72Zm13.5,2.4a6.057,6.057,0,0,0-.62-.04,2.926,2.926,0,0,0-2.8,1.54V10.16h-2.58V20h2.66V15.5c0-2.12,1.18-2.78,2.54-2.78a4.005,4.005,0,0,1,.8.08Zm3.72,3.84a2.129,2.129,0,0,1,2.2-1.94,1.979,1.979,0,0,1,2.2,1.94Zm4.66,2.56a2.173,2.173,0,0,1-2.24,1.5,2.4,2.4,0,0,1-2.48-2.24h7.04c0-.04.04-.44.04-.82,0-3.16-1.82-5.1-4.86-5.1a4.94,4.94,0,0,0-4.84,5.18,4.984,4.984,0,0,0,5.08,5.26,4.432,4.432,0,0,0,4.48-3.12Zm13.54-6.36h-2.8l-2.34,6.6-2.44-6.6H170.6L174.62,20h2.66ZM185.38,20V10.16h-2.66V20ZM182.4,6.94a1.64,1.64,0,1,0,1.64-1.66A1.643,1.643,0,0,0,182.4,6.94Zm7.76,7.02a2.129,2.129,0,0,1,2.2-1.94,1.979,1.979,0,0,1,2.2,1.94Zm4.66,2.56a2.173,2.173,0,0,1-2.24,1.5,2.4,2.4,0,0,1-2.48-2.24h7.04c0-.04.04-.44.04-.82,0-3.16-1.82-5.1-4.86-5.1a4.94,4.94,0,0,0-4.84,5.18,4.984,4.984,0,0,0,5.08,5.26,4.432,4.432,0,0,0,4.48-3.12Zm9.88-6.36-2.14,6.32-1.82-6.32h-2.8L201.08,20h2.7l2.26-6.72,2.3,6.72H211l3.08-9.84h-2.64l-1.82,6.34-2.12-6.34Zm10.2,7.1c.12,1.12,1.14,3.04,4.1,3.04,2.58,0,3.82-1.64,3.82-3.24,0-1.44-.98-2.62-2.92-3.02l-1.4-.3c-.54-.1-.9-.4-.9-.88a1.131,1.131,0,0,1,1.26-.98,1.5,1.5,0,0,1,1.62,1.32l2.22-.5c-.12-1.06-1.06-2.84-3.86-2.84a3.431,3.431,0,0,0-3.68,3.22c0,1.38.86,2.52,2.76,2.94l1.3.3c.76.16,1.06.52,1.06.96,0,.52-.42.98-1.3.98a1.636,1.636,0,0,1-1.8-1.5Z" transform="translate(0 -9)" fill="#4f5a79"/><path d="M3.008,9.952V6.064H5.28a1.958,1.958,0,1,1,0,3.888Zm2.56,1.408a3.288,3.288,0,0,0,3.5-3.344,3.309,3.309,0,0,0-3.5-3.36H1.44V16H3.008V11.36Zm9.3-3.136a2.83,2.83,0,0,0-.5-.048,2.41,2.41,0,0,0-2.3,1.472V8.3H10.592V16h1.5V12.144c0-1.7.848-2.368,2.112-2.368a4.694,4.694,0,0,1,.656.048Zm1.12,5.712a2.4,2.4,0,0,0,2.576,2.3,2.806,2.806,0,0,0,2.48-1.28A5.63,5.63,0,0,0,21.12,16h1.472a7.239,7.239,0,0,1-.1-1.264V10.88c0-1.5-.9-2.816-3.2-2.816a2.968,2.968,0,0,0-3.152,2.5l1.44.336a1.633,1.633,0,0,1,1.744-1.552c1.168,0,1.664.624,1.664,1.376,0,.272-.128.512-.592.576l-2.08.3A2.38,2.38,0,0,0,15.984,13.936Zm2.784,1.04a1.167,1.167,0,0,1-1.248-1.12A1.151,1.151,0,0,1,18.64,12.7l2.352-.352V12.7A2.018,2.018,0,0,1,18.768,14.976Zm9.3-5.52a2.019,2.019,0,0,1,2.064,1.632l1.36-.576a3.348,3.348,0,0,0-3.424-2.448,3.859,3.859,0,0,0-3.872,4.08,3.894,3.894,0,0,0,3.888,4.1,3.536,3.536,0,0,0,3.472-2.4l-1.328-.576a2.092,2.092,0,0,1-2.144,1.584,2.419,2.419,0,0,1-2.352-2.7A2.393,2.393,0,0,1,28.064,9.456Zm7.264-3.584H33.952V7.12A1.077,1.077,0,0,1,32.768,8.3h-.416v1.36h1.472v4.224a2,2,0,0,0,2.144,2.192,3.292,3.292,0,0,0,1.024-.144v-1.28a3.044,3.044,0,0,1-.592.064c-.784,0-1.072-.352-1.072-1.056v-4h1.664V8.3H35.328ZM40.48,16V8.3H38.992V16ZM38.656,5.392A1.08,1.08,0,1,0,39.728,4.3,1.072,1.072,0,0,0,38.656,5.392Zm7.616,4.064a2.019,2.019,0,0,1,2.064,1.632l1.36-.576a3.348,3.348,0,0,0-3.424-2.448,3.859,3.859,0,0,0-3.872,4.08,3.894,3.894,0,0,0,3.888,4.1,3.536,3.536,0,0,0,3.472-2.4l-1.328-.576a2.092,2.092,0,0,1-2.144,1.584,2.419,2.419,0,0,1-2.352-2.7A2.393,2.393,0,0,1,46.272,9.456Zm6.144,1.9a2.07,2.07,0,0,1,2.1-1.968,1.939,1.939,0,0,1,2.112,1.968Zm4.432,2a2.1,2.1,0,0,1-2.16,1.552,2.285,2.285,0,0,1-2.32-2.336H58.16a3.381,3.381,0,0,0,.032-.48c0-2.4-1.328-4.032-3.7-4.032a3.841,3.841,0,0,0-3.68,4.064,3.84,3.84,0,0,0,3.872,4.112,3.488,3.488,0,0,0,3.456-2.432Zm2.544.64a2.907,2.907,0,0,0,3.136,2.24,2.553,2.553,0,0,0,2.816-2.384,2.339,2.339,0,0,0-2.128-2.288L61.968,11.3c-.592-.128-.88-.464-.88-.928a1.16,1.16,0,0,1,1.28-1.024,1.493,1.493,0,0,1,1.6,1.28l1.328-.5a2.73,2.73,0,0,0-2.928-2.064A2.623,2.623,0,0,0,59.632,10.5a2.189,2.189,0,0,0,1.92,2.16l1.312.288c.64.144.992.512.992.992,0,.544-.464,1.024-1.312,1.024a1.64,1.64,0,0,1-1.792-1.44Z" transform="translate(14 66)" fill="#697492"/><path d="M-38.665-2.336h5.088V0h1.52V-2.336h1.776V-3.792h-1.776v-6.576h-2.16l-4.448,6.224Zm5.088-1.456h-3.648l3.648-5.072Zm4.1.976A3.606,3.606,0,0,0-25.641.256,3.559,3.559,0,0,0-21.833-3.28a3.288,3.288,0,0,0-3.52-3.44,2.9,2.9,0,0,0-2.112.768l.768-2.976h4.432v-1.44h-5.472l-1.344,5.152c.528.192.992.4,1.536.608a2.658,2.658,0,0,1,1.888-.752,2.072,2.072,0,0,1,2.24,2.144,2.085,2.085,0,0,1-2.224,2.1,2.239,2.239,0,0,1-2.336-2.144ZM-19.017-6.64c-.016-.16-.032-.32-.032-.464a1.915,1.915,0,0,1,2-2.128A1.79,1.79,0,0,1-15.1-7.408a2.591,2.591,0,0,1-1.424,2.16l-1.728,1.12A4.668,4.668,0,0,0-20.713,0h7.264V-1.456h-5.328a2.54,2.54,0,0,1,1.264-1.456l2.048-1.312a3.776,3.776,0,0,0,1.952-3.2,3.2,3.2,0,0,0-3.5-3.184A3.349,3.349,0,0,0-20.6-7.248a3.758,3.758,0,0,0,.016.416ZM-3.951-6.8a2.476,2.476,0,0,0-.434-.042A2.109,2.109,0,0,0-6.4-5.558V-6.734H-7.689V0h1.316V-3.374c0-1.484.742-2.072,1.848-2.072a4.107,4.107,0,0,1,.574.042ZM-1.767-4.06A1.811,1.811,0,0,1,.067-5.782,1.7,1.7,0,0,1,1.915-4.06ZM2.111-2.31A1.835,1.835,0,0,1,.221-.952,2,2,0,0,1-1.809-3H3.259a2.958,2.958,0,0,0,.028-.42c0-2.1-1.162-3.528-3.234-3.528a3.361,3.361,0,0,0-3.22,3.556A3.36,3.36,0,0,0,.221.21,3.052,3.052,0,0,0,3.245-1.918Zm8.484-4.424H9.181L7.249-1.54,5.331-6.734H3.847L6.577,0h1.33ZM13.157,0V-6.734h-1.3V0Zm-1.6-9.282a.938.938,0,0,0,.938.938.941.941,0,0,0,.952-.938.944.944,0,0,0-.952-.952A.941.941,0,0,0,11.561-9.282Zm4.69,5.222a1.811,1.811,0,0,1,1.834-1.722A1.7,1.7,0,0,1,19.933-4.06Zm3.878,1.75a1.835,1.835,0,0,1-1.89,1.358A2,2,0,0,1,16.209-3h5.068a2.958,2.958,0,0,0,.028-.42c0-2.1-1.162-3.528-3.234-3.528a3.361,3.361,0,0,0-3.22,3.556A3.36,3.36,0,0,0,18.239.21a3.052,3.052,0,0,0,3.024-2.128Zm6.58-4.424-1.75,5.068L23.447-6.734H22L24.217,0H25.6l1.75-5.124L29.145,0H30.5l2.184-6.734H31.3L29.817-1.666l-1.75-5.068ZM33.387-1.75A2.543,2.543,0,0,0,36.131.21,2.234,2.234,0,0,0,38.6-1.876a2.047,2.047,0,0,0-1.862-2l-1.092-.238c-.518-.112-.77-.406-.77-.812a1.015,1.015,0,0,1,1.12-.9,1.306,1.306,0,0,1,1.4,1.12l1.162-.434a2.388,2.388,0,0,0-2.562-1.806A2.3,2.3,0,0,0,33.6-4.816a1.916,1.916,0,0,0,1.68,1.89l1.148.252c.56.126.868.448.868.868,0,.476-.406.9-1.148.9a1.435,1.435,0,0,1-1.568-1.26Z" transform="translate(287 177)" fill="#828aa3"/><path d="M-7.616,0V-10.368H-8.992a2.588,2.588,0,0,1-2.672,1.952v1.1h2.512V0Zm1.76-2.336H-.768V0H.752V-2.336H2.528V-3.792H.752v-6.576h-2.16L-5.856-4.144ZM-.768-3.792H-4.416L-.768-8.864ZM3.68-.368A5.021,5.021,0,0,0,6.08.24c3.488,0,5.184-2.272,5.184-6.08,0-3.312-2-4.768-4.032-4.768A3.653,3.653,0,0,0,3.408-7.024a3.436,3.436,0,0,0,3.584,3.5A2.924,2.924,0,0,0,9.68-4.848c-.064,2.032-1.088,3.68-3.6,3.68a4.017,4.017,0,0,1-1.888-.5ZM9.472-7.056a2.164,2.164,0,0,1-2.24,2.192,2.127,2.127,0,0,1-2.24-2.192,2.161,2.161,0,0,1,2.24-2.176A2.18,2.18,0,0,1,9.472-7.056Z" transform="translate(385 178)" fill="#828aa3"/><path d="M-29.841-2.816A3.606,3.606,0,0,0-26,.256,3.559,3.559,0,0,0-22.193-3.28a3.288,3.288,0,0,0-3.52-3.44,2.9,2.9,0,0,0-2.112.768l.768-2.976h4.432v-1.44H-28.1l-1.344,5.152c.528.192.992.4,1.536.608a2.658,2.658,0,0,1,1.888-.752,2.072,2.072,0,0,1,2.24,2.144A2.085,2.085,0,0,1-26-1.12a2.239,2.239,0,0,1-2.336-2.144ZM-12.775-6.8a2.476,2.476,0,0,0-.434-.042,2.109,2.109,0,0,0-2.016,1.288V-6.734h-1.288V0H-15.2V-3.374c0-1.484.742-2.072,1.848-2.072a4.107,4.107,0,0,1,.574.042Zm2.184,2.744A1.811,1.811,0,0,1-8.757-5.782,1.7,1.7,0,0,1-6.909-4.06Zm3.878,1.75A1.835,1.835,0,0,1-8.6-.952,2,2,0,0,1-10.633-3h5.068a2.958,2.958,0,0,0,.028-.42c0-2.1-1.162-3.528-3.234-3.528a3.361,3.361,0,0,0-3.22,3.556A3.36,3.36,0,0,0-8.6.21,3.052,3.052,0,0,0-5.579-1.918ZM1.771-6.734H.357L-1.575-1.54-3.493-6.734H-4.977L-2.247,0h1.33ZM4.333,0V-6.734h-1.3V0Zm-1.6-9.282a.938.938,0,0,0,.938.938.941.941,0,0,0,.952-.938.944.944,0,0,0-.952-.952A.941.941,0,0,0,2.737-9.282ZM7.427-4.06A1.811,1.811,0,0,1,9.261-5.782,1.7,1.7,0,0,1,11.109-4.06Zm3.878,1.75A1.835,1.835,0,0,1,9.415-.952,2,2,0,0,1,7.385-3h5.068a2.958,2.958,0,0,0,.028-.42c0-2.1-1.162-3.528-3.234-3.528a3.361,3.361,0,0,0-3.22,3.556A3.36,3.36,0,0,0,9.415.21a3.052,3.052,0,0,0,3.024-2.128Zm6.58-4.424-1.75,5.068L14.623-6.734H13.181L15.393,0h1.386l1.75-5.124L20.321,0h1.358l2.184-6.734H22.477L20.993-1.666l-1.75-5.068ZM24.563-1.75A2.543,2.543,0,0,0,27.307.21a2.234,2.234,0,0,0,2.464-2.086,2.047,2.047,0,0,0-1.862-2l-1.092-.238c-.518-.112-.77-.406-.77-.812a1.015,1.015,0,0,1,1.12-.9,1.306,1.306,0,0,1,1.4,1.12l1.162-.434a2.388,2.388,0,0,0-2.562-1.806,2.3,2.3,0,0,0-2.394,2.128,1.916,1.916,0,0,0,1.68,1.89l1.148.252c.56.126.868.448.868.868,0,.476-.406.9-1.148.9a1.435,1.435,0,0,1-1.568-1.26Z" transform="translate(286.5 276)" fill="#828aa3"/><path d="M-4.032-2.336H1.056V0h1.52V-2.336H4.352V-3.792H2.576v-6.576H.416L-4.032-4.144ZM1.056-3.792H-2.592L1.056-8.864Z" transform="translate(385.5 276)" fill="#828aa3"/><path d="M-9.272-6.64C-9.288-6.8-9.3-6.96-9.3-7.1a1.915,1.915,0,0,1,2-2.128A1.79,1.79,0,0,1-5.352-7.408a2.591,2.591,0,0,1-1.424,2.16L-8.5-4.128A4.668,4.668,0,0,0-10.968,0H-3.7V-1.456H-9.032A2.54,2.54,0,0,1-7.768-2.912L-5.72-4.224a3.776,3.776,0,0,0,1.952-3.2,3.2,3.2,0,0,0-3.5-3.184,3.349,3.349,0,0,0-3.584,3.36,3.757,3.757,0,0,0,.016.416Zm6.528,4.3H2.344V0h1.52V-2.336H5.64V-3.792H3.864v-6.576H1.7L-2.744-4.144ZM2.344-3.792H-1.3L2.344-8.864ZM10.328,0V-10.368H8.952A2.588,2.588,0,0,1,6.28-8.416v1.1H8.792V0Z" transform="translate(473 178)" fill="#828aa3"/><path d="M1.624,0V-10.368H.248A2.588,2.588,0,0,1-2.424-8.416v1.1H.088V0Z" transform="translate(473.5 276)" fill="#828aa3"/><path d="M6.432.24A5.16,5.16,0,0,0,11.68-3.616L9.616-4.24A3.152,3.152,0,0,1,6.432-1.92a3.5,3.5,0,0,1-3.52-3.744A3.494,3.494,0,0,1,6.4-9.456,2.966,2.966,0,0,1,9.52-7.168l2.08-.656a5,5,0,0,0-5.2-3.76A5.726,5.726,0,0,0,.624-5.664,5.664,5.664,0,0,0,6.432.24ZM16.624-1.7a2.029,2.029,0,0,1-2-2.24,2.02,2.02,0,0,1,2-2.24,2.02,2.02,0,0,1,2,2.24A2.02,2.02,0,0,1,16.624-1.7Zm0-6.416A4.032,4.032,0,0,0,12.5-3.936,4.041,4.041,0,0,0,16.624.24a4.041,4.041,0,0,0,4.128-4.176A4.032,4.032,0,0,0,16.624-8.112ZM24.56,0V-4.608A1.441,1.441,0,0,1,26.032-6.16a1.321,1.321,0,0,1,1.392,1.488V0h2.112V-4.608A1.446,1.446,0,0,1,30.992-6.16a1.313,1.313,0,0,1,1.392,1.488V0h2.064V-5.1A2.723,2.723,0,0,0,31.6-8.1a2.735,2.735,0,0,0-2.5,1.312A2.436,2.436,0,0,0,26.768-8.1a2.705,2.705,0,0,0-2.3,1.184v-.96H22.432V0ZM38.736,3.04V-.768a2.766,2.766,0,0,0,2.272.96c2.224,0,3.712-1.76,3.712-4.144,0-2.336-1.328-4.1-3.632-4.1a2.753,2.753,0,0,0-2.416,1.136v-.96H36.608V3.04Zm3.888-6.976a1.99,1.99,0,0,1-1.952,2.224A2.01,2.01,0,0,1,38.7-3.936a2,2,0,0,1,1.968-2.208A1.985,1.985,0,0,1,42.624-3.936Zm5.328-.9a1.7,1.7,0,0,1,1.76-1.552,1.583,1.583,0,0,1,1.76,1.552ZM51.68-2.784a1.738,1.738,0,0,1-1.792,1.2A1.917,1.917,0,0,1,47.9-3.376h5.632c0-.032.032-.352.032-.656,0-2.528-1.456-4.08-3.888-4.08a3.952,3.952,0,0,0-3.872,4.144A3.987,3.987,0,0,0,49.872.24a3.546,3.546,0,0,0,3.584-2.5Zm6.192-7.44h-1.92v1.1a1.134,1.134,0,0,1-1.216,1.248h-.4v1.888H55.76V-2.32a2.279,2.279,0,0,0,2.5,2.432,3.157,3.157,0,0,0,1.2-.192V-1.84a3.088,3.088,0,0,1-.656.064c-.608,0-.928-.224-.928-.912v-3.3h1.584V-7.872H57.872ZM63.392,0V-7.872H61.264V0ZM61.008-10.448a1.315,1.315,0,0,0,1.312,1.3,1.3,1.3,0,0,0,1.312-1.3,1.311,1.311,0,0,0-1.312-1.328A1.321,1.321,0,0,0,61.008-10.448Zm7.28.224h-1.92v1.1a1.134,1.134,0,0,1-1.216,1.248h-.4v1.888h1.424V-2.32a2.279,2.279,0,0,0,2.5,2.432,3.157,3.157,0,0,0,1.2-.192V-1.84a3.088,3.088,0,0,1-.656.064c-.608,0-.928-.224-.928-.912v-3.3h1.584V-7.872H68.288ZM75.136-1.7a2.029,2.029,0,0,1-2-2.24,2.02,2.02,0,0,1,2-2.24,2.02,2.02,0,0,1,2,2.24A2.02,2.02,0,0,1,75.136-1.7Zm0-6.416a4.032,4.032,0,0,0-4.128,4.176A4.041,4.041,0,0,0,75.136.24a4.041,4.041,0,0,0,4.128-4.176A4.032,4.032,0,0,0,75.136-8.112ZM85.744-7.9a4.845,4.845,0,0,0-.5-.032A2.341,2.341,0,0,0,83.008-6.7V-7.872H80.944V0h2.128V-3.6c0-1.7.944-2.224,2.032-2.224a3.2,3.2,0,0,1,.64.064Zm13.92-1.344v-2.1H90.272v2.1h3.584V0H96.08V-9.248Zm3.568,4.624A1.474,1.474,0,0,1,104.7-6.16a1.384,1.384,0,0,1,1.456,1.568V0h2.128V-4.96a2.805,2.805,0,0,0-2.928-3.12,2.813,2.813,0,0,0-2.128.864v-4.368H101.1V0h2.128ZM115.248-7.9a4.845,4.845,0,0,0-.5-.032,2.341,2.341,0,0,0-2.24,1.232V-7.872h-2.064V0h2.128V-3.6c0-1.7.944-2.224,2.032-2.224a3.2,3.2,0,0,1,.64.064Zm2.976,3.072a1.7,1.7,0,0,1,1.76-1.552,1.583,1.583,0,0,1,1.76,1.552Zm3.728,2.048a1.738,1.738,0,0,1-1.792,1.2,1.917,1.917,0,0,1-1.984-1.792h5.632c0-.032.032-.352.032-.656,0-2.528-1.456-4.08-3.888-4.08a3.952,3.952,0,0,0-3.872,4.144A3.987,3.987,0,0,0,120.144.24a3.546,3.546,0,0,0,3.584-2.5Zm5.12-2.048a1.7,1.7,0,0,1,1.76-1.552,1.583,1.583,0,0,1,1.76,1.552ZM130.8-2.784a1.738,1.738,0,0,1-1.792,1.2,1.917,1.917,0,0,1-1.984-1.792h5.632c0-.032.032-.352.032-.656,0-2.528-1.456-4.08-3.888-4.08a3.952,3.952,0,0,0-3.872,4.144A3.987,3.987,0,0,0,128.992.24a3.546,3.546,0,0,0,3.584-2.5Z" transform="translate(15 276)" fill="#828aa3"/><g transform="translate(-11 196)" fill="rgba(255,255,255,0.22)" stroke="#2c98f7" stroke-miterlimit="10" stroke-width="2"><rect width="545" height="47" rx="5" stroke="none"/><rect x="1" y="1" width="543" height="45" rx="4" fill="none"/></g><g transform="translate(0 -144)"><path d="M-39.089-2.816A3.606,3.606,0,0,0-35.249.256,3.559,3.559,0,0,0-31.441-3.28a3.288,3.288,0,0,0-3.52-3.44,2.9,2.9,0,0,0-2.112.768l.768-2.976h4.432v-1.44h-5.472l-1.344,5.152c.528.192.992.4,1.536.608a2.658,2.658,0,0,1,1.888-.752,2.072,2.072,0,0,1,2.24,2.144,2.085,2.085,0,0,1-2.224,2.1,2.239,2.239,0,0,1-2.336-2.144Zm9.12,2.448a5.021,5.021,0,0,0,2.4.608c3.488,0,5.184-2.272,5.184-6.08,0-3.312-2-4.768-4.032-4.768a3.653,3.653,0,0,0-3.824,3.584,3.436,3.436,0,0,0,3.584,3.5,2.924,2.924,0,0,0,2.688-1.328c-.064,2.032-1.088,3.68-3.6,3.68a4.017,4.017,0,0,1-1.888-.5Zm5.792-6.688a2.164,2.164,0,0,1-2.24,2.192,2.127,2.127,0,0,1-2.24-2.192,2.161,2.161,0,0,1,2.24-2.176A2.18,2.18,0,0,1-24.177-7.056Zm10.912-2.976a4.072,4.072,0,0,0-2.24-.576c-3.024,0-5.344,2.192-5.344,6.048,0,3.424,2.064,4.8,4.048,4.8A3.58,3.58,0,0,0-12.961-3.3a3.321,3.321,0,0,0-3.552-3.536,3.122,3.122,0,0,0-2.736,1.344A3.621,3.621,0,0,1-15.6-9.2a3.892,3.892,0,0,1,1.856.448ZM-19.025-3.3a2.128,2.128,0,0,1,2.24-2.192A2.128,2.128,0,0,1-14.545-3.3a2.116,2.116,0,0,1-2.24,2.176A2.17,2.17,0,0,1-19.025-3.3ZM-3.527-6.8a2.476,2.476,0,0,0-.434-.042A2.109,2.109,0,0,0-5.977-5.558V-6.734H-7.265V0h1.316V-3.374c0-1.484.742-2.072,1.848-2.072a4.107,4.107,0,0,1,.574.042ZM-1.343-4.06A1.811,1.811,0,0,1,.491-5.782,1.7,1.7,0,0,1,2.339-4.06ZM2.535-2.31A1.835,1.835,0,0,1,.645-.952,2,2,0,0,1-1.385-3H3.683a2.958,2.958,0,0,0,.028-.42c0-2.1-1.162-3.528-3.234-3.528a3.361,3.361,0,0,0-3.22,3.556A3.36,3.36,0,0,0,.645.21,3.052,3.052,0,0,0,3.669-1.918Zm8.484-4.424H9.6L7.673-1.54,5.755-6.734H4.271L7,0h1.33ZM13.581,0V-6.734h-1.3V0Zm-1.6-9.282a.938.938,0,0,0,.938.938.941.941,0,0,0,.952-.938.944.944,0,0,0-.952-.952A.941.941,0,0,0,11.985-9.282Zm4.69,5.222a1.811,1.811,0,0,1,1.834-1.722A1.7,1.7,0,0,1,20.357-4.06Zm3.878,1.75a1.835,1.835,0,0,1-1.89,1.358A2,2,0,0,1,16.633-3H21.7a2.958,2.958,0,0,0,.028-.42c0-2.1-1.162-3.528-3.234-3.528a3.361,3.361,0,0,0-3.22,3.556A3.36,3.36,0,0,0,18.663.21a3.052,3.052,0,0,0,3.024-2.128Zm6.58-4.424-1.75,5.068L23.871-6.734H22.429L24.641,0h1.386l1.75-5.124L29.569,0h1.358l2.184-6.734H31.725L30.241-1.666l-1.75-5.068ZM33.811-1.75A2.543,2.543,0,0,0,36.555.21a2.234,2.234,0,0,0,2.464-2.086,2.047,2.047,0,0,0-1.862-2l-1.092-.238c-.518-.112-.77-.406-.77-.812a1.015,1.015,0,0,1,1.12-.9,1.306,1.306,0,0,1,1.4,1.12l1.162-.434a2.388,2.388,0,0,0-2.562-1.806,2.3,2.3,0,0,0-2.394,2.128,1.916,1.916,0,0,0,1.68,1.89l1.148.252c.56.126.868.448.868.868,0,.476-.406.9-1.148.9A1.435,1.435,0,0,1,35-2.17Z" transform="translate(286.5 273)" fill="#828aa3"/><path d="M-9.9-4.816a2.8,2.8,0,0,1,.912-.16A1.931,1.931,0,0,1-6.872-3.04,1.957,1.957,0,0,1-9.064-1.12a2.238,2.238,0,0,1-2.3-2.24l-1.536.352A3.558,3.558,0,0,0-9.048.256c2.416,0,3.76-1.584,3.76-3.328a3.08,3.08,0,0,0-3.2-3.152l2.96-2.736v-1.408h-7.04v1.44h4.96l-3.056,2.816Zm8.848,0a2.8,2.8,0,0,1,.912-.16A1.931,1.931,0,0,1,1.976-3.04,1.957,1.957,0,0,1-.216-1.12a2.238,2.238,0,0,1-2.3-2.24l-1.536.352A3.558,3.558,0,0,0-.2.256c2.416,0,3.76-1.584,3.76-3.328A3.08,3.08,0,0,0,.36-6.224L3.32-8.96v-1.408H-3.72v1.44H1.24L-1.816-6.112ZM5.112-.368a5.021,5.021,0,0,0,2.4.608C11,.24,12.7-2.032,12.7-5.84c0-3.312-2-4.768-4.032-4.768A3.653,3.653,0,0,0,4.84-7.024a3.436,3.436,0,0,0,3.584,3.5,2.924,2.924,0,0,0,2.688-1.328c-.064,2.032-1.088,3.68-3.6,3.68a4.017,4.017,0,0,1-1.888-.5ZM10.9-7.056a2.164,2.164,0,0,1-2.24,2.192,2.127,2.127,0,0,1-2.24-2.192,2.161,2.161,0,0,1,2.24-2.176A2.18,2.18,0,0,1,10.9-7.056Z" transform="translate(385.5 274)" fill="#828aa3"/><path d="M-9.272-6.64C-9.288-6.8-9.3-6.96-9.3-7.1a1.915,1.915,0,0,1,2-2.128A1.79,1.79,0,0,1-5.352-7.408a2.591,2.591,0,0,1-1.424,2.16L-8.5-4.128A4.668,4.668,0,0,0-10.968,0H-3.7V-1.456H-9.032A2.54,2.54,0,0,1-7.768-2.912L-5.72-4.224a3.776,3.776,0,0,0,1.952-3.2,3.2,3.2,0,0,0-3.5-3.184,3.349,3.349,0,0,0-3.584,3.36,3.757,3.757,0,0,0,.016.416Zm6.528,4.3H2.344V0h1.52V-2.336H5.64V-3.792H3.864v-6.576H1.7L-2.744-4.144ZM2.344-3.792H-1.3L2.344-8.864ZM10.328,0V-10.368H8.952A2.588,2.588,0,0,1,6.28-8.416v1.1H8.792V0Z" transform="translate(473.5 274)" fill="#828aa3"/><path d="M6.432.24A5.16,5.16,0,0,0,11.68-3.616L9.616-4.24A3.152,3.152,0,0,1,6.432-1.92a3.5,3.5,0,0,1-3.52-3.744A3.494,3.494,0,0,1,6.4-9.456,2.966,2.966,0,0,1,9.52-7.168l2.08-.656a5,5,0,0,0-5.2-3.76A5.726,5.726,0,0,0,.624-5.664,5.664,5.664,0,0,0,6.432.24ZM16.624-1.7a2.029,2.029,0,0,1-2-2.24,2.02,2.02,0,0,1,2-2.24,2.02,2.02,0,0,1,2,2.24A2.02,2.02,0,0,1,16.624-1.7Zm0-6.416A4.032,4.032,0,0,0,12.5-3.936,4.041,4.041,0,0,0,16.624.24a4.041,4.041,0,0,0,4.128-4.176A4.032,4.032,0,0,0,16.624-8.112ZM24.56,0V-4.608A1.441,1.441,0,0,1,26.032-6.16a1.321,1.321,0,0,1,1.392,1.488V0h2.112V-4.608A1.446,1.446,0,0,1,30.992-6.16a1.313,1.313,0,0,1,1.392,1.488V0h2.064V-5.1A2.723,2.723,0,0,0,31.6-8.1a2.735,2.735,0,0,0-2.5,1.312A2.436,2.436,0,0,0,26.768-8.1a2.705,2.705,0,0,0-2.3,1.184v-.96H22.432V0ZM38.736,3.04V-.768a2.766,2.766,0,0,0,2.272.96c2.224,0,3.712-1.76,3.712-4.144,0-2.336-1.328-4.1-3.632-4.1a2.753,2.753,0,0,0-2.416,1.136v-.96H36.608V3.04Zm3.888-6.976a1.99,1.99,0,0,1-1.952,2.224A2.01,2.01,0,0,1,38.7-3.936a2,2,0,0,1,1.968-2.208A1.985,1.985,0,0,1,42.624-3.936Zm5.328-.9a1.7,1.7,0,0,1,1.76-1.552,1.583,1.583,0,0,1,1.76,1.552ZM51.68-2.784a1.738,1.738,0,0,1-1.792,1.2A1.917,1.917,0,0,1,47.9-3.376h5.632c0-.032.032-.352.032-.656,0-2.528-1.456-4.08-3.888-4.08a3.952,3.952,0,0,0-3.872,4.144A3.987,3.987,0,0,0,49.872.24a3.546,3.546,0,0,0,3.584-2.5Zm6.192-7.44h-1.92v1.1a1.134,1.134,0,0,1-1.216,1.248h-.4v1.888H55.76V-2.32a2.279,2.279,0,0,0,2.5,2.432,3.157,3.157,0,0,0,1.2-.192V-1.84a3.088,3.088,0,0,1-.656.064c-.608,0-.928-.224-.928-.912v-3.3h1.584V-7.872H57.872ZM63.392,0V-7.872H61.264V0ZM61.008-10.448a1.315,1.315,0,0,0,1.312,1.3,1.3,1.3,0,0,0,1.312-1.3,1.311,1.311,0,0,0-1.312-1.328A1.321,1.321,0,0,0,61.008-10.448Zm7.28.224h-1.92v1.1a1.134,1.134,0,0,1-1.216,1.248h-.4v1.888h1.424V-2.32a2.279,2.279,0,0,0,2.5,2.432,3.157,3.157,0,0,0,1.2-.192V-1.84a3.088,3.088,0,0,1-.656.064c-.608,0-.928-.224-.928-.912v-3.3h1.584V-7.872H68.288ZM75.136-1.7a2.029,2.029,0,0,1-2-2.24,2.02,2.02,0,0,1,2-2.24,2.02,2.02,0,0,1,2,2.24A2.02,2.02,0,0,1,75.136-1.7Zm0-6.416a4.032,4.032,0,0,0-4.128,4.176A4.041,4.041,0,0,0,75.136.24a4.041,4.041,0,0,0,4.128-4.176A4.032,4.032,0,0,0,75.136-8.112ZM85.744-7.9a4.845,4.845,0,0,0-.5-.032A2.341,2.341,0,0,0,83.008-6.7V-7.872H80.944V0h2.128V-3.6c0-1.7.944-2.224,2.032-2.224a3.2,3.2,0,0,1,.64.064ZM92.928-5.68a3.5,3.5,0,0,1,3.536-3.776,3.5,3.5,0,0,1,3.552,3.776A3.5,3.5,0,0,1,96.464-1.9,3.5,3.5,0,0,1,92.928-5.68Zm-2.288.016A5.713,5.713,0,0,0,96.464.24a5.716,5.716,0,0,0,5.84-5.9,5.72,5.72,0,0,0-5.84-5.92A5.717,5.717,0,0,0,90.64-5.664Zm15.552,1.136a1.482,1.482,0,0,1,1.472-1.632,1.384,1.384,0,0,1,1.456,1.568V0h2.128V-4.96c0-1.728-.9-3.12-2.848-3.12A2.615,2.615,0,0,0,106.128-6.9v-.976h-2.064V0h2.128Zm8.768-.3a1.7,1.7,0,0,1,1.76-1.552,1.583,1.583,0,0,1,1.76,1.552Zm3.728,2.048a1.738,1.738,0,0,1-1.792,1.2,1.917,1.917,0,0,1-1.984-1.792h5.632c0-.032.032-.352.032-.656,0-2.528-1.456-4.08-3.888-4.08a3.952,3.952,0,0,0-3.872,4.144A3.987,3.987,0,0,0,116.88.24a3.546,3.546,0,0,0,3.584-2.5Z" transform="translate(15 274)" fill="#828aa3"/></g></g><g transform="translate(979 4005)"><path d="M-38.556-4.9a2.742,2.742,0,0,1,1-.17,1.611,1.611,0,0,1,1.8,1.632,1.7,1.7,0,0,1-1.87,1.666,1.942,1.942,0,0,1-2.006-1.938l-2.261.442A3.962,3.962,0,0,0-37.621.255c2.669,0,4.233-1.751,4.233-3.655a3.287,3.287,0,0,0-3.2-3.366l2.856-2.38v-1.887h-7.8V-9.01H-36.7l-2.89,2.482Zm14.79-5.882a4.8,4.8,0,0,0-2.312-.51c-3.638,0-6.12,2.516-6.12,6.477,0,3.332,2.057,5.066,4.471,5.066A3.966,3.966,0,0,0-23.46-3.621a3.534,3.534,0,0,0-3.808-3.706A3.119,3.119,0,0,0-29.886-6.1a3.457,3.457,0,0,1,3.655-3.162,4.716,4.716,0,0,1,1.819.391ZM-29.682-3.57a1.822,1.822,0,0,1,1.938-1.836A1.827,1.827,0,0,1-25.789-3.57a1.84,1.84,0,0,1-1.955,1.853A1.865,1.865,0,0,1-29.682-3.57ZM-12.512-8.4a5.148,5.148,0,0,0-.527-.034,2.487,2.487,0,0,0-2.38,1.309V-8.364h-2.193V0h2.261V-3.825c0-1.8,1-2.363,2.159-2.363a3.4,3.4,0,0,1,.68.068ZM-9.35-5.134A1.81,1.81,0,0,1-7.48-6.783,1.682,1.682,0,0,1-5.61-5.134Zm3.961,2.176a1.847,1.847,0,0,1-1.9,1.275A2.037,2.037,0,0,1-9.4-3.587h5.984c0-.034.034-.374.034-.7,0-2.686-1.547-4.335-4.131-4.335a4.2,4.2,0,0,0-4.114,4.4A4.237,4.237,0,0,0-7.31.255,3.767,3.767,0,0,0-3.5-2.4ZM6.12-8.364H3.74L1.751-2.754-.323-8.364H-2.8L.612,0H2.873ZM9.758,0V-8.364H7.5V0ZM7.225-11.1A1.4,1.4,0,0,0,8.619-9.724,1.386,1.386,0,0,0,10.013-11.1a1.393,1.393,0,0,0-1.394-1.411A1.4,1.4,0,0,0,7.225-11.1Zm6.6,5.967a1.81,1.81,0,0,1,1.87-1.649,1.682,1.682,0,0,1,1.87,1.649Zm3.961,2.176a1.847,1.847,0,0,1-1.9,1.275,2.037,2.037,0,0,1-2.108-1.9h5.984c0-.034.034-.374.034-.7,0-2.686-1.547-4.335-4.131-4.335a4.2,4.2,0,0,0-4.114,4.4A4.237,4.237,0,0,0,15.861.255,3.767,3.767,0,0,0,19.669-2.4Zm8.4-5.406L24.361-2.992,22.814-8.364h-2.38L23.1,0h2.3l1.921-5.712L29.274,0h2.261l2.618-8.364H31.909L30.362-2.975l-1.8-5.389Zm8.67,6.035c.1.952.969,2.584,3.485,2.584,2.193,0,3.247-1.394,3.247-2.754,0-1.224-.833-2.227-2.482-2.567l-1.19-.255c-.459-.085-.765-.34-.765-.748A.961.961,0,0,1,38.216-6.9,1.274,1.274,0,0,1,39.593-5.78L41.48-6.2c-.1-.9-.9-2.414-3.281-2.414a2.916,2.916,0,0,0-3.128,2.737c0,1.173.731,2.142,2.346,2.5l1.1.255c.646.136.9.442.9.816,0,.442-.357.833-1.105.833a1.391,1.391,0,0,1-1.53-1.275Z" transform="translate(286.5 225)" fill="#2c98f7"/><path d="M-1.029-4.9a2.742,2.742,0,0,1,1-.17,1.611,1.611,0,0,1,1.8,1.632A1.7,1.7,0,0,1-.094-1.768,1.942,1.942,0,0,1-2.1-3.706l-2.261.442A3.962,3.962,0,0,0-.094.255C2.576.255,4.139-1.5,4.139-3.4a3.287,3.287,0,0,0-3.2-3.366L3.8-9.146v-1.887H-4V-9.01H.825l-2.89,2.482Z" transform="translate(385.5 225)" fill="#2c98f7"/><path d="M-5.7-4.9a2.742,2.742,0,0,1,1-.17,1.611,1.611,0,0,1,1.8,1.632A1.7,1.7,0,0,1-4.76-1.768,1.942,1.942,0,0,1-6.766-3.706l-2.261.442A3.962,3.962,0,0,0-4.76.255C-2.091.255-.527-1.5-.527-3.4a3.287,3.287,0,0,0-3.2-3.366l2.856-2.38v-1.887h-7.8V-9.01h4.828l-2.89,2.482Zm9.333,0a2.742,2.742,0,0,1,1-.17,1.611,1.611,0,0,1,1.8,1.632,1.7,1.7,0,0,1-1.87,1.666A1.942,1.942,0,0,1,2.567-3.706L.306-3.264A3.962,3.962,0,0,0,4.573.255C7.242.255,8.806-1.5,8.806-3.4a3.287,3.287,0,0,0-3.2-3.366l2.856-2.38v-1.887H.663V-9.01H5.491L2.6-6.528Z" transform="translate(473.5 225)" fill="#2c98f7"/><path d="M4.626-5.364V0H7.11V-5.364l4.5-7.4H8.82L5.958-7.7,3.1-12.762H.18ZM15.264-1.908a2.283,2.283,0,0,1-2.25-2.52,2.273,2.273,0,0,1,2.25-2.52,2.273,2.273,0,0,1,2.25,2.52A2.273,2.273,0,0,1,15.264-1.908Zm0-7.218a4.536,4.536,0,0,0-4.644,4.7A4.546,4.546,0,0,0,15.264.27a4.546,4.546,0,0,0,4.644-4.7A4.536,4.536,0,0,0,15.264-9.126ZM27.558,0h2.286a14.566,14.566,0,0,1-.09-1.6V-8.856H27.36v5.148a1.6,1.6,0,0,1-1.674,1.746,1.576,1.576,0,0,1-1.62-1.782V-8.856H21.672v5.6A3.263,3.263,0,0,0,25.038.234,2.8,2.8,0,0,0,27.486-.954,6.062,6.062,0,0,0,27.558,0ZM37.71-8.892a5.451,5.451,0,0,0-.558-.036,2.634,2.634,0,0,0-2.52,1.386V-8.856H32.31V0H34.7V-4.05c0-1.908,1.062-2.5,2.286-2.5a3.6,3.6,0,0,1,.72.072Zm8.766,1.944V-10.6h1.962a1.777,1.777,0,0,1,2,1.836,1.783,1.783,0,0,1-2,1.818Zm2.268,2.142a3.9,3.9,0,0,0,4.194-3.978,3.907,3.907,0,0,0-4.194-3.978h-4.77V0h2.484V-4.806ZM59.886-8.892a5.451,5.451,0,0,0-.558-.036,2.634,2.634,0,0,0-2.52,1.386V-8.856H54.486V0H56.88V-4.05c0-1.908,1.062-2.5,2.286-2.5a3.6,3.6,0,0,1,.72.072Zm1.206,6.48A2.8,2.8,0,0,0,64.134.252a2.96,2.96,0,0,0,2.61-1.314A6,6,0,0,0,66.834,0h2.2a9.917,9.917,0,0,1-.108-1.4V-5.76c0-1.782-1.044-3.366-3.852-3.366a3.521,3.521,0,0,0-3.8,2.916l2.124.45A1.572,1.572,0,0,1,65.088-7.2c1.008,0,1.494.522,1.494,1.152,0,.306-.162.558-.666.63l-2.178.324A2.729,2.729,0,0,0,61.092-2.412Zm3.546.882a1.039,1.039,0,0,1-1.152-1.026,1.118,1.118,0,0,1,1.1-1.116l2-.306v.4A1.8,1.8,0,0,1,64.638-1.53ZM75.276-6.912a1.931,1.931,0,0,1,1.962,1.494l2.142-.72a4.054,4.054,0,0,0-4.158-2.988,4.534,4.534,0,0,0-4.59,4.7A4.582,4.582,0,0,0,75.294.27a4.112,4.112,0,0,0,4.14-2.988l-2.106-.7a2.027,2.027,0,0,1-2.034,1.494,2.28,2.28,0,0,1-2.268-2.5A2.252,2.252,0,0,1,75.276-6.912ZM84.15-11.5H81.99v1.242a1.276,1.276,0,0,1-1.368,1.4h-.45v2.124h1.6V-2.61A2.564,2.564,0,0,0,84.582.126a3.551,3.551,0,0,0,1.35-.216V-2.07A3.474,3.474,0,0,1,85.194-2C84.51-2,84.15-2.25,84.15-3.024V-6.732h1.782V-8.856H84.15ZM90.36,0V-8.856H87.966V0ZM87.678-11.754A1.479,1.479,0,0,0,89.154-10.3a1.467,1.467,0,0,0,1.476-1.458,1.475,1.475,0,0,0-1.476-1.494A1.487,1.487,0,0,0,87.678-11.754Zm9.216,4.842a1.931,1.931,0,0,1,1.962,1.494L101-6.138A4.054,4.054,0,0,0,96.84-9.126a4.534,4.534,0,0,0-4.59,4.7A4.582,4.582,0,0,0,96.912.27a4.112,4.112,0,0,0,4.14-2.988l-2.106-.7a2.027,2.027,0,0,1-2.034,1.494,2.28,2.28,0,0,1-2.268-2.5A2.252,2.252,0,0,1,96.894-6.912Zm7.578,1.476a1.916,1.916,0,0,1,1.98-1.746,1.781,1.781,0,0,1,1.98,1.746Zm4.194,2.3a1.956,1.956,0,0,1-2.016,1.35A2.157,2.157,0,0,1,104.418-3.8h6.336c0-.036.036-.4.036-.738,0-2.844-1.638-4.59-4.374-4.59a4.446,4.446,0,0,0-4.356,4.662A4.486,4.486,0,0,0,106.632.27a3.989,3.989,0,0,0,4.032-2.808Z" transform="translate(15.18 225.371)" fill="#2c98f7"/></g></g><g transform="translate(-217.68 300.632)"><g transform="matrix(1, 0, 0, 1, 1133.57, 4050.57)" filter="url(#g)"><rect width="276" height="151" rx="10" transform="translate(27 23)" fill="#fff"/></g><path d="M6.432.24A5.16,5.16,0,0,0,11.68-3.616L9.616-4.24A3.152,3.152,0,0,1,6.432-1.92a3.5,3.5,0,0,1-3.52-3.744A3.494,3.494,0,0,1,6.4-9.456,2.966,2.966,0,0,1,9.52-7.168l2.08-.656a5,5,0,0,0-5.2-3.76A5.726,5.726,0,0,0,.624-5.664,5.664,5.664,0,0,0,6.432.24ZM16.45-1.7a2.029,2.029,0,0,1-2-2.24,2.02,2.02,0,0,1,2-2.24,2.02,2.02,0,0,1,2,2.24A2.02,2.02,0,0,1,16.45-1.7Zm0-6.416a4.032,4.032,0,0,0-4.128,4.176A4.041,4.041,0,0,0,16.45.24a4.041,4.041,0,0,0,4.128-4.176A4.032,4.032,0,0,0,16.45-8.112ZM24.212,0V-4.608A1.441,1.441,0,0,1,25.684-6.16a1.321,1.321,0,0,1,1.392,1.488V0h2.112V-4.608A1.446,1.446,0,0,1,30.644-6.16a1.313,1.313,0,0,1,1.392,1.488V0H34.1V-5.1A2.723,2.723,0,0,0,31.252-8.1a2.735,2.735,0,0,0-2.5,1.312A2.436,2.436,0,0,0,26.42-8.1a2.705,2.705,0,0,0-2.3,1.184v-.96H22.084V0Zm14,3.04V-.768a2.766,2.766,0,0,0,2.272.96c2.224,0,3.712-1.76,3.712-4.144,0-2.336-1.328-4.1-3.632-4.1A2.753,2.753,0,0,0,38.15-6.912v-.96H36.086V3.04ZM42.1-3.936A1.99,1.99,0,0,1,40.15-1.712a2.01,2.01,0,0,1-1.968-2.224A2,2,0,0,1,40.15-6.144,1.985,1.985,0,0,1,42.1-3.936Zm5.154-.9a1.7,1.7,0,0,1,1.76-1.552,1.583,1.583,0,0,1,1.76,1.552Zm3.728,2.048a1.738,1.738,0,0,1-1.792,1.2,1.917,1.917,0,0,1-1.984-1.792H52.84c0-.032.032-.352.032-.656,0-2.528-1.456-4.08-3.888-4.08a3.952,3.952,0,0,0-3.872,4.144A3.987,3.987,0,0,0,49.176.24a3.546,3.546,0,0,0,3.584-2.5ZM57-10.224h-1.92v1.1a1.134,1.134,0,0,1-1.216,1.248h-.4v1.888H54.89V-2.32a2.279,2.279,0,0,0,2.5,2.432,3.156,3.156,0,0,0,1.2-.192V-1.84a3.088,3.088,0,0,1-.656.064C57.322-1.776,57-2,57-2.688v-3.3h1.584V-7.872H57ZM62.349,0V-7.872H60.221V0ZM59.965-10.448a1.315,1.315,0,0,0,1.312,1.3,1.3,1.3,0,0,0,1.312-1.3,1.311,1.311,0,0,0-1.312-1.328A1.321,1.321,0,0,0,59.965-10.448Zm7.106.224h-1.92v1.1a1.134,1.134,0,0,1-1.216,1.248h-.4v1.888h1.424V-2.32a2.279,2.279,0,0,0,2.5,2.432,3.157,3.157,0,0,0,1.2-.192V-1.84A3.088,3.088,0,0,1,68-1.776c-.608,0-.928-.224-.928-.912v-3.3h1.584V-7.872H67.071ZM73.745-1.7a2.029,2.029,0,0,1-2-2.24,2.02,2.02,0,0,1,2-2.24,2.02,2.02,0,0,1,2,2.24A2.02,2.02,0,0,1,73.745-1.7Zm0-6.416a4.032,4.032,0,0,0-4.128,4.176A4.041,4.041,0,0,0,73.745.24a4.041,4.041,0,0,0,4.128-4.176A4.032,4.032,0,0,0,73.745-8.112ZM84.179-7.9a4.845,4.845,0,0,0-.5-.032A2.341,2.341,0,0,0,81.443-6.7V-7.872H79.379V0h2.128V-3.6c0-1.7.944-2.224,2.032-2.224a3.2,3.2,0,0,1,.64.064ZM91.015-5.68a3.5,3.5,0,0,1,3.536-3.776A3.5,3.5,0,0,1,98.1-5.68,3.5,3.5,0,0,1,94.551-1.9,3.5,3.5,0,0,1,91.015-5.68Zm-2.288.016A5.713,5.713,0,0,0,94.551.24a5.716,5.716,0,0,0,5.84-5.9,5.72,5.72,0,0,0-5.84-5.92A5.717,5.717,0,0,0,88.727-5.664Zm15.378,1.136a1.482,1.482,0,0,1,1.472-1.632,1.384,1.384,0,0,1,1.456,1.568V0h2.128V-4.96c0-1.728-.9-3.12-2.848-3.12A2.615,2.615,0,0,0,104.041-6.9v-.976h-2.064V0h2.128Zm8.594-.3a1.7,1.7,0,0,1,1.76-1.552,1.583,1.583,0,0,1,1.76,1.552Zm3.728,2.048a1.738,1.738,0,0,1-1.792,1.2,1.917,1.917,0,0,1-1.984-1.792h5.632c0-.032.032-.352.032-.656,0-2.528-1.456-4.08-3.888-4.08a3.952,3.952,0,0,0-3.872,4.144A3.987,3.987,0,0,0,114.619.24a3.546,3.546,0,0,0,3.584-2.5Z" transform="translate(1192.758 4126.571)" fill="#218dec"/><circle cx="26.5" cy="26.5" r="26.5" transform="translate(1134.566 4050.571)" fill="#07c597"/><path d="M2.268,0V-11.682H.126a2.981,2.981,0,0,1-3.132,2.2v1.674H-.2V0Z" transform="translate(1155.566 4083.571)" fill="#fff"/><path d="M-4.656-1.644A2.219,2.219,0,0,0-2.2.18,2.039,2.039,0,0,0,.1-1.764c0-.864-.588-1.572-1.752-1.812l-.84-.18c-.324-.06-.54-.24-.54-.528a.679.679,0,0,1,.756-.588.9.9,0,0,1,.972.792l1.332-.3a2.076,2.076,0,0,0-2.316-1.7A2.058,2.058,0,0,0-4.5-4.152c0,.828.516,1.512,1.656,1.764l.78.18c.456.1.636.312.636.576,0,.312-.252.588-.78.588a.982.982,0,0,1-1.08-.9Zm8-6.024H1.908v.828A.851.851,0,0,1,1-5.9H.7v1.416H1.764V-1.74A1.709,1.709,0,0,0,3.636.084a2.367,2.367,0,0,0,.9-.144V-1.38a2.316,2.316,0,0,1-.492.048c-.456,0-.7-.168-.7-.684V-4.488H4.536V-5.9H3.348Z" transform="translate(1165.566 4078.571)" fill="#fff"/><g transform="translate(1268.101 4158.071)"><path d="M16.164,20.681l-5.757-3.17-5.76,3.169c-.576.317-.956.04-.849-.622l1.1-6.726L.269,8.6C-.193,8.132-.046,7.667.6,7.57L6.994,6.6,9.892.453c.284-.6.745-.6,1.03,0l2.9,6.146,6.391.972c.648.1.8.562.334,1.034L15.91,13.331l1.1,6.726c.107.662-.273.94-.849.623" transform="translate(0 0)" fill="#ffc13b"/><path d="M16.164,20.681l-5.757-3.17-5.76,3.169c-.576.317-.956.04-.849-.622l1.1-6.726L.269,8.6C-.193,8.132-.046,7.667.6,7.57L6.994,6.6,9.892.453c.284-.6.745-.6,1.03,0l2.9,6.146,6.391.972c.648.1.8.562.334,1.034L15.91,13.331l1.1,6.726c.107.662-.273.94-.849.623" transform="translate(27.413 0)" fill="#ffc13b"/><path d="M16.164,20.681l-5.757-3.17-5.76,3.169c-.576.317-.956.04-.849-.622l1.1-6.726L.269,8.6C-.193,8.132-.046,7.667.6,7.57L6.994,6.6,9.892.453c.284-.6.745-.6,1.03,0l2.9,6.146,6.391.972c.648.1.8.562.334,1.034L15.91,13.331l1.1,6.726c.107.662-.273.94-.849.623" transform="translate(54.827 0)" fill="#ffc13b"/><path d="M16.164,20.681l-5.757-3.17-5.76,3.169c-.576.317-.956.04-.849-.622l1.1-6.726L.269,8.6C-.193,8.132-.046,7.667.6,7.57L6.994,6.6,9.892.453c.284-.6.745-.6,1.03,0l2.9,6.146,6.391.972c.648.1.8.562.334,1.034L15.91,13.331l1.1,6.726c.107.662-.273.94-.849.623" transform="translate(82.24 0)" fill="#ffc13b"/><path d="M16.164,20.681l-5.757-3.17-5.76,3.169c-.576.317-.956.04-.849-.622l1.1-6.726L.269,8.6C-.193,8.132-.046,7.667.6,7.57L6.994,6.6,9.892.453c.284-.6.745-.6,1.03,0l2.9,6.146,6.391.972c.648.1.8.562.334,1.034L15.91,13.331l1.1,6.726c.107.662-.273.94-.849.623" transform="translate(109.654 0)" fill="#fac444"/></g><path d="M-63.8-6.674h14.664V0h5.546V-6.674h5.123v-4.982h-5.123v-18.8h-7.238L-63.8-12.784Zm14.664-4.982h-9.588l9.588-13.113Zm13.264,8.131A3.791,3.791,0,0,0-32.064.282,3.831,3.831,0,0,0-28.21-3.525a3.871,3.871,0,0,0-3.854-3.854A3.831,3.831,0,0,0-35.871-3.525ZM-2.3-29.657a12.662,12.662,0,0,0-6.486-1.5c-9.447,0-16.356,6.674-16.356,17.719C-25.145-5.64-20.727.7-12.972.7-6.58.7-1.41-3.525-1.41-9.87c0-6.251-4.277-10.293-10.34-10.293-3.243,0-6.157,1.175-7.755,3.619.517-5.922,4.653-9.729,10.387-9.729A10.453,10.453,0,0,1-3.9-25.051ZM-18.894-9.776a5.588,5.588,0,0,1,5.922-5.687A5.588,5.588,0,0,1-7.05-9.776a5.616,5.616,0,0,1-5.922,5.687A5.7,5.7,0,0,1-18.894-9.776Z" transform="translate(1257.5 4179.805)" fill="#4f5a79"/></g><g transform="translate(268.434 345.632)"><g transform="matrix(1, 0, 0, 1, 647.45, 4005.57)" filter="url(#i)"><g transform="translate(513.11 68)" fill="#fff" stroke="#2c98f7" stroke-miterlimit="10" stroke-width="2"><rect width="276" height="151" rx="10" stroke="none"/><rect x="1" y="1" width="274" height="149" rx="9" fill="none"/></g></g><circle cx="26.5" cy="26.5" r="26.5" transform="translate(1134.566 4050.571)" fill="#fac444"/><path d="M-1.089-5.184a2.9,2.9,0,0,1,1.062-.18A1.706,1.706,0,0,1,1.881-3.636,1.8,1.8,0,0,1-.1-1.872,2.056,2.056,0,0,1-2.223-3.924l-2.394.468C-4.473-1.494-2.817.27-.1.27,2.727.27,4.383-1.584,4.383-3.6A3.48,3.48,0,0,0,1-7.164l3.024-2.52v-2H-4.239V-9.54H.873l-3.06,2.628Z" transform="translate(1156.566 4083.571)" fill="#fff"/><path d="M-1.56-5.928a3.634,3.634,0,0,0-.372-.024,1.756,1.756,0,0,0-1.68.924V-5.9H-5.16V0h1.6V-2.7c0-1.272.708-1.668,1.524-1.668a2.4,2.4,0,0,1,.48.048Zm6.7-2.76H3.564v3.372A1.768,1.768,0,0,0,1.9-6.048,2.886,2.886,0,0,0-.936-2.964,2.9,2.9,0,0,0,1.944.144,1.851,1.851,0,0,0,3.6-.684,4.076,4.076,0,0,0,3.66,0H5.184c-.024-.24-.048-.672-.048-1.068ZM.672-2.964A1.482,1.482,0,0,1,2.136-4.62,1.463,1.463,0,0,1,3.588-2.976,1.5,1.5,0,0,1,2.136-1.284,1.491,1.491,0,0,1,.672-2.964Z" transform="translate(1167.566 4083.571)" fill="#fff"/><g transform="translate(1268.101 4158.071)"><path d="M16.164,20.681l-5.757-3.17-5.76,3.169c-.576.317-.956.04-.849-.622l1.1-6.726L.269,8.6C-.193,8.132-.046,7.667.6,7.57L6.994,6.6,9.892.453c.284-.6.745-.6,1.03,0l2.9,6.146,6.391.972c.648.1.8.562.334,1.034L15.91,13.331l1.1,6.726c.107.662-.273.94-.849.623" transform="translate(0 0)" fill="#ffc13b"/><path d="M16.164,20.681l-5.757-3.17-5.76,3.169c-.576.317-.956.04-.849-.622l1.1-6.726L.269,8.6C-.193,8.132-.046,7.667.6,7.57L6.994,6.6,9.892.453c.284-.6.745-.6,1.03,0l2.9,6.146,6.391.972c.648.1.8.562.334,1.034L15.91,13.331l1.1,6.726c.107.662-.273.94-.849.623" transform="translate(27.413 0)" fill="#ffc13b"/><path d="M16.164,20.681l-5.757-3.17-5.76,3.169c-.576.317-.956.04-.849-.622l1.1-6.726L.269,8.6C-.193,8.132-.046,7.667.6,7.57L6.994,6.6,9.892.453c.284-.6.745-.6,1.03,0l2.9,6.146,6.391.972c.648.1.8.562.334,1.034L15.91,13.331l1.1,6.726c.107.662-.273.94-.849.623" transform="translate(54.827 0)" fill="#ffc13b"/><path d="M16.164,20.681l-5.757-3.17-5.76,3.169c-.576.317-.956.04-.849-.622l1.1-6.726L.269,8.6C-.193,8.132-.046,7.667.6,7.57L6.994,6.6,9.892.453c.284-.6.745-.6,1.03,0l2.9,6.146,6.391.972c.648.1.8.562.334,1.034L15.91,13.331l1.1,6.726c.107.662-.273.94-.849.623" transform="translate(82.24 0)" fill="#d9dbe6"/><path d="M16.164,20.681l-5.757-3.17-5.76,3.169c-.576.317-.956.04-.849-.622l1.1-6.726L.269,8.6C-.193,8.132-.046,7.667.6,7.57L6.994,6.6,9.892.453c.284-.6.745-.6,1.03,0l2.9,6.146,6.391.972c.648.1.8.562.334,1.034L15.91,13.331l1.1,6.726c.107.662-.273.94-.849.623" transform="translate(109.654 0)" fill="#d9dbe6"/></g><path d="M-52.237-13.818a6.647,6.647,0,0,1,2.867-.517c2.585,0,5.4,1.5,5.4,5.029,0,2.773-2.068,5.17-5.781,5.17a5.9,5.9,0,0,1-6.063-5.922l-5.5,1.128C-60.932-3.854-56.749.7-49.7.7c7.238,0,11.421-4.747,11.421-9.964A9.06,9.06,0,0,0-47.4-18.518l8.272-7.238v-4.7h-21.15v4.935h13.865L-54.822-18ZM-35.213-3.525A3.791,3.791,0,0,0-31.406.282a3.831,3.831,0,0,0,3.854-3.807,3.871,3.871,0,0,0-3.854-3.854A3.831,3.831,0,0,0-35.213-3.525Zm9.175-3.149h14.664V0h5.546V-6.674H-.7v-4.982H-5.828v-18.8h-7.238L-26.038-12.784Zm14.664-4.982h-9.588l9.588-13.113Z" transform="translate(1257.5 4179.805)" fill="#4f5a79"/><path d="M5.14-5.96V0H7.9V-5.96l5-8.22H9.8L6.62-8.56,3.44-14.18H.2Zm11.6,3.84a2.536,2.536,0,0,1-2.5-2.8,2.525,2.525,0,0,1,2.5-2.8,2.525,2.525,0,0,1,2.5,2.8A2.525,2.525,0,0,1,16.743-2.12Zm0-8.02a5.04,5.04,0,0,0-5.16,5.22A5.051,5.051,0,0,0,16.743.3,5.051,5.051,0,0,0,21.9-4.92,5.04,5.04,0,0,0,16.743-10.14ZM30.185,0h2.54a16.184,16.184,0,0,1-.1-1.78V-9.84h-2.66v5.72a1.775,1.775,0,0,1-1.86,1.94,1.751,1.751,0,0,1-1.8-1.98V-9.84h-2.66v6.22A3.626,3.626,0,0,0,27.385.26a3.109,3.109,0,0,0,2.72-1.32A6.735,6.735,0,0,0,30.185,0ZM41.248-9.88a6.057,6.057,0,0,0-.62-.04,2.926,2.926,0,0,0-2.8,1.54V-9.84h-2.58V0h2.66V-4.5c0-2.12,1.18-2.78,2.54-2.78a4.005,4.005,0,0,1,.8.08Zm9.305,2.16v-4.06h2.18a1.975,1.975,0,0,1,2.22,2.04,1.981,1.981,0,0,1-2.22,2.02Zm2.52,2.38a4.33,4.33,0,0,0,4.66-4.42,4.341,4.341,0,0,0-4.66-4.42h-5.3V0h2.76V-5.34ZM65.236-9.88a6.057,6.057,0,0,0-.62-.04,2.926,2.926,0,0,0-2.8,1.54V-9.84h-2.58V0H61.9V-4.5c0-2.12,1.18-2.78,2.54-2.78a4.005,4.005,0,0,1,.8.08Zm1.123,7.2A3.107,3.107,0,0,0,69.738.28a3.288,3.288,0,0,0,2.9-1.46,6.664,6.664,0,0,0,.1,1.18h2.44a11.019,11.019,0,0,1-.12-1.56V-6.4c0-1.98-1.16-3.74-4.28-3.74-2.64,0-4.06,1.7-4.22,3.24l2.36.5A1.747,1.747,0,0,1,70.8-8c1.12,0,1.66.58,1.66,1.28,0,.34-.18.62-.74.7l-2.42.36C67.658-5.42,66.358-4.44,66.358-2.68Zm3.94.98a1.155,1.155,0,0,1-1.28-1.14,1.242,1.242,0,0,1,1.22-1.24l2.22-.34v.44A2,2,0,0,1,70.3-1.7ZM81.9-7.68a2.146,2.146,0,0,1,2.18,1.66l2.38-.8a4.5,4.5,0,0,0-4.62-3.32,5.038,5.038,0,0,0-5.1,5.22A5.091,5.091,0,0,0,81.921.3a4.569,4.569,0,0,0,4.6-3.32l-2.34-.78a2.252,2.252,0,0,1-2.26,1.66A2.534,2.534,0,0,1,79.4-4.92,2.5,2.5,0,0,1,81.9-7.68Zm9.643-5.1h-2.4v1.38a1.418,1.418,0,0,1-1.52,1.56h-.5v2.36H88.9V-2.9A2.848,2.848,0,0,0,92.023.14a3.946,3.946,0,0,0,1.5-.24V-2.3a3.86,3.86,0,0,1-.82.08c-.76,0-1.16-.28-1.16-1.14V-7.48h1.98V-9.84h-1.98ZM98.226,0V-9.84h-2.66V0Zm-2.98-13.06a1.643,1.643,0,0,0,1.64,1.62,1.63,1.63,0,0,0,1.64-1.62,1.639,1.639,0,0,0-1.64-1.66A1.652,1.652,0,0,0,95.246-13.06Zm10.023,5.38a2.146,2.146,0,0,1,2.18,1.66l2.38-.8a4.5,4.5,0,0,0-4.62-3.32,5.038,5.038,0,0,0-5.1,5.22A5.091,5.091,0,0,0,105.289.3a4.569,4.569,0,0,0,4.6-3.32l-2.34-.78a2.252,2.252,0,0,1-2.26,1.66,2.534,2.534,0,0,1-2.52-2.78A2.5,2.5,0,0,1,105.269-7.68Zm8.2,1.64a2.129,2.129,0,0,1,2.2-1.94,1.979,1.979,0,0,1,2.2,1.94Zm4.66,2.56a2.173,2.173,0,0,1-2.24,1.5,2.4,2.4,0,0,1-2.48-2.24h7.04c0-.04.04-.44.04-.82,0-3.16-1.82-5.1-4.86-5.1a4.94,4.94,0,0,0-4.84,5.18A4.984,4.984,0,0,0,115.871.3a4.432,4.432,0,0,0,4.48-3.12Z" transform="translate(1192.958 4127.371)" fill="#218dec"/></g><g transform="translate(-123.566 820.632)"><g transform="matrix(1, 0, 0, 1, 1039.45, 3530.57)" filter="url(#k)"><rect width="276" height="151" rx="10" transform="translate(121.11 543)" fill="#fff"/></g><path d="M6.432.24A5.16,5.16,0,0,0,11.68-3.616L9.616-4.24A3.152,3.152,0,0,1,6.432-1.92a3.5,3.5,0,0,1-3.52-3.744A3.494,3.494,0,0,1,6.4-9.456,2.966,2.966,0,0,1,9.52-7.168l2.08-.656a5,5,0,0,0-5.2-3.76A5.726,5.726,0,0,0,.624-5.664,5.664,5.664,0,0,0,6.432.24ZM16.45-1.7a2.029,2.029,0,0,1-2-2.24,2.02,2.02,0,0,1,2-2.24,2.02,2.02,0,0,1,2,2.24A2.02,2.02,0,0,1,16.45-1.7Zm0-6.416a4.032,4.032,0,0,0-4.128,4.176A4.041,4.041,0,0,0,16.45.24a4.041,4.041,0,0,0,4.128-4.176A4.032,4.032,0,0,0,16.45-8.112ZM24.212,0V-4.608A1.441,1.441,0,0,1,25.684-6.16a1.321,1.321,0,0,1,1.392,1.488V0h2.112V-4.608A1.446,1.446,0,0,1,30.644-6.16a1.313,1.313,0,0,1,1.392,1.488V0H34.1V-5.1A2.723,2.723,0,0,0,31.252-8.1a2.735,2.735,0,0,0-2.5,1.312A2.436,2.436,0,0,0,26.42-8.1a2.705,2.705,0,0,0-2.3,1.184v-.96H22.084V0Zm14,3.04V-.768a2.766,2.766,0,0,0,2.272.96c2.224,0,3.712-1.76,3.712-4.144,0-2.336-1.328-4.1-3.632-4.1A2.753,2.753,0,0,0,38.15-6.912v-.96H36.086V3.04ZM42.1-3.936A1.99,1.99,0,0,1,40.15-1.712a2.01,2.01,0,0,1-1.968-2.224A2,2,0,0,1,40.15-6.144,1.985,1.985,0,0,1,42.1-3.936Zm5.154-.9a1.7,1.7,0,0,1,1.76-1.552,1.583,1.583,0,0,1,1.76,1.552Zm3.728,2.048a1.738,1.738,0,0,1-1.792,1.2,1.917,1.917,0,0,1-1.984-1.792H52.84c0-.032.032-.352.032-.656,0-2.528-1.456-4.08-3.888-4.08a3.952,3.952,0,0,0-3.872,4.144A3.987,3.987,0,0,0,49.176.24a3.546,3.546,0,0,0,3.584-2.5ZM57-10.224h-1.92v1.1a1.134,1.134,0,0,1-1.216,1.248h-.4v1.888H54.89V-2.32a2.279,2.279,0,0,0,2.5,2.432,3.156,3.156,0,0,0,1.2-.192V-1.84a3.088,3.088,0,0,1-.656.064C57.322-1.776,57-2,57-2.688v-3.3h1.584V-7.872H57ZM62.349,0V-7.872H60.221V0ZM59.965-10.448a1.315,1.315,0,0,0,1.312,1.3,1.3,1.3,0,0,0,1.312-1.3,1.311,1.311,0,0,0-1.312-1.328A1.321,1.321,0,0,0,59.965-10.448Zm7.106.224h-1.92v1.1a1.134,1.134,0,0,1-1.216,1.248h-.4v1.888h1.424V-2.32a2.279,2.279,0,0,0,2.5,2.432,3.157,3.157,0,0,0,1.2-.192V-1.84A3.088,3.088,0,0,1,68-1.776c-.608,0-.928-.224-.928-.912v-3.3h1.584V-7.872H67.071ZM73.745-1.7a2.029,2.029,0,0,1-2-2.24,2.02,2.02,0,0,1,2-2.24,2.02,2.02,0,0,1,2,2.24A2.02,2.02,0,0,1,73.745-1.7Zm0-6.416a4.032,4.032,0,0,0-4.128,4.176A4.041,4.041,0,0,0,73.745.24a4.041,4.041,0,0,0,4.128-4.176A4.032,4.032,0,0,0,73.745-8.112ZM84.179-7.9a4.845,4.845,0,0,0-.5-.032A2.341,2.341,0,0,0,81.443-6.7V-7.872H79.379V0h2.128V-3.6c0-1.7.944-2.224,2.032-2.224a3.2,3.2,0,0,1,.64.064ZM97.751-9.248v-2.1H88.359v2.1h3.584V0h2.224V-9.248Zm4.722,1.376-1.712,5.056L99.305-7.872h-2.24L99.577,0h2.16l1.808-5.376L105.385,0h2.128l2.464-7.872h-2.112L106.409-2.8l-1.7-5.072ZM114.459-1.7a2.029,2.029,0,0,1-2-2.24,2.02,2.02,0,0,1,2-2.24,2.02,2.02,0,0,1,2,2.24A2.02,2.02,0,0,1,114.459-1.7Zm0-6.416a4.032,4.032,0,0,0-4.128,4.176A4.041,4.041,0,0,0,114.459.24a4.041,4.041,0,0,0,4.128-4.176A4.032,4.032,0,0,0,114.459-8.112Z" transform="translate(1192.758 4126.571)" fill="#218dec"/><circle cx="26.5" cy="26.5" r="26.5" transform="translate(1134.566 4050.571)" fill="#817bed"/><path d="M-1.773-7.164a2.559,2.559,0,0,1-.09-.648A1.762,1.762,0,0,1-.009-9.756a1.6,1.6,0,0,1,1.764,1.6A2.278,2.278,0,0,1,.369-6.138L-1.557-4.986A5.332,5.332,0,0,0-4.311,0h8.64V-2.142h-5.6A2.38,2.38,0,0,1-.261-3.2l2.25-1.368A4.2,4.2,0,0,0,4.257-8.19c0-2.034-1.6-3.762-4.212-3.762A3.943,3.943,0,0,0-4.221-8.046a4.409,4.409,0,0,0,.09.81Z" transform="translate(1155.566 4083.571)" fill="#fff"/><path d="M-4.734-3.4A1.112,1.112,0,0,1-3.63-4.62,1.038,1.038,0,0,1-2.538-3.444V0h1.6V-3.72A2.078,2.078,0,0,0-3.078-6.06a1.961,1.961,0,0,0-1.7.888V-5.9H-6.33V0h1.6ZM6.306-8.688H4.734v3.372a1.768,1.768,0,0,0-1.668-.732A2.886,2.886,0,0,0,.234-2.964,2.9,2.9,0,0,0,3.114.144,1.851,1.851,0,0,0,4.77-.684,4.076,4.076,0,0,0,4.83,0H6.354c-.024-.24-.048-.672-.048-1.068ZM1.842-2.964A1.482,1.482,0,0,1,3.306-4.62,1.463,1.463,0,0,1,4.758-2.976,1.5,1.5,0,0,1,3.306-1.284,1.491,1.491,0,0,1,1.842-2.964Z" transform="translate(1168.566 4082.571)" fill="#fff"/><g transform="translate(1268.101 4158.071)"><path d="M16.164,20.681l-5.757-3.17-5.76,3.169c-.576.317-.956.04-.849-.622l1.1-6.726L.269,8.6C-.193,8.132-.046,7.667.6,7.57L6.994,6.6,9.892.453c.284-.6.745-.6,1.03,0l2.9,6.146,6.391.972c.648.1.8.562.334,1.034L15.91,13.331l1.1,6.726c.107.662-.273.94-.849.623" transform="translate(0 0)" fill="#ffc13b"/><path d="M16.164,20.681l-5.757-3.17-5.76,3.169c-.576.317-.956.04-.849-.622l1.1-6.726L.269,8.6C-.193,8.132-.046,7.667.6,7.57L6.994,6.6,9.892.453c.284-.6.745-.6,1.03,0l2.9,6.146,6.391.972c.648.1.8.562.334,1.034L15.91,13.331l1.1,6.726c.107.662-.273.94-.849.623" transform="translate(27.413 0)" fill="#ffc13b"/><path d="M16.164,20.681l-5.757-3.17-5.76,3.169c-.576.317-.956.04-.849-.622l1.1-6.726L.269,8.6C-.193,8.132-.046,7.667.6,7.57L6.994,6.6,9.892.453c.284-.6.745-.6,1.03,0l2.9,6.146,6.391.972c.648.1.8.562.334,1.034L15.91,13.331l1.1,6.726c.107.662-.273.94-.849.623" transform="translate(54.827 0)" fill="#ffc13b"/><path d="M16.164,20.681l-5.757-3.17-5.76,3.169c-.576.317-.956.04-.849-.622l1.1-6.726L.269,8.6C-.193,8.132-.046,7.667.6,7.57L6.994,6.6,9.892.453c.284-.6.745-.6,1.03,0l2.9,6.146,6.391.972c.648.1.8.562.334,1.034L15.91,13.331l1.1,6.726c.107.662-.273.94-.849.623" transform="translate(82.24 0)" fill="#ffc13b"/><path d="M16.164,20.681l-5.757-3.17-5.76,3.169c-.576.317-.956.04-.849-.622l1.1-6.726L.269,8.6C-.193,8.132-.046,7.667.6,7.57L6.994,6.6,9.892.453c.284-.6.745-.6,1.03,0l2.9,6.146,6.391.972c.648.1.8.562.334,1.034L15.91,13.331l1.1,6.726c.107.662-.273.94-.849.623" transform="translate(109.654 0)" fill="#d9dbe6"/></g><path d="M-62.671-6.674h14.664V0h5.546V-6.674h5.123v-4.982h-5.123v-18.8H-49.7L-62.671-12.784Zm14.664-4.982H-57.6l9.588-13.113Zm13.264,8.131A3.791,3.791,0,0,0-30.936.282a3.831,3.831,0,0,0,3.854-3.807,3.871,3.871,0,0,0-3.854-3.854A3.831,3.831,0,0,0-34.743-3.525Zm16.93-15.51c-.047-.517-.141-1.081-.141-1.551,0-3.149,1.739-5.64,5.311-5.64,3.431,0,5.123,2.256,5.123,4.747,0,2.209-1.175,4.042-3.9,5.734L-16.45-12.6c-5.311,3.29-7.144,7.379-7.238,12.6H-1.645V-4.982H-16.732a6.357,6.357,0,0,1,3.1-3.478l5.922-3.666c3.666-2.256,5.875-5.5,5.875-9.447,0-5.217-4-9.588-10.716-9.588-6.909,0-10.857,4.747-10.857,10.011a16.265,16.265,0,0,0,.141,1.739Z" transform="translate(1257.5 4179.805)" fill="#4f5a79"/></g><g transform="translate(250.619 3014.719)"><g transform="matrix(1, 0, 0, 1, 665.27, 1336.48)" filter="url(#m)"><ellipse cx="114.503" cy="114.503" rx="114.503" ry="114.503" transform="translate(593.85 462.02)" fill="#fff"/></g><g transform="translate(1274.265 1813.798)"><g transform="translate(0 0)"><path d="M89.388,178A88.834,88.834,0,0,0,178,89.388C178,39.846,138.152,0,89.388,0A89.166,89.166,0,0,0,0,89.388C0,138.152,39.846,178,89.388,178Z" transform="translate(10.092 10.396)" fill="none" stroke="#e1e8ef" stroke-miterlimit="10" stroke-width="10"/><path d="M89.388,178A88.834,88.834,0,0,0,178,89.388C178,39.846,138.152,0,89.388,0A89.166,89.166,0,0,0,0,89.388C0,138.152,39.846,178,89.388,178Z" transform="translate(54.077 -18.322) rotate(24)" fill="none" stroke="#fac444" stroke-miterlimit="10" stroke-width="10" stroke-dasharray="313 130"/></g></g><path d="M-1.374-36.936H-28.962v5.985H-9.126S-22.008-20.634-23.6,0h7.068C-14.883-19.038-4.452-28.386-1.374-30.951Zm11.7,20.178a8.062,8.062,0,0,1,3.477-.627c3.135,0,6.555,1.824,6.555,6.1,0,3.363-2.508,6.27-7.011,6.27A7.153,7.153,0,0,1,5.991-12.2L-.678-10.83C-.222-4.674,4.851.855,13.4.855c8.778,0,13.851-5.757,13.851-12.084A10.988,10.988,0,0,0,16.194-22.458l10.032-8.778v-5.7H.576v5.985H17.391l-10.2,9.12Z" transform="translate(1374.12 1931.062)" fill="#fac444"/><path d="M-12.054,0V-4h4.032V-5.558h-4.032V-8.344H-7.56V-9.926h-6.174V0ZM.154,0H1.988L-1.876-9.926H-3.822L-7.686,0h1.778l.924-2.492h4.2ZM-2.884-8.106l1.512,4.06H-4.4ZM5.026,0V-9.926H3.318V0Zm7.392,0h1.9l-2.24-4.088a2.8,2.8,0,0,0,2.24-2.828,2.93,2.93,0,0,0-3.108-3.01H7.406V0H9.1V-3.92h1.232ZM9.1-5.4V-8.442h1.806a1.524,1.524,0,0,1,1.708,1.526A1.522,1.522,0,0,1,10.906-5.4Z" transform="translate(1373.733 1952.389)" fill="#fac444"/><path d="M-25.812-3.6V0h1.44V-3.6l3-4.908h-1.62l-2.052,3.564-2.04-3.564h-1.7Zm6.888,2.532a1.677,1.677,0,0,1-1.632-1.86,1.655,1.655,0,0,1,1.632-1.836,1.649,1.649,0,0,1,1.632,1.836A1.664,1.664,0,0,1-18.924-1.068Zm0-4.956a2.971,2.971,0,0,0-3.024,3.1A2.974,2.974,0,0,0-18.924.18a2.976,2.976,0,0,0,3.036-3.108A2.973,2.973,0,0,0-18.924-6.024Zm8.148,5.376A4.35,4.35,0,0,0-10.728,0H-9.4a9.513,9.513,0,0,1-.06-1.068V-5.844h-1.392v3.456A1.171,1.171,0,0,1-12.072-1.08c-.84,0-1.176-.612-1.176-1.332V-5.844H-14.64V-2.16A2.161,2.161,0,0,0-12.432.168,1.869,1.869,0,0,0-10.776-.648Zm6.54-5.232a1.993,1.993,0,0,0-.372-.036A1.768,1.768,0,0,0-6.3-4.908v-.936H-7.656V0h1.392V-2.784c0-1.092.492-1.716,1.572-1.716a3.038,3.038,0,0,1,.456.036Zm3.6,4.3A2.2,2.2,0,0,0,1.776.18,1.986,1.986,0,0,0,3.984-1.692,1.839,1.839,0,0,0,2.3-3.468l-.888-.18A.642.642,0,0,1,.828-4.26a.76.76,0,0,1,.84-.672,1,1,0,0,1,1.08.876l1.176-.336A2.062,2.062,0,0,0,1.668-6.024,2.026,2.026,0,0,0-.48-4.14a1.765,1.765,0,0,0,1.572,1.7l.864.192c.468.1.684.336.684.648,0,.36-.3.672-.876.672a1.094,1.094,0,0,1-1.188-1ZM7.872-4.74A1.375,1.375,0,0,1,9.288-3.648L10.536-4.1A2.613,2.613,0,0,0,7.86-6.024a2.97,2.97,0,0,0-2.988,3.1A3,3,0,0,0,7.9.18a2.71,2.71,0,0,0,2.688-1.908L9.36-2.172A1.475,1.475,0,0,1,7.9-1.092,1.662,1.662,0,0,1,6.264-2.928,1.637,1.637,0,0,1,7.872-4.74Zm6.456,3.672A1.677,1.677,0,0,1,12.7-2.928a1.655,1.655,0,0,1,1.632-1.836A1.649,1.649,0,0,1,15.96-2.928,1.664,1.664,0,0,1,14.328-1.068Zm0-4.956a2.971,2.971,0,0,0-3.024,3.1A2.974,2.974,0,0,0,14.328.18a2.976,2.976,0,0,0,3.036-3.108A2.973,2.973,0,0,0,14.328-6.024Zm7.8.144a1.993,1.993,0,0,0-.372-.036,1.768,1.768,0,0,0-1.692,1.008v-.936H18.708V0H20.1V-2.784c0-1.092.492-1.716,1.572-1.716a3.038,3.038,0,0,1,.456.036ZM24.2-3.564a1.4,1.4,0,0,1,1.428-1.3,1.309,1.309,0,0,1,1.44,1.3ZM27.228-2.04a1.41,1.41,0,0,1-1.464,1.02,1.565,1.565,0,0,1-1.6-1.524H28.44a2.062,2.062,0,0,0,.036-.444A2.73,2.73,0,0,0,25.62-6.024a2.93,2.93,0,0,0-2.844,3.072A2.951,2.951,0,0,0,25.764.18,2.632,2.632,0,0,0,28.4-1.668Z" transform="translate(1373.957 1878.022)" fill="#697492"/></g></g></svg>