<svg xmlns="http://www.w3.org/2000/svg" xmlns:xlink="http://www.w3.org/1999/xlink" width="744" height="540" viewBox="0 0 744 540">
  <defs>
    <filter id="Rectangle_4845" x="102" y="335" width="532" height="205" filterUnits="userSpaceOnUse">
      <feOffset dy="5" input="SourceAlpha"/>
      <feGaussianBlur stdDeviation="9" result="blur"/>
      <feFlood flood-color="#262d41" flood-opacity="0.051"/>
      <feComposite operator="in" in2="blur"/>
      <feComposite in="SourceGraphic"/>
    </filter>
    <filter id="Rectangle_4845-2" x="4" y="170" width="532" height="205" filterUnits="userSpaceOnUse">
      <feOffset dy="5" input="SourceAlpha"/>
      <feGaussianBlur stdDeviation="9" result="blur-2"/>
      <feFlood flood-color="#262d41" flood-opacity="0.051"/>
      <feComposite operator="in" in2="blur-2"/>
      <feComposite in="SourceGraphic"/>
    </filter>
    <filter id="Rectangle_4845-3" x="102" y="5" width="532" height="205" filterUnits="userSpaceOnUse">
      <feOffset dy="5" input="SourceAlpha"/>
      <feGaussianBlur stdDeviation="9" result="blur-3"/>
      <feFlood flood-color="#262d41" flood-opacity="0.051"/>
      <feComposite operator="in" in2="blur-3"/>
      <feComposite in="SourceGraphic"/>
    </filter>
    <filter id="Ellipse_17" x="384" y="121.533" width="360" height="360" filterUnits="userSpaceOnUse">
      <feOffset dy="3" input="SourceAlpha"/>
      <feGaussianBlur stdDeviation="13" result="blur-4"/>
      <feFlood flood-opacity="0.051"/>
      <feComposite operator="in" in2="blur-4"/>
      <feComposite in="SourceGraphic"/>
    </filter>
    <clipPath id="clip-path">
      <path id="Oval" d="M110.073,219.19c60.049,0,109.116-49.067,109.116-109.116C219.19,49.067,170.122,0,110.073,0A109.8,109.8,0,0,0,0,110.073C0,170.122,49.067,219.19,110.073,219.19Z" fill="none" stroke="#e7edf3" stroke-miterlimit="10" stroke-width="10"/>
    </clipPath>
    <clipPath id="clip-path-2">
      <path id="Oval-2" data-name="Oval" d="M0,198.337A110.133,110.133,0,0,0,64.734,219.19c60.044,0,109.106-49.067,109.106-109.116C173.84,49.067,124.777,0,64.734,0" fill="none" stroke="#f6606e" stroke-linecap="round" stroke-linejoin="round" stroke-miterlimit="10" stroke-width="10"/>
    </clipPath>
  </defs>
  <g id="Illus-Google-Rank" transform="translate(-249 -1293)">
    <g id="Card-Three" transform="translate(-136 -116)">
      <g transform="matrix(1, 0, 0, 1, 385, 1409)" filter="url(#Rectangle_4845)">
        <rect id="Rectangle_4845-4" data-name="Rectangle 4845" width="478" height="151" rx="10" transform="translate(129 357)" fill="#fff"/>
      </g>
      <rect id="Rectangle_16_Copy" data-name="Rectangle 16 Copy" width="310" height="12" rx="4" transform="translate(548 1849)" fill="#f3f4f9"/>
      <rect id="Rectangle_16_Copy_4" data-name="Rectangle 16 Copy 4" width="292" height="12" rx="4" transform="translate(548 1871)" fill="#f3f4f9"/>
      <path id="Contact_Us_-_Katheri" data-name="Contact Us - Katheri" d="M6.432,16.24a5.16,5.16,0,0,0,5.248-3.856L9.616,11.76a3.152,3.152,0,0,1-3.184,2.32,3.5,3.5,0,0,1-3.52-3.744A3.494,3.494,0,0,1,6.4,6.544,2.966,2.966,0,0,1,9.52,8.832l2.08-.656a5,5,0,0,0-5.2-3.76,5.726,5.726,0,0,0-5.776,5.92A5.664,5.664,0,0,0,6.432,16.24ZM16.45,14.3a2.029,2.029,0,0,1-2-2.24,2.013,2.013,0,1,1,4,0A2.02,2.02,0,0,1,16.45,14.3Zm0-6.416a4.032,4.032,0,0,0-4.128,4.176A4.041,4.041,0,0,0,16.45,16.24a4.041,4.041,0,0,0,4.128-4.176A4.032,4.032,0,0,0,16.45,7.888ZM24.212,16V11.392A1.441,1.441,0,0,1,25.684,9.84a1.321,1.321,0,0,1,1.392,1.488V16h2.112V11.392A1.446,1.446,0,0,1,30.644,9.84a1.313,1.313,0,0,1,1.392,1.488V16H34.1V10.9a2.912,2.912,0,0,0-5.344-1.68A2.436,2.436,0,0,0,26.42,7.9a2.705,2.705,0,0,0-2.3,1.184v-.96H22.084V16Zm14,3.04V15.232a2.766,2.766,0,0,0,2.272.96c2.224,0,3.712-1.76,3.712-4.144,0-2.336-1.328-4.1-3.632-4.1A2.753,2.753,0,0,0,38.15,9.088v-.96H36.086V19.04ZM42.1,12.064a1.976,1.976,0,1,1-3.92,0,1.974,1.974,0,1,1,3.92,0Zm5.154-.9a1.7,1.7,0,0,1,1.76-1.552,1.583,1.583,0,0,1,1.76,1.552Zm3.728,2.048a1.738,1.738,0,0,1-1.792,1.2,1.917,1.917,0,0,1-1.984-1.792H52.84c0-.032.032-.352.032-.656,0-2.528-1.456-4.08-3.888-4.08a3.952,3.952,0,0,0-3.872,4.144,3.987,3.987,0,0,0,4.064,4.208,3.546,3.546,0,0,0,3.584-2.5ZM57,5.776h-1.92v1.1a1.134,1.134,0,0,1-1.216,1.248h-.4v1.888H54.89V13.68a2.279,2.279,0,0,0,2.5,2.432,3.156,3.156,0,0,0,1.2-.192V14.16a3.088,3.088,0,0,1-.656.064c-.608,0-.928-.224-.928-.912v-3.3h1.584V8.128H57ZM62.349,16V8.128H60.221V16ZM59.965,5.552a1.312,1.312,0,1,0,1.312-1.328A1.315,1.315,0,0,0,59.965,5.552Zm7.106.224h-1.92v1.1a1.134,1.134,0,0,1-1.216,1.248h-.4v1.888h1.424V13.68a2.279,2.279,0,0,0,2.5,2.432,3.157,3.157,0,0,0,1.2-.192V14.16a3.088,3.088,0,0,1-.656.064c-.608,0-.928-.224-.928-.912v-3.3h1.584V8.128H67.071ZM73.745,14.3a2.029,2.029,0,0,1-2-2.24,2.013,2.013,0,1,1,4,0A2.02,2.02,0,0,1,73.745,14.3Zm0-6.416a4.032,4.032,0,0,0-4.128,4.176,4.128,4.128,0,1,0,8.256,0A4.032,4.032,0,0,0,73.745,7.888ZM84.179,8.1a4.845,4.845,0,0,0-.5-.032A2.341,2.341,0,0,0,81.443,9.3V8.128H79.379V16h2.128V12.4c0-1.7.944-2.224,2.032-2.224a3.2,3.2,0,0,1,.64.064ZM97.751,6.752v-2.1H88.359v2.1h3.584V16h2.224V6.752Zm4.722,1.376-1.712,5.056L99.305,8.128h-2.24L99.577,16h2.16l1.808-5.376L105.385,16h2.128l2.464-7.872h-2.112L106.409,13.2l-1.7-5.072ZM114.459,14.3a2.029,2.029,0,0,1-2-2.24,2.013,2.013,0,1,1,4,0A2.02,2.02,0,0,1,114.459,14.3Zm0-6.416a4.032,4.032,0,0,0-4.128,4.176,4.128,4.128,0,1,0,8.256,0A4.032,4.032,0,0,0,114.459,7.888Z" transform="translate(548.838 1794)" fill="#218dec"/>
      <path id="Path_19067" data-name="Path 19067" d="M5.616,8.208,3.776,13.6,2.192,8.208H.208L2.736,16h1.9l1.888-5.6L8.464,16H10.32l2.5-7.792H10.928L9.376,13.6,7.536,8.208Zm13.024,0L16.8,13.6,15.216,8.208H13.232L15.76,16h1.9l1.888-5.6L21.488,16h1.856l2.5-7.792H23.952L22.4,13.6,20.56,8.208Zm13.024,0L29.824,13.6,28.24,8.208H26.256L28.784,16h1.9l1.888-5.6L34.512,16h1.856l2.5-7.792H36.976L35.424,13.6l-1.84-5.392ZM39.456,14.8a1.291,1.291,0,0,0,1.3,1.3,1.3,1.3,0,0,0,1.312-1.3,1.318,1.318,0,0,0-1.312-1.312A1.3,1.3,0,0,0,39.456,14.8ZM47.44,9.68a1.833,1.833,0,0,1,1.888,1.456l1.664-.608a3.484,3.484,0,0,0-3.568-2.56A3.96,3.96,0,0,0,43.44,12.1a4,4,0,0,0,4.032,4.144A3.613,3.613,0,0,0,51.056,13.7L49.424,13.1a1.966,1.966,0,0,1-1.952,1.44A2.216,2.216,0,0,1,45.3,12.1,2.182,2.182,0,0,1,47.44,9.68Zm8.608,4.9a2.236,2.236,0,0,1-2.176-2.48,2.191,2.191,0,1,1,4.352,0A2.218,2.218,0,0,1,56.048,14.576Zm0-6.608A3.961,3.961,0,0,0,52.016,12.1a4.041,4.041,0,1,0,8.08,0A3.964,3.964,0,0,0,56.048,7.968ZM63.728,16V11.376a1.593,1.593,0,0,1,1.616-1.728,1.421,1.421,0,0,1,1.5,1.6V16h1.824V11.376a1.62,1.62,0,0,1,1.616-1.728,1.422,1.422,0,0,1,1.5,1.6V16h1.792V10.944a2.676,2.676,0,0,0-2.752-2.96A2.734,2.734,0,0,0,68.3,9.36a2.443,2.443,0,0,0-2.336-1.376,2.659,2.659,0,0,0-2.3,1.216V8.208H61.888V16ZM77.7,19.04V15.12a2.816,2.816,0,0,0,2.368,1.072c2.24,0,3.664-1.76,3.664-4.1,0-2.3-1.3-4.064-3.6-4.064a2.8,2.8,0,0,0-2.48,1.232V8.208H75.856V19.04ZM81.872,12.1a2.121,2.121,0,1,1-4.192,0,2.117,2.117,0,1,1,4.192,0Zm4.944-.848a1.871,1.871,0,0,1,1.9-1.728,1.745,1.745,0,0,1,1.92,1.728Zm4.032,2.032A1.88,1.88,0,0,1,88.9,14.64a2.086,2.086,0,0,1-2.128-2.032h5.7a2.749,2.749,0,0,0,.048-.592c0-2.464-1.408-4.048-3.808-4.048a3.906,3.906,0,0,0-3.792,4.1A3.935,3.935,0,0,0,88.9,16.24a3.51,3.51,0,0,0,3.52-2.464ZM96.64,5.824H94.96V6.992a1.105,1.105,0,0,1-1.2,1.216h-.4V9.856H94.8v3.92a2.148,2.148,0,0,0,2.336,2.32,2.92,2.92,0,0,0,1.136-.176V14.384a3.962,3.962,0,0,1-.64.064c-.688,0-.992-.288-.992-.976V9.856h1.616V8.208H96.64ZM102,16V8.208h-1.84V16ZM99.872,5.472a1.208,1.208,0,0,0,2.416,0,1.208,1.208,0,1,0-2.416,0Zm6.88.352h-1.68V6.992a1.105,1.105,0,0,1-1.2,1.216h-.4V9.856h1.44v3.92a2.148,2.148,0,0,0,2.336,2.32,2.92,2.92,0,0,0,1.136-.176V14.384a3.962,3.962,0,0,1-.64.064c-.688,0-.992-.288-.992-.976V9.856h1.616V8.208h-1.616Zm6.864,8.752a2.236,2.236,0,0,1-2.176-2.48,2.191,2.191,0,1,1,4.352,0A2.218,2.218,0,0,1,113.616,14.576Zm0-6.608a3.961,3.961,0,0,0-4.032,4.128,4.041,4.041,0,1,0,8.08,0A3.964,3.964,0,0,0,113.616,7.968Zm10.4.192a2.658,2.658,0,0,0-.5-.048,2.357,2.357,0,0,0-2.256,1.344V8.208h-1.808V16h1.856V12.288c0-1.456.656-2.288,2.1-2.288a4.05,4.05,0,0,1,.608.048Zm5.552,3.984V10.5h-4.512v1.648Zm4.16-6.32h-1.68V6.992a1.105,1.105,0,0,1-1.2,1.216h-.4V9.856h1.44v3.92a2.148,2.148,0,0,0,2.336,2.32,2.92,2.92,0,0,0,1.136-.176V14.384a3.963,3.963,0,0,1-.64.064c-.688,0-.992-.288-.992-.976V9.856h1.616V8.208h-1.616Zm8.016,2.384L139.9,13.6,138.32,8.208h-1.984L138.864,16h1.9l1.888-5.6,1.936,5.6h1.856l2.5-7.792h-1.888L145.5,13.6l-1.84-5.392Zm11.84,6.368a2.236,2.236,0,0,1-2.176-2.48,2.191,2.191,0,1,1,4.352,0A2.218,2.218,0,0,1,153.584,14.576Zm0-6.608a3.961,3.961,0,0,0-4.032,4.128,4.041,4.041,0,1,0,8.08,0A3.964,3.964,0,0,0,153.584,7.968Zm5.44,6.832a1.291,1.291,0,0,0,1.3,1.3,1.3,1.3,0,0,0,1.312-1.3,1.318,1.318,0,0,0-1.312-1.312A1.3,1.3,0,0,0,159.024,14.8Zm7.984-5.12a1.833,1.833,0,0,1,1.888,1.456l1.664-.608a3.484,3.484,0,0,0-3.568-2.56,3.96,3.96,0,0,0-3.984,4.128,4,4,0,0,0,4.032,4.144,3.613,3.613,0,0,0,3.584-2.544l-1.632-.592a1.966,1.966,0,0,1-1.952,1.44,2.216,2.216,0,0,1-2.176-2.448A2.182,2.182,0,0,1,167.008,9.68Zm8.608,4.9a2.236,2.236,0,0,1-2.176-2.48,2.191,2.191,0,1,1,4.352,0A2.218,2.218,0,0,1,175.616,14.576Zm0-6.608a3.961,3.961,0,0,0-4.032,4.128,4.041,4.041,0,1,0,8.08,0A3.964,3.964,0,0,0,175.616,7.968ZM183.3,16V11.376a1.593,1.593,0,0,1,1.616-1.728,1.421,1.421,0,0,1,1.5,1.6V16h1.824V11.376a1.62,1.62,0,0,1,1.616-1.728,1.422,1.422,0,0,1,1.5,1.6V16h1.792V10.944a2.676,2.676,0,0,0-2.752-2.96,2.734,2.734,0,0,0-2.528,1.376,2.443,2.443,0,0,0-2.336-1.376,2.659,2.659,0,0,0-2.3,1.216V8.208h-1.776V16Z" transform="translate(548.838 1813.564)" fill="#1db89a"/>
    </g>
    <g id="Card-Two" transform="translate(-234 -281)">
      <g transform="matrix(1, 0, 0, 1, 483, 1574)" filter="url(#Rectangle_4845-2)">
        <rect id="Rectangle_4845-5" data-name="Rectangle 4845" width="478" height="151" rx="10" transform="translate(31 192)" fill="#fff"/>
      </g>
      <rect id="Rectangle_16_Copy-2" data-name="Rectangle 16 Copy" width="310" height="12" rx="4" transform="translate(548 1850)" fill="#f3f4f9"/>
      <rect id="Rectangle_16_Copy_4-2" data-name="Rectangle 16 Copy 4" width="292" height="12" rx="4" transform="translate(548 1872)" fill="#f3f4f9"/>
      <path id="Contact_Us_-_Katheri-2" data-name="Contact Us - Katheri" d="M5.14,14.04V20H7.9V14.04l5-8.22H9.8L6.62,11.44,3.44,5.82H.2Zm11.6,3.84a2.536,2.536,0,0,1-2.5-2.8,2.516,2.516,0,1,1,5,0A2.525,2.525,0,0,1,16.743,17.88Zm0-8.02a5.04,5.04,0,0,0-5.16,5.22,5.051,5.051,0,0,0,5.16,5.22,5.051,5.051,0,0,0,5.16-5.22A5.04,5.04,0,0,0,16.743,9.86ZM30.185,20h2.54a16.184,16.184,0,0,1-.1-1.78V10.16h-2.66v5.72a1.775,1.775,0,0,1-1.86,1.94,1.751,1.751,0,0,1-1.8-1.98V10.16h-2.66v6.22a3.626,3.626,0,0,0,3.74,3.88,3.109,3.109,0,0,0,2.72-1.32A6.735,6.735,0,0,0,30.185,20Zm11.063-9.88a6.057,6.057,0,0,0-.62-.04,2.926,2.926,0,0,0-2.8,1.54V10.16h-2.58V20h2.66V15.5c0-2.12,1.18-2.78,2.54-2.78a4.005,4.005,0,0,1,.8.08Zm9.305,2.16V8.22h2.18a1.975,1.975,0,0,1,2.22,2.04,1.981,1.981,0,0,1-2.22,2.02Zm2.52,2.38a4.33,4.33,0,0,0,4.66-4.42,4.341,4.341,0,0,0-4.66-4.42h-5.3V20h2.76V14.66Zm12.163-4.54a6.057,6.057,0,0,0-.62-.04,2.926,2.926,0,0,0-2.8,1.54V10.16h-2.58V20H61.9V15.5c0-2.12,1.18-2.78,2.54-2.78a4.005,4.005,0,0,1,.8.08Zm1.123,7.2a3.107,3.107,0,0,0,3.38,2.96,3.288,3.288,0,0,0,2.9-1.46,6.664,6.664,0,0,0,.1,1.18h2.44a11.019,11.019,0,0,1-.12-1.56V13.6c0-1.98-1.16-3.74-4.28-3.74-2.64,0-4.06,1.7-4.22,3.24l2.36.5A1.747,1.747,0,0,1,70.8,12c1.12,0,1.66.58,1.66,1.28,0,.34-.18.62-.74.7l-2.42.36C67.658,14.58,66.358,15.56,66.358,17.32Zm3.94.98a1.155,1.155,0,0,1-1.28-1.14,1.242,1.242,0,0,1,1.22-1.24l2.22-.34v.44A2,2,0,0,1,70.3,18.3Zm11.6-5.98a2.146,2.146,0,0,1,2.18,1.66l2.38-.8a4.5,4.5,0,0,0-4.62-3.32,5.038,5.038,0,0,0-5.1,5.22,5.091,5.091,0,0,0,5.18,5.22,4.569,4.569,0,0,0,4.6-3.32l-2.34-.78a2.252,2.252,0,0,1-2.26,1.66,2.534,2.534,0,0,1-2.52-2.78A2.5,2.5,0,0,1,81.9,12.32Zm9.643-5.1h-2.4V8.6a1.418,1.418,0,0,1-1.52,1.56h-.5v2.36H88.9V17.1a2.848,2.848,0,0,0,3.12,3.04,3.946,3.946,0,0,0,1.5-.24V17.7a3.86,3.86,0,0,1-.82.08c-.76,0-1.16-.28-1.16-1.14V12.52h1.98V10.16h-1.98ZM98.226,20V10.16h-2.66V20ZM95.246,6.94a1.64,1.64,0,1,0,1.64-1.66A1.643,1.643,0,0,0,95.246,6.94Zm10.023,5.38a2.146,2.146,0,0,1,2.18,1.66l2.38-.8a4.5,4.5,0,0,0-4.62-3.32,5.038,5.038,0,0,0-5.1,5.22,5.091,5.091,0,0,0,5.18,5.22,4.569,4.569,0,0,0,4.6-3.32l-2.34-.78a2.252,2.252,0,0,1-2.26,1.66,2.534,2.534,0,0,1-2.52-2.78A2.5,2.5,0,0,1,105.269,12.32Zm8.2,1.64a2.129,2.129,0,0,1,2.2-1.94,1.979,1.979,0,0,1,2.2,1.94Zm4.66,2.56a2.173,2.173,0,0,1-2.24,1.5,2.4,2.4,0,0,1-2.48-2.24h7.04c0-.04.04-.44.04-.82,0-3.16-1.82-5.1-4.86-5.1a4.94,4.94,0,0,0-4.84,5.18,4.984,4.984,0,0,0,5.08,5.26,4.432,4.432,0,0,0,4.48-3.12Z" transform="translate(547.838 1789)" fill="#218dec"/>
      <path id="Path_19066" data-name="Path 19066" d="M5.616,8.208,3.776,13.6,2.192,8.208H.208L2.736,16h1.9l1.888-5.6L8.464,16H10.32l2.5-7.792H10.928L9.376,13.6,7.536,8.208Zm13.024,0L16.8,13.6,15.216,8.208H13.232L15.76,16h1.9l1.888-5.6L21.488,16h1.856l2.5-7.792H23.952L22.4,13.6,20.56,8.208Zm13.024,0L29.824,13.6,28.24,8.208H26.256L28.784,16h1.9l1.888-5.6L34.512,16h1.856l2.5-7.792H36.976L35.424,13.6l-1.84-5.392ZM39.456,14.8a1.291,1.291,0,0,0,1.3,1.3,1.3,1.3,0,0,0,1.312-1.3,1.318,1.318,0,0,0-1.312-1.312A1.3,1.3,0,0,0,39.456,14.8Zm5.712-3.6V16h1.92V11.2l4-6.544h-2.16L46.192,9.408l-2.72-4.752H41.2Zm9.184,3.376a2.236,2.236,0,0,1-2.176-2.48,2.191,2.191,0,1,1,4.352,0A2.218,2.218,0,0,1,54.352,14.576Zm0-6.608A3.961,3.961,0,0,0,50.32,12.1a4.041,4.041,0,1,0,8.08,0A3.964,3.964,0,0,0,54.352,7.968Zm10.864,7.168A5.8,5.8,0,0,0,65.28,16h1.776a12.684,12.684,0,0,1-.08-1.424V8.208H65.12v4.608a1.561,1.561,0,0,1-1.632,1.744c-1.12,0-1.568-.816-1.568-1.776V8.208H60.064V13.12a2.881,2.881,0,0,0,2.944,3.1A2.492,2.492,0,0,0,65.216,15.136Zm8.72-6.976a2.658,2.658,0,0,0-.5-.048,2.357,2.357,0,0,0-2.256,1.344V8.208H69.376V16h1.856V12.288c0-1.456.656-2.288,2.1-2.288a4.05,4.05,0,0,1,.608.048Zm3.6,1.712V6.352h2a1.733,1.733,0,0,1,1.952,1.776,1.718,1.718,0,0,1-1.952,1.744Zm2.288,1.7A3.379,3.379,0,0,0,83.44,8.112a3.388,3.388,0,0,0-3.616-3.456H75.616V16h1.92V11.568ZM89.44,8.16a2.658,2.658,0,0,0-.5-.048,2.357,2.357,0,0,0-2.256,1.344V8.208H84.88V16h1.856V12.288c0-1.456.656-2.288,2.1-2.288a4.05,4.05,0,0,1,.608.048Zm1.088,5.728a2.444,2.444,0,0,0,2.64,2.352,2.719,2.719,0,0,0,2.4-1.232,4.333,4.333,0,0,0,.08.992h1.728a7.067,7.067,0,0,1-.1-1.248V10.88c0-1.552-.912-2.912-3.312-2.912a3.052,3.052,0,0,0-3.28,2.544l1.7.384a1.5,1.5,0,0,1,1.6-1.408c1.024,0,1.472.528,1.472,1.184,0,.272-.128.5-.576.56l-2,.3A2.4,2.4,0,0,0,90.528,13.888Zm2.992.9a1.03,1.03,0,0,1-1.136-1.008c0-.64.464-.96,1.04-1.056l2.032-.3v.352A1.773,1.773,0,0,1,93.52,14.784Zm9.376-5.1a1.833,1.833,0,0,1,1.888,1.456l1.664-.608a3.484,3.484,0,0,0-3.568-2.56A3.96,3.96,0,0,0,98.9,12.1a4,4,0,0,0,4.032,4.144,3.613,3.613,0,0,0,3.584-2.544L104.88,13.1a1.966,1.966,0,0,1-1.952,1.44,2.216,2.216,0,0,1-2.176-2.448A2.182,2.182,0,0,1,102.9,9.68Zm7.616-3.856h-1.68V6.992a1.105,1.105,0,0,1-1.2,1.216h-.4V9.856h1.44v3.92a2.148,2.148,0,0,0,2.336,2.32,2.92,2.92,0,0,0,1.136-.176V14.384a3.962,3.962,0,0,1-.64.064c-.688,0-.992-.288-.992-.976V9.856h1.616V8.208h-1.616ZM115.872,16V8.208h-1.84V16ZM113.744,5.472a1.208,1.208,0,0,0,2.416,0,1.208,1.208,0,1,0-2.416,0Zm7.92,4.208a1.833,1.833,0,0,1,1.888,1.456l1.664-.608a3.484,3.484,0,0,0-3.568-2.56,3.96,3.96,0,0,0-3.984,4.128A4,4,0,0,0,121.7,16.24,3.613,3.613,0,0,0,125.28,13.7l-1.632-.592a1.966,1.966,0,0,1-1.952,1.44A2.216,2.216,0,0,1,119.52,12.1,2.182,2.182,0,0,1,121.664,9.68Zm6.48,1.568a1.871,1.871,0,0,1,1.9-1.728,1.745,1.745,0,0,1,1.92,1.728Zm4.032,2.032a1.88,1.88,0,0,1-1.952,1.36,2.086,2.086,0,0,1-2.128-2.032h5.7a2.75,2.75,0,0,0,.048-.592c0-2.464-1.408-4.048-3.808-4.048a3.906,3.906,0,0,0-3.792,4.1,3.935,3.935,0,0,0,3.984,4.176,3.51,3.51,0,0,0,3.52-2.464Zm3.1,1.52a1.291,1.291,0,0,0,1.3,1.3,1.3,1.3,0,0,0,1.312-1.3,1.318,1.318,0,0,0-1.312-1.312A1.3,1.3,0,0,0,135.28,14.8Zm7.984-5.12a1.833,1.833,0,0,1,1.888,1.456l1.664-.608a3.484,3.484,0,0,0-3.568-2.56,3.96,3.96,0,0,0-3.984,4.128A4,4,0,0,0,143.3,16.24,3.613,3.613,0,0,0,146.88,13.7l-1.632-.592a1.966,1.966,0,0,1-1.952,1.44A2.216,2.216,0,0,1,141.12,12.1,2.182,2.182,0,0,1,143.264,9.68Zm8.608,4.9A2.236,2.236,0,0,1,149.7,12.1a2.191,2.191,0,1,1,4.352,0A2.218,2.218,0,0,1,151.872,14.576Zm0-6.608A3.961,3.961,0,0,0,147.84,12.1a4.041,4.041,0,1,0,8.08,0A3.964,3.964,0,0,0,151.872,7.968ZM159.552,16V11.376a1.593,1.593,0,0,1,1.616-1.728,1.421,1.421,0,0,1,1.5,1.6V16H164.5V11.376a1.62,1.62,0,0,1,1.616-1.728,1.422,1.422,0,0,1,1.5,1.6V16h1.792V10.944a2.676,2.676,0,0,0-2.752-2.96,2.734,2.734,0,0,0-2.528,1.376,2.443,2.443,0,0,0-2.336-1.376,2.659,2.659,0,0,0-2.3,1.216V8.208h-1.776V16Z" transform="translate(547.838 1814.564)" fill="#1db89a"/>
    </g>
    <g id="Card-1" transform="translate(-136 -446)">
      <g transform="matrix(1, 0, 0, 1, 385, 1739)" filter="url(#Rectangle_4845-3)">
        <rect id="Rectangle_4845-6" data-name="Rectangle 4845" width="478" height="151" rx="10" transform="translate(129 27)" fill="#fff"/>
      </g>
      <path id="Contact_Us_-_Katheri-3" data-name="Contact Us - Katheri" d="M6.432,16.24a5.16,5.16,0,0,0,5.248-3.856L9.616,11.76a3.152,3.152,0,0,1-3.184,2.32,3.5,3.5,0,0,1-3.52-3.744A3.494,3.494,0,0,1,6.4,6.544,2.966,2.966,0,0,1,9.52,8.832l2.08-.656a5,5,0,0,0-5.2-3.76,5.726,5.726,0,0,0-5.776,5.92A5.664,5.664,0,0,0,6.432,16.24ZM16.45,14.3a2.029,2.029,0,0,1-2-2.24,2.013,2.013,0,1,1,4,0A2.02,2.02,0,0,1,16.45,14.3Zm0-6.416a4.032,4.032,0,0,0-4.128,4.176A4.041,4.041,0,0,0,16.45,16.24a4.041,4.041,0,0,0,4.128-4.176A4.032,4.032,0,0,0,16.45,7.888ZM24.212,16V11.392A1.441,1.441,0,0,1,25.684,9.84a1.321,1.321,0,0,1,1.392,1.488V16h2.112V11.392A1.446,1.446,0,0,1,30.644,9.84a1.313,1.313,0,0,1,1.392,1.488V16H34.1V10.9a2.912,2.912,0,0,0-5.344-1.68A2.436,2.436,0,0,0,26.42,7.9a2.705,2.705,0,0,0-2.3,1.184v-.96H22.084V16Zm14,3.04V15.232a2.766,2.766,0,0,0,2.272.96c2.224,0,3.712-1.76,3.712-4.144,0-2.336-1.328-4.1-3.632-4.1A2.753,2.753,0,0,0,38.15,9.088v-.96H36.086V19.04ZM42.1,12.064a1.976,1.976,0,1,1-3.92,0,1.974,1.974,0,1,1,3.92,0Zm5.154-.9a1.7,1.7,0,0,1,1.76-1.552,1.583,1.583,0,0,1,1.76,1.552Zm3.728,2.048a1.738,1.738,0,0,1-1.792,1.2,1.917,1.917,0,0,1-1.984-1.792H52.84c0-.032.032-.352.032-.656,0-2.528-1.456-4.08-3.888-4.08a3.952,3.952,0,0,0-3.872,4.144,3.987,3.987,0,0,0,4.064,4.208,3.546,3.546,0,0,0,3.584-2.5ZM57,5.776h-1.92v1.1a1.134,1.134,0,0,1-1.216,1.248h-.4v1.888H54.89V13.68a2.279,2.279,0,0,0,2.5,2.432,3.156,3.156,0,0,0,1.2-.192V14.16a3.088,3.088,0,0,1-.656.064c-.608,0-.928-.224-.928-.912v-3.3h1.584V8.128H57ZM62.349,16V8.128H60.221V16ZM59.965,5.552a1.312,1.312,0,1,0,1.312-1.328A1.315,1.315,0,0,0,59.965,5.552Zm7.106.224h-1.92v1.1a1.134,1.134,0,0,1-1.216,1.248h-.4v1.888h1.424V13.68a2.279,2.279,0,0,0,2.5,2.432,3.157,3.157,0,0,0,1.2-.192V14.16a3.088,3.088,0,0,1-.656.064c-.608,0-.928-.224-.928-.912v-3.3h1.584V8.128H67.071ZM73.745,14.3a2.029,2.029,0,0,1-2-2.24,2.013,2.013,0,1,1,4,0A2.02,2.02,0,0,1,73.745,14.3Zm0-6.416a4.032,4.032,0,0,0-4.128,4.176,4.128,4.128,0,1,0,8.256,0A4.032,4.032,0,0,0,73.745,7.888ZM84.179,8.1a4.845,4.845,0,0,0-.5-.032A2.341,2.341,0,0,0,81.443,9.3V8.128H79.379V16h2.128V12.4c0-1.7.944-2.224,2.032-2.224a3.2,3.2,0,0,1,.64.064Zm6.836,2.224a3.551,3.551,0,1,1,7.088,0,3.551,3.551,0,1,1-7.088,0Zm-2.288.016a5.832,5.832,0,1,0,11.664,0,5.833,5.833,0,1,0-11.664,0Zm15.378,1.136a1.482,1.482,0,0,1,1.472-1.632,1.384,1.384,0,0,1,1.456,1.568V16h2.128V11.04c0-1.728-.9-3.12-2.848-3.12A2.615,2.615,0,0,0,104.041,9.1V8.128h-2.064V16h2.128Zm8.594-.3a1.7,1.7,0,0,1,1.76-1.552,1.583,1.583,0,0,1,1.76,1.552Zm3.728,2.048a1.738,1.738,0,0,1-1.792,1.2,1.917,1.917,0,0,1-1.984-1.792h5.632c0-.032.032-.352.032-.656,0-2.528-1.456-4.08-3.888-4.08a3.952,3.952,0,0,0-3.872,4.144,3.987,3.987,0,0,0,4.064,4.208,3.546,3.546,0,0,0,3.584-2.5Z" transform="translate(548.838 1794)" fill="#218dec"/>
      <rect id="Rectangle_16_Copy-3" data-name="Rectangle 16 Copy" width="310" height="12" rx="4" transform="translate(548 1849)" fill="#f3f4f9"/>
      <rect id="Rectangle_16_Copy_4-3" data-name="Rectangle 16 Copy 4" width="292" height="12" rx="4" transform="translate(548 1871)" fill="#f3f4f9"/>
      <path id="Path_19065" data-name="Path 19065" d="M5.616,8.208,3.776,13.6,2.192,8.208H.208L2.736,16h1.9l1.888-5.6L8.464,16H10.32l2.5-7.792H10.928L9.376,13.6,7.536,8.208Zm13.024,0L16.8,13.6,15.216,8.208H13.232L15.76,16h1.9l1.888-5.6L21.488,16h1.856l2.5-7.792H23.952L22.4,13.6,20.56,8.208Zm13.024,0L29.824,13.6,28.24,8.208H26.256L28.784,16h1.9l1.888-5.6L34.512,16h1.856l2.5-7.792H36.976L35.424,13.6l-1.84-5.392ZM39.456,14.8a1.291,1.291,0,0,0,1.3,1.3,1.3,1.3,0,0,0,1.312-1.3,1.318,1.318,0,0,0-1.312-1.312A1.3,1.3,0,0,0,39.456,14.8ZM47.44,9.68a1.833,1.833,0,0,1,1.888,1.456l1.664-.608a3.484,3.484,0,0,0-3.568-2.56A3.96,3.96,0,0,0,43.44,12.1a4,4,0,0,0,4.032,4.144A3.613,3.613,0,0,0,51.056,13.7L49.424,13.1a1.966,1.966,0,0,1-1.952,1.44A2.216,2.216,0,0,1,45.3,12.1,2.182,2.182,0,0,1,47.44,9.68Zm8.608,4.9a2.236,2.236,0,0,1-2.176-2.48,2.191,2.191,0,1,1,4.352,0A2.218,2.218,0,0,1,56.048,14.576Zm0-6.608A3.961,3.961,0,0,0,52.016,12.1a4.041,4.041,0,1,0,8.08,0A3.964,3.964,0,0,0,56.048,7.968ZM63.728,16V11.376a1.593,1.593,0,0,1,1.616-1.728,1.421,1.421,0,0,1,1.5,1.6V16h1.824V11.376a1.62,1.62,0,0,1,1.616-1.728,1.422,1.422,0,0,1,1.5,1.6V16h1.792V10.944a2.676,2.676,0,0,0-2.752-2.96A2.734,2.734,0,0,0,68.3,9.36a2.443,2.443,0,0,0-2.336-1.376,2.659,2.659,0,0,0-2.3,1.216V8.208H61.888V16ZM77.7,19.04V15.12a2.816,2.816,0,0,0,2.368,1.072c2.24,0,3.664-1.76,3.664-4.1,0-2.3-1.3-4.064-3.6-4.064a2.8,2.8,0,0,0-2.48,1.232V8.208H75.856V19.04ZM81.872,12.1a2.121,2.121,0,1,1-4.192,0,2.117,2.117,0,1,1,4.192,0Zm4.944-.848a1.871,1.871,0,0,1,1.9-1.728,1.745,1.745,0,0,1,1.92,1.728Zm4.032,2.032A1.88,1.88,0,0,1,88.9,14.64a2.086,2.086,0,0,1-2.128-2.032h5.7a2.749,2.749,0,0,0,.048-.592c0-2.464-1.408-4.048-3.808-4.048a3.906,3.906,0,0,0-3.792,4.1A3.935,3.935,0,0,0,88.9,16.24a3.51,3.51,0,0,0,3.52-2.464ZM96.64,5.824H94.96V6.992a1.105,1.105,0,0,1-1.2,1.216h-.4V9.856H94.8v3.92a2.148,2.148,0,0,0,2.336,2.32,2.92,2.92,0,0,0,1.136-.176V14.384a3.962,3.962,0,0,1-.64.064c-.688,0-.992-.288-.992-.976V9.856h1.616V8.208H96.64ZM102,16V8.208h-1.84V16ZM99.872,5.472a1.208,1.208,0,0,0,2.416,0,1.208,1.208,0,1,0-2.416,0Zm6.88.352h-1.68V6.992a1.105,1.105,0,0,1-1.2,1.216h-.4V9.856h1.44v3.92a2.148,2.148,0,0,0,2.336,2.32,2.92,2.92,0,0,0,1.136-.176V14.384a3.962,3.962,0,0,1-.64.064c-.688,0-.992-.288-.992-.976V9.856h1.616V8.208h-1.616Zm6.864,8.752a2.236,2.236,0,0,1-2.176-2.48,2.191,2.191,0,1,1,4.352,0A2.218,2.218,0,0,1,113.616,14.576Zm0-6.608a3.961,3.961,0,0,0-4.032,4.128,4.041,4.041,0,1,0,8.08,0A3.964,3.964,0,0,0,113.616,7.968Zm10.4.192a2.658,2.658,0,0,0-.5-.048,2.357,2.357,0,0,0-2.256,1.344V8.208h-1.808V16h1.856V12.288c0-1.456.656-2.288,2.1-2.288a4.05,4.05,0,0,1,.608.048Zm5.552,3.984V10.5h-4.512v1.648Zm5.344,2.432a2.236,2.236,0,0,1-2.176-2.48,2.191,2.191,0,1,1,4.352,0A2.218,2.218,0,0,1,134.912,14.576Zm0-6.608A3.961,3.961,0,0,0,130.88,12.1a4.041,4.041,0,1,0,8.08,0A3.964,3.964,0,0,0,134.912,7.968Zm7.7,3.536a1.636,1.636,0,0,1,1.616-1.84c1.168,0,1.6.768,1.6,1.728V16h1.856V11.072c0-1.712-.912-3.088-2.816-3.088a2.587,2.587,0,0,0-2.3,1.264V8.208h-1.808V16h1.856Zm8.624-.256a1.871,1.871,0,0,1,1.9-1.728,1.745,1.745,0,0,1,1.92,1.728Zm4.032,2.032a1.88,1.88,0,0,1-1.952,1.36,2.086,2.086,0,0,1-2.128-2.032h5.7a2.749,2.749,0,0,0,.048-.592c0-2.464-1.408-4.048-3.808-4.048a3.906,3.906,0,0,0-3.792,4.1,3.935,3.935,0,0,0,3.984,4.176,3.51,3.51,0,0,0,3.52-2.464Zm3.1,1.52a1.291,1.291,0,0,0,1.3,1.3,1.3,1.3,0,0,0,1.312-1.3,1.318,1.318,0,0,0-1.312-1.312A1.3,1.3,0,0,0,158.368,14.8Zm7.984-5.12a1.833,1.833,0,0,1,1.888,1.456l1.664-.608a3.484,3.484,0,0,0-3.568-2.56,3.96,3.96,0,0,0-3.984,4.128,4,4,0,0,0,4.032,4.144,3.613,3.613,0,0,0,3.584-2.544l-1.632-.592a1.966,1.966,0,0,1-1.952,1.44,2.216,2.216,0,0,1-2.176-2.448A2.182,2.182,0,0,1,166.352,9.68Zm8.608,4.9a2.236,2.236,0,0,1-2.176-2.48,2.191,2.191,0,1,1,4.352,0A2.218,2.218,0,0,1,174.96,14.576Zm0-6.608a3.961,3.961,0,0,0-4.032,4.128,4.041,4.041,0,1,0,8.08,0A3.964,3.964,0,0,0,174.96,7.968ZM182.64,16V11.376a1.593,1.593,0,0,1,1.616-1.728,1.421,1.421,0,0,1,1.5,1.6V16h1.824V11.376A1.62,1.62,0,0,1,189.2,9.648a1.422,1.422,0,0,1,1.5,1.6V16H192.5V10.944a2.676,2.676,0,0,0-2.752-2.96,2.734,2.734,0,0,0-2.528,1.376,2.443,2.443,0,0,0-2.336-1.376,2.659,2.659,0,0,0-2.3,1.216V8.208H180.8V16Z" transform="translate(548.838 1813.564)" fill="#1db89a"/>
    </g>
    <g id="Donut" transform="translate(-141 1057.533)">
      <g transform="matrix(1, 0, 0, 1, 390, 235.47)" filter="url(#Ellipse_17)">
        <circle id="Ellipse_17-2" data-name="Ellipse 17" cx="141" cy="141" r="141" transform="translate(423 157.53)" fill="#fff"/>
      </g>
      <g id="Dohnut" transform="translate(813 393)">
        <g id="Group_2" data-name="Group 2" transform="translate(31.26 31.635)">
          <g id="Group_4" data-name="Group 4" transform="translate(0 0)">
            <g id="Group">
              <path id="Oval-3" data-name="Oval" d="M110.073,219.19c60.049,0,109.116-49.067,109.116-109.116C219.19,49.067,170.122,0,110.073,0A109.8,109.8,0,0,0,0,110.073C0,170.122,49.067,219.19,110.073,219.19Z" fill="none" stroke="#e1e8ef" stroke-miterlimit="10" stroke-width="12"/>
              <path id="Oval-4" data-name="Oval" d="M110.073,219.19c60.049,0,109.116-49.067,109.116-109.116C219.19,49.067,170.122,0,110.073,0A109.8,109.8,0,0,0,0,110.073C0,170.122,49.067,219.19,110.073,219.19Z" transform="matrix(0.719, -0.695, 0.695, 0.719, -45.26, 106.628)" fill="none" stroke="#817bed" stroke-miterlimit="10" stroke-width="12" stroke-dasharray="259 180"/>
            </g>
            <path id="Your_score" data-name="Your score" d="M-34.416-4.8V0h1.92V-4.8l4-6.544h-2.16l-2.736,4.752-2.72-4.752h-2.272Zm9.184,3.376A2.236,2.236,0,0,1-27.408-3.9a2.207,2.207,0,0,1,2.176-2.448A2.2,2.2,0,0,1-23.056-3.9,2.218,2.218,0,0,1-25.232-1.424Zm0-6.608A3.961,3.961,0,0,0-29.264-3.9,3.965,3.965,0,0,0-25.232.24,3.969,3.969,0,0,0-21.184-3.9,3.964,3.964,0,0,0-25.232-8.032ZM-14.368-.864A5.8,5.8,0,0,0-14.3,0h1.776a12.684,12.684,0,0,1-.08-1.424V-7.792h-1.856v4.608A1.561,1.561,0,0,1-16.1-1.44c-1.12,0-1.568-.816-1.568-1.776V-7.792H-19.52V-2.88a2.881,2.881,0,0,0,2.944,3.1A2.492,2.492,0,0,0-14.368-.864Zm8.72-6.976a2.658,2.658,0,0,0-.5-.048A2.357,2.357,0,0,0-8.4-6.544V-7.792h-1.808V0h1.856V-3.712C-8.352-5.168-7.7-6-6.256-6a4.05,4.05,0,0,1,.608.048Zm4.8,5.728c.1.88.96,2.352,3.216,2.352a2.648,2.648,0,0,0,2.944-2.5,2.452,2.452,0,0,0-2.24-2.368l-1.184-.24A.856.856,0,0,1,1.1-5.68a1.013,1.013,0,0,1,1.12-.9,1.339,1.339,0,0,1,1.44,1.168l1.568-.448A2.75,2.75,0,0,0,2.224-8.032,2.7,2.7,0,0,0-.64-5.52a2.354,2.354,0,0,0,2.1,2.272l1.152.256c.624.128.912.448.912.864,0,.48-.4.9-1.168.9A1.459,1.459,0,0,1,.768-2.56ZM10.5-6.32a1.833,1.833,0,0,1,1.888,1.456l1.664-.608a3.484,3.484,0,0,0-3.568-2.56A3.96,3.96,0,0,0,6.5-3.9,4,4,0,0,0,10.528.24,3.613,3.613,0,0,0,14.112-2.3L12.48-2.9a1.966,1.966,0,0,1-1.952,1.44A2.216,2.216,0,0,1,8.352-3.9,2.182,2.182,0,0,1,10.5-6.32Zm8.608,4.9A2.236,2.236,0,0,1,16.928-3.9,2.207,2.207,0,0,1,19.1-6.352,2.2,2.2,0,0,1,21.28-3.9,2.218,2.218,0,0,1,19.1-1.424Zm0-6.608A3.961,3.961,0,0,0,15.072-3.9,3.965,3.965,0,0,0,19.1.24,3.969,3.969,0,0,0,23.152-3.9,3.964,3.964,0,0,0,19.1-8.032Zm10.4.192a2.658,2.658,0,0,0-.5-.048,2.357,2.357,0,0,0-2.256,1.344V-7.792H24.944V0H26.8V-3.712C26.8-5.168,27.456-6,28.9-6a4.05,4.05,0,0,1,.608.048Zm2.768,3.088a1.871,1.871,0,0,1,1.9-1.728A1.745,1.745,0,0,1,36.1-4.752ZM36.3-2.72a1.88,1.88,0,0,1-1.952,1.36,2.086,2.086,0,0,1-2.128-2.032h5.7a2.749,2.749,0,0,0,.048-.592c0-2.464-1.408-4.048-3.808-4.048a3.906,3.906,0,0,0-3.792,4.1A3.935,3.935,0,0,0,34.352.24a3.51,3.51,0,0,0,3.52-2.464Z" transform="translate(111.151 67.508)" fill="#697492"/>
            <path id="_65" data-name="65" d="M-19.712-28.728c-4.864-.076-8.056-3.116-8.056-7.22,0-3.724,3.04-6.992,8.056-6.992s8.132,3.268,8.132,6.992C-11.581-31.844-14.773-28.8-19.712-28.728Zm0,22.192c-5.928,0-9.2-3.5-9.2-7.524s3.268-7.6,9.2-7.6c6,0,9.272,3.572,9.272,7.6S-13.708-6.536-19.712-6.536Zm0,7.676C-8.389,1.14-1.4-4.94-1.4-13.148c0-5.624-3.952-10.26-9.12-12.084A12.366,12.366,0,0,0-2.536-36.48c0-8.208-7.3-13.908-17.176-13.908s-17.1,5.7-17.1,13.908a12.287,12.287,0,0,0,7.98,11.248c-5.244,1.824-9.12,6.46-9.12,12.084C-37.952-4.94-30.961,1.14-19.712,1.14ZM1.7-13.6c.608,7.752,7.9,14.82,18.544,14.82,11.4,0,18.544-7.752,18.544-17.024,0-10.336-7.068-16.416-16.872-16.416-3.5,0-7.3,1.216-9.424,3.42l3.04-12.464H36.356v-7.98H9.376L3.3-24.4l8.588,3.116a10.976,10.976,0,0,1,8.208-3.42c5.016,0,9.5,3.04,9.5,9.12,0,5.472-4.18,8.968-9.348,8.968a9.6,9.6,0,0,1-9.956-9.2Z" transform="translate(109.95 136.79)" fill="#817bed"/>
            <path id="Your_score-2" data-name="Your score" d="M-13.424,0V-5.744h-5.552v1.68h3.744A2.992,2.992,0,0,1-18.48-1.52c-1.952,0-3.744-1.392-3.744-4.16a3.774,3.774,0,0,1,3.76-4.128A3.293,3.293,0,0,1-15.152-7.44l1.808-.688a5.11,5.11,0,0,0-5.12-3.456,5.65,5.65,0,0,0-5.712,5.9A5.547,5.547,0,0,0-18.592.24,3.92,3.92,0,0,0-15.12-1.44L-14.976,0Zm3.6-5.68a3.78,3.78,0,0,1,3.792-4.1,3.783,3.783,0,0,1,3.808,4.1,3.783,3.783,0,0,1-3.808,4.1A3.78,3.78,0,0,1-9.824-5.68Zm-1.968,0A5.683,5.683,0,0,0-6.032.24,5.7,5.7,0,0,0-.256-5.68a5.691,5.691,0,0,0-5.776-5.9A5.679,5.679,0,0,0-11.792-5.68Zm14.848,0a3.78,3.78,0,0,1,3.792-4.1,3.783,3.783,0,0,1,3.808,4.1,3.783,3.783,0,0,1-3.808,4.1A3.78,3.78,0,0,1,3.056-5.68Zm-1.968,0A5.683,5.683,0,0,0,6.848.24a5.7,5.7,0,0,0,5.776-5.92,5.691,5.691,0,0,0-5.776-5.9A5.679,5.679,0,0,0,1.088-5.68ZM16.576-1.76V-9.584h2.032c1.968,0,3.584,1.28,3.584,3.936,0,2.624-1.632,3.888-3.6,3.888ZM18.656,0a5.285,5.285,0,0,0,5.536-5.648,5.3,5.3,0,0,0-5.52-5.7H14.656V0Z" transform="translate(110.291 161.508)" fill="#817bed"/>
          </g>
        </g>
      </g>
    </g>
    <g id="Dot-first" transform="translate(0 -4)">
      <circle id="Ellipse_1188" data-name="Ellipse 1188" cx="26.5" cy="26.5" r="26.5" transform="translate(352 1297)" fill="#07c597"/>
      <path id="Path_19063" data-name="Path 19063" d="M2.268,0V-11.682H.126a2.981,2.981,0,0,1-3.132,2.2v1.674H-.2V0Z" transform="translate(374 1330)" fill="#fff"/>
      <path id="Path_19064" data-name="Path 19064" d="M-4.656-1.644A2.219,2.219,0,0,0-2.2.18,2.039,2.039,0,0,0,.1-1.764c0-.864-.588-1.572-1.752-1.812l-.84-.18c-.324-.06-.54-.24-.54-.528a.679.679,0,0,1,.756-.588.9.9,0,0,1,.972.792l1.332-.3a2.076,2.076,0,0,0-2.316-1.7A2.058,2.058,0,0,0-4.5-4.152c0,.828.516,1.512,1.656,1.764l.78.18c.456.1.636.312.636.576,0,.312-.252.588-.78.588a.982.982,0,0,1-1.08-.9Zm8-6.024H1.908v.828A.851.851,0,0,1,1-5.9H.7v1.416H1.764V-1.74A1.709,1.709,0,0,0,3.636.084a2.367,2.367,0,0,0,.9-.144V-1.38a2.316,2.316,0,0,1-.492.048c-.456,0-.7-.168-.7-.684V-4.488H4.536V-5.9H3.348Z" transform="translate(384 1325)" fill="#fff"/>
    </g>
    <g id="Dot-Second">
      <circle id="Ellipse_1189" data-name="Ellipse 1189" cx="26.5" cy="26.5" r="26.5" transform="translate(249 1459)" fill="#817bed"/>
      <path id="Path_19062" data-name="Path 19062" d="M-1.773-7.164a2.559,2.559,0,0,1-.09-.648A1.762,1.762,0,0,1-.009-9.756a1.6,1.6,0,0,1,1.764,1.6A2.278,2.278,0,0,1,.369-6.138L-1.557-4.986A5.332,5.332,0,0,0-4.311,0h8.64V-2.142h-5.6A2.38,2.38,0,0,1-.261-3.2l2.25-1.368A4.2,4.2,0,0,0,4.257-8.19c0-2.034-1.6-3.762-4.212-3.762A3.943,3.943,0,0,0-4.221-8.046a4.409,4.409,0,0,0,.09.81Z" transform="translate(269 1493)" fill="#fff"/>
      <path id="Path_19061" data-name="Path 19061" d="M-4.734-3.4A1.112,1.112,0,0,1-3.63-4.62,1.038,1.038,0,0,1-2.538-3.444V0h1.6V-3.72A2.078,2.078,0,0,0-3.078-6.06a1.961,1.961,0,0,0-1.7.888V-5.9H-6.33V0h1.6ZM6.306-8.688H4.734v3.372a1.768,1.768,0,0,0-1.668-.732A2.886,2.886,0,0,0,.234-2.964,2.9,2.9,0,0,0,3.114.144,1.851,1.851,0,0,0,4.77-.684,4.076,4.076,0,0,0,4.83,0H6.354c-.024-.24-.048-.672-.048-1.068ZM1.842-2.964A1.482,1.482,0,0,1,3.306-4.62,1.463,1.463,0,0,1,4.758-2.976,1.5,1.5,0,0,1,3.306-1.284,1.491,1.491,0,0,1,1.842-2.964Z" transform="translate(282 1488)" fill="#fff"/>
    </g>
    <g id="Dot-Third">
      <circle id="Ellipse_1190" data-name="Ellipse 1190" cx="26.5" cy="26.5" r="26.5" transform="translate(352 1624)" fill="#fac444"/>
      <path id="Path_19059" data-name="Path 19059" d="M-1.089-5.184a2.9,2.9,0,0,1,1.062-.18A1.706,1.706,0,0,1,1.881-3.636,1.8,1.8,0,0,1-.1-1.872,2.056,2.056,0,0,1-2.223-3.924l-2.394.468C-4.473-1.494-2.817.27-.1.27,2.727.27,4.383-1.584,4.383-3.6A3.48,3.48,0,0,0,1-7.164l3.024-2.52v-2H-4.239V-9.54H.873l-3.06,2.628Z" transform="translate(372 1658)" fill="#fff"/>
      <path id="Path_19060" data-name="Path 19060" d="M-1.56-5.928a3.634,3.634,0,0,0-.372-.024,1.756,1.756,0,0,0-1.68.924V-5.9H-5.16V0h1.6V-2.7c0-1.272.708-1.668,1.524-1.668a2.4,2.4,0,0,1,.48.048Zm6.7-2.76H3.564v3.372A1.768,1.768,0,0,0,1.9-6.048,2.886,2.886,0,0,0-.936-2.964,2.9,2.9,0,0,0,1.944.144,1.851,1.851,0,0,0,3.6-.684,4.076,4.076,0,0,0,3.66,0H5.184c-.024-.24-.048-.672-.048-1.068ZM.672-2.964A1.482,1.482,0,0,1,2.136-4.62,1.463,1.463,0,0,1,3.588-2.976,1.5,1.5,0,0,1,2.136-1.284,1.491,1.491,0,0,1,.672-2.964Z" transform="translate(384 1653)" fill="#fff"/>
    </g>
  </g>
</svg>
