<?xml version="1.0" encoding="UTF-8"?>
<svg xmlns="http://www.w3.org/2000/svg" width="101" height="61" viewBox="0 0 101 61" fill="none">
  <g id="Group 143725389" opacity="0.9">
    <path id="Vector" d="M12.7324 26.8337V21.0561H16.3278V6.49541H12.7324V0.319824H30.8739V6.49541H27.2785V21.0561H30.8739V26.8337H12.7324Z" fill="white"></path>
    <path id="Vector_2" d="M48.2205 26.8336V21.056H50.6083V15.0725C50.6083 13.2747 49.4144 12.4788 47.6167 12.4788C45.6269 12.4788 44.0351 13.8786 43.8292 15.8685V21.056H46.4365V26.8336H32.4668V21.056H34.8546V12.4788H32.4668V6.70117H43.6371V10.6947L44.2409 10.0909C46.0386 7.89512 49.0301 6.70117 51.8159 6.90702C56.2071 6.90702 59.7888 8.70481 59.7888 13.4806V21.056H62.1765V26.8336H48.2205Z" fill="white"></path>
    <path id="Vector_3" d="M85.2981 15.073L77.5173 15.869C77.5173 13.6732 76.9135 11.4774 74.3337 11.4774C70.9441 11.4774 70.7383 14.2633 70.7383 16.8571C70.7383 19.6429 70.9441 22.4425 74.3337 22.4425C75.9255 22.6484 77.5173 21.4407 77.7232 19.6567V19.2587H85.504V19.8625C84.3101 26.244 78.5328 27.2321 74.5395 27.2321C68.1584 27.2321 61.7773 24.0482 61.7773 16.8708C61.7773 9.69338 68.1584 6.50952 74.5395 6.50952C74.3337 6.70165 84.5022 6.09781 85.2981 15.073Z" fill="white"></path>
    <path id="Vector_4" d="M91.2677 23.6508C91.2677 25.4074 89.8406 26.8346 88.0841 26.8346C86.3276 26.8346 84.9004 25.4074 84.9004 23.6508C84.9004 21.8941 86.3276 20.4669 88.0841 20.4669C89.8269 20.4532 91.254 21.853 91.2677 23.5959C91.2815 23.5959 91.2815 23.6233 91.2677 23.6508Z" fill="white"></path>
    <path id="Vector_5" d="M36.6505 29.4272C28.8835 29.4272 24.4922 34.6147 24.4922 44.7839C24.4922 54.953 28.8835 60.1268 36.6505 60.1268C44.4176 60.1268 48.8089 54.9393 48.8089 44.7702C48.8089 34.601 44.2392 29.4272 36.6505 29.4272ZM36.6505 53.9512C33.8648 53.9512 33.261 51.1653 33.261 44.7839C33.261 38.4024 33.8648 35.6166 36.6505 35.6166C39.4363 35.6166 40.0401 38.4024 40.0401 44.7839C40.0401 51.1653 39.45 53.9512 36.6505 53.9512Z" fill="white"></path>
    <path id="Vector_6" d="M62.3673 29.4272C54.5865 29.4272 50.209 34.6147 50.209 44.7839C50.209 54.953 54.6003 60.1268 62.3673 60.1268C70.1344 60.1268 74.5257 54.9393 74.5257 44.7702C74.5257 34.601 69.9423 29.4272 62.3673 29.4272ZM62.3673 53.9512C59.5816 53.9512 58.9778 51.1653 58.9778 44.7839C58.9778 38.4024 59.5816 35.6166 62.3673 35.6166C65.153 35.6166 65.7568 38.4024 65.7568 44.7839C65.7568 51.1653 65.1668 53.9512 62.3673 53.9512Z" fill="white"></path>
    <path id="Vector_7" d="M88.0841 29.4272C80.3033 29.4272 75.9258 34.6147 75.9258 44.7839C75.9258 54.953 80.3171 60.1268 88.0841 60.1268C95.8512 60.1268 100.242 54.9393 100.242 44.7702C100.242 34.601 95.6591 29.4272 88.0841 29.4272ZM88.0841 53.9512C85.2984 53.9512 84.6946 51.1653 84.6946 44.7839C84.6946 38.4024 85.2984 35.6166 88.0841 35.6166C90.8699 35.6166 91.4737 38.4024 91.4737 44.7839C91.4737 51.1653 90.8699 53.9512 88.0841 53.9512Z" fill="white"></path>
    <path id="Vector_8" d="M20.9113 41.7794C18.9215 40.1875 16.52 39.1857 13.9402 39.3915C11.9504 39.3915 9.75473 39.9954 8.35501 41.3814L8.95881 36.5919H21.5151V29.6204H3.16782L1.17802 43.5772L6.55733 46.3631C7.95705 45.1691 9.54889 44.3732 11.3466 44.3732C12.3483 44.3732 13.1442 44.7711 13.9402 45.375C14.9419 46.3768 15.3399 47.7629 15.3399 49.1627C15.3399 49.7665 15.3399 50.3566 15.134 50.7546C14.9419 52.5524 13.3364 53.7463 11.5524 53.5405C8.16289 53.5405 8.36874 49.3548 9.16465 47.7629L0.574219 52.3465C1.17802 57.7262 6.74945 60.3199 11.3328 60.3199C14.5165 60.3199 17.5081 59.3181 19.7037 57.3282C20.4996 56.5322 21.2956 55.7362 21.8994 54.5423C22.9011 52.9504 23.2991 50.9605 23.2991 49.1627C23.697 46.3768 22.6953 43.783 20.9113 41.7794Z" fill="white"></path>
  </g>
</svg>
