<?xml version="1.0" encoding="UTF-8"?>
<svg xmlns="http://www.w3.org/2000/svg" width="186" height="178" viewBox="0 0 186 178" fill="none">
  <path d="M89.3193 25.9143C89.9628 24.5181 91.9473 24.5181 92.5908 25.9143L95.043 31.2346C95.6245 32.4965 97.3556 32.6524 98.1533 31.5149L101.517 26.717C102.399 25.4584 104.351 25.8126 104.735 27.301L106.198 32.9749C106.545 34.3201 108.22 34.782 109.208 33.8049L113.374 29.6858C114.467 28.6047 116.325 29.3019 116.437 30.8352L116.862 36.678C116.963 38.0639 118.53 38.8185 119.677 38.0334L124.511 34.7229C125.779 33.8548 127.482 34.8723 127.318 36.4006L126.694 42.2258C126.546 43.6075 127.953 44.6295 129.222 44.0618L134.568 41.6682C135.972 41.0401 137.466 42.3458 137.032 43.8206L135.378 49.4407C134.986 50.7737 136.187 52.0305 137.536 51.6985L143.226 50.2981C144.718 49.931 145.955 51.4822 145.265 52.8557L142.634 58.0901C142.01 59.3317 142.968 60.7824 144.354 60.6965L150.201 60.3342C151.736 60.2392 152.676 61.9868 151.752 63.2151L148.229 67.8958C147.393 69.0059 148.076 70.6047 149.456 70.7678L155.273 71.4553C156.8 71.6358 157.414 73.5232 156.285 74.5667L151.982 78.5432C150.962 79.4863 151.348 81.1811 152.677 81.5881L158.279 83.304C159.749 83.7545 160.015 85.7202 158.718 86.5452L153.774 89.6897C152.602 90.4355 152.68 92.1712 153.915 92.8088L159.12 95.4973C160.486 96.2027 160.397 98.1855 158.974 98.7659L153.548 100.977C152.261 101.501 152.028 103.224 153.129 104.072L157.771 107.646C158.989 108.584 158.546 110.519 157.042 110.835L151.31 112.042C149.95 112.328 149.413 113.981 150.345 115.012L154.273 119.359C155.304 120.499 154.524 122.324 152.987 122.366L147.131 122.53C145.742 122.568 144.919 124.099 145.651 125.28L148.741 130.258C149.551 131.564 148.458 133.22 146.938 132.988L141.147 132.103C139.774 131.893 138.69 133.253 139.2 134.545L141.352 139.994C141.916 141.424 140.545 142.858 139.091 142.359L133.55 140.454C132.236 140.003 130.927 141.146 131.198 142.509L132.342 148.255C132.642 149.763 131.036 150.929 129.695 150.178L124.584 147.315C123.372 146.636 121.88 147.527 121.903 148.916L122.003 154.774C122.029 156.311 120.241 157.172 119.056 156.194L114.537 152.463C113.466 151.579 111.838 152.19 111.613 153.561L110.665 159.342C110.416 160.859 108.503 161.387 107.512 160.212L103.732 155.736C102.836 154.674 101.125 154.984 100.659 156.293L98.6943 161.813C98.1785 163.261 96.2026 163.438 95.4365 162.106L92.5166 157.027C91.8242 155.822 90.086 155.822 89.3936 157.027L86.4746 162.106C85.7086 163.439 83.7327 163.261 83.2168 161.813L81.251 156.293C80.7848 154.984 79.0751 154.674 78.1787 155.736L74.3994 160.212C73.4077 161.387 71.4949 160.859 71.2461 159.342L70.2979 153.561C70.073 152.19 68.4456 151.579 67.374 152.463L62.8555 156.194C61.6699 157.172 59.8822 156.311 59.9082 154.774L60.0078 148.916C60.0314 147.527 58.5394 146.636 57.3271 147.315L52.2158 150.178C50.8747 150.929 49.2686 149.763 49.5684 148.255L50.7129 142.509C50.9841 141.146 49.6745 140.003 48.3604 140.454L42.8203 142.359C41.3665 142.858 39.9952 141.424 40.5596 139.994L42.7109 134.545C43.2212 133.253 42.1373 131.893 40.7637 132.103L34.9717 132.988C33.4523 133.219 32.3596 131.564 33.1699 130.258L36.2598 125.28C36.9922 124.099 36.1689 122.569 34.7803 122.53L28.9238 122.366C27.3872 122.324 26.6071 120.499 27.6377 119.359L31.5664 115.012C32.4982 113.981 31.9613 112.328 30.6016 112.042L24.8682 110.835C23.364 110.518 22.9227 108.584 24.1406 107.646L28.7822 104.072C29.8831 103.224 29.6499 101.501 28.3633 100.977L22.9375 98.7659C21.5139 98.1857 21.4251 96.2028 22.791 95.4973L27.9961 92.8088C29.2306 92.1712 29.3089 90.4356 28.1367 89.6897L23.1934 86.5452C21.8962 85.7201 22.1621 83.7544 23.6318 83.304L29.2334 81.5881C30.5621 81.1812 30.9492 79.4863 29.9287 78.5432L25.626 74.5667C24.4972 73.5232 25.1103 71.636 26.6367 71.4553L32.4551 70.7678C33.835 70.6047 34.5183 69.0059 33.6826 67.8958L30.1592 63.2151C29.2348 61.9869 30.1748 60.2395 31.709 60.3342L37.5566 60.6965C38.9436 60.7824 39.9014 59.3317 39.2773 58.0901L36.6465 52.8557C35.9561 51.4821 37.1928 49.9308 38.6855 50.2981L44.375 51.6985C45.7241 52.0303 46.9255 50.7736 46.5332 49.4407L44.8789 43.8206C44.445 42.3459 45.9387 41.0406 47.3418 41.6682L52.6895 44.0618C53.9578 44.6295 55.3638 43.6075 55.2158 42.2258L54.5918 36.4006C54.4284 34.8722 56.132 33.8546 57.4004 34.7229L62.2344 38.0334C63.3809 38.8184 64.9468 38.0638 65.0479 36.678L65.4746 30.8352C65.5865 29.3019 67.4441 28.6047 68.5371 29.6858L72.7021 33.8049C73.69 34.782 75.3658 34.3202 75.7129 32.9749L77.1758 27.301C77.5598 25.8126 79.5121 25.4583 80.3945 26.717L83.7568 31.5149C84.5544 32.6527 86.2855 32.4966 86.8672 31.2346L89.3193 25.9143ZM91.3135 68.1633C77.2005 68.1633 65.7588 79.604 65.7588 93.717C65.7589 107.83 77.2005 119.271 91.3135 119.271C105.426 119.271 116.867 107.83 116.867 93.717C116.867 79.6042 105.426 68.1635 91.3135 68.1633Z" fill="#F8F3EB"></path>
  <path d="M43.7197 140.946C46.2142 135.698 61.8567 104.911 63.5027 101.619C64.6306 99.368 65.6873 96.8329 67.2216 94.8211C68.9235 92.5908 70.6 91.0209 72.9319 89.5222C75.8836 87.6273 79.2469 87.1294 82.8336 87.9778C85.7751 88.6738 88.1883 89.1819 90.9013 90.4316C93.5431 91.6509 96.4084 92.6314 99.2178 93.3732C106.214 95.2224 111.477 94.6026 117.558 94.1657C119.56 94.0234 122.273 93.6678 124.081 94.5112C125.895 95.3545 127.82 96.9802 128.054 98.9667C128.796 105.216 119.108 106.79 114.657 106.811C105.543 106.851 97.3787 107.222 92.8674 110.87" stroke="#004952" stroke-width="2" stroke-miterlimit="10" stroke-linecap="round" stroke-linejoin="round"></path>
  <path d="M126.281 103.473C131.107 103.702 135.639 102.31 140.729 97.6459C144.854 93.8661 147.71 91.6968 151.383 87.4801C152.521 86.1693 153.953 85.8137 155.249 85.7781C158.043 85.7019 159.476 88.4708 158.348 90.9043C157.53 92.6671 156.301 94.298 155.188 95.8932C152.338 99.988 149.655 104.25 146.673 108.147C144.946 110.408 142.69 111.983 140.125 113.217C138.169 114.162 135.984 114.899 133.871 115.382C126.418 117.078 109.947 116.738 106.787 116.829C103.043 116.936 98.9125 118.613 96.9464 120.726C96.2047 121.524 95.8135 122.586 95.4833 123.627C91.424 136.567 88.4876 148.221 86.1455 161.577" stroke="#004952" stroke-width="2" stroke-miterlimit="10" stroke-linecap="round" stroke-linejoin="round"></path>
  <path d="M40.3408 120.812C45.5482 124.236 72.3269 139.107 106.025 145.544" stroke="#004952" stroke-width="2" stroke-miterlimit="10" stroke-linecap="round" stroke-linejoin="round"></path>
  <path d="M147.09 91.849C147.354 91.1784 147.161 90.457 146.551 89.9845C145.312 89.0243 143.142 90.269 142.492 91.092C139.337 95.0903 139.022 98.5957 134.811 101.705" stroke="#004952" stroke-width="2" stroke-miterlimit="10" stroke-linecap="round" stroke-linejoin="round"></path>
  <path d="M141.638 92.1489C141.491 91.1379 141.12 90.513 140.2 90.071C139.459 89.7154 137.635 89.9694 136.934 90.3809C135.801 91.0515 135.252 92.0066 134.587 93.1447C133.24 95.4511 131.269 97.9659 128.165 98.8296" stroke="#004952" stroke-width="2" stroke-miterlimit="10" stroke-linecap="round" stroke-linejoin="round"></path>
  <path d="M94.371 46.793L95.6681 51.062L99.1736 52.4961L95.6681 53.9302L94.371 58.1992L93.0738 53.9302L89.5684 52.4961L93.0738 51.062L94.371 46.793Z" fill="#004952"></path>
  <path d="M147.199 18.5774L149.631 26.2166L156.204 28.783L149.631 31.3493L147.199 38.9885L144.767 31.3493L138.194 28.783L144.767 26.2166L147.199 18.5774Z" fill="#FF8D6E"></path>
  <path d="M134.365 47.8105V80.0733C134.365 81.0028 133.589 81.7608 132.628 81.7608H126.699C125.746 81.7608 124.962 81.0028 124.962 80.0733V47.8105C124.962 46.8809 125.746 46.1301 126.699 46.1301H132.628C133.589 46.1301 134.365 46.8809 134.365 47.8105Z" fill="#FF8D6E"></path>
  <path d="M121.357 63.0805V80.073C121.357 81.0026 120.581 81.7605 119.62 81.7605H113.691C112.738 81.7605 111.954 81.0026 111.954 80.073V63.0805C111.954 62.1509 112.738 61.4001 113.691 61.4001H119.62C120.581 61.4001 121.357 62.1509 121.357 63.0805Z" fill="#FF8D6E"></path>
  <path d="M108.35 72.1296V80.073C108.35 81.0026 107.573 81.7605 106.612 81.7605H100.684C99.7299 81.7605 98.9463 81.0026 98.9463 80.073V72.1296C98.9463 71.2 99.7299 70.4492 100.684 70.4492H106.612C107.573 70.4492 108.35 71.2 108.35 72.1296Z" fill="#FF8D6E"></path>
  <path d="M113.366 33.6167L110.091 26.894L103.376 30.1734L106.652 36.8961L113.366 33.6167Z" fill="#82A4A7"></path>
  <path d="M92.1266 34.6211C93.022 32.1477 91.7452 29.4158 89.2748 28.5193C86.8044 27.6228 84.0759 28.9011 83.1805 31.3746C82.2851 33.8481 83.5619 36.58 86.0323 37.4765C88.5027 38.373 91.2312 37.0946 92.1266 34.6211Z" stroke="#FF8D6E" stroke-width="2"></path>
</svg>
