<svg width="135" height="228" viewBox="0 0 135 228" fill="none" xmlns="http://www.w3.org/2000/svg">
<g clip-path="url(#clip0_7556_63371)">
<path d="M68.867 61.4928C68.867 61.4928 90.2351 82.2246 127.754 156.414L89.4446 181.196C89.4446 181.196 82.9527 141.901 63.3533 97.8883C63.3533 97.8883 24.6338 114.17 5.99289 36.6313C5.99289 36.6313 15.5233 37.7576 21.3186 33.9392C21.3186 33.9392 38.0871 85.9887 62.3553 69.9001L60.1419 68.5911L68.867 61.4977V61.4928Z" fill="#C7DEE1"/>
<path d="M93.16 48.4568L105.032 43.4578L104.37 46.4661C104.37 46.4661 120.027 40.746 135.506 43.4578V65.6766C135.506 65.6766 126.692 64.6392 122.789 65.6766L135.506 86.0824V144.805C135.506 144.805 107.137 95.4036 93.16 48.4568Z" fill="#C7DEE1"/>
<path d="M72.1872 45.3252C70.3098 45.3252 68.8819 44.7966 68.8523 44.7818C68.5954 44.683 68.4719 44.4014 68.5657 44.1446C68.6645 43.8877 68.9462 43.7642 69.2031 43.8581C69.4847 43.9667 76.1644 46.4168 78.9953 39.4766C79.0991 39.2246 79.3857 39.1011 79.6376 39.2049C79.8896 39.3086 80.0131 39.5951 79.9094 39.847C78.0715 44.352 74.7168 45.3153 72.1823 45.3153L72.1872 45.3252Z" fill="#004A53"/>
<path d="M53.2943 73.5258C51.0711 73.5258 48.833 73.0219 46.6047 72.0142C36.6395 67.524 27.5587 53.4608 19.5994 30.2196C18.631 26.6284 19.4858 22.0789 20.1725 18.4236C20.6616 15.8253 21.1656 13.1381 20.548 12.5701C20.5134 12.5355 20.4887 12.5256 20.4838 12.5256H20.4788C19.8514 12.5256 18.3099 16.1612 17.1637 21.0614C17.1093 21.2886 16.9167 21.4467 16.6746 21.4417C16.4424 21.4417 16.2447 21.2688 16.2003 21.0416L13.4039 6.35099C13.3545 6.08425 13.5274 5.82246 13.7991 5.77306C14.0659 5.72366 14.3278 5.89655 14.3772 6.16823L16.7586 18.6706C17.5145 15.9093 18.8089 12.0119 20.1824 11.5871C20.548 11.4735 20.9185 11.5673 21.2249 11.8489C22.2426 12.7874 21.7832 15.2276 21.1508 18.6113C20.4838 22.1679 19.6538 26.5938 20.5529 29.938C28.4085 52.8779 37.3164 66.7436 47.0198 71.1201C51.0068 72.9182 54.9988 73.0071 58.897 71.3918C59.1489 71.2881 59.4404 71.4066 59.5442 71.6586C59.6479 71.9105 59.5294 72.2019 59.2774 72.3057C57.3061 73.1257 55.3101 73.5356 53.3091 73.5356L53.2943 73.5258Z" fill="#004A53"/>
<path d="M53.6697 99.7555C47.7509 99.7555 42.1927 98.1402 37.0693 94.9195C12.1044 79.2262 3.58189 29.6219 0.780569 13.3209C0.45449 11.429 0.197578 9.93229 0.00983518 9.03821C-0.0445115 8.77147 0.123469 8.50966 0.390262 8.45038C0.657054 8.39605 0.918906 8.56401 0.978194 8.83075C1.17088 9.74459 1.42779 11.2512 1.75881 13.153C4.54037 29.3453 13.0036 78.6235 37.5979 94.0847C45.33 98.9454 54.0847 100.027 63.6152 97.3054C63.877 97.2313 64.1488 97.3845 64.2278 97.6463C64.3019 97.9081 64.1488 98.1797 63.8869 98.2588C60.3791 99.2615 56.9701 99.7605 53.6747 99.7605L53.6697 99.7555Z" fill="#004A53"/>
<path d="M11.9761 14.3137C11.7438 14.3137 11.5363 14.1507 11.4919 13.9136L9.31801 2.86848C9.26366 2.60173 9.44152 2.33994 9.70832 2.29054C9.97511 2.23621 10.237 2.41402 10.2864 2.68077L12.4602 13.7259C12.5146 13.9926 12.3367 14.2545 12.0699 14.3039C12.0403 14.3088 12.0057 14.3137 11.9761 14.3137Z" fill="#004A53"/>
<path d="M8.35463 13.4147C8.12242 13.4147 7.91492 13.2517 7.87045 13.0146L5.42485 0.586353C5.37051 0.31961 5.54837 0.0578153 5.81516 0.00841845C6.08195 -0.0409784 6.3438 0.1319 6.39321 0.398643L8.83881 12.8269C8.89316 13.0936 8.71529 13.3554 8.4485 13.4048C8.41886 13.4098 8.38427 13.4147 8.35463 13.4147Z" fill="#004A53"/>
<path d="M5.26172 15.114C5.02951 15.114 4.822 14.951 4.77754 14.7139L2.44557 2.86357C2.39123 2.59683 2.56909 2.33504 2.83588 2.28564C3.10267 2.23624 3.36453 2.40912 3.41393 2.67586L5.7459 14.5262C5.80024 14.7929 5.62238 15.0547 5.35559 15.1041C5.32595 15.1091 5.29136 15.114 5.26172 15.114Z" fill="#004A53"/>
<path d="M9.63912 37.3821C6.47219 37.3821 3.59676 36.7893 1.21045 36.0236C0.948598 35.9397 0.805321 35.663 0.889311 35.4012C0.973301 35.1394 1.24998 34.9962 1.51183 35.0802C7.30222 36.9326 16.052 37.7377 24.8512 31.0247L24.9402 30.9605C25.1576 30.7925 25.4688 30.837 25.6319 31.0543C25.7949 31.2717 25.7554 31.5829 25.538 31.7459L25.4491 31.8101C19.9403 36.0138 14.4463 37.3771 9.63418 37.3771L9.63912 37.3821Z" fill="#004A53"/>
<path d="M69.8355 52.1864C68.1705 52.1864 66.634 51.8554 65.2407 51.1935C59.2824 48.363 57.4247 40.4101 56.4267 36.1373C56.3032 35.6137 56.1994 35.1592 56.1006 34.7838C56.0314 34.522 56.1895 34.2504 56.4514 34.1812C56.7182 34.112 56.985 34.2701 57.0541 34.5319C57.153 34.9123 57.2616 35.3815 57.3852 35.9101C58.3436 40.0199 60.1321 47.6715 65.6607 50.2944C68.8869 51.8258 72.9975 51.391 77.8788 49.0101C81.9696 47.0095 84.3757 44.3569 85.0229 41.1165C86.4903 33.791 78.7434 24.9736 76.194 22.074C76.0162 21.8666 76.0359 21.5553 76.2385 21.3775C76.446 21.1997 76.7573 21.2195 76.9351 21.422C79.5635 24.4105 87.5525 33.5045 85.9913 41.3092C85.2798 44.8657 82.6959 47.7555 78.3136 49.8993C75.201 51.4207 72.3651 52.1814 69.8305 52.1814L69.8355 52.1864Z" fill="#004A53"/>
<path d="M53.6944 42.2526C51.9356 42.2526 50.4682 41.3092 49.5937 39.521C48.7242 37.7378 48.3833 35.179 49.4159 33.7465C49.8605 33.134 50.7498 32.4523 52.4741 32.6795C52.7458 32.7141 52.9336 32.966 52.899 33.2327C52.8644 33.5044 52.6125 33.6872 52.3457 33.6576C51.3526 33.5242 50.6362 33.7465 50.2212 34.3195C49.4208 35.426 49.7617 37.5994 50.4831 39.0813C51.5601 41.2844 53.5956 41.8574 56.0659 40.6472C56.313 40.5287 56.6094 40.6275 56.728 40.8745C56.8466 41.1214 56.7477 41.4178 56.5007 41.5364C55.5225 42.0155 54.5739 42.2477 53.6944 42.2477V42.2526Z" fill="#004A53"/>
<path d="M83.7729 27.7646C83.5901 27.7646 83.4122 27.6608 83.3282 27.4879C83.2097 27.241 83.3085 26.9446 83.5555 26.826C86.0258 25.6158 86.8262 23.6597 85.7541 21.4566C85.0278 19.9747 83.5209 18.3742 82.1573 18.3199C81.4459 18.2853 80.8332 18.72 80.3293 19.5844C80.191 19.8215 79.8896 19.9006 79.6524 19.7623C79.4153 19.6239 79.3362 19.3226 79.4746 19.0855C80.354 17.5839 81.436 17.3023 82.1968 17.327C83.9656 17.3912 85.7738 19.2337 86.6434 21.0169C87.9576 23.7041 86.9398 26.2678 83.9952 27.7053C83.926 27.7399 83.8519 27.7547 83.7778 27.7547L83.7729 27.7646Z" fill="#004A53"/>
<path d="M64.6429 33.4896C65.0522 33.4896 65.384 33.1579 65.384 32.7486C65.384 32.3394 65.0522 32.0077 64.6429 32.0077C64.2336 32.0077 63.9018 32.3394 63.9018 32.7486C63.9018 33.1579 64.2336 33.4896 64.6429 33.4896Z" fill="#004A53"/>
<path d="M72.9282 29.4441C73.3375 29.4441 73.6693 29.1123 73.6693 28.7031C73.6693 28.2939 73.3375 27.9622 72.9282 27.9622C72.5189 27.9622 72.1871 28.2939 72.1871 28.7031C72.1871 29.1123 72.5189 29.4441 72.9282 29.4441Z" fill="#004A53"/>
<path d="M72.1723 39.1801C71.9549 39.1801 71.7524 39.0368 71.6931 38.8145C71.2632 37.2092 72.2118 35.7223 72.8541 34.9369C70.6605 34.0329 69.1882 32.4423 67.7505 29.5032C67.6319 29.2562 67.7307 28.9599 67.9777 28.8413C68.2248 28.7228 68.5163 28.8215 68.6398 29.0685C70.0973 32.0472 71.5646 33.5044 73.8768 34.2601C74.0448 34.3145 74.1683 34.4528 74.2078 34.6257C74.2474 34.7986 74.1881 34.9764 74.0596 35.095C74.0399 35.1098 72.1921 36.8436 72.6516 38.5626C72.7207 38.8244 72.5676 39.0961 72.3008 39.1652C72.2563 39.1751 72.2168 39.1801 72.1723 39.1801V39.1801Z" fill="#004A53"/>
<path d="M53.8477 39.1802C53.5809 39.1802 53.3586 38.9628 53.3536 38.6961C53.3536 38.6665 53.2845 37.7131 51.8221 37.313C51.5602 37.2389 51.4021 36.9672 51.4762 36.7054C51.5503 36.4436 51.8221 36.2855 52.0839 36.3596C54.2874 36.9622 54.3418 38.6072 54.3418 38.6763C54.3418 38.948 54.1293 39.1752 53.8576 39.1802H53.8477V39.1802Z" fill="#004A53"/>
<path d="M83.5061 24.2919C83.3579 24.2919 83.2146 24.2277 83.1158 24.1042C83.0565 24.0301 81.7176 22.3061 82.6563 20.9576C82.8144 20.7353 83.1207 20.681 83.343 20.8341C83.5654 20.9922 83.6246 21.2985 83.4665 21.5207C82.9478 22.2666 83.8816 23.4818 83.8865 23.4917C84.0545 23.7041 84.0199 24.0153 83.8025 24.1832C83.7136 24.2573 83.6049 24.2919 83.4962 24.2919H83.5061Z" fill="#004A53"/>
<path d="M72.1822 59.171C71.9697 59.171 71.7721 59.0278 71.7079 58.8154L70.2949 53.8955C70.2208 53.6337 70.369 53.362 70.6308 53.2829C70.8927 53.2089 71.1644 53.357 71.2435 53.6188L72.6565 58.5388C72.7306 58.8006 72.5824 59.0723 72.3205 59.1513C72.2761 59.1661 72.2267 59.171 72.1822 59.171V59.171Z" fill="#004A53"/>
<path d="M88.7877 51.0551C88.6493 51.0551 88.511 50.9958 88.4122 50.8822L84.929 46.7872C84.7512 46.5797 84.7759 46.2685 84.9834 46.0907C85.1909 45.9129 85.5021 45.9376 85.68 46.145L89.1631 50.24C89.341 50.4475 89.3163 50.7587 89.1088 50.9365C89.0149 51.0156 88.9013 51.0551 88.7877 51.0551Z" fill="#004A53"/>
<path d="M107.137 46.0759C106.93 46.0759 106.742 45.9475 106.668 45.74C106.579 45.4832 106.717 45.2016 106.974 45.1127C107.102 45.0683 120.131 40.6966 132.996 42.6626C133.268 42.7022 133.451 42.9541 133.411 43.2258C133.372 43.4974 133.12 43.6802 132.848 43.6407C120.23 41.7093 107.424 46.0068 107.295 46.0512C107.241 46.071 107.186 46.0759 107.137 46.0759Z" fill="#004A53"/>
<path d="M132.922 140.676C132.749 140.676 132.576 140.582 132.487 140.419C132.408 140.271 124.34 125.442 115.452 106.804C107.241 89.5896 96.6234 65.5185 92.6808 48.5705C92.6264 48.3383 92.7499 48.0962 92.9723 48.0024L104.845 43.0034C105.013 42.9343 105.21 42.959 105.353 43.0775C105.497 43.1961 105.561 43.3838 105.521 43.5616L103.081 54.6463L108.372 55.081C108.624 55.1007 108.822 55.3131 108.827 55.565C108.832 55.8664 109.504 85.7514 122.547 107.649C122.685 107.881 122.611 108.187 122.374 108.326C122.137 108.464 121.835 108.39 121.697 108.153C109.4 87.5001 107.987 59.8675 107.853 56.0244L102.438 55.5799C102.295 55.57 102.167 55.4959 102.083 55.3823C101.999 55.2687 101.969 55.1205 101.999 54.9822L104.355 44.2729L93.748 48.7384C97.7449 65.5728 108.229 89.3278 116.351 106.36C125.229 124.973 133.283 139.787 133.367 139.935C133.495 140.177 133.406 140.473 133.169 140.607C133.095 140.646 133.011 140.666 132.932 140.666L132.922 140.676Z" fill="#004A53"/>
<path d="M83.7136 67.1141L86.7125 68.591L89.2569 67.2919L89.4447 64.1799L85.3538 61.5273L83.7136 62.2831V67.1141Z" fill="#FF8665"/>
<path d="M83.4814 69.4209C83.4369 69.4209 83.3925 69.4159 83.3529 69.4011L76.4904 67.529C76.2286 67.4549 76.0705 67.1832 76.1446 66.9214C76.2187 66.6596 76.4904 66.5015 76.7523 66.5756L83.012 68.2848L83.2047 62.7375L71.4362 61.7199C71.1645 61.6952 70.9619 61.4581 70.9866 61.1864C71.0113 60.9147 71.2485 60.7122 71.5202 60.7369L83.7531 61.794C84.015 61.8187 84.2126 62.041 84.2027 62.3028L83.9705 68.9417C83.9656 69.0949 83.8915 69.2332 83.7679 69.3221C83.684 69.3863 83.5802 69.4159 83.4765 69.4159L83.4814 69.4209Z" fill="#004A53"/>
<path d="M91.0553 65.721C90.9614 65.721 90.8676 65.6964 90.7885 65.642L85.092 61.9422C84.8647 61.794 84.8005 61.4976 84.9438 61.2654L90.7786 51.8603C90.9219 51.6281 91.2282 51.559 91.4604 51.7022C91.6926 51.8455 91.7618 52.1517 91.6185 52.3839L86.0406 61.3741L90.7737 64.4466L92.6956 57.7237C92.7697 57.4619 93.0464 57.3088 93.3082 57.3829C93.5701 57.457 93.7232 57.7336 93.6491 57.9954L91.5395 65.3605C91.495 65.5136 91.3863 65.6321 91.2381 65.6865C91.1838 65.7062 91.1245 65.7161 91.0652 65.7161L91.0553 65.721Z" fill="#004A53"/>
<path d="M86.7125 68.591L110.136 118.823L116.104 120.472L117.675 114.91L89.2569 67.2918L86.7125 68.591Z" fill="#FF8665"/>
<path d="M89.4447 181.69C89.3756 181.69 89.3113 181.675 89.2471 181.65C89.0939 181.586 88.9853 181.448 88.9605 181.285C82.2216 142.904 64.3712 101.637 64.1933 101.223C64.0846 100.971 64.1982 100.679 64.4502 100.571C64.7022 100.462 64.9937 100.575 65.1024 100.827C65.2802 101.237 82.9528 142.089 89.8103 180.376L127.127 156.241C125.763 153.499 117.438 136.887 106.771 118.042C96.1491 99.2714 80.9864 74.4248 68.8424 62.1546L61.0412 68.4971L69.8503 73.18C69.9738 73.2491 70.0677 73.3627 70.0973 73.5011C70.1319 73.6394 70.0973 73.7876 70.0183 73.9012L66.7081 78.5296C70.0677 80.876 92.666 97.1967 103.051 118.753C103.17 119 103.066 119.297 102.819 119.41C102.572 119.529 102.275 119.425 102.162 119.178C91.0998 96.2187 65.9917 79.2261 65.7397 79.0533C65.631 78.9792 65.552 78.8606 65.5273 78.7322C65.5026 78.5988 65.5322 78.4654 65.6113 78.3568L68.8869 73.7777L59.9197 69.0109C59.7715 68.9319 59.6776 68.7886 59.6578 68.6206C59.643 68.4576 59.7072 68.2946 59.8357 68.1909L68.5608 61.0975C68.7584 60.9394 69.04 60.9543 69.2228 61.1321C76.0013 67.8846 88.1651 83.1532 107.631 117.548C119.266 138.102 128.115 156.004 128.204 156.181C128.312 156.409 128.238 156.68 128.031 156.814L89.7214 181.596C89.6424 181.651 89.5485 181.675 89.4546 181.675L89.4447 181.69Z" fill="#004A53"/>
<path d="M122.789 66.1706C122.557 66.1706 122.344 66.0026 122.305 65.7655C122.255 65.4988 122.433 65.2419 122.7 65.1925C122.873 65.1628 126.974 64.4318 132.265 64.9603C132.537 64.99 132.734 65.2271 132.71 65.4987C132.685 65.7704 132.443 65.968 132.171 65.9433C127.028 65.4296 122.922 66.1557 122.883 66.1656C122.853 66.1706 122.823 66.1755 122.794 66.1755L122.789 66.1706Z" fill="#004A53"/>
<path d="M132.512 81.9578C132.344 81.9578 132.181 81.8738 132.087 81.7157L124.548 69.0356C124.409 68.8034 124.483 68.4972 124.721 68.3588C124.953 68.2205 125.259 68.2946 125.397 68.5317L132.937 81.2119C133.075 81.4441 133.001 81.7503 132.764 81.8886C132.685 81.938 132.596 81.9578 132.512 81.9578Z" fill="#004A53"/>
<path d="M131.702 227.397C131.514 227.397 131.336 227.288 131.252 227.11L107.493 174.977C107.379 174.73 107.493 174.434 107.74 174.325C107.987 174.211 108.278 174.325 108.392 174.572L132.151 226.705C132.265 226.952 132.151 227.249 131.904 227.362C131.84 227.392 131.766 227.407 131.702 227.407V227.397Z" fill="#004A53"/>
<path d="M56.0906 32.7782C55.8337 32.7782 55.6163 32.5757 55.5966 32.3139C55.5966 32.2842 55.4039 29.4192 54.2033 27.636C54.1095 27.4977 54.0946 27.3199 54.1589 27.1618C54.228 27.0087 54.3664 26.9 54.5343 26.8704C54.5936 26.8605 60.5816 25.8725 66.4116 23.7979C71.6684 21.9257 77.8787 18.7742 77.6119 14.3878C77.3056 9.30978 73.5853 5.4667 68.3582 4.81466C62.3109 4.06383 53.8081 7.75376 49.7321 20.6068C49.6629 20.8291 49.4455 20.9724 49.2133 20.9477C46.2144 20.6661 45.4486 22.6815 45.2559 23.9115C44.8211 26.6826 46.5256 30.3825 49.3665 31.0049C49.6333 31.0642 49.8013 31.326 49.742 31.5927C49.6827 31.8594 49.4208 32.0274 49.154 31.9681C45.745 31.2222 43.7688 27.0185 44.2826 23.7583C44.6729 21.2539 46.3922 19.8412 48.9119 19.94C53.2152 6.80536 62.1182 3.04626 68.4817 3.83167C74.198 4.53805 78.2641 8.75653 78.6 14.3236C79.1237 22.9581 59.4898 26.979 55.399 27.72C56.4118 29.6761 56.5748 32.1311 56.5798 32.2497C56.5946 32.5213 56.392 32.7535 56.1153 32.7733C56.1055 32.7733 56.0956 32.7733 56.0857 32.7733L56.0906 32.7782Z" fill="#004A53"/>
<path d="M47.7311 18.3247C47.5483 18.3247 47.3754 18.226 47.2865 18.0481C47.2519 17.974 46.3972 16.2205 46.2984 13.8395C46.2885 13.5679 46.5009 13.3357 46.7727 13.3258C47.0395 13.311 47.2766 13.5283 47.2865 13.8C47.3754 15.9735 48.161 17.5937 48.1709 17.6085C48.2894 17.8555 48.1906 18.1519 47.9485 18.2704C47.8794 18.305 47.8053 18.3198 47.7311 18.3198V18.3247Z" fill="#004A53"/>
<path d="M45.9526 18.3248C45.8439 18.3248 45.7303 18.2902 45.6414 18.2112C45.6167 18.1914 43.3094 16.3242 40.9923 16.3193C40.7205 16.3193 40.4982 16.097 40.4982 15.8253C40.4982 15.5536 40.7205 15.3314 40.9923 15.3314C43.6651 15.3363 46.1601 17.3616 46.2639 17.4456C46.4763 17.6184 46.506 17.9296 46.3331 18.142C46.2342 18.2606 46.0959 18.3248 45.9526 18.3248V18.3248Z" fill="#004A53"/>
<path d="M112.177 133.286C112.004 133.286 111.831 133.192 111.742 133.029C111.613 132.787 111.702 132.491 111.939 132.357C112.063 132.288 124.464 125.546 127.567 123.056C127.779 122.888 128.09 122.918 128.263 123.13C128.436 123.342 128.401 123.654 128.189 123.827C125.017 126.375 112.927 132.95 112.414 133.227C112.34 133.266 112.261 133.286 112.177 133.286V133.286Z" fill="#004A53"/>
</g>
<defs>
<clipPath id="clip0_7556_63371">
<rect width="135" height="228" fill="white"/>
</clipPath>
</defs>
</svg>
