<svg width="136" height="220" viewBox="0 0 136 220" fill="none" xmlns="http://www.w3.org/2000/svg">
<g clip-path="url(#clip0_7556_63370)">
<path d="M44.0101 46.4758C44.0101 46.4758 54.839 59.2622 65.9581 58.0375C65.9581 58.0375 54.0256 65.7176 20.119 128.824L11.3367 123.635C11.3367 123.635 34.2433 81.1246 44.0101 46.4758V46.4758Z" fill="#FF8665"/>
<path d="M67.0929 56.8906L76.2016 64.3995L73.0617 65.9978C86.7301 72.8684 99.9321 63.2734 112.507 35.7391C112.507 35.7391 119.626 40.0203 126.02 39.4339C126.02 39.4339 105.942 101.902 69.041 91.4408C51.4194 123.417 53.7302 132.945 43.5023 168.154L8.89111 150.962C8.89111 150.962 38.9169 87.3309 67.0929 56.8906V56.8906Z" fill="#C7DEE1"/>
<path d="M44.3832 44.9553C40.4713 61.7218 22.3522 105.364 0 144.584V81.7473C0 81.7473 7.30048 79.7079 15.316 64.2439C15.316 64.2439 13.4352 61.1355 0 63.2631V39.3405C0 39.3405 15.2279 36.7666 32.5698 42.4956L31.8858 40.1864L44.3832 44.9657V44.9553Z" fill="#C7DEE1"/>
<path d="M65.067 39.9373C62.4038 39.9373 58.8546 38.9254 56.9375 34.1409C56.8287 33.8763 56.9582 33.5753 57.2225 33.4663C57.4919 33.3573 57.7924 33.4871 57.8961 33.7569C60.8235 41.0634 67.8442 38.5258 68.1395 38.4169C68.4038 38.3183 68.7043 38.4532 68.8079 38.7179C68.9064 38.9877 68.7717 39.2835 68.5074 39.3873C68.4711 39.4028 67.0048 39.9373 65.067 39.9373V39.9373Z" fill="#004A53"/>
<path d="M80.9946 68.442C79.3884 68.442 77.7511 68.25 76.0827 67.8608C75.803 67.7985 75.632 67.5183 75.6941 67.2381C75.7563 66.9578 76.0361 66.7866 76.3159 66.8489C83.3262 68.4627 89.6267 66.5583 95.5904 61.0317C101.684 55.3806 107.616 45.796 113.73 31.7227C114.678 28.2199 113.839 23.5859 113.16 19.8548C112.518 16.3001 112.051 13.7314 113.124 12.7507C113.445 12.4601 113.834 12.3615 114.217 12.486C115.652 12.9375 116.989 17.0422 117.766 19.9482L120.336 6.82451C120.393 6.54429 120.663 6.35749 120.943 6.41457C121.222 6.47165 121.409 6.74149 121.352 7.02171L118.331 22.4391C118.285 22.6778 118.077 22.8542 117.829 22.8594C117.595 22.849 117.367 22.6933 117.316 22.4546C116.15 17.3017 114.549 13.472 113.891 13.472C113.891 13.472 113.86 13.4824 113.823 13.5187C113.176 14.1103 113.689 16.9384 114.181 19.668C114.875 23.5132 115.746 28.2977 114.72 32.0288C114.715 32.0548 114.704 32.0755 114.694 32.0963C103.906 56.9374 93.3417 68.4316 80.9946 68.4316V68.442Z" fill="#004A53"/>
<path d="M78.0875 93.1845C75.9943 93.1845 73.844 92.9561 71.6316 92.4735C71.3518 92.4113 71.1756 92.1362 71.2326 91.856C71.2948 91.5758 71.5694 91.3994 71.8492 91.4565C111.502 100.076 130.885 24.8625 134.367 9.69939C134.429 9.41917 134.709 9.24792 134.989 9.31019C135.269 9.37246 135.44 9.65269 135.377 9.93291C132.046 24.4266 114.32 93.1793 78.0875 93.1793V93.1845Z" fill="#004A53"/>
<path d="M122.802 15.4075C122.766 15.4075 122.735 15.4075 122.699 15.3972C122.419 15.3401 122.238 15.065 122.295 14.7848L124.642 3.19197C124.699 2.91175 124.973 2.73014 125.253 2.78722C125.533 2.84431 125.714 3.11933 125.657 3.39956L123.31 14.9924C123.258 15.2363 123.046 15.4075 122.802 15.4075V15.4075Z" fill="#004A53"/>
<path d="M126.611 14.4838C126.575 14.4838 126.543 14.4838 126.507 14.4734C126.227 14.4164 126.046 14.1413 126.103 13.8611L128.74 0.820451C128.797 0.54023 129.072 0.358622 129.352 0.415704C129.631 0.472786 129.813 0.747814 129.756 1.02803L127.119 14.0687C127.067 14.3126 126.854 14.4838 126.611 14.4838V14.4838Z" fill="#004A53"/>
<path d="M129.839 16.2898C129.802 16.2898 129.771 16.2898 129.735 16.2794C129.455 16.2223 129.274 15.9473 129.331 15.6671L131.849 3.23357C131.906 2.95335 132.181 2.77171 132.46 2.82879C132.74 2.88587 132.921 3.1609 132.864 3.44112L130.346 15.8746C130.295 16.1185 130.082 16.2898 129.839 16.2898Z" fill="#004A53"/>
<path d="M125.269 39.6519C120.186 39.6519 114.378 38.1989 108.564 33.7049L108.471 33.6323C108.243 33.4559 108.202 33.1341 108.378 32.9058C108.554 32.6775 108.875 32.636 109.103 32.8124L109.196 32.8851C118.383 39.9892 127.564 39.2004 133.647 37.2908C133.922 37.2025 134.212 37.3582 134.295 37.628C134.383 37.9031 134.227 38.1937 133.958 38.2767C131.486 39.0551 128.528 39.6519 125.264 39.6519H125.269Z" fill="#004A53"/>
<path d="M67.5074 47.1607C64.8338 47.1607 61.839 46.3408 58.5489 44.7114C53.7199 42.3139 50.9686 39.0655 50.3676 35.049C49.3313 28.1368 55.0722 20.5813 58.6266 17.2082C58.8338 17.011 59.1603 17.0214 59.3572 17.229C59.554 17.4365 59.5437 17.7635 59.3364 17.9607C55.9271 21.1936 50.4194 28.4015 51.3935 34.8933C51.9427 38.5517 54.5074 41.5407 59.01 43.7773C64.1136 46.3149 68.4245 46.7923 71.813 45.2044C77.6265 42.48 79.5488 34.4522 80.5798 30.1451C80.7145 29.5898 80.8285 29.0969 80.9373 28.6973C81.0099 28.4223 81.2949 28.2562 81.5746 28.3288C81.8493 28.4015 82.0151 28.6869 81.9425 28.9671C81.8389 29.3615 81.7249 29.8389 81.5902 30.389C80.5177 34.8725 78.5229 43.2117 72.2535 46.1488C70.8079 46.8234 69.2224 47.1659 67.5074 47.1659V47.1607Z" fill="#004A53"/>
<path d="M84.4709 36.8342C83.5331 36.8342 82.5176 36.5747 81.4813 36.061C81.2222 35.9312 81.1186 35.6199 81.2481 35.3656C81.3725 35.1113 81.6886 35.0023 81.9424 35.1321C83.2274 35.7703 84.4398 35.9572 85.4554 35.6666C86.4554 35.3812 87.2481 34.6599 87.8077 33.5234C88.5745 31.9718 88.9424 29.6885 88.1134 28.5209C87.6833 27.9138 86.9321 27.6751 85.8906 27.81C85.6056 27.8463 85.3466 27.644 85.3103 27.3637C85.274 27.0783 85.4761 26.8189 85.7611 26.7825C87.5694 26.549 88.502 27.2703 88.9631 27.919C90.0408 29.4343 89.6678 32.1171 88.7455 33.9853C88.0564 35.376 87.0201 36.3049 85.7507 36.6681C85.3466 36.7823 84.9217 36.8394 84.4813 36.8394L84.4709 36.8342Z" fill="#004A53"/>
<path d="M52.9635 21.4219C52.8858 21.4219 52.8081 21.4064 52.7356 21.37C51.2123 20.6124 50.1553 19.5641 49.6786 18.3395C49.1967 17.1044 49.3055 15.7189 49.9946 14.3282C50.9169 12.46 52.8236 10.54 54.6786 10.4829C55.4868 10.4622 56.6112 10.7631 57.5179 12.3459C57.663 12.595 57.5749 12.9115 57.3262 13.0568C57.0775 13.1969 56.7614 13.1139 56.6164 12.8648C56.0931 11.9515 55.4558 11.5052 54.7045 11.5208C53.2692 11.5675 51.6838 13.2384 50.9117 14.79C50.347 15.9265 50.2537 16.9955 50.6319 17.9659C51.0154 18.9466 51.8962 19.8028 53.1812 20.4411C53.4402 20.5709 53.5439 20.8822 53.4143 21.1365C53.3262 21.3181 53.1397 21.4271 52.948 21.4271L52.9635 21.4219Z" fill="#004A53"/>
<path d="M72.9947 27.5557C73.424 27.5557 73.7719 27.2072 73.7719 26.7773C73.7719 26.3474 73.424 25.9989 72.9947 25.9989C72.5655 25.9989 72.2175 26.3474 72.2175 26.7773C72.2175 27.2072 72.5655 27.5557 72.9947 27.5557Z" fill="#004A53"/>
<path d="M64.3258 23.2538C64.755 23.2538 65.103 22.9053 65.103 22.4754C65.103 22.0455 64.755 21.697 64.3258 21.697C63.8965 21.697 63.5486 22.0455 63.5486 22.4754C63.5486 22.9053 63.8965 23.2538 64.3258 23.2538Z" fill="#004A53"/>
<path d="M65.062 33.4818C65.0153 33.4818 64.9687 33.4766 64.9221 33.4611C64.6475 33.3832 64.4817 33.0978 64.5594 32.8228C65.0516 31.0221 63.1242 29.1903 63.1086 29.1747C62.9739 29.0502 62.9169 28.8634 62.9584 28.6817C62.9998 28.5001 63.1293 28.3548 63.3055 28.3029C65.7355 27.5193 67.2848 25.9989 68.8288 22.8801C68.9531 22.6258 69.2692 22.5169 69.5231 22.6466C69.777 22.7763 69.8858 23.0877 69.7562 23.342C68.2329 26.4244 66.6785 28.085 64.3677 29.019C65.0361 29.8441 66.0257 31.4165 65.5646 33.0978C65.5024 33.3261 65.29 33.4818 65.0672 33.4818H65.062Z" fill="#004A53"/>
<path d="M84.6264 32.8073H84.6056C84.3259 32.7969 84.1031 32.5634 84.1082 32.2831C84.1082 32.2105 84.1756 30.4825 86.4916 29.8598C86.7663 29.7871 87.0512 29.948 87.1238 30.2282C87.1963 30.5032 87.0357 30.7886 86.7559 30.8613C85.217 31.2712 85.1445 32.2676 85.1393 32.3143C85.1238 32.5893 84.8958 32.8073 84.6212 32.8073H84.6264Z" fill="#004A53"/>
<path d="M54.0618 17.12C53.9478 17.12 53.8338 17.0837 53.7405 17.0058C53.5177 16.8294 53.4815 16.5025 53.6576 16.2742C53.668 16.2638 54.6473 14.982 54.1136 14.2036C53.953 13.9649 54.01 13.6432 54.2483 13.4823C54.4866 13.3215 54.8079 13.3785 54.9685 13.6172C55.9478 15.0443 54.5281 16.845 54.4711 16.9228C54.3675 17.0525 54.2172 17.12 54.067 17.12H54.0618Z" fill="#004A53"/>
<path d="M64.6215 55.6244C64.5593 55.6244 64.492 55.614 64.4298 55.5881C64.1656 55.4843 64.0308 55.1833 64.1397 54.9134L66.5127 48.8731C66.6163 48.6085 66.9168 48.4736 67.1863 48.5826C67.4505 48.6863 67.5852 48.9873 67.4764 49.2571L65.1034 55.2975C65.0205 55.4999 64.8288 55.6244 64.6215 55.6244Z" fill="#004A53"/>
<path d="M47.3728 46.5121C47.2588 46.5121 47.15 46.4758 47.0516 46.4032C46.8288 46.2267 46.7873 45.8998 46.9635 45.6766L50.8288 40.7416C51.0049 40.5185 51.3313 40.477 51.5541 40.6534C51.7769 40.8299 51.8184 41.1568 51.6422 41.3799L47.777 46.3149C47.6733 46.4447 47.5231 46.5121 47.3676 46.5121H47.3728Z" fill="#004A53"/>
<path d="M29.7459 42.3658C29.6889 42.3658 29.6319 42.3554 29.5749 42.3347C29.4402 42.288 16.0413 37.7006 2.79266 39.6466C2.50251 39.6881 2.24862 39.491 2.20717 39.2107C2.16572 38.9253 2.36261 38.6659 2.6424 38.6244C16.1449 36.6369 29.777 41.3124 29.9169 41.3591C30.1863 41.4525 30.3314 41.7483 30.2381 42.0181C30.1656 42.2309 29.9635 42.3658 29.7511 42.3658H29.7459Z" fill="#004A53"/>
<path d="M2.12953 141.585C2.04663 141.585 1.95854 141.564 1.88082 141.523C1.63212 141.382 1.53886 141.066 1.67875 140.817C1.76165 140.661 10.3005 125.15 19.7253 105.649C28.347 87.8084 39.4868 62.9154 43.7821 45.2563L32.6838 40.5029L35.0931 51.7637C35.1242 51.909 35.0931 52.0646 34.9998 52.184C34.9117 52.3034 34.7718 52.3812 34.6268 52.3915L28.9428 52.8223C28.777 56.8543 27.1294 85.878 14.1036 107.496C13.9533 107.74 13.6372 107.818 13.3937 107.673C13.1502 107.522 13.0725 107.206 13.2175 106.962C27.0309 84.0358 27.917 52.6458 27.9221 52.3293C27.9273 52.0646 28.1346 51.8467 28.3988 51.8259L33.9532 51.4004L31.461 39.7401C31.4195 39.5481 31.4869 39.3561 31.6371 39.2316C31.7874 39.107 31.9895 39.0759 32.1708 39.1537L44.5904 44.4727C44.8236 44.5713 44.9479 44.8256 44.8909 45.0695C40.6526 62.8428 29.3677 88.073 20.6527 106.106C11.2176 125.633 2.66838 141.164 2.5803 141.315C2.48704 141.486 2.31087 141.585 2.12435 141.585H2.12953Z" fill="#004A53"/>
<path d="M43.4969 168.673C43.4192 168.673 43.3415 168.657 43.269 168.621L8.65775 151.429C8.40387 151.304 8.30024 150.998 8.41941 150.739C8.75102 150.043 41.9633 80.9534 66.7248 56.5223C66.9165 56.3355 67.2118 56.3251 67.4191 56.4911L76.5278 64C76.6626 64.109 76.7299 64.2802 76.7144 64.4515C76.6936 64.6227 76.5952 64.7784 76.4398 64.8563L67.0046 69.8068L70.4139 74.638C70.4968 74.7522 70.5279 74.8975 70.502 75.0324C70.4761 75.1725 70.3932 75.2919 70.2792 75.3697C70.0149 75.5462 43.5798 93.2468 31.839 117.299C31.7146 117.559 31.4037 117.662 31.1447 117.538C30.8856 117.413 30.782 117.102 30.9063 116.842C41.9322 94.2587 65.73 77.2482 69.2688 74.8093L65.8232 69.9262C65.7352 69.8017 65.7093 69.6511 65.7403 69.5058C65.7766 69.3605 65.8699 69.236 66.0046 69.1685L75.274 64.3062L67.1289 57.5965C43.5902 81.1195 12.5178 144.667 9.58003 150.728L43.1964 167.427C46.2482 158.165 48.0047 150.282 49.7093 142.659C53.0824 127.527 56.2741 113.236 68.9113 90.621C69.0512 90.3719 69.3673 90.2785 69.616 90.4238C69.8647 90.5639 69.9527 90.8805 69.8129 91.1296C57.2482 113.61 54.0772 127.833 50.7197 142.887C48.9788 150.692 47.1757 158.767 43.9943 168.325C43.9477 168.465 43.8389 168.585 43.7042 168.642C43.642 168.668 43.5747 168.683 43.5073 168.683L43.4969 168.673Z" fill="#004A53"/>
<path d="M13.2126 63.3824C13.1815 63.3824 13.1504 63.3824 13.1142 63.372C13.0727 63.3617 8.77223 62.5729 3.37847 63.0814C3.0935 63.1074 2.83962 62.8998 2.81371 62.6144C2.7878 62.329 2.99506 62.0747 3.28003 62.0488C8.8344 61.5246 13.1245 62.3186 13.3059 62.3497C13.5857 62.4016 13.7722 62.6715 13.7204 62.9569C13.6738 63.206 13.4561 63.3824 13.2126 63.3824V63.3824Z" fill="#004A53"/>
<path d="M2.91704 80.8184C2.74605 80.8184 2.58025 80.7354 2.4818 80.5797C2.32637 80.3358 2.3989 80.0193 2.64243 79.8636C8.65276 76.0339 14.7978 64.1245 14.86 64.0052C14.9895 63.7509 15.3056 63.6471 15.5595 63.782C15.8133 63.9117 15.917 64.2231 15.7822 64.4826C15.5284 64.9807 9.4455 76.7656 3.19683 80.7458C3.10874 80.8028 3.01548 80.8288 2.91704 80.8288V80.8184Z" fill="#004A53"/>
<path d="M2.91692 220C2.84438 220 2.77703 219.984 2.70449 219.953C2.44542 219.839 2.32625 219.528 2.44024 219.268L27.3106 163.364C27.4246 163.105 27.7303 162.985 27.9945 163.1C28.2536 163.219 28.3727 163.525 28.2588 163.785L3.38842 219.689C3.30034 219.881 3.11381 219.995 2.91692 219.995V220Z" fill="#004A53"/>
<path d="M81.7873 27.0108C81.7096 27.0108 81.6319 26.9952 81.5593 26.9589C78.5956 25.4903 76.3262 22.7141 74.9998 18.9311C74.3728 17.1512 74.093 15.5477 73.9687 14.5825C70.4454 17.1148 66.9998 17.5092 64.6786 17.3743C61.9688 17.2134 60.1708 16.3312 60.0983 16.2949C59.8444 16.1652 59.7356 15.859 59.8651 15.5996C59.9895 15.3453 60.3004 15.2363 60.5594 15.3661C60.575 15.3764 62.2796 16.2015 64.7874 16.3416C68.1397 16.5336 71.2589 15.475 74.0723 13.2073C74.2226 13.0828 74.4298 13.0568 74.6112 13.1398C74.7873 13.2177 74.9065 13.3941 74.9169 13.5861C74.9169 13.6795 75.4454 22.7608 82.0256 26.03C82.2847 26.1597 82.3883 26.4711 82.2588 26.7254C82.1707 26.907 81.9842 27.016 81.7925 27.016L81.7873 27.0108Z" fill="#004A53"/>
<path d="M87.8545 26.0405C87.7768 26.0405 87.699 26.0249 87.6265 25.9886C87.3674 25.8589 87.2638 25.5475 87.3933 25.2932C90.0669 19.8912 90.041 14.6967 87.3156 10.6595C84.8441 6.99584 80.8804 5.28857 78.2535 5.49614C78.1032 5.50652 77.9323 5.44424 77.8234 5.32488C77.782 5.27818 73.5333 0.571531 68.0411 1.0697C64.0981 1.42776 60.4505 4.33894 57.1863 9.72022C57.036 9.96411 56.7199 10.0419 56.4764 9.89663C56.2329 9.74614 56.1552 9.4296 56.3002 9.18571C59.7458 3.50345 63.6629 0.42621 67.953 0.0422035C73.3779 -0.450778 77.5229 3.51902 78.4193 4.45309C78.5022 4.45309 78.5799 4.45309 78.6628 4.45309C81.5747 4.45309 85.6161 6.31603 88.1654 10.0886C89.87 12.6158 92.155 18.0075 88.3104 25.7655C88.2223 25.9471 88.0358 26.056 87.8441 26.056L87.8545 26.0405Z" fill="#004A53"/>
<path d="M48.4663 41.3592C48.3834 41.3592 48.2953 41.3384 48.2176 41.2969L37.7357 35.5316C37.5907 35.4538 37.4922 35.3085 37.4715 35.1476C37.4508 34.9868 37.5026 34.8207 37.6218 34.7065C40.3575 32.0029 47.1917 24.0426 49.5854 20.8875C49.7564 20.6592 50.0828 20.6125 50.3108 20.7889C50.5388 20.9602 50.5854 21.2871 50.4093 21.5154C48.1295 24.52 41.8497 31.8576 38.8394 34.9556L48.7201 40.3888C48.9688 40.5289 49.0621 40.8403 48.9274 41.0945C48.8341 41.2658 48.658 41.3644 48.4714 41.3644L48.4663 41.3592Z" fill="#004A53"/>
<path d="M80.2534 56.5896C80.1809 56.5896 80.1083 56.574 80.041 56.5429L68.668 51.4522C68.4089 51.3329 68.2897 51.0267 68.4089 50.7672C68.5229 50.5078 68.8286 50.3884 69.0928 50.5078L79.8389 55.3182C80.4762 51.0319 82.4036 41.9922 83.3881 38.4427C83.4658 38.1677 83.756 38.0068 84.0254 38.0794C84.3 38.1573 84.4606 38.4427 84.3881 38.7177C83.3518 42.4385 81.2689 52.2514 80.7715 56.133C80.7508 56.2938 80.6524 56.4391 80.5125 56.517C80.4347 56.5585 80.3467 56.5844 80.2586 56.5844L80.2534 56.5896Z" fill="#004A53"/>
<path d="M63.8807 58.6238C63.8807 58.6238 63.8444 58.6238 63.8237 58.6238C52.1346 57.3991 45.145 48.4684 45.0725 48.3802C44.8963 48.1518 44.9378 47.8301 45.1658 47.6536C45.3937 47.4772 45.715 47.5239 45.8911 47.747C45.9585 47.8353 52.6942 56.4183 63.9273 57.5911C64.2123 57.6223 64.4195 57.8765 64.3884 58.1619C64.3625 58.4266 64.1346 58.629 63.8755 58.629L63.8807 58.6238Z" fill="#004A53"/>
<path d="M53.3312 19.4967C53.8034 19.4967 54.1862 19.1134 54.1862 18.6405C54.1862 18.1676 53.8034 17.7842 53.3312 17.7842C52.8591 17.7842 52.4763 18.1676 52.4763 18.6405C52.4763 19.1134 52.8591 19.4967 53.3312 19.4967Z" fill="#FF8665"/>
<path d="M83.2687 34.9037C83.7409 34.9037 84.1237 34.5203 84.1237 34.0475C84.1237 33.5746 83.7409 33.1912 83.2687 33.1912C82.7966 33.1912 82.4138 33.5746 82.4138 34.0475C82.4138 34.5203 82.7966 34.9037 83.2687 34.9037Z" fill="#FF8665"/>
<path d="M23.5285 130.822C23.487 130.822 23.4456 130.822 23.4093 130.807C19.8186 129.945 7.41975 121.731 6.89644 121.378C6.6581 121.217 6.59074 120.895 6.75136 120.656C6.9068 120.418 7.22805 120.35 7.47157 120.511C7.6011 120.594 20.2383 128.975 23.6528 129.795C23.9326 129.862 24.1036 130.142 24.0362 130.423C23.9792 130.661 23.7668 130.822 23.5337 130.822H23.5285Z" fill="#004A53"/>
</g>
<defs>
<clipPath id="clip0_7556_63370">
<rect width="135.39" height="220" fill="white"/>
</clipPath>
</defs>
</svg>
