<svg width="524" height="446" viewBox="0 0 524 446" fill="none" xmlns="http://www.w3.org/2000/svg">
<g clip-path="url(#clip0_6374_67480)">
<path d="M113.171 421.17V443.779C113.171 444.701 113.916 445.445 114.839 445.445H120.195C120.829 445.445 121.407 445.089 121.685 444.523L123.02 441.846C123.565 440.752 125.072 440.602 125.828 441.563L128.37 444.8C128.687 445.206 129.171 445.439 129.682 445.439H162.521C163.695 445.439 164.495 444.267 164.078 443.173C163.083 440.535 159.64 436.398 147.984 435.343C139.425 434.565 134.837 429.906 134.837 423.691V419.41L113.171 421.165V421.17Z" fill="#FF8D6E"/>
<path d="M74.8429 421.17V443.779C74.8429 444.701 74.0977 445.445 73.1745 445.445H67.8191C67.1851 445.445 66.6067 445.089 66.3287 444.523L64.994 441.846C64.449 440.752 62.9419 440.602 62.1856 441.563L59.6441 444.8C59.3271 445.206 58.8433 445.439 58.3317 445.439H25.4927C24.3193 445.439 23.5184 444.267 23.9355 443.173C24.931 440.535 28.3734 436.398 40.0297 435.343C48.5884 434.565 53.1764 429.906 53.1764 423.691V419.41L74.8429 421.165V421.17Z" fill="#FF8D6E"/>
<path d="M344.239 213.367L343.733 209.43C392.867 179.124 388.218 122.85 388.218 122.85C383.129 120.418 374.225 119.346 374.225 119.346C361.462 191.575 318.502 188.515 303.476 183.761C303.476 183.761 299.349 188.265 293.944 190.531C273.879 198.945 278.573 229.5 264.697 276.783L264.353 279.527C273.656 283.353 283.5 282.459 283.5 282.459C277.477 305.834 273.879 335.456 273.879 335.456H279.49C279.49 335.456 278.7 338.133 278.328 339.849C276.537 348.041 275.792 348.391 275.264 353.056C274.413 360.52 274.785 387.66 278.211 417.21H296.619C297.926 395.146 300.673 368.228 303.793 356.155C305.834 348.246 307.168 346.625 310.066 339.3C310.066 339.3 310.983 336.9 312.14 335.462H320.137C325.743 360.692 332.6 393.536 336.654 417.216H354.4C354.878 393.785 354.583 359.553 352.687 335.462H362.97C353.554 293.922 350.568 234.887 344.245 213.367H344.239Z" fill="#CBDDE0"/>
<path d="M265.009 441.674H296.885V428.64C296.885 428.64 288.894 432.777 276.787 428.373C276.02 428.095 275.208 427.995 274.518 428.429L262.873 435.743C262.873 435.743 265.009 436.559 265.009 441.674V441.674Z" fill="#FF8D6E"/>
<path d="M323.601 441.674H355.478V428.64C355.478 428.64 347.487 432.777 335.38 428.373C334.613 428.095 333.801 427.995 333.111 428.429L321.466 435.743C321.466 435.743 323.601 436.559 323.601 441.674V441.674Z" fill="#FF8D6E"/>
<path d="M96.4037 270.536C96.4037 244.423 95.7809 199.3 103.728 174.015L103.906 173.36C102.071 172.443 100.43 172.86 100.43 172.86C100.43 172.86 88.9016 187.615 73.7918 172.443C73.7918 172.443 71.9121 172.004 70.355 173.137L71.6674 174.859C77.579 184.767 87.617 219.859 87.617 270.536H96.4037Z" fill="#FF8D6E"/>
<path d="M67.7135 169.878C87.4892 195.524 87.9007 260.156 87.9007 325.077L38.4004 325.333L46.8478 282.287C46.8478 282.287 34.1738 284.136 26.3325 279.799C26.3325 279.799 33.4787 192.014 58.8434 181.085L54.995 177.986C54.995 177.986 64.3212 173.782 67.7135 169.878V169.878Z" fill="#CBDDE0"/>
<path d="M144.191 88.1626C138.241 100.019 120.545 158.937 107.41 170.822L105.33 168.761C96.2871 202.06 96.2871 234.499 96.2871 325.21H148.396C137.151 271.358 130.9 205.393 130.9 205.393C140.187 196.407 151.354 125.155 159.162 91.2893C151.321 87.6739 144.191 88.1626 144.191 88.1626V88.1626Z" fill="#CBDDE0"/>
<path d="M294.121 149.729C294.121 149.729 293.827 155.722 290.668 159.67L293.599 161.097C293.599 164.774 291.725 166.579 293.348 170.338C294.655 173.371 299.343 176.908 305.767 172.343" stroke="#004952" stroke-width="2" stroke-linecap="round" stroke-linejoin="round"/>
<path d="M298.832 165.984C298.832 165.984 293.827 170.194 286.976 165.984" stroke="#004952" stroke-width="2" stroke-linecap="round" stroke-linejoin="round"/>
<path d="M296.836 155.116C297.296 155.116 297.67 154.743 297.67 154.283C297.67 153.823 297.296 153.45 296.836 153.45C296.375 153.45 296.001 153.823 296.001 154.283C296.001 154.743 296.375 155.116 296.836 155.116Z" fill="#004952"/>
<path d="M309.888 151.856C309.888 151.856 315.232 148.852 315.232 154.922C315.232 160.992 309.888 160.098 309.888 160.098" stroke="#004952" stroke-width="2" stroke-linecap="round" stroke-linejoin="round"/>
<path d="M306.518 175.32C306.518 175.32 307.09 181.257 300.745 186.594" stroke="#004952" stroke-width="2" stroke-linecap="round" stroke-linejoin="round"/>
<path d="M311.183 155.433C311.183 155.433 309.359 155.61 309.359 157.338" stroke="#004952" stroke-width="2" stroke-linecap="round" stroke-linejoin="round"/>
<path d="M312.346 162.708C312.346 162.708 316.311 171.46 327.973 167.473C339.407 163.569 343.767 148.941 335.008 135.895" stroke="#004952" stroke-width="2" stroke-linecap="round" stroke-linejoin="round"/>
<path d="M318.213 124.427C314.048 129.159 316.344 138.189 324.241 138.478C332.138 138.767 335.581 130.88 333.145 126.293C330.703 121.706 323.04 118.946 318.213 124.427Z" stroke="#004952" stroke-width="2" stroke-linecap="round" stroke-linejoin="round"/>
<path d="M314.031 126.832C307.14 126.832 297.953 129.381 295.367 138.928C293.348 146.369 298.815 154.838 306.996 152.689" stroke="#004952" stroke-width="2" stroke-linecap="round" stroke-linejoin="round"/>
<path d="M309.776 162.708C309.776 162.708 310.271 166.862 313.475 169.966" stroke="#004952" stroke-width="2" stroke-linecap="round" stroke-linejoin="round"/>
<path d="M314.782 124.572C314.782 124.572 314.209 120.273 318.925 117.546" stroke="#004952" stroke-width="2" stroke-linecap="round" stroke-linejoin="round"/>
<path d="M324.191 171.788C324.191 171.788 326.532 179.774 329.824 187.76" stroke="#004952" stroke-width="2" stroke-linecap="round" stroke-linejoin="round"/>
<path d="M335.775 132.847C335.775 132.847 338.127 130.136 343.739 131.042" stroke="#004952" stroke-width="2" stroke-linecap="round" stroke-linejoin="round"/>
<path d="M296.558 189.304C280.88 196.035 278.728 208.103 276.654 220.454C275.069 229.889 266.316 272.818 261.083 290.584C259.726 295.193 257.179 300.225 255.51 302.852C253.625 305.823 257.846 305.806 260.082 302.813C261.21 301.302 262.934 299.081 264.286 295.915C264.286 295.915 264.052 303.174 261.233 311.66" stroke="#004952" stroke-width="2" stroke-linecap="round" stroke-linejoin="round"/>
<path d="M270.548 301.319C270.386 304.679 268.562 314.514 267.828 317.013" stroke="#004952" stroke-width="2" stroke-linecap="round" stroke-linejoin="round"/>
<path d="M267.222 301.075C266.922 304.273 265.225 312.809 264.703 315.292" stroke="#004952" stroke-width="2" stroke-linecap="round" stroke-linejoin="round"/>
<path d="M274.624 299.703C274.323 302.902 272.627 311.438 272.104 313.92" stroke="#004952" stroke-width="2" stroke-linecap="round" stroke-linejoin="round"/>
<path d="M259.614 276.395C267.25 283.459 282.982 283.564 287.715 281.504" stroke="#004952" stroke-width="2" stroke-linecap="round" stroke-linejoin="round"/>
<path d="M347.214 207.17C399.857 174.209 391.621 95.7598 378.096 86.7742" stroke="#004952" stroke-width="2" stroke-linecap="round" stroke-linejoin="round"/>
<path d="M299.338 182.623C358.442 200.777 375.654 129.948 374.676 110.61C374.259 102.413 368.848 100.125 370.516 98.2701C372.435 96.1375 377.117 102.041 378.379 104.573C378.379 104.573 380.698 96.2986 378.096 92.5833" stroke="#004952" stroke-width="2" stroke-linecap="round" stroke-linejoin="round"/>
<path d="M367.224 119.068C379.002 119.068 385.97 121.001 394.168 126.038" stroke="#004952" stroke-width="2" stroke-linecap="round" stroke-linejoin="round"/>
<path d="M109.3 168.767C131.534 140.266 140.221 72.8625 164.334 61.2223" stroke="#004952" stroke-width="2" stroke-linecap="round" stroke-linejoin="round"/>
<path d="M133.736 201.227C148.885 162.652 153.479 99.8694 162.377 82.6646C166.147 75.3727 172.025 75.5227 171.275 73.1402C170.413 70.4023 163.7 73.8511 161.509 75.6393C161.509 75.6393 160.964 69.7581 163.962 66.4648" stroke="#004952" stroke-width="2" stroke-linecap="round" stroke-linejoin="round"/>
<path d="M163.099 92.9997C152.372 88.1404 147.789 87.4684 138.246 88.6735" stroke="#004952" stroke-width="2" stroke-linecap="round" stroke-linejoin="round"/>
<path d="M342.231 204.732C354.105 249.66 350.768 275.395 362.969 335.462H273.89C274.613 313.537 285.763 274.406 289.667 257.918C293.599 241.324 296.285 211.318 296.285 211.318" stroke="#004952" stroke-width="2" stroke-linecap="round" stroke-linejoin="round"/>
<path d="M352.169 427.096L352.559 417.21" stroke="#004952" stroke-width="2" stroke-linecap="round" stroke-linejoin="round"/>
<path d="M339.117 420.898C339.117 423.158 338.667 424.858 337.827 426.196" stroke="#004952" stroke-width="2" stroke-linecap="round" stroke-linejoin="round"/>
<path d="M311.406 439.136C310.41 440.019 310.293 442.274 310.338 443.834C310.366 444.734 311.105 445.45 312.006 445.45H353.777C354.7 445.45 355.445 444.706 355.445 443.784V428.645C346.252 431.966 338.734 429.406 335.586 427.94C334.585 427.473 333.411 427.64 332.577 428.362C320.693 438.625 314.648 436.259 311.406 439.141V439.136Z" stroke="#004952" stroke-width="2" stroke-linecap="round" stroke-linejoin="round"/>
<path d="M313.085 441.674H352.109" stroke="#004952" stroke-width="2" stroke-linecap="round" stroke-linejoin="round"/>
<path d="M323.568 439.669C323.568 437.209 320.965 434.599 318.507 434.599" stroke="#004952" stroke-width="2" stroke-linecap="round" stroke-linejoin="round"/>
<path d="M329.113 428.106L333.35 432.338" stroke="#004952" stroke-width="2" stroke-linecap="round" stroke-linejoin="round"/>
<path d="M326.604 429.545L330.842 433.777" stroke="#004952" stroke-width="2" stroke-linecap="round" stroke-linejoin="round"/>
<path d="M323.835 430.661L328.073 434.893" stroke="#004952" stroke-width="2" stroke-linecap="round" stroke-linejoin="round"/>
<path d="M293.61 427.096L293.999 417.21" stroke="#004952" stroke-width="2" stroke-linecap="round" stroke-linejoin="round"/>
<path d="M280.558 420.898C280.558 423.158 280.107 424.858 279.268 426.196" stroke="#004952" stroke-width="2" stroke-linecap="round" stroke-linejoin="round"/>
<path d="M252.846 439.136C251.851 440.019 251.734 442.274 251.778 443.834C251.806 444.734 252.546 445.45 253.447 445.45H295.217C296.14 445.45 296.885 444.706 296.885 443.784V428.645C287.693 431.966 280.174 429.406 277.026 427.94C276.025 427.473 274.852 427.64 274.018 428.362C262.133 438.625 256.088 436.259 252.846 439.141V439.136Z" stroke="#004952" stroke-width="2" stroke-linecap="round" stroke-linejoin="round"/>
<path d="M254.526 441.674H293.549" stroke="#004952" stroke-width="2" stroke-linecap="round" stroke-linejoin="round"/>
<path d="M265.008 439.669C265.008 437.209 262.406 434.599 259.948 434.599" stroke="#004952" stroke-width="2" stroke-linecap="round" stroke-linejoin="round"/>
<path d="M270.553 428.106L274.791 432.338" stroke="#004952" stroke-width="2" stroke-linecap="round" stroke-linejoin="round"/>
<path d="M268.045 429.545L272.283 433.777" stroke="#004952" stroke-width="2" stroke-linecap="round" stroke-linejoin="round"/>
<path d="M265.275 430.661L269.513 434.893" stroke="#004952" stroke-width="2" stroke-linecap="round" stroke-linejoin="round"/>
<path d="M321.004 339.3C326.61 364.529 332.6 393.536 336.654 417.21H354.4C354.878 393.78 354.861 363.391 352.965 339.3" stroke="#004952" stroke-width="2" stroke-linecap="round" stroke-linejoin="round"/>
<path d="M278.333 339.855C278.333 339.855 277.071 344.192 275.269 353.061C273.456 361.975 276.431 405.265 278.217 417.216H296.624C297.164 398.212 301.418 364.591 303.798 356.16C305.172 351.29 310.071 339.305 310.071 339.305" stroke="#004952" stroke-width="2" stroke-linecap="round" stroke-linejoin="round"/>
<path d="M330.881 181.418C328.012 176.197 308.442 174.87 301.535 180.401" stroke="#FF8D6E" stroke-width="2" stroke-linecap="round" stroke-linejoin="round"/>
<path d="M237.275 445.445H523.444" stroke="#004952" stroke-width="2" stroke-linecap="round" stroke-linejoin="round"/>
<path d="M70.8222 134.662C67.3409 132.347 65.5391 136.595 65.5391 139.55C65.5391 142.504 67.4744 144.309 70.8222 144.309" stroke="#004952" stroke-width="2" stroke-linecap="round" stroke-linejoin="round"/>
<path d="M104.017 134.662C107.498 132.347 109.3 136.595 109.3 139.55C109.3 142.51 107.365 144.309 104.017 144.309" stroke="#004952" stroke-width="2" stroke-linecap="round" stroke-linejoin="round"/>
<path d="M82.0612 138.878C82.5219 138.878 82.8954 138.505 82.8954 138.045C82.8954 137.585 82.5219 137.212 82.0612 137.212C81.6005 137.212 81.2271 137.585 81.2271 138.045C81.2271 138.505 81.6005 138.878 82.0612 138.878Z" fill="#004952"/>
<path d="M92.444 138.878C92.9048 138.878 93.2782 138.505 93.2782 138.045C93.2782 137.585 92.9048 137.212 92.444 137.212C91.9833 137.212 91.6099 137.585 91.6099 138.045C91.6099 138.505 91.9833 138.878 92.444 138.878Z" fill="#004952"/>
<path d="M87.4448 136.834C87.4448 140.549 88.24 142.676 90.1586 144.537C90.1586 144.537 87.2891 145.386 86.8608 147.563" stroke="#004952" stroke-width="2" stroke-linecap="round" stroke-linejoin="round"/>
<path d="M68.6089 138.045C70.205 139.444 69.5821 140.771 69.5821 140.771" stroke="#004952" stroke-width="2" stroke-linecap="round" stroke-linejoin="round"/>
<path d="M106.225 138.045C104.985 138.739 105.43 140.771 105.43 140.771" stroke="#004952" stroke-width="2" stroke-linecap="round" stroke-linejoin="round"/>
<path d="M75.1209 166.229L73.7974 172.443" stroke="#004952" stroke-width="2" stroke-linecap="round" stroke-linejoin="round"/>
<path d="M98.8174 166.784L100.43 172.865" stroke="#004952" stroke-width="2" stroke-linecap="round" stroke-linejoin="round"/>
<path d="M82.0225 155.783C82.0225 155.783 87.9007 161.664 94.0569 155.783" stroke="#004952" stroke-width="2" stroke-linecap="round" stroke-linejoin="round"/>
<path d="M72.9908 136.023C76.0106 135.173 81.3438 132.08 83.5905 126.054C83.5905 126.054 90.8201 131.764 100.764 131.764C106.414 131.764 111.641 127.199 111.641 120.945C111.641 116.08 110.279 111.832 106.642 111.832C103.372 111.832 103.222 115.647 99.6736 115.647C95.7195 115.647 93.128 110.221 87.0162 110.221C79.4919 110.221 72.9908 115.242 72.9908 120.268C72.9908 120.268 61.4291 120.268 65.4498 132.413" stroke="#004952" stroke-width="2" stroke-linecap="round" stroke-linejoin="round"/>
<path d="M102.104 261.911C102.104 216.2 116.407 195.063 116.407 195.063L108.021 187.632L119.166 176.869C110.479 174.687 105.335 168.761 105.335 168.761C105.335 168.761 96.8041 191.114 96.8041 240.885L96.2925 325.21H148.401C148.401 325.21 131.651 234.549 130.6 199.134" stroke="#004952" stroke-width="2" stroke-linecap="round" stroke-linejoin="round"/>
<path d="M76.1221 174.859C76.1221 174.859 87.5281 184.572 98.1056 175.414" stroke="#004952" stroke-width="2" stroke-linecap="round" stroke-linejoin="round"/>
<path d="M103.461 152.806C104.017 164.074 93.9399 166.79 87.4333 166.79C80.9267 166.79 69.6986 162.686 71.7451 152.317" stroke="#004952" stroke-width="2" stroke-linecap="round" stroke-linejoin="round"/>
<path d="M73.7975 140.294C72.0846 146.491 72.2626 150.662 76.072 150.784C78.1964 150.851 81.522 147.813 84.425 149.579C86.7774 151.018 89.3522 150.973 91.6268 149.74C95.1692 147.824 96.9155 150.779 98.8786 150.779C102.199 150.779 103.494 147.847 100.158 139.405" stroke="#004952" stroke-width="2" stroke-linecap="round" stroke-linejoin="round"/>
<path d="M59.9 222.825C54.0441 256.419 44.818 284.714 38.4004 325.333L87.9008 325.077C91.2764 187.443 67.7136 169.878 67.7136 169.878C67.7136 169.878 63.6817 175.803 54.9951 177.986L68.3642 188.749L58.8657 196.179C58.8657 196.179 81.2273 218.454 81.2273 263.527" stroke="#004952" stroke-width="2" stroke-linecap="round" stroke-linejoin="round"/>
<path d="M55.7122 183.25C31.3096 200.444 29.441 271.424 24.4971 289.268C23.2125 293.894 20.7488 298.97 19.125 301.624C17.2898 304.623 21.5107 304.54 23.6963 301.513C24.7974 299.986 26.488 297.737 27.7893 294.544C27.7893 294.544 27.6726 301.808 24.9921 310.332" stroke="#004952" stroke-width="2" stroke-linecap="round" stroke-linejoin="round"/>
<path d="M34.1404 299.847C34.0347 303.213 32.3719 313.07 31.6768 315.58" stroke="#004952" stroke-width="2" stroke-linecap="round" stroke-linejoin="round"/>
<path d="M30.8037 299.653C30.559 302.857 28.9963 311.421 28.5181 313.909" stroke="#004952" stroke-width="2" stroke-linecap="round" stroke-linejoin="round"/>
<path d="M38.1831 298.165C37.9384 301.369 36.3757 309.933 35.8975 312.421" stroke="#004952" stroke-width="2" stroke-linecap="round" stroke-linejoin="round"/>
<path d="M22.2671 277.2C30.164 283.97 45.8911 283.481 50.5403 281.237" stroke="#004952" stroke-width="2" stroke-linecap="round" stroke-linejoin="round"/>
<path d="M75.8997 289.229H55.301C55.301 289.229 53.2489 310.466 65.4168 310.466C75.566 310.466 75.8997 294.693 75.8997 294.693" stroke="#004952" stroke-width="2" stroke-linecap="round" stroke-linejoin="round"/>
<path d="M70.8223 117.719C70.8223 117.719 68.5534 113.093 64.1934 113.409" stroke="#004952" stroke-width="2" stroke-linecap="round" stroke-linejoin="round"/>
<path d="M49.2169 328.526L44.907 416.849C44.8013 418.393 45.9803 419.726 47.5263 419.809L79.52 421.875C81.0604 421.959 82.3729 420.781 82.4507 419.243L85.793 328.392" stroke="#004952" stroke-width="2" stroke-linecap="round" stroke-linejoin="round"/>
<path d="M99.2344 328.526L103.277 419.099C103.372 420.637 104.701 421.803 106.242 421.698L138.485 419.11C140.043 419.004 141.205 417.644 141.066 416.094L135.421 328.526" stroke="#004952" stroke-width="2" stroke-linecap="round" stroke-linejoin="round"/>
<path d="M74.8429 421.687V443.779C74.8429 444.7 74.0977 445.445 73.1745 445.445H67.8191C67.1851 445.445 66.6067 445.089 66.3287 444.523L64.994 441.846C64.449 440.752 62.9419 440.602 62.1856 441.563L59.6441 444.8C59.3271 445.206 58.8433 445.439 58.3317 445.439H25.4927C24.3193 445.439 23.5184 444.267 23.9355 443.173C24.931 440.535 28.3734 436.398 40.0297 435.343C48.5884 434.565 53.1764 429.906 53.1764 423.691" stroke="#004952" stroke-width="2" stroke-linecap="round" stroke-linejoin="round"/>
<path d="M113.171 421.17V443.779C113.171 444.7 113.916 445.445 114.839 445.445H120.195C120.829 445.445 121.407 445.089 121.685 444.523L123.02 441.846C123.565 440.752 125.072 440.602 125.828 441.563L128.37 444.8C128.687 445.206 129.171 445.439 129.682 445.439H162.521C163.695 445.439 164.495 444.267 164.078 443.173C163.083 440.535 159.64 436.398 147.984 435.343C139.425 434.565 134.837 429.906 134.837 423.691" stroke="#004952" stroke-width="2" stroke-linecap="round" stroke-linejoin="round"/>
<path d="M78.4741 445.445H119.777" stroke="#004952" stroke-width="2" stroke-linecap="round" stroke-linejoin="round"/>
<path d="M231.458 445.445H170.618" stroke="#004952" stroke-width="2" stroke-linecap="round" stroke-linejoin="round"/>
<path d="M43.6945 445.445H0.556152" stroke="#004952" stroke-width="2" stroke-linecap="round" stroke-linejoin="round"/>
<path d="M82.8955 270.536H101.904" stroke="#004952" stroke-width="2" stroke-linecap="round" stroke-linejoin="round"/>
<path d="M116.229 172.949C113.148 167.223 107.576 164.574 101.893 164.574" stroke="#FF8D6E" stroke-width="2" stroke-linecap="round" stroke-linejoin="round"/>
<path d="M126.818 209.408C126.818 203.76 124.204 191.797 119.355 181.64" stroke="#FF8D6E" stroke-width="2" stroke-linecap="round" stroke-linejoin="round"/>
<path d="M120.384 238.58C119.266 238.642 118.137 238.703 117.041 238.481C115.946 238.264 114.867 237.731 114.222 236.826C113.36 235.62 113.393 234.01 113.504 232.533C113.81 228.395 114.422 224.28 115.329 220.232C115.69 218.621 116.107 217.005 116.852 215.533C118.393 212.507 121.379 210.257 124.716 209.608C128.053 208.958 131.667 209.924 134.231 212.151C136.433 214.062 137.807 216.755 138.719 219.521C140.387 224.597 140.638 230.128 139.431 235.332C139.203 236.304 138.914 237.298 138.302 238.086C137.451 239.191 136.061 239.774 134.676 239.947C133.291 240.119 131.89 239.93 130.511 239.736" stroke="#FF8D6E" stroke-width="2" stroke-linecap="round" stroke-linejoin="round"/>
<path d="M56.4352 187.699C55.7345 193.658 56.0904 199.139 56.0904 202.066" stroke="#FF8D6E" stroke-width="2" stroke-linecap="round" stroke-linejoin="round"/>
<path d="M71.5009 164.574C67.5357 166.134 64.5716 168.517 62.3638 171.36" stroke="#FF8D6E" stroke-width="2" stroke-linecap="round" stroke-linejoin="round"/>
<path d="M52.2978 204.182C50.4459 206.509 50.1011 212.595 53.2543 215.206C54.7002 216.405 56.8024 216.872 58.543 216.161C60.4339 215.394 61.6184 213.401 61.8909 211.379C62.3414 207.975 61.1401 203.91 57.6421 202.699C56.2852 202.227 53.8271 202.26 52.3034 204.182H52.2978Z" stroke="#FF8D6E" stroke-width="2" stroke-linecap="round" stroke-linejoin="round"/>
<path d="M53.6938 206.403C52.615 207.758 52.4203 211.29 54.25 212.806C55.0897 213.506 56.3132 213.773 57.3253 213.362C58.4209 212.917 59.116 211.757 59.2662 210.585C59.5275 208.608 58.8324 206.248 56.797 205.542C56.0073 205.27 54.5836 205.287 53.6938 206.403Z" fill="#FF8D6E"/>
<path d="M463.288 204.698H458.722V439.663H463.288V204.698Z" stroke="#004952" stroke-width="2" stroke-linecap="round" stroke-linejoin="round"/>
<path d="M480.433 204.698V246.822" stroke="#FF8D6E" stroke-width="2" stroke-linecap="round" stroke-linejoin="round"/>
<path d="M441.577 204.698V220.209" stroke="#FF8D6E" stroke-width="2" stroke-linecap="round" stroke-linejoin="round"/>
<path d="M441.577 223.458C442.477 223.458 443.207 222.73 443.207 221.831C443.207 220.932 442.477 220.204 441.577 220.204C440.677 220.204 439.948 220.932 439.948 221.831C439.948 222.73 440.677 223.458 441.577 223.458Z" stroke="#FF8D6E" stroke-width="2" stroke-linecap="round" stroke-linejoin="round"/>
<path d="M480.433 250.076C481.333 250.076 482.063 249.348 482.063 248.449C482.063 247.55 481.333 246.822 480.433 246.822C479.534 246.822 478.804 247.55 478.804 248.449C478.804 249.348 479.534 250.076 480.433 250.076Z" stroke="#FF8D6E" stroke-width="2" stroke-linecap="round" stroke-linejoin="round"/>
<path d="M497.873 439.669H424.137V445.445H497.873V439.669Z" stroke="#004952" stroke-width="2" stroke-linecap="round" stroke-linejoin="round"/>
<path d="M434.231 152.806H487.774C496.984 152.806 504.458 160.27 504.458 169.467V205.809H417.547V169.467C417.547 160.27 425.021 152.806 434.231 152.806Z" fill="#FF8D6E"/>
<path d="M375.543 96.6873V32.2495C277.187 59.1953 166.597 5.20923 166.597 5.20923V69.6748" stroke="#004952" stroke-width="2" stroke-linecap="round" stroke-linejoin="round"/>
<path d="M342.493 153.184C348.916 152.617 355.345 151.801 361.752 150.701" stroke="#004952" stroke-width="2" stroke-linecap="round" stroke-linejoin="round"/>
<path d="M166.597 80.9652V120.812C166.597 120.812 222.254 146.375 289.717 152.75" stroke="#004952" stroke-width="2" stroke-linecap="round" stroke-linejoin="round"/>
<path d="M303.081 109.694C323.479 104.757 332.866 85.7579 332.866 64.2601" stroke="#FF8D6E" stroke-width="2" stroke-linecap="round" stroke-linejoin="round"/>
<path d="M223.706 53.7084C256.467 60.045 249.332 110.543 291.636 110.932" stroke="#FF8D6E" stroke-width="2" stroke-linecap="round" stroke-linejoin="round"/>
<path d="M211.259 112.954C200.287 108.961 188.748 97.4537 188.748 82.609C188.748 68.8473 197.879 56.0742 211.526 53.5195" stroke="#FF8D6E" stroke-width="2" stroke-linecap="round" stroke-linejoin="round"/>
<path d="M331.643 0.0444C322.984 0.63863 316.033 7.74717 315.621 16.3996C315.466 19.7095 316.239 22.8251 317.712 25.5074L330.436 48.4436C331.493 50.354 334.24 50.354 335.302 48.4436L348.026 25.5074L348.049 25.463C349.378 23.0194 350.134 20.2204 350.134 17.2437C350.134 7.314 341.731 -0.655347 331.643 0.0444V0.0444ZM332.867 24.741C328.718 24.741 325.359 21.3867 325.359 17.2437C325.359 13.1008 328.718 9.74645 332.867 9.74645C337.015 9.74645 340.374 13.1008 340.374 17.2437C340.374 21.3867 337.015 24.741 332.867 24.741Z" fill="#FF8D6E"/>
<path d="M218.261 117.996C219.907 117.996 221.242 116.664 221.242 115.02C221.242 113.376 219.907 112.043 218.261 112.043C216.615 112.043 215.28 113.376 215.28 115.02C215.28 116.664 216.615 117.996 218.261 117.996Z" fill="#FF8D6E"/>
<path d="M217.41 56.0353C219.056 56.0353 220.391 54.7026 220.391 53.0586C220.391 51.4146 219.056 50.0819 217.41 50.0819C215.764 50.0819 214.429 51.4146 214.429 53.0586C214.429 54.7026 215.764 56.0353 217.41 56.0353Z" fill="#FF8D6E"/>
<path d="M297.136 113.687C298.782 113.687 300.116 112.354 300.116 110.71C300.116 109.066 298.782 107.733 297.136 107.733C295.489 107.733 294.155 109.066 294.155 110.71C294.155 112.354 295.489 113.687 297.136 113.687Z" fill="#FF8D6E"/>
</g>
<defs>
<clipPath id="clip0_6374_67480">
<rect width="524" height="446" fill="white"/>
</clipPath>
</defs>
</svg>
