<svg width="235" height="49" viewBox="0 0 235 49" fill="none" xmlns="http://www.w3.org/2000/svg">
<path fill-rule="evenodd" clip-rule="evenodd" d="M167.248 3.24375C169.278 2.94377 171.354 2.90043 173.476 3.114C174.024 3.33328 174.543 3.54944 175.033 3.76275C172.457 3.37143 169.862 3.19834 167.248 3.24375Z" fill="#D8B6EC"/>
<path fill-rule="evenodd" clip-rule="evenodd" d="M166.989 3.24376C166.308 3.70178 165.529 3.87486 164.653 3.76276C165.373 3.46252 166.151 3.28943 166.989 3.24376Z" fill="#D5B8EA"/>
<path fill-rule="evenodd" clip-rule="evenodd" d="M175.812 3.76276C177.099 3.84684 178.223 4.27942 179.185 5.06026C178.766 4.92065 178.333 4.83424 177.888 4.80076C177.196 4.45485 176.504 4.10867 175.812 3.76276Z" fill="#EBD6F6"/>
<path fill-rule="evenodd" clip-rule="evenodd" d="M161.02 5.06026C160.513 5.31769 159.994 5.57719 159.463 5.83876C159.771 5.1965 160.29 4.937 161.02 5.06026Z" fill="#E5C9F4"/>
<path fill-rule="evenodd" clip-rule="evenodd" d="M177.888 4.80076C178.333 4.83424 178.766 4.92065 179.185 5.06026C179.879 5.49363 180.571 5.92595 181.261 6.35776C180.905 6.39851 180.559 6.35517 180.223 6.22801C179.479 5.63998 178.701 5.16432 177.888 4.80076Z" fill="#CD9DE6"/>
<path fill-rule="evenodd" clip-rule="evenodd" d="M166.989 3.24376C167.075 3.24376 167.162 3.24376 167.248 3.24376C169.862 3.19834 172.457 3.37143 175.033 3.76276C175.293 3.76276 175.552 3.76276 175.812 3.76276C176.504 4.10867 177.196 4.45485 177.888 4.80076C178.701 5.16432 179.479 5.63998 180.223 6.22801C180.559 6.35517 180.905 6.3985 181.261 6.35776C182.119 6.87391 182.984 7.39291 183.856 7.91477C183.856 8.17427 183.856 8.43377 183.856 8.69327C184.423 8.74621 184.942 8.91903 185.413 9.21227C185.564 9.79589 185.91 10.2282 186.451 10.5098C186.69 11.1816 187.122 11.7006 187.749 12.0668C187.756 12.9366 188.102 13.6284 188.787 14.1428C189.346 14.9254 189.778 15.7906 190.084 16.7378C190.579 19.0533 190.925 21.3888 191.122 23.7443C190.878 26.7921 190.445 29.8195 189.825 32.8268C189.607 32.9156 189.521 33.0884 189.565 33.3458C189.038 33.7774 188.562 34.2964 188.138 34.9028C187.967 35.6255 187.751 36.3174 187.489 36.9788C186.539 37.6704 185.761 38.5353 185.154 39.5738C184 40.2522 182.962 41.074 182.04 42.0391C179.267 43.8141 176.239 44.8954 172.957 45.2828C170.708 45.2828 168.459 45.2828 166.21 45.2828C165.297 44.7722 164.259 44.5127 163.096 44.5043C162.687 44.3012 162.341 43.9983 162.058 43.5961C161.546 43.4676 161.027 43.4243 160.501 43.4663C160.501 43.2068 160.501 42.9473 160.501 42.6878C161.853 42.2965 163.237 42.037 164.653 41.9093C165.121 42.3497 165.727 42.5659 166.47 42.5581C168.678 42.7717 170.841 42.7286 172.957 42.4283C172.957 42.3419 172.957 42.2553 172.957 42.1688C178.662 41.0481 182.9 37.9341 185.673 32.8268C186.685 31.2602 187.291 29.5301 187.489 27.6368C188.696 21.9548 187.442 16.8512 183.726 12.3263C183.552 12.1311 183.336 12.0445 183.078 12.0668C181.006 10.0764 178.671 8.5194 176.071 7.39577C175.671 7.22943 175.325 6.96992 175.033 6.61726C174.534 6.40759 174.015 6.27784 173.476 6.22801C174.532 6.00848 175.526 6.13823 176.46 6.61726C176.677 6.53085 176.893 6.44418 177.109 6.35776C175.921 6.00251 174.71 5.74301 173.476 5.57926C171.96 6.04974 170.403 6.22282 168.805 6.09826C168.805 5.75235 168.805 5.40617 168.805 5.06026C167.462 5.33507 166.121 5.33507 164.783 5.06026C164.133 5.11034 163.528 5.28317 162.966 5.57926C162.609 5.53151 162.393 5.35843 162.318 5.06026C163.023 4.69359 163.802 4.5205 164.653 4.54126C164.653 4.28176 164.653 4.02226 164.653 3.76276C165.529 3.87486 166.308 3.70177 166.989 3.24376Z" fill="#D287EF"/>
<path fill-rule="evenodd" clip-rule="evenodd" d="M164.653 3.76276C164.653 4.02226 164.653 4.28176 164.653 4.54126C163.802 4.5205 163.023 4.69359 162.318 5.06026C160.617 5.68332 159.06 6.54824 157.647 7.65527C157.246 7.90231 156.813 7.98872 156.349 7.91477C157.163 6.93489 158.201 6.24306 159.463 5.83876C159.994 5.57719 160.513 5.31769 161.02 5.06026C161.727 4.55631 162.505 4.16706 163.356 3.89251C163.78 3.76432 164.212 3.72124 164.653 3.76276Z" fill="#D1A3E7"/>
<path fill-rule="evenodd" clip-rule="evenodd" d="M162.318 5.06026C162.393 5.35843 162.609 5.53151 162.966 5.57926C163.528 5.28317 164.133 5.11034 164.783 5.06026C166.121 5.33507 167.462 5.33507 168.805 5.06026C168.805 5.40617 168.805 5.75235 168.805 6.09826C170.403 6.22282 171.96 6.04974 173.476 5.57926C174.71 5.74301 175.921 6.00251 177.109 6.35776C176.893 6.44418 176.677 6.53085 176.46 6.61726C175.526 6.13823 174.532 6.00848 173.476 6.22801C174.015 6.27784 174.534 6.40759 175.033 6.61726C175.325 6.96993 175.671 7.22943 176.071 7.39577C175.027 7.25615 173.989 7.08307 172.957 6.87676C168.856 6.2659 164.834 6.69823 160.89 8.17427C159.56 9.07188 158.306 10.0665 157.128 11.1585C156.454 11.6998 155.935 12.3486 155.571 13.1048C153.801 15.5199 152.676 18.2016 152.197 21.1493C151.824 19.824 151.218 18.6129 150.381 17.5163C149.847 18.0319 149.588 18.6807 149.602 19.4625C149.594 20.6033 149.767 20.6466 150.121 19.5923C150.479 19.722 150.652 19.9815 150.64 20.3708C150.192 22.1798 150.062 23.9963 150.251 25.8203C150.164 25.9067 150.078 25.9934 149.991 26.0798C149.905 24.6959 149.818 23.3117 149.732 21.9278C149.479 21.3107 149.306 21.3974 149.213 22.1873C149.047 26.0982 149.609 29.9043 150.9 33.6053C150.565 33.4605 150.349 33.201 150.251 32.8268C149.833 31.4455 149.444 30.0616 149.083 28.6748C148.851 26.0881 148.764 23.4931 148.824 20.8898C149.531 17.7522 150.656 14.811 152.197 12.0668C153.391 11.3916 154.343 10.4402 155.052 9.21227C155.291 8.61127 155.723 8.17868 156.349 7.91477C156.813 7.98872 157.246 7.90231 157.647 7.65527C159.06 6.54824 160.617 5.68332 162.318 5.06026Z" fill="#D187EC"/>
<path fill-rule="evenodd" clip-rule="evenodd" d="M172.957 6.87676C173.989 7.08307 175.027 7.25615 176.071 7.39577C178.671 8.5194 181.006 10.0764 183.078 12.0668C182.812 13.0788 182.206 13.3383 181.261 12.8453C178.239 10.3668 174.779 8.8962 170.881 8.43377C169.544 8.21916 168.161 8.08941 166.729 8.04452C169.151 7.9581 171.573 7.87143 173.995 7.78502C173.58 7.71417 173.19 7.58442 172.827 7.39577C171.775 7.54991 170.737 7.63632 169.713 7.65527C169.203 7.64437 168.727 7.51462 168.286 7.26602C169.812 6.90012 171.369 6.77037 172.957 6.87676Z" fill="#ECCDF7"/>
<path fill-rule="evenodd" clip-rule="evenodd" d="M183.856 7.91477C184.481 8.22643 185 8.65876 185.413 9.21227C184.942 8.91904 184.423 8.74621 183.856 8.69327C183.856 8.43377 183.856 8.17427 183.856 7.91477Z" fill="#DDC3ED"/>
<path fill-rule="evenodd" clip-rule="evenodd" d="M3.50326 10.2503C9.08148 9.94847 14.7041 9.90539 20.3708 10.1205C20.5005 10.2503 20.6303 10.38 20.76 10.5098C20.9331 11.7209 20.9331 12.9317 20.76 14.1428C20.6607 14.2871 20.5309 14.3735 20.3708 14.4023C20.6433 13.2049 20.6866 11.9941 20.5005 10.7693C20.4012 10.625 20.2714 10.5386 20.1113 10.5098C20.0249 10.5098 19.9382 10.5098 19.8518 10.5098C14.4472 10.251 8.99766 10.1644 3.50326 10.2503Z" fill="#FBEDFD"/>
<path fill-rule="evenodd" clip-rule="evenodd" d="M172.957 6.87676C171.369 6.77037 169.812 6.90012 168.286 7.26601C168.727 7.51462 169.203 7.64437 169.713 7.65527C170.737 7.63632 171.775 7.54991 172.827 7.39576C173.19 7.58442 173.58 7.71417 173.995 7.78502C171.573 7.87143 169.151 7.9581 166.729 8.04452C168.161 8.08941 169.544 8.21916 170.881 8.43377C164.995 8.04919 160.237 10.1252 156.609 14.6618C155.485 14.5857 155.139 14.0667 155.571 13.1048C155.935 12.3486 156.454 11.6998 157.128 11.1585C158.306 10.0665 159.56 9.07188 160.89 8.17427C164.834 6.69823 168.856 6.2659 172.957 6.87676Z" fill="#E6B7FB"/>
<path fill-rule="evenodd" clip-rule="evenodd" d="M186.451 10.5098C187.078 10.8759 187.51 11.3949 187.749 12.0668C187.122 11.7006 186.69 11.1816 186.451 10.5098Z" fill="#DAB4EE"/>
<path fill-rule="evenodd" clip-rule="evenodd" d="M155.052 9.21227C154.343 10.4402 153.391 11.3916 152.197 12.0668C152.802 11.4172 153.365 10.7254 153.884 9.99077C154.177 9.56493 154.566 9.30543 155.052 9.21227Z" fill="#CCA5DF"/>
<path fill-rule="evenodd" clip-rule="evenodd" d="M58.7769 10.2503C58.7769 10.1639 58.7769 10.0772 58.7769 9.99077C60.1852 9.91759 61.5691 10.004 62.9289 10.2503C62.9289 13.6238 62.9289 16.9973 62.9289 20.3708C62.6748 19.5599 62.5882 18.6949 62.6694 17.7758C62.6694 15.3539 62.6694 12.9317 62.6694 10.5098C61.3789 10.3375 60.0814 10.2511 58.7769 10.2503Z" fill="#A167BA"/>
<path fill-rule="evenodd" clip-rule="evenodd" d="M187.749 12.0668C188.433 12.5811 188.779 13.2729 188.787 14.1428C188.102 13.6285 187.756 12.9366 187.749 12.0668Z" fill="#D1ABE6"/>
<path fill-rule="evenodd" clip-rule="evenodd" d="M20.1113 10.5098C20.2714 10.5386 20.4012 10.625 20.5005 10.7693C20.6866 11.9941 20.6433 13.2049 20.3708 14.4023C16.4373 14.6607 12.4584 14.7474 8.43377 14.6618C8.34736 14.6618 8.26068 14.6618 8.17427 14.6618C11.8491 14.4461 15.5685 14.3164 19.3328 14.2725C19.7379 14.19 20.0407 13.9738 20.241 13.6238C20.4507 12.7085 20.4074 11.8436 20.1113 11.0288C20.1113 10.8557 20.1113 10.6829 20.1113 10.5098Z" fill="#DFC3E9"/>
<path fill-rule="evenodd" clip-rule="evenodd" d="M3.24376 10.5098C3.24376 19.6787 3.24376 28.8479 3.24376 38.0168C3.06992 29.0028 2.89693 19.9636 2.72475 10.899C2.86597 10.713 3.03898 10.5832 3.24376 10.5098Z" fill="#FDF4FE"/>
<path fill-rule="evenodd" clip-rule="evenodd" d="M155.571 13.1048C155.139 14.0667 155.485 14.5857 156.609 14.6618C153.126 20.4637 152.866 26.4322 155.83 32.5673C155.496 32.2383 155.237 32.3247 155.052 32.8268C154.805 33.2277 154.718 33.6603 154.792 34.1243C152.224 30.1978 151.359 25.873 152.197 21.1493C152.676 18.2016 153.801 15.52 155.571 13.1048Z" fill="#E7ADFC"/>
<path fill-rule="evenodd" clip-rule="evenodd" d="M62.9289 10.2503C63.1445 13.3191 63.2743 16.4331 63.3181 19.5923C63.8353 19.2254 64.3977 18.9659 65.0049 18.8138C64.3865 19.1732 63.9539 19.6922 63.7074 20.3708C63.4479 20.3708 63.1884 20.3708 62.9289 20.3708C62.9289 16.9973 62.9289 13.6238 62.9289 10.2503Z" fill="#EBD2F7"/>
<path fill-rule="evenodd" clip-rule="evenodd" d="M37.4978 18.5543C35.2051 18.1438 32.9561 18.2304 30.7508 18.8138C32.9465 17.542 35.1955 17.4556 37.4978 18.5543Z" fill="#C29AD6"/>
<path fill-rule="evenodd" clip-rule="evenodd" d="M45.2828 18.0353C46.6193 17.7366 48.0034 17.6935 49.4349 17.9055C49.6726 17.9777 49.8454 18.1074 49.9539 18.2948C48.4062 18.0854 46.8492 17.999 45.2828 18.0353Z" fill="#DABBE7"/>
<path fill-rule="evenodd" clip-rule="evenodd" d="M194.496 18.2948C196.003 18.0379 197.56 17.9515 199.167 18.0353C199.087 18.7839 199.174 19.476 199.426 20.1113C199.426 20.1977 199.426 20.2844 199.426 20.3708C199.253 20.3708 199.08 20.3708 198.907 20.3708C198.977 19.6912 198.89 19.0424 198.648 18.4245C197.266 18.2951 195.882 18.2517 194.496 18.2948Z" fill="#F6E6FC"/>
<path fill-rule="evenodd" clip-rule="evenodd" d="M206.692 18.0353C205.126 17.999 203.569 18.0854 202.021 18.2948C202.13 18.1074 202.302 17.9777 202.54 17.9055C203.972 17.6935 205.356 17.7366 206.692 18.0353Z" fill="#CDA4DC"/>
<path fill-rule="evenodd" clip-rule="evenodd" d="M206.692 18.0353C208.171 18.1505 209.382 18.7562 210.325 19.8518C209.947 19.8692 209.601 19.7828 209.287 19.5923C209.17 19.3437 208.997 19.1273 208.768 18.9435C207.49 18.615 206.192 18.3988 204.876 18.2948C203.864 18.8701 202.739 19.1729 201.502 19.203C201.051 19.5967 200.618 19.986 200.205 20.3708C200.032 20.3708 199.859 20.3708 199.686 20.3708C200.478 19.6637 201.256 18.9716 202.021 18.2948C203.569 18.0854 205.126 17.999 206.692 18.0353Z" fill="#B97AD7"/>
<path fill-rule="evenodd" clip-rule="evenodd" d="M29.4533 19.5923C29.4377 19.7332 29.3513 19.8196 29.1938 19.8518C28.9893 19.5222 28.7298 19.2627 28.4153 19.0733C28.4153 18.9002 28.3289 18.8138 28.1558 18.8138C27.2538 18.5172 26.3025 18.4738 25.3013 18.684C25.0851 18.9002 24.8687 19.1166 24.6526 19.3328C24.5228 25.5603 24.4795 31.7883 24.5228 38.0168C24.1779 31.6583 24.1779 25.2572 24.5228 18.8138C24.7325 18.7339 24.9056 18.6041 25.0418 18.4245C26.2529 18.2515 27.4637 18.2515 28.6748 18.4245C28.9081 18.8532 29.1676 19.2425 29.4533 19.5923Z" fill="#CCB0DD"/>
<path fill-rule="evenodd" clip-rule="evenodd" d="M101.594 20.1113C101.594 20.3708 101.594 20.6303 101.594 20.8898C101.044 20.1217 100.438 19.3865 99.778 18.684C98.57 18.5545 97.3592 18.5112 96.145 18.5543C96.3912 19.1348 96.5643 19.7405 96.664 20.3708C96.1688 20.1149 95.9093 19.6826 95.8855 19.0733C95.8855 18.8138 95.8855 18.5543 95.8855 18.2948C97.4448 18.2517 99.0018 18.295 100.556 18.4245C100.928 18.9884 101.274 19.5508 101.594 20.1113Z" fill="#C092D6"/>
<path fill-rule="evenodd" clip-rule="evenodd" d="M101.594 20.1113C101.274 19.5508 100.928 18.9884 100.556 18.4245C99.0018 18.295 97.4448 18.2517 95.8854 18.2948C95.8854 18.5543 95.8854 18.8138 95.8854 19.0733C95.6431 18.7961 95.5564 18.4502 95.6259 18.0353C97.3581 17.9922 99.0882 18.0353 100.816 18.165C101.162 18.3381 101.508 18.511 101.854 18.684C101.619 19.1249 101.532 19.6009 101.594 20.1113Z" fill="#FAE9FE"/>
<path fill-rule="evenodd" clip-rule="evenodd" d="M116.386 20.3708C116.711 18.7497 116.062 18.1443 114.44 18.5543C113.877 18.5976 113.315 18.6407 112.753 18.684C112.433 19.3694 112.001 19.9315 111.455 20.3708C111.701 18.6119 112.696 17.9201 114.44 18.2948C116.455 17.8422 117.104 18.5343 116.386 20.3708Z" fill="#C599DB"/>
<path fill-rule="evenodd" clip-rule="evenodd" d="M222.781 18.0353C222.345 18.4266 221.826 18.6861 221.224 18.8138C221.557 18.2652 222.076 18.0057 222.781 18.0353Z" fill="#D1AADD"/>
<path fill-rule="evenodd" clip-rule="evenodd" d="M183.078 12.0668C183.336 12.0445 183.552 12.1311 183.726 12.3263C187.442 16.8512 188.696 21.9548 187.489 27.6368C187.588 25.2837 187.458 22.9482 187.1 20.6303C187.013 20.8034 186.927 20.9762 186.84 21.1493C186.776 20.8576 186.646 20.5981 186.451 20.3708C186.278 22.4875 186.105 24.5635 185.932 26.5988C186.016 24.6476 185.93 22.7447 185.673 20.8898C185.202 17.653 183.731 14.9716 181.261 12.8453C182.206 13.3383 182.812 13.0788 183.078 12.0668Z" fill="#E7C4F9"/>
<path fill-rule="evenodd" clip-rule="evenodd" d="M202.021 18.2948C201.256 18.9716 200.478 19.6637 199.686 20.3708C199.599 20.3708 199.513 20.3708 199.426 20.3708C199.426 20.2844 199.426 20.1977 199.426 20.1113C200.146 19.3055 201.011 18.7001 202.021 18.2948Z" fill="#BF96D3"/>
<path fill-rule="evenodd" clip-rule="evenodd" d="M227.971 18.0353C228.961 18.4009 229.913 18.8335 230.826 19.3328C230.826 19.4192 230.826 19.5059 230.826 19.5923C229.97 19.2521 229.105 18.9059 228.231 18.5543C228.144 18.3812 228.058 18.2084 227.971 18.0353Z" fill="#B78DD0"/>
<path fill-rule="evenodd" clip-rule="evenodd" d="M73.3089 18.8138C73.3089 18.7274 73.3089 18.6407 73.3089 18.5543C74.5932 18.6262 75.5448 19.2316 76.1634 20.3708C75.5442 20.1443 75.0252 19.755 74.6064 19.203C74.2107 18.9412 73.7781 18.8115 73.3089 18.8138Z" fill="#F0DEF7"/>
<path fill-rule="evenodd" clip-rule="evenodd" d="M134.292 19.8518C132.74 19.0995 131.097 18.6236 129.361 18.4245C127.262 18.2699 125.186 18.3996 123.133 18.8138C126.074 17.5661 129.101 17.4364 132.216 18.4245C132.97 18.8421 133.662 19.3177 134.292 19.8518Z" fill="#C08ED7"/>
<path fill-rule="evenodd" clip-rule="evenodd" d="M73.3089 18.5543C73.3089 18.6407 73.3089 18.7274 73.3089 18.8138C71.3432 18.2854 69.3536 18.199 67.3404 18.5543C67.254 18.7274 67.1673 18.9002 67.0809 19.0733C65.7805 19.1117 64.6559 19.5443 63.7074 20.3708C63.9539 19.6922 64.3865 19.1732 65.0049 18.8138C67.7655 17.5941 70.5335 17.5075 73.3089 18.5543Z" fill="#BB81D7"/>
<path fill-rule="evenodd" clip-rule="evenodd" d="M37.4978 18.5543C38.062 18.6192 38.4946 18.8787 38.7953 19.3328C37.8788 19.3821 37.0139 19.209 36.2003 18.8138C34.92 18.4484 33.6225 18.4918 32.3078 18.9435C33.4683 19.3164 34.6794 19.4462 35.9408 19.3328C35.9408 19.5923 35.9408 19.8518 35.9408 20.1113C34.5953 20.104 33.2114 20.0174 31.7888 19.8518C31.7888 19.5923 31.7888 19.3328 31.7888 19.0733C30.7295 19.6574 29.6051 20.0898 28.4153 20.3708C28.4153 19.9382 28.4153 19.5059 28.4153 19.0733C28.7298 19.2627 28.9893 19.5222 29.1938 19.8518C29.3513 19.8196 29.4377 19.7332 29.4533 19.5923C29.8164 19.2316 30.2489 18.9721 30.7508 18.8138C32.9561 18.2304 35.2051 18.1438 37.4978 18.5543Z" fill="#B772D7"/>
<path fill-rule="evenodd" clip-rule="evenodd" d="M93.2905 18.0353C93.5219 19.3167 93.6086 20.6142 93.55 21.9278C92.3389 21.9278 91.128 21.9278 89.9169 21.9278C90.4637 21.6766 91.0694 21.5899 91.7335 21.6683C91.7335 21.2357 91.7335 20.8034 91.7335 20.3708C90.9363 20.4531 90.1578 20.3666 89.3979 20.1113C90.069 19.857 90.7611 19.7706 91.474 19.8518C91.474 19.5059 91.474 19.1597 91.474 18.8138C91.8199 18.8138 92.166 18.8138 92.512 18.8138C92.512 19.7654 92.512 20.7167 92.512 21.6683C92.7715 21.6683 93.031 21.6683 93.2905 21.6683C93.299 20.5345 93.2126 19.4101 93.031 18.2948C92.4193 18.2525 91.8139 18.2956 91.2145 18.4245C90.418 18.9485 89.5531 19.3377 88.6194 19.5923C88.8789 19.2464 89.1384 18.9002 89.3979 18.5543C89.4867 18.3368 89.6595 18.2502 89.9169 18.2948C91.0245 18.0682 92.1492 17.9818 93.2905 18.0353Z" fill="#BB6FD9"/>
<path fill-rule="evenodd" clip-rule="evenodd" d="M93.8094 22.1873C93.8525 20.8869 93.8092 19.5894 93.6797 18.2948C93.5803 18.1505 93.4506 18.0641 93.2904 18.0353C92.1492 17.9818 91.0245 18.0682 89.9169 18.2948C89.9457 18.1347 90.0321 18.0049 90.1764 17.9055C91.3875 17.7325 92.5984 17.7325 93.8094 17.9055C94.1533 19.3585 94.1533 20.7857 93.8094 22.1873Z" fill="#DBBDEC"/>
<path fill-rule="evenodd" clip-rule="evenodd" d="M230.826 19.5923C230.826 19.5059 230.826 19.4192 230.826 19.3328C231.431 19.4192 231.777 19.7654 231.864 20.3708C231.604 20.3708 231.345 20.3708 231.085 20.3708C231.147 20.0358 231.06 19.7763 230.826 19.5923Z" fill="#D9C6E7"/>
<path fill-rule="evenodd" clip-rule="evenodd" d="M45.2828 18.0353C46.8492 17.999 48.4062 18.0854 49.9539 18.2948C50.4479 18.3566 50.7941 18.6161 50.9919 19.0733C49.2361 18.4142 47.4196 18.1977 45.5423 18.4245C45.1261 19.2923 44.6071 19.4221 43.9853 18.8138C43.0322 19.508 42.0809 20.2 41.1308 20.8898C40.8101 21.0834 40.4639 21.1698 40.0928 21.1493C40.0928 20.9762 40.0928 20.8034 40.0928 20.6303C40.8994 20.3539 41.5912 19.8783 42.1688 19.203C43.1339 18.5896 44.1719 18.2003 45.2828 18.0353Z" fill="#BB82D6"/>
<path fill-rule="evenodd" clip-rule="evenodd" d="M221.224 18.8138C220.815 18.9806 220.469 19.2401 220.186 19.5923C219.741 19.988 219.222 20.2475 218.629 20.3708C219.304 19.5204 220.169 19.0014 221.224 18.8138Z" fill="#C493DA"/>
<path fill-rule="evenodd" clip-rule="evenodd" d="M38.7953 19.3328C39.3802 19.4947 39.8128 19.8406 40.0928 20.3708C39.3488 20.4048 38.9165 20.0586 38.7953 19.3328Z" fill="#B987CA"/>
<path fill-rule="evenodd" clip-rule="evenodd" d="M89.9169 21.9278C89.1826 21.9781 88.4907 22.1512 87.8409 22.4468C87.2275 23.464 86.8382 24.5887 86.6732 25.8203C86.5434 29.7984 86.5001 33.7774 86.5434 37.7573C86.3122 37.9156 86.0527 38.002 85.7649 38.0168C84.7433 38.0929 83.7486 38.0064 82.7807 37.7573C82.6509 31.5298 82.6076 25.3018 82.6509 19.0733C82.7373 18.8138 82.9104 18.6407 83.1699 18.5543C84.2943 18.5543 85.419 18.5543 86.5434 18.5543C86.4651 19.2183 86.5517 19.824 86.8029 20.3708C86.8894 20.3708 86.976 20.3708 87.0624 20.3708C87.5814 20.1113 88.1004 19.8518 88.6194 19.5923C89.5531 19.3377 90.418 18.9485 91.2144 18.4245C91.8139 18.2956 92.4193 18.2525 93.031 18.2948C93.2126 19.4101 93.299 20.5345 93.2905 21.6683C93.031 21.6683 92.7715 21.6683 92.5119 21.6683C92.5119 20.7167 92.5119 19.7654 92.5119 18.8138C92.166 18.8138 91.8199 18.8138 91.4739 18.8138C91.4739 19.1597 91.4739 19.5059 91.4739 19.8518C90.7611 19.7706 90.069 19.857 89.3979 20.1113C90.1578 20.3666 90.9363 20.4531 91.7334 20.3708C91.7334 20.8034 91.7334 21.2357 91.7334 21.6683C91.0694 21.5899 90.4637 21.6766 89.9169 21.9278Z" fill="#BB6DDD"/>
<path fill-rule="evenodd" clip-rule="evenodd" d="M89.3979 18.5543C89.1384 18.9002 88.8789 19.2464 88.6194 19.5923C88.1004 19.8518 87.5814 20.1113 87.0624 20.3708C87.1489 20.1977 87.2355 20.0249 87.3219 19.8518C88.0184 19.4125 88.7105 18.9799 89.3979 18.5543Z" fill="#AE85C7"/>
<path fill-rule="evenodd" clip-rule="evenodd" d="M36.2003 18.8138C36.2112 19.2409 36.2112 19.6733 36.2003 20.1113C34.5984 20.8275 32.9548 21.3465 31.2698 21.6683C30.5827 22.2703 29.9772 22.9622 29.4533 23.7443C28.6852 24.0918 28.2529 24.6972 28.1558 25.5608C28.442 29.5358 28.4851 33.515 28.2856 37.4978C27.3031 37.8339 26.3082 37.8339 25.3013 37.4978C26.1327 37.3151 26.9546 37.1423 27.7666 36.9788C27.9396 33.6053 27.9396 30.2318 27.7666 26.8583C27.6801 28.2422 27.5935 29.6264 27.5071 31.0103C27.2416 29.3134 27.1985 27.6267 27.3773 25.9501C26.3175 21.9929 26.1444 22.0793 26.8583 26.2096C26.5287 29.7689 26.5287 33.3585 26.8583 36.9788C26.5988 36.9788 26.3393 36.9788 26.0798 36.9788C26.1662 32.8232 26.0795 28.6712 25.8203 24.5228C25.6176 24.2039 25.4879 23.858 25.4311 23.4848C25.3446 26.5988 25.258 29.7128 25.1716 32.8268C25.0418 28.6756 24.9985 24.5236 25.0418 20.3708C24.9582 19.7942 25.1313 19.3183 25.5608 18.9435C26.4216 18.8143 27.2865 18.771 28.1558 18.8138C28.3289 18.8138 28.4153 18.9002 28.4153 19.0733C28.4153 19.5059 28.4153 19.9382 28.4153 20.3708C29.6051 20.0898 30.7295 19.6574 31.7888 19.0733C31.7888 19.3328 31.7888 19.5923 31.7888 19.8518C33.2114 20.0173 34.5953 20.104 35.9408 20.1113C35.9408 19.8518 35.9408 19.5923 35.9408 19.3328C34.6794 19.4462 33.4683 19.3164 32.3078 18.9435C33.6225 18.4917 34.92 18.4484 36.2003 18.8138Z" fill="#BC6BDE"/>
<path fill-rule="evenodd" clip-rule="evenodd" d="M209.287 19.5923C209.212 19.8905 208.995 20.0635 208.638 20.1113C208.074 20.0246 207.598 19.7651 207.211 19.3328C207.028 20.0194 207.028 20.7546 207.211 21.5385C207.038 21.5819 206.865 21.625 206.692 21.6683C205.567 21.3203 204.442 20.9744 203.319 20.6303C203.638 20.4276 203.983 20.2979 204.357 20.241C203.477 20.1772 202.612 20.0475 201.762 19.8518C201.47 20.2525 201.557 20.5984 202.021 20.8898C201.267 21.2417 200.661 21.0688 200.205 20.3708C200.618 19.986 201.051 19.5967 201.502 19.203C202.739 19.1729 203.864 18.8701 204.876 18.2948C206.192 18.3988 207.49 18.615 208.768 18.9435C208.997 19.1273 209.17 19.3437 209.287 19.5923Z" fill="#BE6CDF"/>
<path fill-rule="evenodd" clip-rule="evenodd" d="M73.3089 18.8138C73.7781 18.8115 74.2107 18.9412 74.6064 19.203C75.0252 19.755 75.5442 20.1442 76.1634 20.3708C76.7286 20.9827 77.1612 21.6748 77.4609 22.4468C77.7009 23.2019 78.0471 23.8938 78.4989 24.5228C78.672 24.5228 78.7584 24.6092 78.7584 24.7823C78.8879 26.5962 78.9743 28.4127 79.0179 30.2318C78.8147 31.7922 78.2957 33.2628 77.4609 34.6433C76.8345 35.0095 76.4019 35.5285 76.1634 36.2003C75.2767 36.9152 74.3254 37.5207 73.3089 38.0168C72.0039 38.3768 70.6633 38.5498 69.2866 38.5358C67.9938 38.56 66.7396 38.3869 65.5239 38.0168C64.8238 37.9273 64.3048 37.5814 63.9669 36.9788C64.2765 36.8569 64.4496 36.5974 64.4859 36.2003C64.6465 35.0341 64.4737 33.9097 63.9669 32.8268C64.5905 33.6227 65.369 34.2281 66.3024 34.6433C66.4109 34.8307 66.5837 34.9604 66.8214 35.0326C68.5092 35.2739 70.1529 35.1011 71.7519 34.5136C72.4814 34.1285 73.0004 33.5661 73.3089 32.8268C73.8995 32.3517 74.3752 31.7463 74.7362 31.0103C75.0543 28.6556 74.8381 26.3632 74.0874 24.1335C74.2605 23.874 74.4333 23.6145 74.6064 23.355C74.52 23.2253 74.4333 23.0955 74.3469 22.9658C74.0791 23.3654 73.7332 23.4952 73.3089 23.355C72.9744 22.8874 72.5418 22.5846 72.0114 22.4468C71.8938 22.1982 71.721 21.9818 71.4924 21.798C69.7771 21.4241 68.0473 21.3377 66.3024 21.5385C66.0738 21.7223 65.9009 21.9387 65.7834 22.1873C65.3425 22.2288 64.9099 22.1857 64.4859 22.0575C64.318 21.64 64.1018 21.2508 63.8371 20.8898C63.5649 21.1537 63.2621 21.197 62.9289 21.0195C63.2138 20.8197 63.2138 20.6036 62.9289 20.3708C63.1884 20.3708 63.4479 20.3708 63.7074 20.3708C64.6559 19.5443 65.7805 19.1117 67.0809 19.0733C67.1673 18.9002 67.254 18.7274 67.3404 18.5543C69.3536 18.199 71.3432 18.2854 73.3089 18.8138Z" fill="#BC6DDB"/>
<path fill-rule="evenodd" clip-rule="evenodd" d="M134.292 19.8518C134.378 19.8518 134.465 19.8518 134.551 19.8518C134.691 20.2714 134.777 20.704 134.811 21.1493C135.146 21.0878 135.405 21.1742 135.589 21.4088C135.133 21.6818 134.96 22.1144 135.07 22.7063C135.343 22.6676 135.603 22.7107 135.849 22.836C136.035 23.3517 136.294 23.8276 136.627 24.2633C136.413 24.4932 136.153 24.5796 135.849 24.5228C136.001 25.4684 136.173 26.3336 136.368 27.1178C136.281 27.3773 136.108 27.5504 135.849 27.6368C135.561 26.5168 135.302 25.3924 135.07 24.2633C134.538 23.9615 134.019 24.0048 133.513 24.3931C133.783 24.8908 134.086 25.3664 134.421 25.8203C134.519 28.1571 134.475 30.4926 134.292 32.8268C134.596 32.8837 134.856 32.7972 135.07 32.5673C134.897 32.1347 134.724 31.7024 134.551 31.2698C135.153 30.5188 135.456 29.6539 135.459 28.6748C135.859 29.8535 136.378 30.9781 137.016 32.0483C137.467 31.6427 137.856 31.2101 138.184 30.7508C138.029 31.6495 137.769 32.5144 137.406 33.3458C136.901 33.9185 136.338 34.4375 135.719 34.9028C135.593 35.1488 135.55 35.4083 135.589 35.6813C135.316 35.6427 135.057 35.6857 134.811 35.8111C134.186 36.2956 133.667 36.8579 133.254 37.4978C133.167 37.4978 133.08 37.4978 132.994 37.4978C131.786 37.3665 130.661 37.5827 129.621 38.1466C128.066 38.2761 126.509 38.3194 124.95 38.2763C124.534 37.8679 124.015 37.6948 123.393 37.7573C122.553 37.4374 121.775 37.005 121.057 36.4598C120.624 35.8544 120.105 35.3354 119.5 34.9028C119.215 34.6161 119.041 34.2702 118.981 33.8648C119.113 33.1704 119.156 32.4783 119.111 31.7888C118.813 32.0374 118.554 31.951 118.332 31.5293C117.706 29.9432 117.533 28.2996 117.813 26.5988C117.921 26.134 118.18 25.7881 118.592 25.5608C118.391 24.4657 118.607 23.4277 119.241 22.4468C119.591 22.711 119.851 23.0569 120.019 23.4848C120.105 23.3117 120.192 23.1389 120.279 22.9658C120.108 22.459 120.022 21.94 120.019 21.4088C121.067 22.2275 121.846 22.0114 122.355 20.76C122.268 20.6303 122.181 20.5005 122.095 20.3708C121.836 20.5439 121.576 20.7167 121.317 20.8898C121.052 20.7595 121.008 20.5867 121.187 20.3708C122.04 20.077 122.689 19.558 123.133 18.8138C125.186 18.3996 127.262 18.2699 129.361 18.4245C131.097 18.6236 132.741 19.0995 134.292 19.8518Z" fill="#BB6DDD"/>
<path fill-rule="evenodd" clip-rule="evenodd" d="M222.781 20.8898C224.082 20.8467 225.379 20.8901 226.674 21.0195C227.146 21.0714 227.492 21.2879 227.712 21.6683C226.1 21.0834 224.456 20.997 222.781 21.4088C222.781 21.2357 222.781 21.0629 222.781 20.8898Z" fill="#AB7CC0"/>
<path fill-rule="evenodd" clip-rule="evenodd" d="M50.9919 19.0733C51.617 19.385 52.136 19.8173 52.5489 20.3708C53.0116 21.7176 53.4008 23.1018 53.7166 24.5228C53.8897 28.7612 53.8897 32.9999 53.7166 37.2383C52.6324 37.7311 51.4647 37.904 50.2134 37.7573C49.9546 33.3912 49.8682 28.9797 49.9539 24.5228C50.0566 23.749 49.8835 23.0569 49.4349 22.4468C47.6324 21.518 45.7295 21.2152 43.7259 21.5385C42.6531 22.302 41.961 23.2967 41.6498 24.5228C41.3914 28.6294 41.3047 32.7814 41.3903 36.9788C41.1913 37.1532 41.0182 37.3694 40.8713 37.6276C39.837 37.7571 38.799 37.8004 37.7573 37.7573C37.6712 34.7248 37.7576 31.6975 38.0168 28.6748C38.1757 31.1071 38.3918 33.529 38.6656 35.9408C38.9661 34.2201 39.1825 32.49 39.3143 30.7508C39.2778 29.8895 39.1049 29.0677 38.7953 28.2856C39.216 26.6577 39.4755 25.0576 39.5738 23.4848C39.5606 23.0696 39.4742 22.6804 39.3143 22.3171C39.6468 21.9514 39.9063 21.5622 40.0928 21.1493C40.4639 21.1698 40.8101 21.0834 41.1308 20.8898C42.0809 20.2 43.0322 19.508 43.9854 18.8138C44.6071 19.4221 45.1261 19.2923 45.5424 18.4245C47.4196 18.1977 49.2361 18.4142 50.9919 19.0733Z" fill="#BC6CDD"/>
<path fill-rule="evenodd" clip-rule="evenodd" d="M134.551 19.8518C135.427 20.4678 136.119 21.2463 136.627 22.1873C136.281 21.9278 135.935 21.6683 135.589 21.4088C135.405 21.1742 135.146 21.0878 134.811 21.1493C134.777 20.704 134.691 20.2714 134.551 19.8518Z" fill="#B485CD"/>
<path fill-rule="evenodd" clip-rule="evenodd" d="M62.6694 17.7758C62.5882 18.6949 62.6748 19.5599 62.9289 20.3708C63.2138 20.6036 63.2138 20.8197 62.9289 21.0195C63.2621 21.197 63.5649 21.1537 63.8371 20.8898C64.1018 21.2508 64.318 21.64 64.4859 22.0575C64.9099 22.1857 65.3425 22.2288 65.7834 22.1873C65.5239 22.3604 65.2644 22.5332 65.0049 22.7063C64.5144 22.6536 64.1252 22.8264 63.8371 23.2253C63.3433 23.729 63.1271 24.3344 63.1884 25.0418C62.8692 25.5081 62.6964 26.0271 62.6694 26.5988C62.4146 27.4972 62.3281 28.4488 62.4099 29.4533C62.0689 28.1953 62.0689 26.8978 62.4099 25.5608C62.7646 24.4852 63.1969 23.4472 63.7074 22.4468C63.0402 22.1281 62.694 21.6091 62.6694 20.8898C62.2858 20.8218 61.9399 20.9082 61.6314 21.1493C61.8997 21.8128 61.6402 22.159 60.8529 22.1873C60.9909 23.5865 60.9909 24.9707 60.8529 26.3393C60.8378 27.0112 61.0107 27.6168 61.3719 28.1558C60.7431 29.7375 60.7431 31.3378 61.3719 32.9566C61.0566 33.5005 60.8402 33.4571 60.7231 32.8268C60.507 28.1535 60.5503 23.4825 60.8529 18.8138C61.0947 19.5074 61.1378 20.1993 60.9826 20.8898C61.3737 20.629 61.6763 20.2831 61.8909 19.8518C62.0429 19.906 62.1727 19.9927 62.2801 20.1113C62.4532 19.5923 62.4532 19.0733 62.2801 18.5543C62.0494 18.9145 61.9197 18.8714 61.8909 18.4245C62.0544 18.0846 62.3139 17.8682 62.6694 17.7758Z" fill="#B86FD6"/>
<path fill-rule="evenodd" clip-rule="evenodd" d="M72.0114 22.4468C71.3336 22.2208 70.6415 22.0479 69.9354 21.9278C68.5593 21.5723 67.1751 21.6587 65.7834 22.1873C65.9009 21.9387 66.0738 21.7223 66.3024 21.5385C68.0473 21.3377 69.7771 21.4241 71.4924 21.7981C71.721 21.9818 71.8938 22.1982 72.0114 22.4468Z" fill="#AE74C8"/>
<path fill-rule="evenodd" clip-rule="evenodd" d="M227.712 21.6683C228.024 22.2221 228.5 22.5682 229.139 22.7063C229.937 23.7783 230.24 24.9894 230.047 26.3393C226.847 26.3393 223.646 26.3393 220.446 26.3393C220.411 25.5426 220.498 24.7641 220.705 24.0038C221.03 22.8316 221.722 21.9667 222.781 21.4088C224.456 20.997 226.1 21.0834 227.712 21.6683Z" fill="#FCFBFD"/>
<path fill-rule="evenodd" clip-rule="evenodd" d="M69.9354 21.9278C69.0661 21.885 68.2012 21.9283 67.3404 22.0575C66.6107 22.4595 65.8322 22.6757 65.0049 22.7063C65.2644 22.5332 65.5239 22.3604 65.7834 22.1873C67.1751 21.6587 68.5593 21.5723 69.9354 21.9278Z" fill="#E7CDF2"/>
<path fill-rule="evenodd" clip-rule="evenodd" d="M96.664 20.8898C97.1417 21.4994 97.4876 22.1912 97.702 22.9658C97.702 23.1389 97.702 23.3117 97.702 23.4848C97.0753 22.7478 96.7293 21.8829 96.664 20.8898Z" fill="#EFD9F6"/>
<path fill-rule="evenodd" clip-rule="evenodd" d="M8.17427 14.6618C8.26068 14.6618 8.34736 14.6618 8.43377 14.6618C8.43377 17.0837 8.43377 19.5059 8.43377 21.9278C11.9814 21.8845 15.5277 21.9278 19.0733 22.0575C19.2176 22.1569 19.304 22.2867 19.3328 22.4468C15.6258 22.1961 11.9064 22.1094 8.17427 22.1873C8.17427 19.6787 8.17427 17.1704 8.17427 14.6618Z" fill="#F2E0FB"/>
<path fill-rule="evenodd" clip-rule="evenodd" d="M69.9354 21.9278C70.6415 22.0479 71.3336 22.2208 72.0114 22.4468C74.9474 25.5733 75.38 29.0332 73.3089 32.8268C72.7357 33.2976 72.13 33.7735 71.4924 34.2541C69.8005 34.9275 68.0704 35.0572 66.3024 34.6433C65.369 34.2281 64.5905 33.6227 63.9669 32.8268C63.7938 32.8268 63.621 32.8268 63.4479 32.8268C63.4637 31.9058 63.2473 31.0409 62.7991 30.2318C62.6696 29.0238 62.6263 27.813 62.6694 26.5988C62.6964 26.0271 62.8692 25.5081 63.1884 25.0418C63.6947 24.1891 64.3003 23.4106 65.0049 22.7063C65.8322 22.6757 66.6107 22.4595 67.3404 22.0575C68.2012 21.9283 69.0661 21.885 69.9354 21.9278Z" fill="#FDFCFD"/>
<path fill-rule="evenodd" clip-rule="evenodd" d="M116.386 20.3708C115.806 21.4464 115.287 22.5708 114.829 23.7443C114.494 23.8891 114.278 24.1486 114.18 24.5228C113.75 25.968 113.274 27.3519 112.753 28.6748C112.426 29.6168 112.08 30.5684 111.715 31.5293C111.557 31.7605 111.47 32.02 111.455 32.3078C111.098 32.579 110.838 32.9249 110.677 33.3458C110.444 33.0609 110.228 33.0609 110.028 33.3458C109.977 34.9978 109.631 35.1709 108.99 33.8648C108.841 33.3777 108.884 32.9018 109.12 32.4376C108.684 31.8604 108.424 31.2117 108.341 30.4913C108.703 29.9344 108.876 29.329 108.86 28.6748C109.493 26.7882 110.099 24.8851 110.677 22.9658C110.65 21.9906 110.909 21.1254 111.455 20.3708C112.001 19.9315 112.433 19.3694 112.753 18.684C113.315 18.6407 113.877 18.5976 114.44 18.5543C116.062 18.1443 116.711 18.7497 116.386 20.3708Z" fill="#BA6DDB"/>
<path fill-rule="evenodd" clip-rule="evenodd" d="M129.361 21.6683C131.212 22.1341 132.51 23.2585 133.254 25.0418C133.703 26.5588 133.876 28.1158 133.773 29.7128C133.773 29.8859 133.773 30.0587 133.773 30.2318C133.583 31.0306 133.28 31.8091 132.864 32.5673C132.26 32.8694 131.784 33.3017 131.437 33.8648C131.028 34.0317 130.682 34.2912 130.399 34.6433C129.111 34.839 127.814 34.9254 126.507 34.9028C124.668 34.1648 123.284 32.9537 122.355 31.2698C122.139 29.5491 122.052 27.819 122.095 26.0798C122.313 25.1305 122.659 24.2654 123.133 23.4848C123.752 23.2583 124.271 22.869 124.69 22.317C126.201 21.7825 127.758 21.5663 129.361 21.6683Z" fill="#FDFBFD"/>
<path fill-rule="evenodd" clip-rule="evenodd" d="M210.844 20.3708C211.443 21.3011 211.788 22.3391 211.882 23.4848C211.168 22.5874 210.822 21.5494 210.844 20.3708Z" fill="#BB8AD8"/>
<path fill-rule="evenodd" clip-rule="evenodd" d="M93.8094 22.1873C92.3812 22.4118 90.9106 22.5849 89.3979 22.7063C89.5064 22.5189 89.6792 22.3892 89.9169 22.317C91.2116 22.1876 92.5091 22.1442 93.8094 22.1873Z" fill="#E7D2F0"/>
<path fill-rule="evenodd" clip-rule="evenodd" d="M129.361 21.6683C127.758 21.5663 126.201 21.7825 124.69 22.317C124.271 22.869 123.752 23.2582 123.133 23.4848C123.644 22.4175 124.509 21.7687 125.728 21.5385C126.987 21.327 128.198 21.3704 129.361 21.6683Z" fill="#AF77C9"/>
<path fill-rule="evenodd" clip-rule="evenodd" d="M31.2698 21.6683C32.3602 21.586 33.3982 21.6727 34.3838 21.9278C33.5145 21.885 32.6496 21.9283 31.7888 22.0576C30.885 22.5734 30.1065 23.2222 29.4533 24.0038C29.4533 23.9174 29.4533 23.8307 29.4533 23.7443C29.9772 22.9622 30.5827 22.2703 31.2698 21.6683Z" fill="#C59AD8"/>
<path fill-rule="evenodd" clip-rule="evenodd" d="M194.496 18.5543C194.41 25 194.496 31.4011 194.755 37.7573C194.755 37.8437 194.755 37.9304 194.755 38.0168C194.41 34.8644 194.236 31.6207 194.236 28.2856C194.236 24.9974 194.323 21.7537 194.496 18.5543Z" fill="#FDEAFF"/>
<path fill-rule="evenodd" clip-rule="evenodd" d="M49.9539 24.5228C49.8674 24.5228 49.7808 24.5228 49.6944 24.5228C48.6208 22.2135 46.8043 21.3483 44.2448 21.9278C43.19 22.3775 42.4979 23.156 42.1688 24.2633C42.0801 24.4808 41.9073 24.5674 41.6498 24.5228C41.961 23.2967 42.6531 22.302 43.7258 21.5385C45.7294 21.2152 47.6324 21.518 49.4349 22.4468C49.8835 23.0569 50.0566 23.749 49.9539 24.5228Z" fill="#B981D1"/>
<path fill-rule="evenodd" clip-rule="evenodd" d="M44.2448 21.9278C43.5455 22.713 42.8534 23.4915 42.1688 24.2633C42.4979 23.156 43.19 22.3775 44.2448 21.9278Z" fill="#F5DCF8"/>
<path fill-rule="evenodd" clip-rule="evenodd" d="M198.907 20.3708C199.08 20.3708 199.253 20.3708 199.426 20.3708C199.513 20.3708 199.599 20.3708 199.686 20.3708C199.859 20.3708 200.032 20.3708 200.205 20.3708C200.661 21.0689 201.267 21.2417 202.021 20.8898C201.557 20.5984 201.471 20.2525 201.762 19.8518C202.612 20.0475 203.477 20.1772 204.357 20.241C203.984 20.2979 203.638 20.4276 203.319 20.6303C204.442 20.9744 205.567 21.3203 206.692 21.6683C206.865 21.625 207.038 21.5819 207.211 21.5385C207.028 20.7546 207.028 20.0194 207.211 19.3328C207.598 19.7651 208.074 20.0246 208.638 20.1113C208.996 20.0635 209.212 19.8905 209.287 19.5923C209.601 19.7828 209.947 19.8692 210.325 19.8518C210.325 20.1977 210.498 20.3708 210.844 20.3708C210.822 21.5494 211.168 22.5874 211.882 23.4848C212.125 23.7619 212.211 24.1079 212.142 24.5228C212.185 28.6756 212.142 32.8276 212.012 36.9788C211.879 37.2453 211.749 37.5048 211.623 37.7573C210.585 37.7573 209.547 37.7573 208.509 37.7573C208.304 33.527 208.174 29.2885 208.119 25.0418C207.689 24.1395 207.386 23.1882 207.211 22.1873C206.865 22.1873 206.519 22.1873 206.173 22.1873C205.388 21.5951 204.48 21.3356 203.448 21.4088C202.973 21.4521 202.497 21.4952 202.021 21.5385C201.549 21.5904 201.203 21.8069 200.983 22.1873C200.153 22.3285 199.547 22.7608 199.167 23.4848C198.973 22.5265 198.627 22.5265 198.129 23.4848C197.728 22.6772 197.901 22.0285 198.648 21.5385C197.752 20.9785 197.666 20.3298 198.388 19.5923C198.175 19.1742 197.829 19.0012 197.35 19.0733C197.581 23.6701 197.667 28.2547 197.61 32.8268C197.35 32.8268 197.091 32.8268 196.831 32.8268C196.773 28.6883 196.773 24.5363 196.831 20.3708C196.526 20.4276 196.267 20.3412 196.053 20.1113C197.062 18.9441 196.716 18.5117 195.015 18.8138C194.936 25.1368 195.022 31.4512 195.274 37.7573C196.139 37.7573 197.004 37.7573 197.869 37.7573C196.884 38.0124 195.846 38.0991 194.755 38.0168C194.755 37.9304 194.755 37.8437 194.755 37.7573C194.755 31.3562 194.755 24.9554 194.755 18.5543C195.797 18.5112 196.835 18.5546 197.869 18.684C198.107 18.7811 198.323 18.9108 198.518 19.0733C198.569 19.5617 198.699 19.994 198.907 20.3708Z" fill="#BB6DDB"/>
<path fill-rule="evenodd" clip-rule="evenodd" d="M206.173 22.1873C205.31 22.016 204.445 21.8432 203.578 21.6683C202.692 21.7602 201.828 21.9333 200.983 22.1873C201.203 21.8069 201.549 21.5905 202.021 21.5386C202.497 21.4952 202.973 21.4521 203.448 21.4088C204.48 21.3356 205.388 21.5951 206.173 22.1873Z" fill="#BE94D1"/>
<path fill-rule="evenodd" clip-rule="evenodd" d="M218.37 20.3708C217.887 21.3006 217.454 22.2519 217.072 23.2253C216.867 23.5131 216.737 23.859 216.683 24.2633C216.421 24.4805 216.118 24.5669 215.775 24.5228C216.378 22.9707 217.242 21.5866 218.37 20.3708Z" fill="#B783D2"/>
<path fill-rule="evenodd" clip-rule="evenodd" d="M227.712 21.6683C228.068 21.6276 228.414 21.6709 228.75 21.798C230.248 23.1376 230.68 24.7379 230.047 26.5988C230.047 26.5124 230.047 26.4257 230.047 26.3393C230.24 24.9894 229.937 23.7783 229.139 22.7063C228.5 22.5682 228.024 22.2221 227.712 21.6683Z" fill="#BE8DD3"/>
<path fill-rule="evenodd" clip-rule="evenodd" d="M3.50326 10.2503C8.99766 10.1644 14.4472 10.251 19.8518 10.5098C14.4023 10.5098 8.95277 10.5098 3.50326 10.5098C3.50326 19.3328 3.50326 28.1558 3.50326 36.9788C3.50326 37.3247 3.50326 37.6709 3.50326 38.0168C3.41676 38.0168 3.33025 38.0168 3.24376 38.0168C3.24376 28.8479 3.24376 19.6787 3.24376 10.5098C3.24376 10.3367 3.33025 10.2503 3.50326 10.2503Z" fill="#DBBAEE"/>
<path fill-rule="evenodd" clip-rule="evenodd" d="M35.9408 22.4468C36.9978 22.7289 37.4301 23.421 37.2383 24.5228C37.0652 24.3497 36.8924 24.1769 36.7193 24.0038C36.4598 23.4848 36.2003 22.9658 35.9408 22.4468Z" fill="#BA88D1"/>
<path fill-rule="evenodd" clip-rule="evenodd" d="M136.627 22.1873C137.269 22.4953 137.529 23.0143 137.406 23.7443C136.953 23.3465 136.693 22.8275 136.627 22.1873Z" fill="#B485CE"/>
<path fill-rule="evenodd" clip-rule="evenodd" d="M190.084 16.7378C190.671 17.6902 191.104 18.7282 191.382 19.8518C191.423 22.7982 191.336 25.7391 191.122 28.6748C190.862 29.6845 190.646 30.7225 190.473 31.7888C190.421 32.2611 190.205 32.607 189.825 32.8268C190.445 29.8195 190.878 26.7921 191.122 23.7443C190.925 21.3888 190.579 19.0533 190.084 16.7378Z" fill="#CF9BE8"/>
<path fill-rule="evenodd" clip-rule="evenodd" d="M232.902 22.1873C233.631 23.073 234.064 24.111 234.199 25.3013C234.494 26.7247 234.494 28.1088 234.199 29.4533C234.166 26.9538 233.734 24.5319 232.902 22.1873Z" fill="#B17ACD"/>
<path fill-rule="evenodd" clip-rule="evenodd" d="M65.0049 22.7063C64.3003 23.4106 63.6947 24.1891 63.1884 25.0418C63.1271 24.3344 63.3433 23.729 63.8371 23.2253C64.1252 22.8264 64.5144 22.6536 65.0049 22.7063Z" fill="#D2A5E2"/>
<path fill-rule="evenodd" clip-rule="evenodd" d="M77.4609 22.4468C78.1452 22.9611 78.4911 23.653 78.4989 24.5228C78.0471 23.8938 77.7009 23.2019 77.4609 22.4468Z" fill="#C097CD"/>
<path fill-rule="evenodd" clip-rule="evenodd" d="M58.7769 10.2503C60.0814 10.251 61.3789 10.3375 62.6694 10.5098C62.6694 12.9317 62.6694 15.3539 62.6694 17.7758C62.3139 17.8682 62.0544 18.0846 61.8909 18.4245C61.9197 18.8714 62.0494 18.9145 62.2801 18.5543C62.4532 19.0733 62.4532 19.5923 62.2801 20.1113C62.1727 19.9927 62.0429 19.906 61.8909 19.8518C61.6763 20.2831 61.3737 20.629 60.9826 20.8898C61.1378 20.1993 61.0947 19.5074 60.8529 18.8138C60.5503 23.4825 60.507 28.1535 60.7231 32.8268C60.8402 33.4571 61.0566 33.5005 61.3719 32.9566C60.7431 31.3378 60.7431 29.7375 61.3719 28.1558C61.0107 27.6168 60.8378 27.0112 60.8529 26.3393C60.9909 24.9707 60.9909 23.5865 60.8529 22.1873C61.6402 22.159 61.8997 21.8128 61.6314 21.1493C61.9399 20.9082 62.2858 20.8218 62.6694 20.8898C62.694 21.6091 63.0402 22.1281 63.7074 22.4468C63.1969 23.4472 62.7646 24.4852 62.4099 25.5608C62.0689 26.8977 62.0689 28.1953 62.4099 29.4533C62.3276 30.2505 62.414 31.029 62.6694 31.7888C63.022 32.0805 63.2815 32.4267 63.4479 32.8268C63.621 32.8268 63.7938 32.8268 63.9669 32.8268C64.4737 33.9097 64.6465 35.0341 64.4859 36.2003C64.4496 36.5974 64.2765 36.8569 63.9669 36.9788C63.8805 36.9788 63.7938 36.9788 63.7074 36.9788C63.5192 35.8503 63.0002 35.6772 62.1504 36.4598C61.9036 36.8281 61.8172 37.2604 61.8909 37.7573C60.9393 37.7573 59.988 37.7573 59.0364 37.7573C58.7821 28.5964 58.6954 19.4272 58.7769 10.2503Z" fill="#BC6CDE"/>
<path fill-rule="evenodd" clip-rule="evenodd" d="M110.677 22.9658C110.099 24.8851 109.493 26.7882 108.86 28.6748C108.774 28.6748 108.687 28.6748 108.601 28.6748C108.946 26.5962 109.638 24.6933 110.677 22.9658Z" fill="#C796DB"/>
<path fill-rule="evenodd" clip-rule="evenodd" d="M123.133 18.8138C122.689 19.558 122.04 20.077 121.187 20.3708C121.008 20.5867 121.052 20.7595 121.317 20.8898C121.576 20.7167 121.836 20.5439 122.095 20.3708C122.181 20.5005 122.268 20.6303 122.355 20.76C121.846 22.0114 121.067 22.2275 120.019 21.4088C120.022 21.94 120.108 22.459 120.279 22.9658C120.192 23.1389 120.105 23.3117 120.019 23.4848C119.851 23.0569 119.591 22.711 119.241 22.4468C118.607 23.4277 118.391 24.4657 118.592 25.5608C118.18 25.7881 117.921 26.134 117.813 26.5988C117.533 28.2996 117.706 29.9432 118.332 31.5293C118.554 31.951 118.813 32.0374 119.111 31.7888C119.156 32.4783 119.113 33.1704 118.981 33.8648C117.275 31.4655 116.712 28.7841 117.294 25.8203C118.175 22.5636 120.121 20.2281 123.133 18.8138Z" fill="#BD7ED8"/>
<path fill-rule="evenodd" clip-rule="evenodd" d="M135.589 21.4088C135.935 21.6683 136.281 21.9278 136.627 22.1873C136.693 22.8275 136.953 23.3465 137.406 23.7443C137.675 24.1154 137.848 24.548 137.925 25.0418C138.145 26.9359 138.232 28.8388 138.184 30.7508C137.856 31.2101 137.467 31.6427 137.016 32.0483C136.378 30.9781 135.859 29.8535 135.459 28.6748C135.456 29.6539 135.153 30.5188 134.551 31.2698C134.724 31.7024 134.897 32.1347 135.07 32.5673C134.856 32.7972 134.596 32.8836 134.292 32.8268C134.475 30.4926 134.519 28.1571 134.421 25.8203C134.086 25.3664 133.783 24.8908 133.513 24.3931C134.019 24.0048 134.538 23.9615 135.07 24.2633C135.302 25.3924 135.561 26.5168 135.849 27.6368C136.108 27.5504 136.281 27.3773 136.368 27.1178C136.173 26.3336 136.001 25.4684 135.849 24.5228C136.153 24.5796 136.413 24.4932 136.627 24.2633C136.294 23.8276 136.035 23.3517 135.849 22.836C135.603 22.7107 135.343 22.6676 135.07 22.7063C134.96 22.1144 135.133 21.6818 135.589 21.4088Z" fill="#BD6CDF"/>
<path fill-rule="evenodd" clip-rule="evenodd" d="M148.824 20.8898C148.764 23.4931 148.851 26.0881 149.083 28.6748C148.884 28.4768 148.754 28.2173 148.694 27.8963C148.48 25.5151 148.523 23.1796 148.824 20.8898Z" fill="#D0AAE6"/>
<path fill-rule="evenodd" clip-rule="evenodd" d="M185.673 20.8898C185.93 22.7447 186.016 24.6476 185.932 26.5988C185.854 27.3444 185.681 28.0362 185.413 28.6748C185.629 26.086 185.716 23.491 185.673 20.8898Z" fill="#B864D4"/>
<path fill-rule="evenodd" clip-rule="evenodd" d="M191.382 19.8518C191.554 21.0598 191.641 22.3139 191.641 23.6145C191.698 25.3651 191.525 27.0519 191.122 28.6748C191.336 25.7391 191.423 22.7982 191.382 19.8518Z" fill="#DDBFEF"/>
<path fill-rule="evenodd" clip-rule="evenodd" d="M227.971 18.0353C228.058 18.2084 228.144 18.3812 228.231 18.5543C226.68 18.2307 225.123 18.2307 223.56 18.5543C223.879 18.757 224.225 18.8867 224.598 18.9435C224.054 19.2944 223.449 19.4241 222.781 19.3328C222.729 19.8876 222.469 20.3202 222.003 20.6303C222.217 20.8602 222.476 20.9466 222.781 20.8898C222.781 21.0629 222.781 21.2357 222.781 21.4088C221.722 21.9667 221.03 22.8316 220.705 24.0038C220.457 24.1214 220.24 24.2942 220.056 24.5228C219.927 25.2094 219.884 25.9015 219.927 26.5988C218.698 26.6987 218.611 27.0449 219.667 27.6368C219.359 27.8779 219.013 27.9643 218.629 27.8963C218.338 28.4752 218.208 29.0807 218.24 29.7128C218.592 29.9412 218.981 30.0278 219.408 29.9723C219.408 30.1454 219.408 30.3182 219.408 30.4913C218.814 30.7093 218.728 31.0985 219.148 31.6591C218.93 31.9629 218.714 32.2658 218.499 32.5673C218.406 31.6072 218.103 30.7422 217.591 29.9723C217.248 30.0164 216.945 29.93 216.683 29.7128C216.666 28.5404 216.493 27.416 216.164 26.3393C215.804 27.6036 215.674 28.9011 215.775 30.2318C215.518 28.7241 215.431 27.1671 215.515 25.5608C215.446 25.1459 215.532 24.7999 215.775 24.5228C216.118 24.5669 216.421 24.4805 216.683 24.2633C216.737 23.859 216.867 23.5131 217.072 23.2253C217.13 25.0138 217.13 26.8303 217.072 28.6748C217.332 28.6748 217.591 28.6748 217.851 28.6748C217.833 27.2854 217.746 25.9015 217.591 24.5228C217.975 24.5908 218.321 24.5044 218.629 24.2633C217.31 23.7038 217.267 23.0981 218.499 22.4468C218.669 23.1521 218.885 23.8439 219.148 24.5228C219.073 24.9235 218.9 25.2694 218.629 25.5608C218.938 25.8019 219.284 25.8883 219.667 25.8203C219.625 25.123 219.668 24.4309 219.797 23.7443C220.656 23.3236 221.046 22.6316 220.965 21.6683C221.27 21.7251 221.529 21.6387 221.743 21.4088C221.512 21.1259 221.252 21.1259 220.965 21.4088C220.649 20.4502 220.995 19.8014 222.003 19.4625C221.384 19.3183 220.778 19.3613 220.186 19.5923C220.469 19.2401 220.815 18.9806 221.224 18.8138C221.826 18.6861 222.345 18.4266 222.781 18.0353C224.472 17.7278 226.202 17.7278 227.971 18.0353Z" fill="#B971D9"/>
<path fill-rule="evenodd" clip-rule="evenodd" d="M93.2904 18.0353C93.4506 18.0641 93.5803 18.1505 93.6797 18.2948C93.8092 19.5894 93.8525 20.8869 93.8094 22.1873C92.5091 22.1442 91.2116 22.1876 89.9169 22.317C89.6792 22.3892 89.5064 22.5189 89.3979 22.7063C88.3431 23.156 87.651 23.9345 87.3219 25.0418C87.1169 25.3296 86.9872 25.6755 86.9327 26.0798C86.8029 29.9713 86.7596 33.8638 86.8029 37.7573C86.7165 37.7573 86.6298 37.7573 86.5434 37.7573C86.5001 33.7774 86.5434 29.7984 86.6732 25.8203C86.8382 24.5887 87.2275 23.464 87.8409 22.4468C88.4907 22.1512 89.1826 21.9781 89.9169 21.9278C91.128 21.9278 92.3389 21.9278 93.5499 21.9278C93.6086 20.6142 93.5219 19.3167 93.2904 18.0353Z" fill="#B884D0"/>
<path fill-rule="evenodd" clip-rule="evenodd" d="M97.702 22.9658C98.0188 23.1028 98.3214 23.2759 98.6102 23.4848C98.9969 24.6858 99.2997 25.8966 99.5185 27.1178C98.9131 25.9067 98.3074 24.6959 97.702 23.4848C97.702 23.3117 97.702 23.1389 97.702 22.9658Z" fill="#C086D7"/>
<path fill-rule="evenodd" clip-rule="evenodd" d="M36.2003 18.8138C37.0139 19.209 37.8788 19.3821 38.7953 19.3328C38.9165 20.0586 39.3488 20.4048 40.0928 20.3708C40.0928 20.4572 40.0928 20.5439 40.0928 20.6303C40.0928 20.8034 40.0928 20.9762 40.0928 21.1493C39.9063 21.5622 39.6468 21.9514 39.3143 22.317C39.4742 22.6803 39.5606 23.0696 39.5738 23.4848C39.4755 25.0576 39.216 26.6577 38.7953 28.2856C39.1049 29.0677 39.2777 29.8895 39.3143 30.7508C39.1825 32.49 38.9661 34.2201 38.6656 35.9408C38.3918 33.529 38.1756 31.1071 38.0168 28.6748C37.7576 31.6975 37.6712 34.7248 37.7573 37.7573C37.6709 37.7573 37.5842 37.7573 37.4978 37.7573C37.2391 33.3912 37.1527 28.9797 37.2383 24.5228C37.4301 23.421 36.9978 22.7289 35.9408 22.4468C35.4218 22.2737 34.9028 22.1009 34.3838 21.9278C33.3982 21.6727 32.3602 21.586 31.2698 21.6683C32.9548 21.3465 34.5984 20.8275 36.2003 20.1113C36.2112 19.6733 36.2112 19.2409 36.2003 18.8138Z" fill="#BC71DA"/>
<path fill-rule="evenodd" clip-rule="evenodd" d="M20.1113 11.0288C20.4074 11.8436 20.4507 12.7085 20.241 13.6238C20.0407 13.9738 19.7379 14.19 19.3328 14.2725C15.5685 14.3164 11.8491 14.4461 8.17427 14.6618C8.17427 17.1704 8.17427 19.6787 8.17427 22.1873C11.7105 22.7016 15.3435 22.8747 19.0733 22.7063C18.8174 23.7295 18.6446 24.7675 18.5543 25.8203C15.1694 25.8434 11.7959 25.8001 8.43377 25.6906C8.09045 25.9023 7.91752 26.2051 7.91476 26.5988C7.98291 28.899 7.89642 31.1912 7.65526 33.4756C7.71832 34.2548 8.15091 34.5577 8.95277 34.3838C12.8655 34.3018 16.758 34.3882 20.6303 34.6433C20.7126 35.4405 20.6261 36.219 20.3708 36.9788C20.0879 37.2972 19.7418 37.5134 19.3328 37.6276C14.23 37.7573 9.12637 37.8007 4.02226 37.7573C4.08384 37.4223 3.99734 37.1628 3.76276 36.9788C3.76276 28.2422 3.76276 19.5059 3.76276 10.7693C9.23199 10.686 14.6815 10.7724 20.1113 11.0288Z" fill="#BC6EDC"/>
<path fill-rule="evenodd" clip-rule="evenodd" d="M87.3219 19.8518C87.2355 20.0249 87.1488 20.1977 87.0624 20.3708C86.976 20.3708 86.8893 20.3708 86.8029 20.3708C86.8029 19.6787 86.8029 18.9869 86.8029 18.2948C85.541 18.212 84.3299 18.2984 83.1699 18.5543C82.9104 18.6407 82.7373 18.8138 82.6509 19.0733C82.3919 25.2567 82.3055 31.4847 82.3914 37.7573C82.0896 31.487 82.0463 25.1723 82.2617 18.8138C82.4778 18.5976 82.6943 18.3812 82.9104 18.165C84.381 17.992 85.8513 17.992 87.3219 18.165C86.9817 18.7551 86.9817 19.3172 87.3219 19.8518Z" fill="#F4DBFD"/>
<path fill-rule="evenodd" clip-rule="evenodd" d="M83.1699 18.5543C84.3299 18.2984 85.541 18.212 86.8029 18.2948C86.8029 18.9869 86.8029 19.6787 86.8029 20.3708C86.5517 19.824 86.4651 19.2184 86.5434 18.5543C85.419 18.5543 84.2943 18.5543 83.1699 18.5543Z" fill="#B897C9"/>
<path fill-rule="evenodd" clip-rule="evenodd" d="M103.151 24.5228C103.507 25.1549 103.767 25.847 103.93 26.5988C103.371 26.0494 103.111 25.3574 103.151 24.5228Z" fill="#C9A3DF"/>
<path fill-rule="evenodd" clip-rule="evenodd" d="M114.829 23.7443C114.302 25.1407 113.783 26.5246 113.272 27.8963C113.099 28.1558 112.926 28.4153 112.753 28.6748C113.274 27.3519 113.75 25.968 114.18 24.5228C114.278 24.1486 114.494 23.8891 114.829 23.7443Z" fill="#C28ED8"/>
<path fill-rule="evenodd" clip-rule="evenodd" d="M8.17426 22.1873C11.9064 22.1094 15.6258 22.1961 19.3328 22.4468C19.3328 23.5712 19.3328 24.6959 19.3328 25.8203C19.0803 25.9467 18.8208 26.0764 18.5543 26.2096C15.0495 26.2534 11.5893 26.3832 8.17426 26.5988C8.08785 26.5988 8.00126 26.5988 7.91476 26.5988C7.91752 26.2051 8.09045 25.9023 8.43377 25.6906C11.7959 25.8001 15.1694 25.8434 18.5543 25.8203C18.6446 24.7675 18.8174 23.7295 19.0733 22.7063C15.3435 22.8747 11.7105 22.7016 8.17426 22.1873Z" fill="#BA85D4"/>
<path fill-rule="evenodd" clip-rule="evenodd" d="M58.7769 9.99077C58.7769 10.0772 58.7769 10.1639 58.7769 10.2503C58.432 19.4804 58.432 28.7361 58.7769 38.0168C58.7769 38.1032 58.7769 38.1899 58.7769 38.2763C58.6168 38.2475 58.487 38.1611 58.3876 38.0168C58.3443 33.3458 58.3012 28.6748 58.2579 24.0038C58.2579 19.243 58.431 14.572 58.7769 9.99077Z" fill="#D4B3E4"/>
<path fill-rule="evenodd" clip-rule="evenodd" d="M194.496 18.2948C195.882 18.2517 197.266 18.295 198.648 18.4245C198.89 19.0424 198.977 19.6912 198.907 20.3708C198.699 19.994 198.569 19.5617 198.518 19.0733C198.323 18.9108 198.107 18.7811 197.869 18.684C196.835 18.5545 195.797 18.5112 194.755 18.5543C194.755 24.9554 194.755 31.3562 194.755 37.7573C194.496 31.4011 194.41 25 194.496 18.5543C194.496 18.4679 194.496 18.3812 194.496 18.2948Z" fill="#C699D7"/>
<path fill-rule="evenodd" clip-rule="evenodd" d="M220.705 24.0038C220.498 24.7641 220.411 25.5426 220.446 26.3393C223.646 26.3393 226.847 26.3393 230.047 26.3393C230.047 26.4257 230.047 26.5124 230.047 26.5988C226.674 26.5988 223.3 26.5988 219.927 26.5988C219.884 25.9015 219.927 25.2094 220.056 24.5228C220.24 24.2942 220.457 24.1214 220.705 24.0038Z" fill="#EED8F8"/>
<path fill-rule="evenodd" clip-rule="evenodd" d="M36.7193 24.0038C36.8924 24.1769 37.0652 24.3497 37.2383 24.5228C37.1527 28.9797 37.2391 33.3912 37.4978 37.7573C37.4978 37.9304 37.4978 38.1032 37.4978 38.2763C37.3377 38.2475 37.208 38.1611 37.1086 38.0168C37.0515 33.3396 36.9217 28.6686 36.7193 24.0038Z" fill="#EAD4F5"/>
<path fill-rule="evenodd" clip-rule="evenodd" d="M29.4533 24.5228C29.1341 28.7332 29.1341 32.9283 29.4533 37.1086C29.3064 37.3668 29.1333 37.5829 28.9343 37.7573C28.9343 33.8648 28.9343 29.9723 28.9343 26.0798C28.8718 25.4575 29.0449 24.9385 29.4533 24.5228Z" fill="#FDECFE"/>
<path fill-rule="evenodd" clip-rule="evenodd" d="M25.0418 20.3708C24.9985 24.5236 25.0418 28.6756 25.1715 32.8268C25.258 29.7128 25.3446 26.5988 25.4311 23.4848C25.4879 23.858 25.6176 24.2039 25.8203 24.5228C26.0795 28.6712 26.1662 32.8232 26.0798 36.9788C26.3393 36.9788 26.5988 36.9788 26.8583 36.9788C26.5287 33.3585 26.5287 29.7689 26.8583 26.2096C26.1444 22.0793 26.3175 21.9929 27.3773 25.9501C27.1985 27.6267 27.2416 29.3134 27.5071 31.0103C27.5935 29.6264 27.6801 28.2422 27.7666 26.8583C27.9396 30.2318 27.9396 33.6053 27.7666 36.9788C26.9546 37.1423 26.1327 37.3151 25.3013 37.4978C26.3082 37.8339 27.3031 37.8339 28.2856 37.4978C28.4851 33.515 28.442 29.5358 28.1558 25.5608C28.2529 24.6972 28.6852 24.0918 29.4533 23.7443C29.4533 23.8307 29.4533 23.9174 29.4533 24.0038C29.4533 24.1769 29.4533 24.3497 29.4533 24.5228C29.0449 24.9385 28.8718 25.4575 28.9343 26.0798C28.7187 29.9277 28.5889 33.8202 28.5451 37.7573C28.4457 37.9016 28.3159 37.988 28.1558 38.0168C27.0485 38.0939 25.9672 38.0075 24.912 37.7573C24.6967 31.9175 24.74 26.1221 25.0418 20.3708Z" fill="#B96ED9"/>
<path fill-rule="evenodd" clip-rule="evenodd" d="M133.254 25.0418C133.588 25.1866 133.804 25.4461 133.902 25.8203C134.114 27.1656 134.071 28.4631 133.773 29.7128C133.876 28.1158 133.703 26.5588 133.254 25.0418Z" fill="#C9A4D9"/>
<path fill-rule="evenodd" clip-rule="evenodd" d="M217.072 23.2253C217.454 22.2519 217.887 21.3006 218.37 20.3708C218.456 20.3708 218.543 20.3708 218.629 20.3708C219.222 20.2475 219.741 19.988 220.186 19.5923C220.778 19.3613 221.384 19.3183 222.003 19.4625C220.995 19.8014 220.649 20.4502 220.965 21.4088C221.252 21.1259 221.512 21.1259 221.743 21.4088C221.529 21.6387 221.27 21.7251 220.965 21.6683C221.046 22.6316 220.656 23.3236 219.797 23.7443C219.668 24.4309 219.625 25.123 219.667 25.8203C219.284 25.8883 218.938 25.8019 218.629 25.5608C218.9 25.2694 219.073 24.9235 219.148 24.5228C218.885 23.8439 218.669 23.1521 218.499 22.4468C217.267 23.0981 217.31 23.7038 218.629 24.2633C218.321 24.5044 217.975 24.5908 217.591 24.5228C217.746 25.9015 217.833 27.2854 217.851 28.6748C217.591 28.6748 217.332 28.6748 217.072 28.6748C217.13 26.8303 217.13 25.0138 217.072 23.2253Z" fill="#BA6BE0"/>
<path fill-rule="evenodd" clip-rule="evenodd" d="M19.3328 25.8203C19.3128 26.1447 19.1397 26.3608 18.8138 26.4691C15.3549 26.5988 11.8947 26.6421 8.43376 26.5988C8.43376 29.1074 8.43376 31.6157 8.43376 34.1243C8.17582 31.6627 8.0894 29.1544 8.17426 26.5988C11.5893 26.3832 15.0495 26.2534 18.5543 26.2096C18.8208 26.0764 19.0803 25.9467 19.3328 25.8203Z" fill="#FBEBFE"/>
<path fill-rule="evenodd" clip-rule="evenodd" d="M234.199 25.3013C234.387 25.4098 234.516 25.5826 234.588 25.8203C234.632 26.4691 234.675 27.1178 234.718 27.7666C234.712 28.5266 234.539 29.1754 234.199 29.7128C234.199 29.6264 234.199 29.5397 234.199 29.4533C234.494 28.1088 234.494 26.7247 234.199 25.3013Z" fill="#DEC1EB"/>
<path fill-rule="evenodd" clip-rule="evenodd" d="M72.0114 22.4468C72.5418 22.5846 72.9744 22.8874 73.3089 23.355C73.7332 23.4952 74.0791 23.3654 74.3469 22.9658C74.4333 23.0955 74.52 23.2253 74.6064 23.355C74.4333 23.6145 74.2605 23.874 74.0874 24.1336C74.8381 26.3632 75.0543 28.6556 74.7362 31.0103C74.3752 31.7463 73.8995 32.3517 73.3089 32.8268C75.38 29.0332 74.9474 25.5733 72.0114 22.4468Z" fill="#B378CE"/>
<path fill-rule="evenodd" clip-rule="evenodd" d="M228.231 18.5543C229.105 18.9059 229.97 19.2521 230.826 19.5923C231.06 19.7763 231.147 20.0358 231.085 20.3708C231.345 20.3708 231.604 20.3708 231.864 20.3708C232.427 20.8483 232.773 21.4539 232.902 22.1873C233.734 24.5319 234.166 26.9538 234.199 29.4533C229.354 29.41 224.511 29.4533 219.667 29.5831C219.523 29.6825 219.437 29.8122 219.408 29.9723C218.981 30.0278 218.592 29.9412 218.24 29.7128C218.208 29.0807 218.338 28.4753 218.629 27.8963C219.013 27.9643 219.359 27.8779 219.667 27.6368C218.611 27.0449 218.698 26.6987 219.927 26.5988C223.3 26.5988 226.674 26.5988 230.047 26.5988C230.68 24.7379 230.248 23.1376 228.75 21.798C228.414 21.6709 228.068 21.6276 227.712 21.6683C227.492 21.2879 227.146 21.0714 226.674 21.0195C225.379 20.8901 224.082 20.8467 222.781 20.8898C222.476 20.9466 222.217 20.8602 222.003 20.6303C222.469 20.3202 222.729 19.8876 222.781 19.3328C223.449 19.4241 224.054 19.2944 224.598 18.9435C224.225 18.8867 223.879 18.757 223.56 18.5543C225.123 18.2307 226.68 18.2307 228.231 18.5543Z" fill="#BB6BDC"/>
<path fill-rule="evenodd" clip-rule="evenodd" d="M41.6498 24.5228C41.6932 29.0218 41.6498 33.5197 41.5201 38.0168C41.346 38.212 41.1298 38.2986 40.8713 38.2763C41.2455 37.9338 41.4184 37.5015 41.3903 36.9788C41.3047 32.7814 41.3914 28.6294 41.6498 24.5228Z" fill="#D8B1E8"/>
<path fill-rule="evenodd" clip-rule="evenodd" d="M78.7584 24.7823C79.2764 26.584 79.3631 28.4005 79.0179 30.2318C78.9743 28.4127 78.8879 26.5962 78.7584 24.7823Z" fill="#DDC4E9"/>
<path fill-rule="evenodd" clip-rule="evenodd" d="M87.3219 25.0418C87.1683 29.3199 86.9955 33.5583 86.8029 37.7573C86.7596 33.8638 86.8029 29.9713 86.9327 26.0798C86.9872 25.6755 87.1169 25.3296 87.3219 25.0418Z" fill="#F2E1F9"/>
<path fill-rule="evenodd" clip-rule="evenodd" d="M199.167 23.4848C199.093 23.6895 198.963 23.8626 198.777 24.0038C198.648 28.5009 198.604 32.9989 198.648 37.4978C198.648 37.6709 198.561 37.7573 198.388 37.7573C198.215 37.7573 198.042 37.7573 197.869 37.7573C197.004 37.7573 196.139 37.7573 195.274 37.7573C195.022 31.4512 194.936 25.1368 195.015 18.8138C196.716 18.5117 197.062 18.9441 196.053 20.1113C196.267 20.3412 196.526 20.4276 196.831 20.3708C196.773 24.5363 196.773 28.6883 196.831 32.8268C197.091 32.8268 197.35 32.8268 197.61 32.8268C197.667 28.2547 197.581 23.6701 197.35 19.0733C197.829 19.0012 198.175 19.1742 198.388 19.5923C197.666 20.3298 197.752 20.9785 198.648 21.5385C197.901 22.0285 197.728 22.6772 198.129 23.4848C198.627 22.5265 198.973 22.5265 199.167 23.4848Z" fill="#BB6DDE"/>
<path fill-rule="evenodd" clip-rule="evenodd" d="M137.925 25.0418C138.568 25.8911 138.828 26.8861 138.703 28.0261C138.754 29.0135 138.581 29.9217 138.184 30.7508C138.232 28.8388 138.145 26.9359 137.925 25.0418Z" fill="#BD8FD4"/>
<path fill-rule="evenodd" clip-rule="evenodd" d="M215.515 25.5608C215.431 27.1671 215.518 28.7241 215.775 30.2318C215.775 30.4049 215.775 30.5777 215.775 30.7508C215.775 30.9239 215.775 31.0967 215.775 31.2698C215.575 31.0718 215.446 30.8123 215.385 30.4913C215.173 28.8009 215.216 27.1575 215.515 25.5608Z" fill="#E0C7F0"/>
<path fill-rule="evenodd" clip-rule="evenodd" d="M54.1059 24.5228C54.4074 29.0628 54.4507 33.6474 54.2356 38.2763C52.7827 38.6202 51.3554 38.6202 49.9539 38.2763C51.302 38.3596 52.5995 38.273 53.8464 38.0168C54.102 33.5389 54.1886 29.0407 54.1059 24.5228Z" fill="#E3C9EE"/>
<path fill-rule="evenodd" clip-rule="evenodd" d="M187.489 27.6368C187.291 29.5301 186.685 31.2602 185.673 32.8268C185.071 32.7443 184.725 32.3981 184.635 31.7888C185.008 31.2498 185.181 30.6444 185.154 29.9723C185.293 29.5527 185.38 29.1201 185.413 28.6748C185.681 28.0362 185.854 27.3444 185.932 26.5988C186.105 24.5635 186.278 22.4875 186.451 20.3708C186.646 20.5981 186.776 20.8576 186.84 21.1493C186.927 20.9762 187.013 20.8034 187.1 20.6303C187.458 22.9482 187.588 25.2837 187.489 27.6368Z" fill="#E8D3F8"/>
<path fill-rule="evenodd" clip-rule="evenodd" d="M52.5489 20.3708C53.4947 21.5749 54.0137 22.9588 54.1059 24.5228C54.1886 29.0407 54.102 33.5389 53.8464 38.0168C52.5844 38.0996 51.3733 38.0132 50.2134 37.7573C51.4647 37.9039 52.6324 37.7311 53.7166 37.2383C53.8897 32.9999 53.8897 28.7612 53.7166 24.5228C53.4008 23.1018 53.0116 21.7176 52.5489 20.3708Z" fill="#BB80D4"/>
<path fill-rule="evenodd" clip-rule="evenodd" d="M103.93 26.5988C104.557 27.6236 104.989 28.748 105.227 29.9723C104.979 29.8548 104.762 29.6819 104.579 29.4533C104.239 28.5269 104.023 27.5753 103.93 26.5988Z" fill="#BD8CD3"/>
<path fill-rule="evenodd" clip-rule="evenodd" d="M113.272 27.8963C113.226 28.6011 113.096 29.2932 112.883 29.9723C112.469 30.4981 112.08 31.0171 111.715 31.5293C112.08 30.5684 112.426 29.6168 112.753 28.6748C112.926 28.4153 113.099 28.1558 113.272 27.8963Z" fill="#F2DFF8"/>
<path fill-rule="evenodd" clip-rule="evenodd" d="M234.199 29.4533C234.199 29.5397 234.199 29.6264 234.199 29.7128C229.442 29.7128 224.684 29.7128 219.927 29.7128C219.884 30.4101 219.928 31.1022 220.056 31.7888C220.385 32.3893 220.688 32.995 220.965 33.6053C220.622 33.6494 220.319 33.563 220.056 33.3458C219.564 32.4698 219.348 31.5182 219.408 30.4913C219.408 30.3182 219.408 30.1454 219.408 29.9723C219.437 29.8122 219.523 29.6825 219.667 29.5831C224.511 29.4533 229.354 29.41 234.199 29.4533Z" fill="#B077CA"/>
<path fill-rule="evenodd" clip-rule="evenodd" d="M19.8518 10.5098C19.9382 10.5098 20.0249 10.5098 20.1113 10.5098C20.1113 10.6829 20.1113 10.8557 20.1113 11.0288C14.6815 10.7724 9.23199 10.686 3.76276 10.7693C3.76276 19.5059 3.76276 28.2422 3.76276 36.9788C3.67627 36.9788 3.58975 36.9788 3.50326 36.9788C3.50326 28.1558 3.50326 19.3328 3.50326 10.5098C8.95277 10.5098 14.4023 10.5098 19.8518 10.5098Z" fill="#B47DD3"/>
<path fill-rule="evenodd" clip-rule="evenodd" d="M122.095 26.0798C122.052 27.819 122.139 29.5491 122.355 31.2698C122.167 31.1613 122.037 30.9885 121.965 30.7508C121.753 29.1468 121.796 27.5898 122.095 26.0798Z" fill="#CE99E4"/>
<path fill-rule="evenodd" clip-rule="evenodd" d="M212.142 24.5228C212.486 28.8923 212.486 33.3038 212.142 37.7573C211.964 37.8515 211.791 37.9379 211.623 38.0168C211.623 37.9304 211.623 37.8437 211.623 37.7573C211.749 37.5048 211.879 37.2453 212.012 36.9788C212.142 32.8276 212.185 28.6756 212.142 24.5228Z" fill="#D0A0E6"/>
<path fill-rule="evenodd" clip-rule="evenodd" d="M62.6694 26.5988C62.6263 27.813 62.6696 29.0238 62.7991 30.2318C63.2473 31.0409 63.4637 31.9059 63.4479 32.8268C63.2815 32.4267 63.022 32.0805 62.6694 31.7888C62.414 31.029 62.3276 30.2505 62.4099 29.4533C62.3281 28.4488 62.4145 27.4972 62.6694 26.5988Z" fill="#C391DD"/>
<path fill-rule="evenodd" clip-rule="evenodd" d="M105.227 29.9723C105.716 30.8645 106.148 31.8161 106.525 32.8268C106.049 32.6654 105.746 32.3192 105.617 31.7888C105.503 31.1748 105.373 30.5694 105.227 29.9723Z" fill="#BC91D3"/>
<path fill-rule="evenodd" clip-rule="evenodd" d="M170.881 8.43376C174.779 8.89619 178.239 10.3668 181.261 12.8453C183.731 14.9716 185.202 17.653 185.673 20.8898C185.716 23.491 185.629 26.086 185.413 28.6748C185.38 29.1201 185.293 29.5527 185.154 29.9723C183.642 33.6061 181.219 36.5037 177.888 38.6656C176.459 39.2949 174.988 39.7708 173.476 40.0928C170.879 40.4086 168.284 40.4086 165.691 40.0928C165.312 40.1102 164.967 40.0238 164.653 39.8333C160.859 38.4629 157.918 36.0407 155.83 32.5673C152.866 26.4322 153.126 20.4637 156.609 14.6618C160.237 10.1252 164.995 8.04918 170.881 8.43376Z" fill="#C55BE3"/>
<path fill-rule="evenodd" clip-rule="evenodd" d="M172.957 35.1623C172.371 35.7202 171.765 36.2826 171.141 36.8491C166.992 37.9151 163.965 36.5743 162.058 32.8268C161.978 31.5898 162.108 30.3787 162.447 29.1938C163.281 27.519 164.363 26.0484 165.691 24.7823C166.893 24.4808 168.104 24.4377 169.324 24.6525C170.8 26.1286 172.271 27.5992 173.736 29.0641C174.594 31.2545 174.334 33.2872 172.957 35.1623Z" fill="#E9AAFC"/>
<path fill-rule="evenodd" clip-rule="evenodd" d="M174.514 12.0668C173.263 11.7292 172.009 11.7292 170.751 12.0668C170.448 12.1989 170.232 12.415 170.103 12.7155C170.502 13.0713 170.849 13.4606 171.141 13.8833C170.716 13.697 170.283 13.6539 169.843 13.7535C170.142 14.3112 170.531 14.7869 171.011 15.1808C171.288 16.2279 171.591 17.2659 171.919 18.2948C172.122 17.8308 172.468 17.5713 172.957 17.5163C172.387 18.915 171.739 20.2989 171.011 21.6683C170.64 23.2873 170.899 24.7579 171.789 26.0798C173.082 27.3776 174.51 28.4589 176.071 29.3236C178.104 29.8366 179.833 29.3607 181.261 27.8963C181.077 28.9037 180.471 29.5524 179.445 29.8426C178.407 29.929 177.369 30.0156 176.331 30.1021C176.113 30.3644 176.027 30.6673 176.071 31.0103C176.59 31.0103 177.109 31.0103 177.628 31.0103C177.123 31.1741 176.647 31.4336 176.201 31.7888C176.014 32.825 175.625 33.7766 175.033 34.6433C175.525 34.894 176.044 34.9804 176.59 34.9028C176.043 35.154 175.438 35.2407 174.774 35.1623C174.816 34.5507 174.773 33.9453 174.644 33.3458C174.029 33.7161 173.899 34.192 174.255 34.7731C173.939 35.317 173.723 35.2736 173.606 34.6433C173.498 34.9693 173.281 35.1423 172.957 35.1623C174.334 33.2872 174.594 31.2545 173.736 29.0641C172.271 27.5992 170.8 26.1286 169.324 24.6525C168.104 24.4377 166.893 24.4808 165.691 24.7823C164.363 26.0484 163.281 27.519 162.447 29.1938C162.108 30.3787 161.978 31.5898 162.058 32.8268C161.803 31.9284 161.717 30.9768 161.799 29.9723C160.474 30.4721 159.09 30.6019 157.647 30.3616C157.312 29.8939 156.879 29.5911 156.349 29.4533C156.114 29.2693 156.028 29.0098 156.09 28.6748C156.219 26.8599 156.349 25.0434 156.479 23.2253C156.967 22.9261 157.184 22.4938 157.128 21.9278C157.977 21.7617 158.669 21.3291 159.204 20.6303C158.773 19.6073 158.686 18.5693 158.944 17.5163C159.154 18.0153 159.283 18.5343 159.333 19.0733C159.766 18.8553 159.809 18.9851 159.463 19.4625C159.636 19.549 159.809 19.6356 159.982 19.722C159.896 19.9815 159.809 20.241 159.723 20.5005C160.242 20.6736 160.587 21.0195 160.761 21.5385C161.513 21.6517 162.118 21.9545 162.577 22.4468C158.014 20.9093 156.067 22.5527 156.738 27.3773C156.988 28.968 157.897 29.9196 159.463 30.2318C160.114 30.1454 160.677 29.8859 161.15 29.4533C162.183 27.6046 163.351 25.8745 164.653 24.2633C164.129 23.9117 163.696 23.4793 163.356 22.9658C164.59 23.4973 165.801 23.5406 166.989 23.0955C166.296 23.0091 165.605 22.9225 164.913 22.836C164.768 22.7367 164.682 22.6069 164.653 22.4468C170.039 22.5781 171.899 20.0695 170.232 14.9213C168.94 12.9569 167.08 12.0919 164.653 12.3263C165.555 12.0297 166.506 11.9863 167.508 12.1965C168.181 12.4913 168.873 12.7075 169.584 12.8453C169.599 12.3024 169.859 11.9131 170.362 11.6775C172.014 11.5441 173.658 11.4577 175.293 11.418C175.015 11.6391 174.755 11.8553 174.514 12.0668Z" fill="#E083F0"/>
<path fill-rule="evenodd" clip-rule="evenodd" d="M162.577 22.4468C162.7 22.8117 162.959 22.9847 163.356 22.9658C163.696 23.4794 164.129 23.9117 164.653 24.2633C163.351 25.8745 162.183 27.6046 161.15 29.4533C160.677 29.8859 160.114 30.1454 159.463 30.2318C157.897 29.9196 156.988 28.9681 156.738 27.3773C156.067 22.5527 158.014 20.9093 162.577 22.4468Z" fill="#EAACFA"/>
<path fill-rule="evenodd" clip-rule="evenodd" d="M181.261 27.8963C179.833 29.3607 178.104 29.8366 176.071 29.3236C174.51 28.4589 173.082 27.3776 171.789 26.0798C170.899 24.7579 170.64 23.2873 171.011 21.6683C171.739 20.2989 172.388 18.915 172.957 17.5163C176.525 16.3119 179.553 17.1769 182.04 20.1113C182.254 20.3412 182.513 20.4276 182.818 20.3708C183.188 23.0989 182.669 25.6073 181.261 27.8963Z" fill="#E8AAFC"/>
<path fill-rule="evenodd" clip-rule="evenodd" d="M156.349 29.4533C156.879 29.5911 157.312 29.8939 157.647 30.3616C159.09 30.6019 160.474 30.4721 161.799 29.9723C161.717 30.9768 161.803 31.9284 162.058 32.8268C163.965 36.5743 166.992 37.9151 171.141 36.8491C171.765 36.2826 172.371 35.7202 172.957 35.1623C173.281 35.1423 173.498 34.9693 173.606 34.6433C173.723 35.2736 173.939 35.317 174.255 34.7731C173.899 34.192 174.029 33.7161 174.644 33.3458C174.773 33.9453 174.816 34.5507 174.774 35.1623C175.438 35.2407 176.043 35.154 176.59 34.9028C177.524 34.8107 178.346 34.4645 179.055 33.8648C179.289 33.1976 179.635 32.5922 180.093 32.0483C180.222 31.6243 180.265 31.1917 180.223 30.7508C179.351 30.7809 178.486 30.8673 177.628 31.0103C177.109 31.0103 176.59 31.0103 176.071 31.0103C176.027 30.6673 176.113 30.3644 176.331 30.1021C177.369 30.0156 178.407 29.929 179.445 29.8426C180.471 29.5524 181.077 28.9037 181.261 27.8963C182.669 25.6073 183.188 23.0989 182.818 20.3708C182.513 20.4276 182.254 20.3412 182.04 20.1113C179.553 17.1769 176.525 16.3119 172.957 17.5163C172.468 17.5713 172.122 17.8308 171.919 18.2948C171.591 17.2659 171.288 16.2279 171.011 15.1808C170.531 14.7869 170.142 14.3112 169.843 13.7535C170.283 13.6539 170.716 13.697 171.141 13.8833C173.009 15.3876 175.171 15.993 177.628 15.6998C177.731 14.926 177.558 14.2339 177.109 13.6238C176.23 13.0988 175.365 12.5798 174.514 12.0668C174.755 11.8553 175.015 11.6391 175.293 11.418C173.658 11.4577 172.014 11.5441 170.362 11.6775C169.859 11.9132 169.599 12.3024 169.584 12.8453C168.873 12.7075 168.181 12.4913 167.508 12.1965C166.506 11.9863 165.555 12.0297 164.653 12.3263C162.46 13.7429 161.076 15.7322 160.501 18.2948C160.573 19.5201 161.092 20.5148 162.058 21.279C162.939 21.6994 163.803 22.0887 164.653 22.4468C164.682 22.6069 164.768 22.7367 164.913 22.836C165.605 22.9225 166.297 23.0091 166.989 23.0955C165.801 23.5406 164.59 23.4973 163.356 22.9658C162.959 22.9847 162.7 22.8117 162.577 22.4468C162.118 21.9545 161.513 21.6517 160.761 21.5385C160.587 21.0195 160.242 20.6736 159.723 20.5005C159.809 20.241 159.896 19.9815 159.982 19.722C159.809 19.6356 159.636 19.549 159.463 19.4625C159.809 18.9851 159.766 18.8553 159.333 19.0733C159.284 18.5343 159.154 18.0153 158.944 17.5163C158.686 18.5693 158.773 19.6073 159.204 20.6303C158.669 21.3291 157.977 21.7617 157.128 21.9278C157.184 22.4938 156.967 22.9261 156.479 23.2253C156.349 25.0434 156.219 26.8599 156.09 28.6748C155.258 26.9393 155.128 25.1228 155.7 23.2253C156.345 22.0801 157.297 21.3016 158.555 20.8898C157.889 15.9032 159.835 12.4433 164.394 10.5098C166.027 10.8017 167.584 11.3207 169.065 12.0668C170.265 10.5547 171.822 9.99233 173.736 10.38C175.703 10.9102 177.303 11.9915 178.536 13.6238C178.666 14.5715 178.709 15.5228 178.666 16.4783C182.159 16.9438 184.062 18.9334 184.375 22.4468C184.495 25.1337 183.5 27.2961 181.391 28.9343C181.429 30.3159 181.429 31.6998 181.391 33.0863C181.034 33.6712 180.644 34.2333 180.223 34.7731C178.395 35.8282 176.406 36.3905 174.255 36.4598C172.05 38.6985 169.368 39.4337 166.21 38.6656C162.586 37.5095 160.682 35.0442 160.501 31.2698C159.442 31.3103 158.404 31.1805 157.387 30.8806C156.877 30.504 156.531 30.0284 156.349 29.4533Z" fill="#E27FF2"/>
<path fill-rule="evenodd" clip-rule="evenodd" d="M164.653 12.3263C167.08 12.0919 168.94 12.9569 170.232 14.9213C171.899 20.0695 170.039 22.5781 164.653 22.4468C163.803 22.0887 162.939 21.6994 162.058 21.279C161.092 20.5148 160.573 19.5201 160.501 18.2948C161.076 15.7322 162.46 13.7429 164.653 12.3263Z" fill="#E8AAFD"/>
<path fill-rule="evenodd" clip-rule="evenodd" d="M174.514 12.0668C175.365 12.5798 176.23 13.0988 177.109 13.6238C177.558 14.2339 177.731 14.926 177.628 15.6998C175.171 15.993 173.009 15.3876 171.141 13.8833C170.849 13.4606 170.502 13.0713 170.103 12.7155C170.232 12.415 170.448 12.1989 170.751 12.0668C172.009 11.7292 173.263 11.7292 174.514 12.0668Z" fill="#E9A2F9"/>
<path fill-rule="evenodd" clip-rule="evenodd" d="M200.983 22.1873C200.637 22.5592 200.248 22.9053 199.815 23.2253C199.718 23.742 199.502 24.1745 199.167 24.5228C198.994 28.8479 198.821 33.1727 198.648 37.4978C198.604 32.9989 198.648 28.5009 198.777 24.0038C198.963 23.8626 199.093 23.6895 199.167 23.4848C199.547 22.7608 200.153 22.3285 200.983 22.1873Z" fill="#C188D5"/>
<path fill-rule="evenodd" clip-rule="evenodd" d="M206.173 22.1873C206.519 22.1873 206.865 22.1873 207.211 22.1873C207.386 23.1882 207.689 24.1395 208.119 25.0418C208.174 29.2885 208.304 33.5269 208.509 37.7573C209.547 37.7573 210.585 37.7573 211.623 37.7573C211.623 37.8437 211.623 37.9304 211.623 38.0168C211.45 38.0168 211.277 38.0168 211.104 38.0168C210.082 38.0929 209.087 38.0064 208.119 37.7573C208.076 33.7338 207.946 29.7546 207.73 25.8203C207.804 25.3563 207.718 24.9237 207.471 24.5228C207.099 23.6906 206.666 22.9121 206.173 22.1873Z" fill="#BD83D9"/>
<path fill-rule="evenodd" clip-rule="evenodd" d="M215.775 30.7508C215.935 30.7796 216.065 30.866 216.164 31.0103C216.346 32.2956 216.735 33.5065 217.332 34.6433C216.249 33.808 215.73 32.6836 215.775 31.2698C215.775 31.0967 215.775 30.9239 215.775 30.7508Z" fill="#BD84D7"/>
<path fill-rule="evenodd" clip-rule="evenodd" d="M7.91477 26.5988C8.00126 26.5988 8.08785 26.5988 8.17427 26.5988C8.08941 29.1544 8.17582 31.6627 8.43377 34.1243C8.60685 34.1243 8.77968 34.1243 8.95277 34.1243C8.95277 34.2107 8.95277 34.2974 8.95277 34.3838C8.15091 34.5577 7.71832 34.2549 7.65527 33.4756C7.89642 31.1912 7.98291 28.899 7.91477 26.5988Z" fill="#C294D3"/>
<path fill-rule="evenodd" clip-rule="evenodd" d="M231.604 32.8268C231.258 32.8268 230.912 32.8268 230.566 32.8268C230.597 32.545 230.77 32.3719 231.085 32.3078C231.4 32.3719 231.573 32.545 231.604 32.8268Z" fill="#CCBCDC"/>
<path fill-rule="evenodd" clip-rule="evenodd" d="M58.7769 10.2503C58.6954 19.4272 58.7821 28.5964 59.0364 37.7573C59.988 37.7573 60.9393 37.7573 61.8909 37.7573C61.8172 37.2604 61.9036 36.8281 62.1504 36.4598C62.1504 36.9788 62.1504 37.4978 62.1504 38.0168C61.026 38.0168 59.9013 38.0168 58.7769 38.0168C58.432 28.7361 58.432 19.4804 58.7769 10.2503Z" fill="#C286DE"/>
<path fill-rule="evenodd" clip-rule="evenodd" d="M82.6509 19.0733C82.6076 25.3018 82.6509 31.5298 82.7807 37.7573C83.7486 38.0064 84.7433 38.0929 85.7649 38.0168C84.8665 38.2717 83.915 38.3581 82.9104 38.2763C82.6509 38.1899 82.4778 38.0168 82.3914 37.7573C82.3055 31.4847 82.3919 25.2567 82.6509 19.0733Z" fill="#C293D4"/>
<path fill-rule="evenodd" clip-rule="evenodd" d="M101.335 31.7888C102.024 32.3945 102.37 33.173 102.373 34.1243C101.802 34.0314 101.456 33.6852 101.335 33.0863C101.604 32.6639 101.604 32.2313 101.335 31.7888Z" fill="#E4D2EC"/>
<path fill-rule="evenodd" clip-rule="evenodd" d="M199.167 24.5228C199.21 28.9351 199.167 33.3466 199.037 37.7573C198.853 37.9859 198.637 38.1588 198.388 38.2763C198.388 38.1032 198.388 37.9304 198.388 37.7573C198.561 37.7573 198.648 37.6709 198.648 37.4978C198.821 33.1727 198.994 28.8479 199.167 24.5228Z" fill="#D9BFE0"/>
<path fill-rule="evenodd" clip-rule="evenodd" d="M108.601 28.6748C108.687 28.6748 108.774 28.6748 108.86 28.6748C108.876 29.329 108.703 29.9344 108.341 30.4913C108.424 31.2117 108.684 31.8604 109.12 32.4376C108.884 32.9018 108.841 33.3777 108.99 33.8648C109.631 35.1709 109.977 34.9978 110.028 33.3458C110.228 33.0609 110.444 33.0609 110.677 33.3458C110.677 33.6053 110.677 33.8648 110.677 34.1243C110.351 35.1366 109.918 36.0882 109.379 36.9788C108.94 35.6896 108.421 34.4355 107.822 33.2161C108.184 32.8785 108.314 32.4892 108.212 32.0483C107.98 31.7341 107.764 31.7341 107.563 32.0483C107.411 32.8276 107.238 33.6061 107.044 34.3838C106.581 33.9886 106.408 33.4696 106.525 32.8268C107.345 31.5324 108.037 30.1483 108.601 28.6748Z" fill="#BA74D8"/>
<path fill-rule="evenodd" clip-rule="evenodd" d="M133.773 30.2318C133.833 31.2587 133.617 32.2102 133.124 33.0863C132.732 33.714 132.17 33.9735 131.437 33.8648C131.784 33.3017 132.26 32.8694 132.864 32.5673C133.28 31.8091 133.583 31.0306 133.773 30.2318Z" fill="#C08BDA"/>
<path fill-rule="evenodd" clip-rule="evenodd" d="M176.59 34.9028C176.044 34.9804 175.525 34.894 175.033 34.6433C175.625 33.7766 176.014 32.825 176.201 31.7888C176.647 31.4336 177.123 31.1741 177.628 31.0103C178.486 30.8673 179.351 30.7809 180.223 30.7508C180.265 31.1917 180.222 31.6243 180.093 32.0483C179.635 32.5922 179.289 33.1976 179.055 33.8648C178.346 34.4645 177.524 34.8107 176.59 34.9028Z" fill="#E9A2FB"/>
<path fill-rule="evenodd" clip-rule="evenodd" d="M219.408 30.4913C219.347 31.5182 219.564 32.4697 220.056 33.3458C220.319 33.563 220.622 33.6494 220.965 33.6053C221.666 34.9096 222.79 35.5583 224.338 35.5516C225.654 35.7465 226.952 35.66 228.231 35.2921C228.426 35.1179 228.513 34.9018 228.49 34.6433C228.847 34.6841 229.193 34.6407 229.528 34.5136C229.94 33.9767 230.286 33.4143 230.566 32.8268C230.912 32.8268 231.258 32.8268 231.604 32.8268C232.534 33.2895 233.226 33.9816 233.68 34.9028C233.351 35.3087 233.048 35.7413 232.772 36.2003C232.148 36.6122 231.586 37.0445 231.085 37.4978C230.502 37.7457 229.897 37.9187 229.269 38.0168C228.486 38.0698 227.707 38.1562 226.933 38.2763C225.546 38.3194 224.163 38.2761 222.781 38.1466C221.688 37.6364 220.564 37.2472 219.408 36.9788C219.149 37.0011 218.933 36.9145 218.759 36.7193C218.219 36.0537 217.744 35.3616 217.332 34.6433C216.735 33.5065 216.346 32.2956 216.164 31.0103C216.065 30.866 215.935 30.7796 215.775 30.7508C215.775 30.5777 215.775 30.4049 215.775 30.2318C215.674 28.9011 215.804 27.6036 216.164 26.3393C216.493 27.416 216.666 28.5404 216.683 29.7128C216.945 29.93 217.248 30.0164 217.591 29.9723C218.103 30.7423 218.406 31.6072 218.499 32.5673C218.714 32.2658 218.93 31.9629 219.148 31.6591C218.728 31.0985 218.814 30.7093 219.408 30.4913Z" fill="#BB6DDE"/>
<path fill-rule="evenodd" clip-rule="evenodd" d="M111.455 32.3078C111.542 33.084 111.283 33.6894 110.677 34.1243C110.677 33.8648 110.677 33.6053 110.677 33.3458C110.838 32.9249 111.098 32.579 111.455 32.3078Z" fill="#DFC2E5"/>
<path fill-rule="evenodd" clip-rule="evenodd" d="M137.406 33.3458C137.11 33.9375 136.807 34.5432 136.497 35.1623C136.286 35.5056 135.983 35.6785 135.589 35.6813C135.55 35.4083 135.593 35.1488 135.719 34.9028C136.338 34.4375 136.901 33.9185 137.406 33.3458Z" fill="#CDA4DB"/>
<path fill-rule="evenodd" clip-rule="evenodd" d="M8.95277 34.3838C8.95277 34.2974 8.95277 34.2107 8.95277 34.1243C12.9327 34.081 16.9116 34.1243 20.8898 34.2541C21.2329 35.3614 21.2329 36.4427 20.8898 37.4978C20.9715 36.4933 20.8851 35.5417 20.6303 34.6433C16.758 34.3882 12.8655 34.3018 8.95277 34.3838Z" fill="#CDB5DC"/>
<path fill-rule="evenodd" clip-rule="evenodd" d="M230.566 32.8268C230.286 33.4143 229.94 33.9767 229.528 34.5136C229.193 34.6407 228.847 34.6841 228.49 34.6433C229.176 34.0454 229.868 33.4398 230.566 32.8268Z" fill="#C290DA"/>
<path fill-rule="evenodd" clip-rule="evenodd" d="M101.594 20.8898C102.19 22.0456 102.709 23.2564 103.151 24.5228C103.111 25.3574 103.371 26.0494 103.93 26.5988C104.023 27.5753 104.239 28.5269 104.579 29.4533C104.762 29.6819 104.979 29.8548 105.227 29.9723C105.373 30.5694 105.503 31.1748 105.617 31.7888C105.746 32.3192 106.049 32.6654 106.525 32.8268C106.408 33.4696 106.581 33.9886 107.044 34.3838C107.238 33.6061 107.411 32.8276 107.563 32.0483C107.764 31.7341 107.98 31.7341 108.212 32.0483C108.314 32.4892 108.184 32.8785 107.822 33.2161C108.421 34.4355 108.94 35.6896 109.379 36.9788C109.068 38.5267 108.463 39.9107 107.563 41.1308C106.936 41.8678 106.59 42.7327 106.525 43.7258C106.272 44.4096 105.84 44.9286 105.227 45.2828C104.2 45.6005 103.249 46.0331 102.373 46.5803C101.791 46.9208 101.099 47.0936 100.297 47.0993C99.5561 47.0986 98.864 47.0122 98.221 46.8398C97.9194 45.6773 97.9194 44.5529 98.221 43.4663C99.8893 43.6745 101.446 43.3719 102.892 42.5581C103.393 41.6145 103.955 40.7063 104.579 39.8333C104.761 38.9996 104.718 38.178 104.449 37.3681C103.765 36.4655 103.246 35.4709 102.892 34.3838C102.773 34.1767 102.6 34.0903 102.373 34.1243C102.37 33.173 102.024 32.3945 101.335 31.7888C100.733 30.2334 100.127 28.6764 99.5185 27.1178C99.2997 25.8966 98.9969 24.6858 98.6102 23.4848C98.3214 23.2759 98.0188 23.1028 97.702 22.9658C97.4876 22.1912 97.1417 21.4994 96.664 20.8898C96.664 20.7167 96.664 20.5439 96.664 20.3708C96.5643 19.7405 96.3912 19.1348 96.145 18.5543C97.3592 18.5112 98.57 18.5546 99.778 18.684C100.438 19.3865 101.044 20.1217 101.594 20.8898Z" fill="#BC6DDD"/>
<path fill-rule="evenodd" clip-rule="evenodd" d="M189.565 33.3458C188.747 34.5035 188.056 35.7145 187.489 36.9788C187.751 36.3174 187.967 35.6255 188.138 34.9028C188.562 34.2964 189.038 33.7774 189.565 33.3458Z" fill="#D2A2E5"/>
<path fill-rule="evenodd" clip-rule="evenodd" d="M49.6944 24.5228C49.7808 24.5228 49.8674 24.5228 49.9539 24.5228C49.8682 28.9797 49.9546 33.3912 50.2134 37.7573C51.3733 38.0132 52.5844 38.0996 53.8464 38.0168C52.5995 38.273 51.302 38.3596 49.9539 38.2763C49.6951 33.7371 49.6087 29.1525 49.6944 24.5228Z" fill="#B994C8"/>
<path fill-rule="evenodd" clip-rule="evenodd" d="M73.3089 32.8268C73.0004 33.5661 72.4814 34.1285 71.7519 34.5136C70.1529 35.1011 68.5092 35.2739 66.8214 35.0326C66.5837 34.9604 66.4109 34.8307 66.3024 34.6433C68.0704 35.0572 69.8005 34.9275 71.4924 34.2541C72.13 33.7735 72.7357 33.2976 73.3089 32.8268Z" fill="#D2B1E1"/>
<path fill-rule="evenodd" clip-rule="evenodd" d="M130.399 34.6433C129.702 35.0302 128.924 35.2031 128.064 35.1623C127.494 35.161 126.975 35.0746 126.507 34.9028C127.814 34.9254 129.111 34.839 130.399 34.6433Z" fill="#BF92D4"/>
<path fill-rule="evenodd" clip-rule="evenodd" d="M150.9 33.6053C151.653 34.1908 152.086 34.9693 152.197 35.9408C152.457 35.9408 152.716 35.9408 152.976 35.9408C152.98 36.4767 153.066 36.9957 153.235 37.4978C152.043 36.4598 151.264 35.1623 150.9 33.6053Z" fill="#D3A2EA"/>
<path fill-rule="evenodd" clip-rule="evenodd" d="M119.5 34.9028C120.105 35.3354 120.624 35.8544 121.057 36.4598C120.279 36.2003 119.76 35.6813 119.5 34.9028Z" fill="#E3C7EB"/>
<path fill-rule="evenodd" clip-rule="evenodd" d="M207.73 25.8203C207.946 29.7546 208.076 33.7338 208.119 37.7573C209.087 38.0064 210.082 38.0929 211.104 38.0168C210.049 38.3599 208.967 38.3599 207.86 38.0168C207.73 33.9523 207.687 29.8867 207.73 25.8203Z" fill="#C5A3D7"/>
<path fill-rule="evenodd" clip-rule="evenodd" d="M220.965 33.6053C223.263 35.2472 225.772 35.5934 228.49 34.6433C228.513 34.9018 228.426 35.1179 228.231 35.2921C226.952 35.66 225.654 35.7465 224.338 35.5516C222.79 35.5583 221.666 34.9096 220.965 33.6053Z" fill="#BE8FD3"/>
<path fill-rule="evenodd" clip-rule="evenodd" d="M28.1558 18.8138C27.2865 18.771 26.4216 18.8143 25.5608 18.9435C25.1313 19.3183 24.9583 19.7942 25.0418 20.3708C24.74 26.1221 24.6967 31.9175 24.9121 37.7573C25.9672 38.0075 27.0485 38.0939 28.1558 38.0168C26.9958 38.2727 25.7848 38.3591 24.5228 38.2763C24.5228 38.1899 24.5228 38.1032 24.5228 38.0168C24.4795 31.7883 24.5228 25.5603 24.6526 19.3328C24.8687 19.1166 25.0851 18.9002 25.3013 18.684C26.3025 18.4738 27.2538 18.5172 28.1558 18.8138Z" fill="#C091D8"/>
<path fill-rule="evenodd" clip-rule="evenodd" d="M77.4609 34.6433C77.2224 35.3152 76.7898 35.8342 76.1634 36.2003C76.4019 35.5285 76.8345 35.0095 77.4609 34.6433Z" fill="#EDCEF5"/>
<path fill-rule="evenodd" clip-rule="evenodd" d="M135.589 35.6813C135.04 36.5763 134.261 37.1818 133.254 37.4978C133.667 36.8579 134.186 36.2956 134.811 35.8111C135.057 35.6857 135.316 35.6427 135.589 35.6813Z" fill="#C08CD8"/>
<path fill-rule="evenodd" clip-rule="evenodd" d="M152.197 21.1493C151.359 25.873 152.224 30.1978 154.792 34.1243C155.116 34.7554 155.506 35.3611 155.96 35.9408C157.206 36.9267 158.373 38.008 159.463 39.1846C160.238 39.8313 161.103 40.3069 162.058 40.6118C162.454 40.5929 162.714 40.766 162.837 41.1308C162.761 41.429 162.545 41.6021 162.188 41.6498C161.06 42.0959 159.892 42.3554 158.685 42.4283C158.429 41.6537 157.91 41.1347 157.128 40.8713C157.182 40.7193 157.268 40.5895 157.387 40.4821C156.954 40.3957 156.522 40.309 156.09 40.2226C155.755 39.755 155.322 39.4521 154.792 39.3143C154.091 38.8644 153.572 38.2587 153.235 37.4978C153.066 36.9957 152.98 36.4767 152.976 35.9408C152.716 35.9408 152.457 35.9408 152.197 35.9408C152.086 34.9693 151.653 34.1908 150.9 33.6053C149.609 29.9043 149.047 26.0982 149.213 22.1873C149.306 21.3974 149.479 21.3107 149.732 21.9278C149.818 23.3117 149.905 24.6959 149.991 26.0798C150.078 25.9934 150.164 25.9067 150.251 25.8203C150.062 23.9963 150.192 22.1798 150.64 20.3708C150.652 19.9815 150.479 19.722 150.121 19.5923C149.767 20.6466 149.594 20.6033 149.602 19.4625C149.588 18.6807 149.847 18.0319 150.381 17.5163C151.218 18.6129 151.824 19.824 152.197 21.1493Z" fill="#D286F0"/>
<path fill-rule="evenodd" clip-rule="evenodd" d="M185.154 29.9723C185.181 30.6444 185.008 31.2498 184.635 31.7888C184.725 32.3981 185.071 32.7443 185.673 32.8268C182.9 37.934 178.662 41.0481 172.957 42.1688C173.569 41.7461 174.261 41.4435 175.033 41.2606C174.687 41.1742 174.341 41.0875 173.995 41.0011C174.299 40.8924 174.559 40.7195 174.774 40.4821C174.35 40.3539 173.917 40.3108 173.476 40.3523C173.476 40.2659 173.476 40.1792 173.476 40.0928C174.988 39.7708 176.459 39.2949 177.888 38.6656C181.219 36.5037 183.642 33.6061 185.154 29.9723Z" fill="#E6C1FC"/>
<path fill-rule="evenodd" clip-rule="evenodd" d="M20.6303 34.6433C20.8851 35.5417 20.9715 36.4933 20.8898 37.4978C20.8898 37.5842 20.8898 37.6709 20.8898 37.7573C15.1925 38.0111 9.48345 38.0978 3.76276 38.0168C3.76276 37.6709 3.76276 37.3247 3.76276 36.9788C3.99734 37.1628 4.08384 37.4223 4.02226 37.7573C9.12637 37.8007 14.23 37.7573 19.3328 37.6276C19.7418 37.5134 20.0879 37.2972 20.3708 36.9788C20.6261 36.219 20.7126 35.4405 20.6303 34.6433Z" fill="#C27FDD"/>
<path fill-rule="evenodd" clip-rule="evenodd" d="M41.3903 36.9788C41.4184 37.5015 41.2455 37.9338 40.8713 38.2763C39.7469 38.2763 38.6222 38.2763 37.4978 38.2763C37.4978 38.1032 37.4978 37.9304 37.4978 37.7573C37.5842 37.7573 37.6709 37.7573 37.7573 37.7573C38.799 37.8004 39.837 37.7571 40.8713 37.6276C41.0182 37.3694 41.1913 37.1532 41.3903 36.9788Z" fill="#B783CF"/>
<path fill-rule="evenodd" clip-rule="evenodd" d="M132.994 37.4978C132.111 38.2397 131.073 38.629 129.88 38.6656C128.496 38.8387 127.112 38.8387 125.728 38.6656C125.407 38.6054 125.148 38.4756 124.95 38.2763C126.509 38.3194 128.066 38.2761 129.621 38.1466C130.661 37.5827 131.786 37.3665 132.994 37.4978Z" fill="#C081DA"/>
<path fill-rule="evenodd" clip-rule="evenodd" d="M155.83 32.5673C157.918 36.0407 160.859 38.4629 164.653 39.8333C164.116 39.8201 163.64 39.9929 163.226 40.3523C162.762 40.1165 162.286 40.0731 161.799 40.2226C161.943 40.322 162.029 40.4517 162.058 40.6118C161.103 40.3069 160.238 39.8313 159.463 39.1846C158.373 38.008 157.206 36.9267 155.96 35.9408C155.506 35.3611 155.116 34.7554 154.792 34.1243C154.718 33.6603 154.805 33.2278 155.052 32.8268C155.237 32.3247 155.496 32.2383 155.83 32.5673Z" fill="#EAB8FA"/>
<path fill-rule="evenodd" clip-rule="evenodd" d="M3.50326 36.9788C3.58975 36.9788 3.67627 36.9788 3.76276 36.9788C3.76276 37.3247 3.76276 37.6709 3.76276 38.0168C9.48345 38.0978 15.1925 38.0111 20.8898 37.7573C18.0838 38.103 15.1862 38.2761 12.1965 38.2763C9.25431 38.2763 6.35644 38.1899 3.50326 38.0168C3.50326 37.6709 3.50326 37.3247 3.50326 36.9788Z" fill="#BD92CC"/>
<path fill-rule="evenodd" clip-rule="evenodd" d="M63.7074 36.9788C63.3716 36.7738 63.0688 36.5143 62.7991 36.2003C62.6702 36.887 62.6268 37.5791 62.6694 38.2763C61.3719 38.2763 60.0744 38.2763 58.7769 38.2763C58.7769 38.1899 58.7769 38.1032 58.7769 38.0168C59.9013 38.0168 61.026 38.0168 62.1504 38.0168C62.1504 37.4978 62.1504 36.9788 62.1504 36.4598C63.0002 35.6772 63.5192 35.8503 63.7074 36.9788Z" fill="#B78CC9"/>
<path fill-rule="evenodd" clip-rule="evenodd" d="M123.393 37.7573C124.015 37.6948 124.534 37.8679 124.95 38.2763C124.327 38.3389 123.808 38.1658 123.393 37.7573Z" fill="#B589CC"/>
<path fill-rule="evenodd" clip-rule="evenodd" d="M197.869 37.7573C198.042 37.7573 198.215 37.7573 198.388 37.7573C198.388 37.9304 198.388 38.1032 198.388 38.2763C197.126 38.3591 195.915 38.2727 194.755 38.0168C195.846 38.0991 196.884 38.0124 197.869 37.7573Z" fill="#B695C6"/>
<path fill-rule="evenodd" clip-rule="evenodd" d="M28.9343 26.0798C28.9343 29.9723 28.9343 33.8648 28.9343 37.7573C28.9143 38.0817 28.7412 38.2979 28.4153 38.4061C27.0701 38.6178 25.7726 38.5748 24.5228 38.2763C25.7847 38.3591 26.9958 38.2727 28.1558 38.0168C28.3159 37.988 28.4457 37.9016 28.5451 37.7573C28.5889 33.8202 28.7187 29.9277 28.9343 26.0798Z" fill="#DDBFE8"/>
<path fill-rule="evenodd" clip-rule="evenodd" d="M86.5434 37.7573C86.6299 37.7573 86.7165 37.7573 86.8029 37.7573C86.6581 38.0921 86.3986 38.3082 86.0244 38.4061C84.9374 38.6168 83.8994 38.5735 82.9104 38.2763C83.915 38.3581 84.8665 38.2717 85.7649 38.0168C86.0527 38.002 86.3122 37.9156 86.5434 37.7573Z" fill="#E7D9F3"/>
<path fill-rule="evenodd" clip-rule="evenodd" d="M219.408 36.9788C220.564 37.2472 221.688 37.6364 222.781 38.1466C224.163 38.2761 225.546 38.3194 226.933 38.2763C225.599 38.5327 224.215 38.6191 222.781 38.5358C221.45 38.4118 220.326 37.8928 219.408 36.9788Z" fill="#BD83D8"/>
<path fill-rule="evenodd" clip-rule="evenodd" d="M231.085 37.4978C230.124 38.2807 229 38.7133 227.712 38.7953C228.231 38.5358 228.75 38.2763 229.269 38.0168C229.897 37.9187 230.502 37.7457 231.085 37.4978Z" fill="#F3DEF9"/>
<path fill-rule="evenodd" clip-rule="evenodd" d="M65.5239 38.0168C66.7396 38.3869 67.9938 38.56 69.2866 38.5358C70.6633 38.5498 72.0039 38.3768 73.3089 38.0168C71.4657 38.9996 69.4763 39.3021 67.3404 38.9251C66.6737 38.6921 66.0683 38.3892 65.5239 38.0168Z" fill="#C89CD9"/>
<path fill-rule="evenodd" clip-rule="evenodd" d="M229.269 38.0168C228.75 38.2763 228.231 38.5358 227.712 38.7953C226.019 38.8792 224.376 38.7927 222.781 38.5358C224.215 38.6191 225.599 38.5327 226.933 38.2763C227.707 38.1562 228.486 38.0698 229.269 38.0168Z" fill="#C192D2"/>
<path fill-rule="evenodd" clip-rule="evenodd" d="M154.792 39.3143C155.322 39.4521 155.755 39.755 156.09 40.2226C156.522 40.309 156.954 40.3957 157.387 40.4821C157.268 40.5895 157.182 40.7193 157.128 40.8713C157.91 41.1347 158.429 41.6537 158.685 42.4283C157.128 41.6958 155.83 40.6578 154.792 39.3143Z" fill="#D3A1EB"/>
<path fill-rule="evenodd" clip-rule="evenodd" d="M165.691 40.0928C168.284 40.4086 170.879 40.4086 173.476 40.0928C173.476 40.1792 173.476 40.2659 173.476 40.3523C172.185 40.4938 170.888 40.5802 169.584 40.6118C168.217 40.6671 166.919 40.494 165.691 40.0928Z" fill="#C26DDB"/>
<path fill-rule="evenodd" clip-rule="evenodd" d="M164.653 39.8333C164.967 40.0238 165.312 40.1102 165.691 40.0928C166.919 40.494 168.217 40.6671 169.584 40.6118C170.888 40.5802 172.185 40.4938 173.476 40.3523C173.917 40.3108 174.35 40.3539 174.774 40.4821C174.559 40.7195 174.299 40.8923 173.995 41.0011C174.341 41.0875 174.687 41.1742 175.033 41.2606C174.261 41.4435 173.569 41.7461 172.957 42.1688C172.957 42.2552 172.957 42.3419 172.957 42.4283C170.164 42.5428 167.396 42.3697 164.653 41.9093C164.153 41.444 163.548 41.1845 162.837 41.1308C162.714 40.766 162.454 40.5929 162.058 40.6118C162.029 40.4517 161.943 40.322 161.799 40.2226C162.286 40.0731 162.762 40.1164 163.226 40.3523C163.64 39.9929 164.116 39.8201 164.653 39.8333Z" fill="#EACBF9"/>
<path fill-rule="evenodd" clip-rule="evenodd" d="M162.837 41.1308C163.548 41.1846 164.153 41.4441 164.653 41.9093C163.237 42.037 161.853 42.2965 160.501 42.6878C160.501 42.9473 160.501 43.2068 160.501 43.4663C159.766 43.3161 159.161 42.9702 158.685 42.4283C159.892 42.3554 161.06 42.0959 162.188 41.6498C162.545 41.6021 162.761 41.429 162.837 41.1308Z" fill="#D28FEA"/>
<path fill-rule="evenodd" clip-rule="evenodd" d="M102.373 34.1243C102.6 34.0903 102.773 34.1767 102.892 34.3838C103.246 35.4709 103.765 36.4655 104.449 37.3681C104.718 38.178 104.761 38.9996 104.579 39.8333C103.955 40.7063 103.393 41.6146 102.892 42.5581C101.446 43.3719 99.8893 43.6745 98.2209 43.4663C99.0859 43.2933 99.951 43.1204 100.816 42.9473C100.816 42.8609 100.816 42.7743 100.816 42.6878C101.42 42.7535 101.939 42.5804 102.373 42.1688C103.085 41.0468 103.691 39.879 104.189 38.6656C103.656 37.1052 103.051 35.5915 102.373 34.1243Z" fill="#B77DD1"/>
<path fill-rule="evenodd" clip-rule="evenodd" d="M164.653 41.9093C167.396 42.3697 170.164 42.5428 172.957 42.4283C170.841 42.7286 168.678 42.7717 166.47 42.5581C165.727 42.5659 165.121 42.3497 164.653 41.9093Z" fill="#C88EE2"/>
<path fill-rule="evenodd" clip-rule="evenodd" d="M107.563 41.1308C107.528 42.1507 107.182 43.0158 106.525 43.7258C106.59 42.7327 106.936 41.8678 107.563 41.1308Z" fill="#B78AD3"/>
<path fill-rule="evenodd" clip-rule="evenodd" d="M160.501 43.4663C161.027 43.4243 161.546 43.4676 162.058 43.5961C162.341 43.9983 162.687 44.3012 163.096 44.5044C162.17 44.3001 161.305 43.9542 160.501 43.4663Z" fill="#DBABED"/>
<path fill-rule="evenodd" clip-rule="evenodd" d="M100.816 42.6878C100.816 42.7743 100.816 42.8609 100.816 42.9473C99.7943 42.8713 98.7996 42.9577 97.8317 43.2068C97.7022 44.4148 97.6589 45.6257 97.702 46.8399C97.4035 45.5901 97.3605 44.2926 97.5722 42.9473C98.6273 42.6972 99.7087 42.6108 100.816 42.6878Z" fill="#F5E2FC"/>
<path fill-rule="evenodd" clip-rule="evenodd" d="M100.816 42.9473C99.9511 43.1204 99.0859 43.2933 98.221 43.4663C97.9194 44.5529 97.9194 45.6773 98.221 46.8399C98.0479 46.8399 97.875 46.8399 97.702 46.8399C97.6589 45.6256 97.7022 44.4148 97.8317 43.2068C98.7996 42.9577 99.7943 42.8713 100.816 42.9473Z" fill="#BA90CE"/>
<path fill-rule="evenodd" clip-rule="evenodd" d="M163.096 44.5043C164.259 44.5127 165.297 44.7722 166.21 45.2829C165.068 45.3327 164.03 45.0732 163.096 44.5043Z" fill="#DAAEEE"/>
<path fill-rule="evenodd" clip-rule="evenodd" d="M166.21 45.2828C168.459 45.2828 170.708 45.2828 172.957 45.2828C172.109 45.6259 171.157 45.799 170.103 45.8018C168.736 45.8571 167.438 45.684 166.21 45.2828Z" fill="#DBB8E7"/>
<path fill-rule="evenodd" clip-rule="evenodd" d="M105.227 45.2828C104.581 46.3411 103.629 46.7734 102.373 46.5803C103.249 46.0331 104.2 45.6005 105.227 45.2828Z" fill="#B982D4"/>
</svg>
