<svg width="160" height="38" viewBox="0 0 160 38" fill="none" xmlns="http://www.w3.org/2000/svg">
<path d="M24.5765 18.1197H38.932C39.039 18.1192 39.1435 18.0873 39.2324 18.028C39.3213 17.9687 39.3905 17.8845 39.4316 17.7862C39.4726 17.6878 39.4835 17.5796 39.463 17.4751C39.4424 17.3705 39.3913 17.2744 39.3161 17.1986L36.1144 14.0146C36.0592 13.9595 35.9925 13.917 35.9192 13.89C35.8458 13.8629 35.7674 13.8521 35.6894 13.8581L35.4299 13.8784L26.7852 14.7019L31.8687 10.6497C31.9296 10.602 31.9796 10.5419 32.0153 10.4735C32.051 10.405 32.0716 10.3297 32.0757 10.2527C32.0797 10.1757 32.0672 10.0987 32.0389 10.0269C32.0106 9.95505 31.9672 9.8901 31.9116 9.83636L29.5782 7.52459C29.524 7.47138 29.4593 7.43005 29.388 7.40325C29.3168 7.37645 29.2408 7.36478 29.1647 7.369C29.0887 7.37321 29.0144 7.39321 28.9467 7.42771C28.8789 7.46221 28.8191 7.51045 28.7712 7.56932L24.7052 12.63L25.5225 4.02949L25.5429 3.77331C25.5494 3.69565 25.5386 3.61754 25.5114 3.54447C25.4843 3.47139 25.4413 3.40515 25.3856 3.3504L22.1941 0.156209C22.118 0.0813383 22.0214 0.030495 21.9164 0.0100549C21.8113 -0.0103851 21.7026 0.000487487 21.6037 0.0413097C21.5049 0.082132 21.4203 0.151086 21.3607 0.239527C21.3011 0.327967 21.269 0.431956 21.2686 0.538453V14.8238L24.5765 18.1197Z" fill="#F8F3EB"/>
<path d="M0.541096 18.1197H14.8966L18.2045 14.8279V0.538453C18.2041 0.431956 18.172 0.327967 18.1124 0.239527C18.0528 0.151086 17.9682 0.082132 17.8694 0.0413097C17.7705 0.000487487 17.6618 -0.0103851 17.5567 0.0100549C17.4517 0.030495 17.3551 0.0813383 17.279 0.156209L14.0793 3.34226C14.0221 3.39628 13.9777 3.46219 13.949 3.5353C13.9204 3.60841 13.9084 3.6869 13.9138 3.76517L13.9342 4.02136L14.7515 12.6219L10.6856 7.56932C10.6376 7.50881 10.5773 7.45915 10.5086 7.42363C10.4399 7.38811 10.3644 7.36755 10.2871 7.36332C10.2098 7.35909 10.1324 7.37128 10.0602 7.39909C9.98803 7.42689 9.92259 7.46968 9.86829 7.52459L7.56356 9.84653C7.50795 9.90027 7.46454 9.96522 7.43624 10.037C7.40794 10.1088 7.3954 10.1858 7.39946 10.2629C7.40352 10.3399 7.4241 10.4152 7.4598 10.4836C7.49551 10.5521 7.54551 10.6122 7.60647 10.6598L12.6879 14.7019L4.04109 13.8784L3.78161 13.8581C3.70361 13.8521 3.62523 13.8629 3.55186 13.89C3.4785 13.917 3.41189 13.9595 3.35662 14.0146L0.156975 17.1986C0.0817367 17.2744 0.0306446 17.3705 0.0101043 17.4751C-0.0104361 17.5796 0.000489879 17.6878 0.0415125 17.7862C0.082535 17.8845 0.151828 17.9687 0.240702 18.028C0.329576 18.0873 0.434075 18.1192 0.541096 18.1197Z" fill="#F8F3EB"/>
<path d="M38.9703 21.1697H0.676694C0.569413 21.1696 0.464522 21.2012 0.37533 21.2605C0.286138 21.3199 0.216667 21.4042 0.175732 21.5029C0.134797 21.6016 0.124242 21.7101 0.145409 21.8148C0.166575 21.9194 0.218508 22.0155 0.294617 22.0907L3.482 25.2626C3.53727 25.3177 3.60388 25.3602 3.67724 25.3872C3.75061 25.4142 3.82899 25.4251 3.90699 25.4191L4.16443 25.3988L18.3708 24.0467L17.4105 37.0593C17.4049 37.1332 17.4146 37.2075 17.4392 37.2775C17.4637 37.3475 17.5025 37.4117 17.5532 37.4661C17.6038 37.5205 17.6652 37.5639 17.7334 37.5936C17.8017 37.6233 17.8754 37.6387 17.9499 37.6388H21.2803C21.3548 37.6387 21.4285 37.6233 21.4967 37.5936C21.565 37.5639 21.6264 37.5205 21.677 37.4661C21.7276 37.4117 21.7664 37.3475 21.791 37.2775C21.8155 37.2075 21.8253 37.1332 21.8197 37.0593L20.8594 24.0467L35.4825 25.4008L35.74 25.4211C35.818 25.4271 35.8964 25.4163 35.9697 25.3892C36.0431 25.3622 36.1097 25.3197 36.165 25.2646L39.3524 22.0928C39.4292 22.0176 39.4817 21.9214 39.5033 21.8164C39.5249 21.7114 39.5145 21.6024 39.4735 21.5033C39.4325 21.4042 39.3627 21.3195 39.273 21.2601C39.1834 21.2006 39.078 21.1692 38.9703 21.1697V21.1697Z" fill="#F8F3EB"/>
<path d="M86.0154 15.2733C84.3768 14.1064 82.4646 13.3777 80.462 13.1568C77.816 12.8253 75.2641 13.1141 72.849 14.3096C70.434 15.5051 68.8198 17.3736 67.7717 19.781C67.0566 21.4198 66.7991 23.1582 66.7501 24.9311C66.6867 27.0985 66.9176 29.2253 67.7717 31.2341C68.6646 33.3283 70.0335 35.0464 72.0031 36.2358C74.8003 37.9214 77.8446 38.2995 81.0218 37.7892C83.3399 37.4446 85.508 36.4389 87.2638 34.8939C88.3637 33.8975 89.236 32.678 89.8219 31.3175C89.8409 31.2758 89.8493 31.23 89.846 31.1843C89.8428 31.1386 89.8281 31.0944 89.8033 31.0558C89.7786 31.0172 89.7445 30.9854 89.7042 30.9633C89.6638 30.9411 89.6186 30.9294 89.5726 30.9291H85.0163C84.9701 30.9294 84.9246 30.9403 84.8835 30.9611C84.8423 30.982 84.8066 31.0121 84.7792 31.0491C84.3943 31.5727 83.9313 32.0349 83.4062 32.4195C81.988 33.4441 80.2732 33.9815 78.5209 33.9505C76.9818 33.9862 75.4737 33.516 74.2302 32.6126C73.096 31.7703 72.2694 30.5823 71.8765 29.2293C71.7334 28.78 71.6395 28.3164 71.5332 27.8325C71.5238 27.7893 71.5242 27.7445 71.5343 27.7015C71.5445 27.6585 71.5642 27.6182 71.592 27.5837C71.6198 27.5492 71.655 27.5214 71.6951 27.5021C71.7351 27.4829 71.7789 27.4728 71.8233 27.4726H90.1488C90.2206 27.4729 90.2902 27.4473 90.3446 27.4006C90.399 27.3539 90.4347 27.2893 90.445 27.2185C90.7842 24.7786 90.445 21.9077 89.4765 19.6712C88.7431 17.9211 87.547 16.4014 86.0154 15.2733V15.2733ZM85.2757 23.6095H72.0358C71.9922 23.6093 71.9492 23.5996 71.9097 23.5811C71.8702 23.5626 71.8353 23.5358 71.8073 23.5025C71.7793 23.4692 71.7589 23.4303 71.7476 23.3884C71.7362 23.3465 71.7342 23.3026 71.7416 23.2598C72.2749 20.0656 74.5142 17.6766 77.9182 17.4651C82.1476 17.2029 84.9039 19.539 85.57 23.2557C85.578 23.2988 85.5765 23.3431 85.5655 23.3855C85.5545 23.428 85.5342 23.4675 85.5061 23.5012C85.478 23.535 85.4428 23.5622 85.403 23.5809C85.3632 23.5996 85.3198 23.6094 85.2757 23.6095V23.6095Z" fill="#F8F3EB"/>
<path d="M134.571 13.4127C131.079 13.4636 128.298 14.6977 126.698 17.9915V18.0363L126.165 14.1061C126.156 14.037 126.122 13.9734 126.07 13.9266C126.018 13.8797 125.951 13.8526 125.881 13.8499H121.897C121.858 13.8499 121.819 13.8575 121.783 13.8723C121.748 13.8871 121.715 13.9088 121.687 13.9362C121.66 13.9636 121.638 13.9961 121.623 14.0319C121.608 14.0676 121.601 14.106 121.601 14.1447V37.3437C121.601 37.3824 121.608 37.4208 121.623 37.4565C121.638 37.4923 121.66 37.5248 121.687 37.5522C121.715 37.5796 121.748 37.6013 121.783 37.6161C121.819 37.6309 121.858 37.6385 121.897 37.6385H126.412C126.491 37.6385 126.566 37.6075 126.622 37.5522C126.677 37.4969 126.709 37.4219 126.709 37.3437V26.3074C126.731 24.9039 126.977 23.5128 127.438 22.1861C127.816 21.1105 128.337 20.1142 129.197 19.3192C130.241 18.3555 131.535 17.9671 132.904 17.7638C133.463 17.6805 134.029 17.6479 134.599 17.6012C134.674 17.595 134.743 17.5613 134.793 17.5066C134.844 17.452 134.871 17.3805 134.871 17.3063V13.7096C134.871 13.6704 134.863 13.6317 134.848 13.5955C134.833 13.5594 134.811 13.5265 134.783 13.499C134.755 13.4714 134.722 13.4495 134.686 13.4347C134.649 13.4199 134.61 13.4125 134.571 13.4127V13.4127Z" fill="#F8F3EB"/>
<path d="M57.8256 37.4577C57.8825 37.5149 57.9503 37.5604 58.025 37.5915C58.0997 37.6225 58.1798 37.6385 58.2608 37.6386H64.4292C64.5246 37.6386 64.6161 37.6009 64.6835 37.5338C64.7509 37.4667 64.7888 37.3757 64.7888 37.2808V33.5234C64.7888 33.4285 64.7509 33.3375 64.6835 33.2703C64.6161 33.2032 64.5246 33.1655 64.4292 33.1655H59.4765C59.3681 33.1655 59.2642 33.1227 59.1876 33.0464C59.1109 32.9702 59.0679 32.8667 59.0679 32.7589V17.1031H64.0206C64.1159 17.1031 64.2074 17.0654 64.2749 16.9983C64.3423 16.9312 64.3802 16.8402 64.3802 16.7453V12.9879C64.3802 12.893 64.3423 12.8019 64.2749 12.7348C64.2074 12.6677 64.1159 12.63 64.0206 12.63H59.0679V5.69065C59.0668 5.62955 59.0503 5.56969 59.0199 5.51661C58.9894 5.46352 58.9461 5.41892 58.8937 5.38691C58.8414 5.35491 58.7818 5.33652 58.7205 5.33346C58.6592 5.3304 58.598 5.34276 58.5428 5.3694L54.5749 7.1993C54.5138 7.22814 54.4622 7.27363 54.426 7.33049C54.3898 7.38735 54.3706 7.45326 54.3706 7.52055V12.63H52.4826C52.3873 12.63 52.2958 12.6677 52.2284 12.7348C52.1609 12.8019 52.123 12.893 52.123 12.9879V16.7453C52.123 16.8402 52.1609 16.9312 52.2284 16.9983C52.2958 17.0654 52.3873 17.1031 52.4826 17.1031H54.3685V33.7267C54.3687 33.8874 54.4325 34.0416 54.5463 34.1557L57.8256 37.4577Z" fill="#F8F3EB"/>
<path d="M112.888 14.9762C111.103 13.9802 109.084 13.4737 107.037 13.5083C103.768 13.5083 101.18 14.7817 99.2726 17.3287L98.627 5.80845C98.6244 5.74757 98.6062 5.68838 98.574 5.63652C98.5419 5.58467 98.4969 5.54189 98.4434 5.5123C98.3899 5.48272 98.3296 5.4673 98.2684 5.46753C98.2071 5.46776 98.147 5.48364 98.0937 5.51363L94.3996 7.31303C94.3444 7.34379 94.2985 7.38864 94.2665 7.44297C94.2345 7.4973 94.2177 7.55913 94.2178 7.62208V37.2827C94.2178 37.377 94.2554 37.4675 94.3225 37.5343C94.3895 37.601 94.4805 37.6385 94.5753 37.6385H98.3185C98.4025 37.6383 98.4838 37.6086 98.5481 37.5547C98.6124 37.5008 98.6555 37.4261 98.6699 37.3437L99.2277 34.1922C100.046 35.348 101.139 36.2841 102.409 36.9167C103.721 37.5863 105.265 37.9204 107.043 37.9191C109.099 37.9526 111.124 37.4199 112.895 36.3799C114.617 35.3489 116.013 33.8557 116.922 32.0715C117.889 30.2254 118.372 28.1061 118.372 25.7137C118.372 23.1979 117.889 21.0244 116.922 19.1931C116.018 17.4275 114.616 15.9622 112.888 14.9762ZM111.125 32.0675C109.788 33.6615 108.039 34.4585 105.88 34.4585C103.721 34.4585 101.981 33.6527 100.66 32.041C99.336 30.4307 98.6747 28.3501 98.676 25.7991C98.676 23.2819 99.3373 21.2352 100.66 19.6587C101.983 18.0823 103.723 17.2934 105.88 17.2921C108.038 17.2921 109.786 18.0891 111.125 19.6831C112.464 21.2772 113.133 23.3314 113.132 25.8458C113.132 28.3995 112.463 30.4734 111.125 32.0675Z" fill="#F8F3EB"/>
<path d="M159.644 13.8498H155.915C155.831 13.8496 155.749 13.8792 155.685 13.9331C155.621 13.9871 155.578 14.0621 155.564 14.1447L155.008 17.3348C154.201 16.16 153.107 15.2085 151.829 14.5696C150.521 13.9054 148.981 13.5727 147.207 13.5713C145.175 13.5412 143.173 14.0636 141.417 15.082C139.694 16.0993 138.294 17.5791 137.377 19.3517C136.399 21.1938 135.91 23.3233 135.908 25.7401C135.908 28.2179 136.39 30.3786 137.355 32.222C138.25 33.991 139.645 35.4604 141.37 36.4491C143.151 37.4428 145.165 37.9479 147.207 37.913C148.949 37.913 150.474 37.5572 151.782 36.8455C153.06 36.1589 154.162 35.1892 155.004 34.0112L155.517 37.3335C155.53 37.4174 155.573 37.4938 155.638 37.549C155.702 37.6042 155.785 37.6345 155.87 37.6344H159.642C159.737 37.6344 159.828 37.5969 159.895 37.5302C159.962 37.4635 160 37.373 160 37.2786V14.2057C160 14.1116 159.962 14.0214 159.896 13.9548C159.829 13.8881 159.738 13.8504 159.644 13.8498V13.8498ZM153.212 32.0411C151.889 33.6541 150.149 34.4599 147.992 34.4585C145.834 34.4572 144.086 33.6602 142.747 32.0675C141.409 30.4734 140.74 28.4009 140.74 25.8499C140.74 23.3328 141.409 21.2772 142.747 19.6832C144.084 18.0891 145.833 17.2921 147.992 17.2921C150.151 17.2921 151.891 18.081 153.212 19.6588C154.533 21.2365 155.194 23.2833 155.194 25.7991C155.194 28.3501 154.533 30.4307 153.212 32.0411Z" fill="#F8F3EB"/>
</svg>
