<?xml version="1.0" encoding="UTF-8"?>
<svg xmlns="http://www.w3.org/2000/svg" width="176" height="92" viewBox="0 0 176 92" fill="none">
  <g id="_Awards logos">
    <path id="Vector" opacity="0.9" d="M77.5193 61.7171L78.4509 66.2924H71.6289C73.8755 65.4705 75.8755 64.0733 77.5193 61.7171ZM126.889 26.3198H114.423L105.492 53.8267H105.382L96.0947 26.3198H72.3413C77.9851 28.2102 82.4508 32.676 83.2728 39.4979H74.807C73.7385 35.0322 70.4509 32.7856 66.3413 32.7856C58.4509 32.7856 55.4098 39.4979 55.4098 46.539C55.4098 53.2513 58.3413 59.9363 66.3413 59.9363C72.0947 59.9363 75.3824 56.8678 75.8755 51.3609H66.944V44.7856H83.7659V66.3198H91.8481V38.2102H91.9577L101.821 66.3198H108.643L118.506 37.9911H118.615V66.3198H119.328L134.643 26.3198H126.889ZM46.4782 46.4294C46.4782 36.8952 51.3002 29.0322 59.7659 26.3198H37.4372L28.5056 53.8267H28.3961L19.081 26.3198H6.61523V66.3198H14.8344V38.2102H14.944L24.807 66.3198H31.6289L41.4919 37.9911H41.6015V66.3198H59.8207C51.3002 63.7171 46.4782 55.8541 46.4782 46.4294ZM144.067 50.8952L138.999 36.2102H138.889L133.711 50.8952H144.067ZM158.643 66.3198H161.93V26.3198H143.602L158.643 66.3198ZM131.711 57.3609L128.533 66.3198H149.684L146.752 57.3883H131.711V57.3609ZM169.437 62.6486C169.437 62.8952 169.328 63.1143 169.081 63.2239C168.971 63.3335 168.834 63.3335 168.615 63.3335C168.862 63.3335 169.081 63.4431 169.191 63.6897C169.3 63.7993 169.3 64.0459 169.3 64.1554V64.7308H168.834V64.3746C168.834 64.0185 168.725 63.7993 168.478 63.6623C168.369 63.5527 168.122 63.5527 167.903 63.5527H167.465V64.8404H166.889V61.6623H168.067C168.423 61.6623 168.78 61.6623 168.999 61.7719C169.328 61.9637 169.437 62.3198 169.437 62.6486ZM168.862 62.7856C168.862 62.539 168.862 62.3198 168.615 62.3198C168.506 62.2102 168.259 62.2102 167.903 62.2102H167.465V63.3883H167.93C168.177 63.3883 168.396 63.3883 168.506 63.2787C168.752 63.1417 168.862 63.0048 168.862 62.7856ZM170.149 65.4705C169.574 66.0458 168.862 66.2924 168.04 66.2924C167.218 66.2924 166.506 66.0458 165.93 65.4705C165.355 64.8952 165.108 64.1828 165.108 63.3609C165.108 62.539 165.355 61.8267 165.93 61.2513C166.506 60.676 167.218 60.4294 168.04 60.4294C168.862 60.4294 169.574 60.676 170.149 61.2513C170.725 61.8267 170.971 62.539 170.971 63.3609C171.108 64.1828 170.752 64.8952 170.149 65.4705ZM170.615 63.3609C170.615 62.6486 170.369 62.0732 169.903 61.6075C169.437 61.1417 168.834 60.8952 168.149 60.8952C167.437 60.8952 166.862 61.1417 166.396 61.6075C165.93 62.0732 165.684 62.676 165.684 63.3609C165.684 64.0733 165.93 64.6486 166.396 65.1143C166.862 65.5801 167.465 65.8267 168.149 65.8267C168.862 65.8267 169.437 65.5801 169.903 65.1143C170.396 64.6486 170.615 64.0733 170.615 63.3609Z" fill="white"></path>
  </g>
</svg>
