<svg width="157" height="156" viewBox="0 0 157 156" fill="none" xmlns="http://www.w3.org/2000/svg">
<g clip-path="url(#clip0_8585_37281)">
<path d="M113.161 50.1038C113.648 47.4851 123.135 50.5994 125.21 52.2734Z" fill="#FFCFBF"/>
<path d="M119.848 49.9219C124.54 46.3387 137.537 57.8549 137.947 58.0938L138.127 63.1887C137.983 66.0125 137.2 69.0751 135.728 71.4889L132.4 75.6104C131.936 75.2646 131.048 73.662 127.201 71.3908C121.859 68.2355 108.378 64.3688 109.385 59.9905C110.216 56.3824 117.195 67.2104 118.127 61.1707C118.496 58.7748 115.828 57.0331 113.533 57.0937C111.433 57.1489 110.883 58.5287 109.613 58.2988C108.323 58.0635 108.171 56.0544 111.997 54.6336C116.935 52.801 120.01 56.509 120.078 55.6711C120.145 54.8332 113.325 52.4355 111.788 52.1503C111.02 52.0077 108.995 51.7634 109.234 50.5637C109.503 49.2196 123.215 50.7937 126.447 52.8937" fill="#FFCFBF"/>
<path d="M23.6609 52.578C25.67 51.3961 31.0822 46.5596 31.6099 48.8272C31.8416 49.8237 28.4331 51.0716 27.5168 53.1538" fill="#CBDDE0"/>
<path d="M24.2296 52.1805C24.2296 52.1805 26.0069 49.1142 25.8073 48.3691C25.3188 46.5329 23.299 49.9004 21.1634 52.168C17.6568 55.892 18.9867 53.8045 9.85938 67.0605L10.8309 70.1036C11.8899 72.5476 13.4497 74.7421 15.4071 76.548L18.2095 78.5767C19.2363 76.1825 21.2008 73.6493 21.8123 72.9612C26.3296 67.8859 38.4465 63.6378 35.76 61.6679C34.5674 60.7926 28.0998 65.2101 28.0499 61.5663C27.9822 56.8065 33.8686 57.7977 34.7902 58.6766C36.0221 59.8514 37.5267 60.3077 38.4162 60.2935C39.3076 60.2792 39.6124 57.1809 34.1859 55.7244C31.1143 54.9008 26.7503 56.3341 26.8609 56.0168C27.1033 55.3233 31.0716 54.391 32.4317 54.2608C34.5371 54.0594 36.6121 54.0202 36.5801 53.1378C36.5373 51.9416 30.1695 51.9719 26.4918 52.9969" fill="#CBDDE0"/>
<path d="M33.7634 60.6732L36.9384 106.727C36.9633 107.093 37.3395 107.326 37.6782 107.184C40.2684 106.094 49.7363 102.397 58.4572 102.557C68.6773 102.746 84.4416 108.357 93.2356 108.152C101.272 107.964 113.961 101.194 116.09 100.028C116.277 99.9262 116.384 99.7212 116.364 99.5091L112.342 56.5642C112.305 56.1666 111.863 55.9491 111.526 56.1613C109.342 57.5357 102.409 61.3132 92.5511 61.0227C80.5179 60.6679 72.0431 55.491 60.6838 55.589C45.8411 55.7174 36.0453 59.3523 34.0968 60.1384C33.8829 60.2258 33.7492 60.4397 33.7652 60.6715L33.7634 60.6732Z" fill="#004952"/>
<path d="M33.7634 60.6732L36.9384 106.727C36.9633 107.093 37.3395 107.326 37.6782 107.184C40.2684 106.094 49.7363 102.397 58.4572 102.557C68.6773 102.746 84.4416 108.357 93.2356 108.152C101.272 107.964 113.961 101.194 116.09 100.028C116.277 99.9262 116.384 99.7212 116.364 99.5091L112.342 56.5642C112.305 56.1666 111.863 55.9491 111.526 56.1613C109.342 57.5357 102.409 61.3132 92.5511 61.0227C80.5179 60.6679 72.0431 55.491 60.6838 55.589C45.8411 55.7174 36.0453 59.3523 34.0968 60.1384C33.8829 60.2258 33.7492 60.4397 33.7652 60.6715L33.7634 60.6732Z" stroke="#004952" stroke-width="0.356537" stroke-linecap="round" stroke-linejoin="round"/>
<path d="M21.7981 73.0041C26.2905 67.9091 38.4323 63.6806 35.7458 61.7107C34.5532 60.8354 28.1659 65.2512 28.0357 61.6091" fill="#CBDDE0"/>
<path d="M118.126 61.1723C118.126 61.1723 117.487 62.8658 116.623 62.9746C115.662 63.0958 112.82 60.9798 112.346 60.584C109.61 58.3004 109.515 59.5144 109.209 59.9601C108.902 60.4057 109.724 62.6252 111.011 63.4113C112.298 64.1975 114.423 65.7823 119.511 67.9429C121.4 68.7451 125.7 70.2194 126.761 71.1607C127.827 72.1073 124.891 66.1781 123.286 64.2296C121.682 62.2829 118.126 61.1723 118.126 61.1723V61.1723Z" fill="#FFCFBF"/>
<path d="M127.027 71.3585C120.505 67.9073 108.203 64.3365 109.21 59.9583C110.041 56.3501 116.73 67.1247 117.953 61.1384" fill="#FFCFBF"/>
<path d="M78.9241 81.4665H86.8945C87.1619 81.4665 87.2974 81.142 87.1067 80.9531L85.3293 79.1757C85.2669 79.1133 85.1814 79.0813 85.094 79.0884L84.9496 79.0991L80.1488 79.559L82.9708 77.2986C83.1099 77.1863 83.1224 76.9777 82.9958 76.8511L81.6998 75.5551C81.5732 75.4285 81.3646 75.4392 81.2523 75.5801L78.9954 78.3985L79.4536 73.6013L79.4643 73.4569C79.4714 73.3695 79.4393 73.284 79.3769 73.2216L77.5996 71.4442C77.4106 71.2553 77.0862 71.389 77.0862 71.6564V79.6268H77.088L77.0862 79.6285L78.9223 81.4647L78.9241 81.4665Z" fill="#F8F3EB"/>
<path d="M65.57 81.4664H73.5404L75.3765 79.6302H75.3748L75.3765 79.6284V71.658C75.3765 71.3906 75.0521 71.2552 74.8631 71.4459L73.0858 73.2232C73.0234 73.2856 72.9913 73.3712 72.9984 73.4586L73.0091 73.603L73.4673 78.4002L71.2104 75.5817C71.0981 75.4427 70.8895 75.4302 70.763 75.5568L69.4669 76.8528C69.3404 76.9794 69.3511 77.1879 69.4919 77.3002L72.3139 79.5607L67.5131 79.1008L67.3687 79.0901C67.2814 79.0829 67.1958 79.115 67.1334 79.1774L65.3561 80.9548C65.1671 81.1437 65.3008 81.4682 65.5682 81.4682L65.57 81.4664Z" fill="#F8F3EB"/>
<path d="M86.8945 83.1761H65.57C65.3026 83.1761 65.1671 83.5006 65.3578 83.6896L67.1352 85.4669C67.1976 85.5293 67.2831 85.5614 67.3705 85.5543L67.5149 85.5436L75.4247 84.7877L74.8899 92.07C74.8774 92.2447 75.0146 92.3926 75.1893 92.3926H77.0451C77.2198 92.3926 77.3571 92.2447 77.3446 92.07L76.8098 84.7859L84.9513 85.5436L85.0957 85.5543C85.1831 85.5614 85.2687 85.5293 85.3311 85.4669L87.1084 83.6896C87.2974 83.5006 87.1637 83.1761 86.8962 83.1761H86.8945Z" fill="#F8F3EB"/>
<path d="M15.6388 91.7686C15.5407 91.7686 15.4623 91.6901 15.4605 91.5939C15.407 88.1372 15.9062 79.3896 21.6785 72.8418C23.7322 70.5118 27.2993 68.4047 30.4475 66.5436C33.2606 64.8821 35.9168 63.3115 35.965 62.3328C35.9739 62.1403 35.8723 61.9692 35.6548 61.8087C35.2858 61.5378 34.07 61.9603 32.8952 62.3685C31.2551 62.9372 29.3958 63.5843 28.4598 62.9265C28.0784 62.6591 27.8805 62.2009 27.8716 61.5663C27.8413 59.4752 28.9358 58.5571 29.8593 58.1524C31.699 57.3502 34.2714 57.935 34.9114 58.5446C36.0666 59.6481 37.4945 60.1277 38.4108 60.1134C38.5677 60.1116 38.6996 59.9191 38.7335 59.6463C38.8386 58.8031 38.0115 56.9349 34.1359 55.8956C32.0751 55.3429 29.3886 55.8314 27.9447 56.0934C27.0159 56.2628 26.8376 56.2895 26.7253 56.1576C26.6789 56.1024 26.6647 56.0275 26.6896 55.958C26.9963 55.0827 31.289 54.1913 32.4121 54.0844C32.6937 54.0576 32.9772 54.0327 33.2535 54.0095C34.8116 53.8776 36.4213 53.7403 36.3999 53.1449C36.3981 53.0789 36.3482 53.0112 36.2555 52.9417C35.1521 52.1359 29.7933 52.2607 26.5381 53.1698C26.4436 53.1966 26.3456 53.1413 26.3188 53.0468C26.2921 52.9523 26.3474 52.8543 26.4418 52.8276C29.8414 51.8792 35.2751 51.7847 36.4659 52.6546C36.6513 52.7901 36.7493 52.9506 36.7547 53.1324C36.7886 54.0665 35.2412 54.1967 33.282 54.3642C33.0075 54.3874 32.7258 54.4124 32.4441 54.4391C30.5527 54.6192 28.1176 55.3786 27.3011 55.8456C27.4705 55.8189 27.6772 55.7815 27.8805 55.744C29.3512 55.4766 32.0894 54.9793 34.2268 55.5533C38.3306 56.6532 39.2112 58.673 39.0847 59.6927C39.0276 60.1544 38.7584 60.4682 38.4144 60.4735C37.4268 60.4878 35.8919 59.9797 34.6636 58.8067C34.4372 58.591 33.7544 58.3022 32.79 58.1774C32.1874 58.099 31.0233 58.0366 30.0001 58.4822C28.8003 59.0064 28.2049 60.0421 28.2263 61.5645C28.2334 62.0851 28.3761 62.4362 28.6631 62.6377C29.4492 63.1903 31.2177 62.5753 32.7775 62.0351C34.2126 61.5378 35.3446 61.1438 35.8651 61.5253C36.1824 61.7588 36.3358 62.0369 36.3197 62.3542C36.2609 63.5255 33.7758 64.9944 30.6276 66.8537C27.5025 68.7006 23.9621 70.7917 21.9459 73.0807C16.2556 79.534 15.7636 88.1747 15.817 91.5903C15.817 91.6883 15.7404 91.7703 15.6423 91.7721H15.6388V91.7686Z" fill="#004952"/>
<path d="M27.9306 52.8383C27.9074 52.8383 27.8824 52.833 27.8593 52.8241C27.7701 52.7848 27.7291 52.6797 27.7683 52.5887C28.2728 51.4425 29.3656 50.6937 30.2427 50.093C30.9273 49.6241 31.5191 49.2195 31.4371 48.8683C31.3854 48.6472 31.2802 48.51 31.118 48.4493C30.1767 48.0999 27.6275 49.97 25.7628 51.3337C24.9553 51.9256 24.2582 52.4354 23.7519 52.7331C23.6664 52.7831 23.5576 52.7545 23.5077 52.669C23.4578 52.5834 23.4863 52.4746 23.5719 52.4247C24.0621 52.1359 24.7538 51.6314 25.5542 51.0449C27.6935 49.478 30.1215 47.7006 31.241 48.116C31.5209 48.2194 31.7045 48.4458 31.7829 48.7898C31.9202 49.3781 31.2677 49.8238 30.4424 50.3889C29.6027 50.9647 28.5563 51.6796 28.0928 52.7331C28.0625 52.7991 27.9983 52.8401 27.9288 52.8401L27.9306 52.8383Z" fill="#004952"/>
<path d="M0.903014 81.2382C0.870926 81.2382 0.837055 81.2293 0.808532 81.2115C0.724746 81.1598 0.699788 81.0492 0.751486 80.9654C13.6154 60.477 16.949 56.2521 21.0367 52.0431C21.6588 51.4014 22.256 50.6776 22.8318 49.977C24.1118 48.4225 24.8677 47.5472 25.4631 47.6773C25.7073 47.7308 25.8802 47.9465 25.9801 48.3227C26.1869 49.0999 24.6858 51.7472 24.3828 52.2695C24.3329 52.3551 24.2241 52.3836 24.1385 52.3337C24.053 52.2838 24.0245 52.1751 24.0744 52.0895C24.7464 50.929 25.7661 48.9038 25.6342 48.4136C25.5914 48.2514 25.513 48.0535 25.3864 48.025C24.9746 47.9358 24.0245 49.0874 23.1064 50.2016C22.552 50.8755 21.9245 51.6385 21.2916 52.2891C17.2235 56.482 13.8988 60.6945 1.05454 81.1544C1.02067 81.2079 0.963626 81.2382 0.903014 81.2382Z" fill="#004952"/>
<path d="M22.6591 80.9048C22.6341 80.9048 22.6074 80.8994 22.5824 80.8869C22.397 80.7978 22.1474 80.6926 21.8586 80.5678C18.1827 78.9937 6.99639 74.2054 9.57415 57.343C9.58842 57.2467 9.67755 57.179 9.77738 57.1932C9.87543 57.2075 9.94139 57.2984 9.92713 57.3965C7.39215 73.9861 18.3878 78.6924 21.9995 80.2398C22.2918 80.3646 22.5432 80.4733 22.7357 80.5643C22.8249 80.607 22.8623 80.7122 22.8195 80.8014C22.7892 80.8655 22.725 80.903 22.6591 80.903V80.9048Z" fill="#004952"/>
<path d="M137.359 83.8589C137.289 83.8589 137.224 83.8179 137.195 83.7501C134.936 78.4199 130.911 73.6173 126.943 71.5173C125.214 70.6028 123.108 69.6936 120.882 68.731C114.678 66.0498 108.264 63.2777 109.036 59.9209C109.139 59.4681 109.348 59.1847 109.652 59.076C110.426 58.8032 111.606 59.7266 112.974 60.7962C114.377 61.8926 115.965 63.1369 116.894 62.7679C117.336 62.5932 117.632 62.037 117.774 61.1136C117.937 60.0689 117.466 59.2774 117.045 58.7979C116.195 57.8316 114.715 57.2059 113.36 57.2416C112.307 57.2683 111.665 57.6427 111.096 57.9707C110.571 58.2755 110.071 58.5625 109.403 58.4431C108.854 58.3433 108.483 57.9636 108.438 57.4519C108.365 56.6158 109.198 55.384 111.756 54.4356C115.268 53.1325 117.871 54.5765 119.12 55.2717C119.329 55.3876 119.557 55.5141 119.691 55.5658C119.225 54.8385 113.385 52.6315 111.576 52.2964C111.515 52.2857 111.446 52.2732 111.373 52.2607C110.663 52.1377 109.476 51.9309 109.032 51.2838C108.873 51.0539 108.824 50.79 108.882 50.4995C108.922 50.2998 109.075 50.1429 109.333 50.0342C111.079 49.2997 118.202 50.6403 121.16 52.5638C121.242 52.6173 121.265 52.7278 121.211 52.8098C121.158 52.8918 121.047 52.9168 120.965 52.8615C118.142 51.0253 111.111 49.6723 109.471 50.3622C109.373 50.4032 109.25 50.4727 109.232 50.569C109.193 50.7633 109.225 50.9309 109.326 51.0824C109.685 51.6065 110.824 51.8044 111.435 51.9096C111.512 51.922 111.581 51.9345 111.644 51.947C112.861 52.1734 120.167 54.5568 120.079 55.6585C120.067 55.8083 119.99 55.8796 119.93 55.9135C119.734 56.0204 119.472 55.876 118.951 55.5872C117.748 54.9187 115.243 53.5282 111.884 54.7743C109.512 55.655 108.738 56.7531 108.797 57.4252C108.827 57.7746 109.078 58.026 109.471 58.0955C110.011 58.1935 110.412 57.96 110.922 57.6659C111.496 57.3325 112.211 56.9171 113.355 56.8886C114.835 56.8494 116.386 57.509 117.316 58.5661C117.994 59.3362 118.275 60.2365 118.131 61.1706C117.965 62.242 117.605 62.8749 117.029 63.1013C115.911 63.5434 114.307 62.2901 112.758 61.0779C111.58 60.1563 110.362 59.2061 109.775 59.4129C109.59 59.4788 109.463 59.6714 109.387 60.0012C108.681 63.0692 115.239 65.9036 121.026 68.403C123.261 69.3692 125.372 70.2801 127.114 71.2018C131.152 73.3392 135.239 78.2095 137.528 83.6111C137.566 83.702 137.525 83.8054 137.434 83.8446C137.411 83.8535 137.387 83.8589 137.364 83.8589H137.359Z" fill="#004952"/>
<path d="M125.035 52.4192C124.996 52.4192 124.957 52.4067 124.923 52.38C123.228 51.0126 116.149 48.5614 113.831 49.4189C113.439 49.5633 113.221 49.7879 113.163 50.1053C113.145 50.2015 113.052 50.2657 112.954 50.2479C112.858 50.23 112.793 50.1373 112.811 50.0393C112.893 49.5954 113.195 49.2745 113.708 49.0838C116.17 48.1728 123.361 50.6597 125.148 52.1019C125.224 52.1643 125.237 52.2766 125.174 52.3532C125.139 52.3978 125.087 52.4192 125.035 52.4192V52.4192Z" fill="#004952"/>
<path d="M149.317 70.5526C149.266 70.5526 149.214 70.5295 149.178 70.4867C135.985 54.061 123.645 47.0782 119.782 50.0321C119.703 50.091 119.591 50.0767 119.532 49.9983C119.473 49.9198 119.488 49.8075 119.566 49.7487C121.65 48.1567 125.871 49.2281 131.148 52.6865C136.856 56.4284 143.358 62.6714 149.456 70.2638C149.519 70.3405 149.506 70.4528 149.43 70.5152C149.398 70.5419 149.357 70.5544 149.319 70.5544L149.317 70.5526Z" fill="#004952"/>
<path d="M128.87 77.9153C128.793 77.9153 128.722 77.8654 128.699 77.7887C128.67 77.6942 128.724 77.5944 128.816 77.5659C130.406 77.0792 133.546 74.9899 135.672 71.2266C139.058 65.2315 138.084 58.4216 136.671 53.7652C136.642 53.6708 136.696 53.5709 136.79 53.5424C136.885 53.5139 136.985 53.5674 137.013 53.6618C138.446 58.3842 139.432 65.2957 135.984 71.4014C133.637 75.5586 130.339 77.475 128.923 77.9064C128.905 77.9117 128.888 77.9135 128.872 77.9135L128.87 77.9153Z" fill="#004952"/>
</g>
<defs>
<clipPath id="clip0_8585_37281">
<rect width="155.55" height="60.6702" fill="white" transform="translate(0.724854 47.6649)"/>
</clipPath>
</defs>
</svg>
