<svg width="157" height="156" viewBox="0 0 157 156" fill="none" xmlns="http://www.w3.org/2000/svg">
<g clip-path="url(#clip0_8585_37311)">
<path d="M13.323 86.5796C11.4993 79.6258 0.934266 68.0833 5.14634 68.663C10.6954 69.4267 17.076 84.7687 17.7699 82.6236C18.6795 79.8099 6.79012 59.1599 12.1277 60.8756C15.1529 61.8488 21.5038 80.0637 22.7647 78.7606C24.0129 77.4701 17.3446 60.1944 21.5905 62.2106C24.6581 63.6682 25.6799 80.106 27.5522 80.1759C28.1911 80.1991 27.5522 69.7716 29.8412 69.9091C31.411 70.0043 29.9978 78.3057 32.035 85.0903C34.9439 94.7817 35.3163 97.9719 41.2758 111.977H20.8289C17.3087 97.1215 16.198 99.5374 11.548 91.1471C9.20186 86.9139 3.74161 85.1728 5.49752 83.3153C7.34017 81.3669 12.6777 85.6509 15.2841 88.5154C15.2841 88.5154 14.3892 88.5069 17.2579 93.3748" fill="#FFCFBF"/>
<path d="M75.7848 62.8368C74.7058 58.5126 72.0699 45.3729 74.4541 44.2834C77.5449 42.8723 80.8748 58.6416 81.3593 60.497C81.8733 62.4687 82.5461 62.5914 82.9227 61.1486C83.3902 58.9674 87.1707 44.8884 90.2615 46.3016C92.6458 47.3911 88.2814 64.5461 87.2024 68.8703" fill="#FF8D6E"/>
<path d="M71.2342 73.4547C75.8821 75.5788 76.2861 65.6039 75.7848 62.8368C75.349 60.4293 73.0578 59.9977 71.1348 62.4581" fill="#FF8D6E"/>
<path d="M68.0015 69.3167C67.6123 70.5586 67.1045 73.6113 68.3929 74.2883C72.2834 76.334 72.5881 66.7781 72.0846 64.3854C71.5811 61.9927 68.9112 61.2353 67.5213 62.5639C66.2477 63.7824 63.7641 65.5933 62.9221 75.9701C61.9087 88.4667 62.0526 91.8051 60.6521 112.21H86.5655C83.8344 89.9434 86.2313 90.3961 88.3574 76.4588C89.43 69.4289 86.4788 67.5291 83.1108 65.8684C79.5779 64.1252 77.1598 60.26 76.1782 61.9165C74.9088 64.0575 66.2879 75.0626 68.7293 76.7106C68.7293 76.7106 71.1389 86.8631 75.9518 82.2322" fill="#FF8D6E"/>
<path d="M80.0624 98.5008C75.6536 98.5008 71.3124 97.6884 67.3394 96.0446C58.8941 92.554 52.7886 85.7038 49.6809 76.2346C49.647 76.133 49.702 76.0251 49.8036 75.9913C49.9051 75.9596 50.013 76.0125 50.0469 76.114C53.1187 85.4711 59.148 92.2409 67.4854 95.6871C76.4913 99.4105 87.4076 98.8224 96.6864 94.1153C96.7816 94.0666 96.898 94.1047 96.9445 94.1999C96.9932 94.2951 96.9551 94.4114 96.8599 94.458C91.5731 97.1405 85.7596 98.4987 80.0624 98.4987V98.5008Z" fill="#004952"/>
<path d="M123.692 68.5825C123.905 66.9175 124.322 65.3986 124.703 64.8147C125.917 62.9593 128.359 61.3134 129.696 64.4593" fill="#CBDDE0"/>
<path d="M127.618 73.3763C126.177 74.5462 125.2 74.6943 124.567 74.231Z" fill="#C5D6D7"/>
<path d="M128.043 68.8004C128.46 67.0804 129.095 65.4832 129.533 64.8147C130.747 62.9593 133.188 61.3134 134.525 64.4593" fill="#CBDDE0"/>
<path d="M130.235 74.5737C128.57 74.982 127.849 74.0914 127.665 72.693Z" fill="#C5D6D7"/>
<path d="M132.782 76.1922C128.158 76.4545 131.103 67.8971 132.437 65.7244C133.599 63.8352 135.674 64.2266 136.489 66.9366" fill="#CBDDE0"/>
<path d="M124.24 70.9794C124.159 72.1578 123.965 65.2018 129.425 64.4614C133.374 63.9262 133.84 70.1078 135.054 68.2504C136.269 66.395 138.773 66.6341 139.507 68.2144C140.182 69.6614 141.682 72.0118 138.976 81.0516C135.716 91.9403 134.621 94.3098 129.08 112.004H102.496C114.555 96.1186 114.417 88.272 117.214 75.8008C118.625 69.5091 121.743 68.8787 125.134 68.5846C128.526 68.2905 130.076 69.9132 129.057 71.3306C128.037 72.748 125.426 73.9412 122.822 74.5293C122.556 62.1004 129.799 70.0465 127.667 68.1425" fill="#CBDDE0"/>
<path d="M129.899 101.126C125.49 101.126 121.255 100.333 117.529 98.7207C111.432 96.0826 107.294 91.5532 105.561 85.6212C105.532 85.5196 105.591 85.4117 105.693 85.3821C105.794 85.3546 105.902 85.4118 105.932 85.5133C107.63 91.3332 111.694 95.778 117.683 98.3674C126.45 102.161 138.09 101.367 148.061 96.3026C148.156 96.254 148.272 96.2921 148.319 96.3873C148.367 96.4825 148.329 96.5988 148.234 96.6454C142.395 99.6135 135.983 101.126 129.899 101.126V101.126Z" fill="#004952"/>
<path d="M86.5635 112.22C86.4577 112.22 86.3667 112.142 86.354 112.034C84.3019 95.3107 85.1608 91.2657 86.5846 84.5615C87.067 82.2873 87.6149 79.7106 88.1459 76.2241C89.1762 69.4713 86.5508 67.599 83.0136 65.8537C80.7309 64.7282 79.2225 64.889 78.573 65.4179C78.1647 65.7479 78.0272 66.262 78.1795 66.8607C78.6069 68.5214 80.5849 70.7448 83.2188 72.524C83.2886 72.5727 83.3245 72.6573 83.3076 72.7398C83.2907 72.8223 83.2251 72.8879 83.1426 72.9069C83.0876 72.9175 77.5808 74.1403 76.157 82.0652C76.1359 82.1794 76.0259 82.2577 75.9116 82.2365C75.7974 82.2154 75.7191 82.1054 75.7403 81.9911C76.5103 77.705 78.4503 75.3546 79.9418 74.1361C81.044 73.237 82.0552 72.8075 82.6116 72.6213C79.5694 70.4783 78.116 68.3119 77.7691 66.9686C77.5745 66.2091 77.7691 65.5258 78.3043 65.09C79.2775 64.2987 81.1074 64.4426 83.1997 65.475C86.7666 67.2351 89.6331 69.264 88.5627 76.2876C88.0295 79.7846 87.4816 82.3698 86.9971 84.6483C85.5353 91.5344 84.7293 95.3276 86.7729 111.981C86.7877 112.098 86.7052 112.203 86.5888 112.216C86.5804 112.216 86.5719 112.216 86.5635 112.216V112.22Z" fill="#004952"/>
<path d="M87.2024 68.8811C87.1855 68.8811 87.1685 68.8811 87.1516 68.8747C87.0374 68.8472 86.9697 68.7309 86.9972 68.6187L87.0924 68.2358C87.7186 65.7331 89.0197 60.5267 89.8976 55.7287C91.3023 48.0513 90.674 46.5239 90.1726 46.2954C89.9103 46.1748 89.6374 46.1896 89.3391 46.3398C88.1967 46.9131 86.8237 49.3651 85.3703 53.4291C84.2131 56.6637 83.3457 59.9788 83.1278 60.9964C82.9311 61.7538 82.6476 62.1346 82.2858 62.1346C81.8416 62.1346 81.4608 61.5359 81.1519 60.3533C81.1011 60.1608 81.0207 59.818 80.9128 59.3611C80.1026 55.9275 77.6337 45.4809 75.2262 44.3025C74.9851 44.1841 74.7608 44.1756 74.5387 44.2772C72.5564 45.1826 74.5027 56.6489 75.9857 62.5873C76.0132 62.7015 75.9455 62.8158 75.8313 62.8433C75.7192 62.8708 75.6028 62.8031 75.5753 62.6888C75.533 62.5154 71.3738 45.2567 74.3631 43.8921C74.7016 43.7377 75.0549 43.7483 75.4124 43.9217C77.7311 45.0557 79.8974 53.2196 81.3254 59.2616C81.4312 59.7144 81.5116 60.0529 81.5623 60.2454C81.8754 61.447 82.1906 61.7093 82.2858 61.7093C82.3472 61.7093 82.5418 61.5634 82.7153 60.897C83.1511 58.866 86.1975 47.4441 89.1487 45.9611C89.5634 45.7538 89.9674 45.7348 90.3482 45.9104C92.0407 46.6825 91.1352 53.8099 87.5007 68.3395L87.4055 68.7224C87.3822 68.8176 87.2955 68.8832 87.2003 68.8832L87.2024 68.8811Z" fill="#004952"/>
<path d="M72.4485 73.7595C72.0402 73.7595 71.6044 73.6537 71.1453 73.4443C71.0396 73.3956 70.993 73.2708 71.0417 73.1629C71.0903 73.0571 71.2152 73.0106 71.3231 73.0592C72.2158 73.4675 72.9605 73.4252 73.5994 72.9281C74.5366 72.2003 75.2305 70.4423 75.5521 67.9798C75.8228 65.9002 75.77 63.736 75.5774 62.6719C75.4018 61.6987 74.8962 61.0408 74.1896 60.8652C73.299 60.6452 72.2201 61.2142 71.3019 62.3863C71.23 62.4772 71.0967 62.4941 71.0057 62.4222C70.9147 62.3503 70.8978 62.217 70.9698 62.126C71.9916 60.8186 73.2334 60.1945 74.2912 60.4548C75.167 60.6705 75.7869 61.4512 75.9942 62.5957C76.1931 63.6916 76.2481 65.9108 75.9709 68.0327C75.734 69.8542 75.1755 72.2405 73.8596 73.2623C73.4344 73.5924 72.9626 73.7574 72.4485 73.7574V73.7595Z" fill="#004952"/>
<path d="M60.6501 112.22C60.6501 112.22 60.6395 112.22 60.6353 112.22C60.5189 112.212 60.4301 112.11 60.4385 111.994C61.1176 102.095 61.4371 96.14 61.6952 91.3546C61.9702 86.2328 62.1881 82.1879 62.7107 75.7523C63.5167 65.8198 65.8078 63.6789 67.1745 62.399C67.2443 62.3334 67.3099 62.272 67.3755 62.2107C68.063 61.5527 69.0996 61.3348 70.0812 61.6374C71.2088 61.9864 72.0339 62.9215 72.292 64.1422C72.6728 65.9531 72.6347 72.5917 70.4832 74.2164C69.857 74.6903 69.1187 74.7094 68.2936 74.2757C66.7979 73.4887 67.4516 70.1567 67.7986 69.0524C67.8345 68.9403 67.9509 68.8789 68.063 68.9149C68.1751 68.9508 68.2365 69.0693 68.2005 69.1793C68.0144 69.7738 67.7901 70.821 67.7753 71.8174C67.7647 72.5917 67.879 73.5818 68.4882 73.9012C69.1652 74.2566 69.7343 74.2503 70.2251 73.878C72.1524 72.4225 72.2666 66.0927 71.8731 64.2289C71.6489 63.1627 70.9296 62.3439 69.9522 62.0414C69.1039 61.7791 68.2492 61.9568 67.6632 62.5153C67.5976 62.5767 67.5299 62.6401 67.4601 62.7078C66.1357 63.9454 63.9207 66.0166 63.1274 75.7862C62.6049 82.2175 62.3891 86.2603 62.1141 91.3778C61.8581 96.1653 61.5365 102.123 60.8574 112.024C60.849 112.136 60.7559 112.22 60.6459 112.22H60.6501Z" fill="#004952"/>
<path d="M80.0624 98.319C75.6493 98.319 71.3082 97.5045 67.331 95.8607C58.8815 92.3679 52.7717 85.5135 49.6619 76.0401C49.6259 75.9301 49.6851 75.8095 49.7973 75.7735C49.9094 75.7376 50.0279 75.7968 50.0638 75.9089C53.1335 85.2618 59.1607 92.0252 67.4918 95.4715C76.4913 99.1927 87.4034 98.6046 96.6759 93.8996C96.7795 93.8467 96.9064 93.889 96.9593 93.9927C97.0122 94.0964 96.9699 94.2233 96.8663 94.2762C91.5774 96.9608 85.7596 98.319 80.0603 98.319H80.0624Z" fill="#004952"/>
<path d="M20.8352 112.191C20.74 112.191 20.6533 112.125 20.63 112.028C18.1464 101.547 16.8474 99.6686 14.6959 96.5524C13.7756 95.2196 12.7305 93.7091 11.3681 91.2508C10.3209 89.3616 8.62213 87.9611 7.25759 86.8357C5.99884 85.799 5.00453 84.9803 4.95164 84.1362C4.93048 83.7977 5.06376 83.4719 5.34936 83.1694C5.69843 82.7992 6.17443 82.613 6.75832 82.613C6.76678 82.613 6.77525 82.613 6.78582 82.613C9.26737 82.6363 13.3271 86.0698 15.3686 88.2869C16.2783 88.1431 22.149 87.4217 24.8442 91.9934C24.9034 92.0949 24.8696 92.224 24.7702 92.2832C24.6686 92.3424 24.5396 92.3086 24.4803 92.2092C23.3252 90.248 21.436 89.0655 18.8699 88.6931C16.9426 88.4117 15.3475 88.7206 15.3306 88.7227C15.2586 88.7375 15.1825 88.7122 15.1338 88.6572C13.9554 87.3624 12.4111 85.9831 11 84.9676C9.26102 83.7152 7.80129 83.0467 6.78159 83.0361C6.30559 83.0234 5.93114 83.1694 5.65612 83.4613C5.45302 83.6771 5.35994 83.8887 5.37263 84.1108C5.41283 84.7709 6.39233 85.5769 7.52415 86.5099C8.91619 87.6565 10.6509 89.0845 11.7362 91.0456C13.0881 93.487 14.1268 94.9869 15.0407 96.3133C17.2197 99.4698 18.5356 101.374 21.0383 111.93C21.0658 112.045 20.9939 112.159 20.8818 112.184C20.8648 112.188 20.8479 112.191 20.8331 112.191H20.8352Z" fill="#004952"/>
<path d="M41.282 111.814C41.1995 111.814 41.1213 111.765 41.0874 111.685C36.247 100.312 35.0623 96.2181 33.2683 90.0237C32.8558 88.5979 32.3861 86.9816 31.8382 85.1537C30.7741 81.6102 30.6429 77.6054 30.5456 74.6817C30.4694 72.3546 30.3954 70.1566 29.8327 70.1227C29.6909 70.1143 29.5597 70.1629 29.4349 70.275C28.4893 71.1191 28.2819 74.8594 28.1466 77.3368C28.0154 79.74 27.9625 80.3895 27.5627 80.3895C27.5584 80.3895 27.5542 80.3895 27.5479 80.3895C26.5853 80.3535 26.0077 77.7091 25.0727 73.0358C24.1905 68.6355 23.0946 63.1583 21.5037 62.4031C21.1462 62.2338 20.8796 62.2148 20.7146 62.3502C19.7605 63.1287 20.9621 68.0114 21.9247 71.9357C22.9275 76.0124 23.4669 78.3459 22.9211 78.9086C22.8217 79.0123 22.6884 79.0567 22.5488 79.0334C21.7766 78.9044 20.539 76.3425 18.4213 71.8236C16.2783 67.2561 13.6127 61.5738 12.0683 61.0766C11.6368 60.9391 11.3342 60.9581 11.1692 61.138C10.1834 62.2169 12.739 68.2335 14.7932 73.0676C16.7099 77.5801 18.3663 81.4769 17.975 82.687C17.8903 82.9493 17.7338 83.0213 17.6153 83.0361C17.0674 83.1038 16.291 81.9127 14.6028 79.2111C12.1403 75.2741 8.42112 69.3252 5.12085 68.8703C4.86487 68.8365 4.53696 68.8301 4.42272 69.0078C3.98057 69.7038 5.87187 72.6318 7.70183 75.4645C9.95489 78.9552 12.5105 82.9113 13.3482 86.1079C13.3779 86.22 13.3102 86.3363 13.198 86.366C13.0838 86.3935 12.9696 86.3279 12.9399 86.2157C12.1191 83.0868 9.47466 78.9869 7.34853 75.6951C4.87756 71.8702 3.5088 69.6615 4.06942 68.7815C4.25559 68.4874 4.63216 68.3774 5.18008 68.4535C8.67498 68.9338 12.4597 74.9843 14.9624 78.989C16.0012 80.6497 17.1753 82.5262 17.5497 82.6151C17.5561 82.6045 17.5645 82.5876 17.573 82.5601C17.9157 81.5002 16.1302 77.2987 14.4039 73.2368C11.5543 66.5326 9.76872 62.0476 10.8561 60.8566C11.1417 60.5435 11.5944 60.4842 12.1953 60.6768C13.9152 61.2289 16.3989 66.5263 18.8021 71.648C20.1815 74.5887 22.0707 78.6167 22.6207 78.6209C23.0248 78.1957 22.187 74.7833 21.5122 72.0415C20.2069 66.7315 19.367 62.9066 20.4459 62.0265C20.7506 61.779 21.1673 61.779 21.6856 62.0265C23.4669 62.8727 24.5416 68.2314 25.4873 72.9576C26.086 75.949 26.8264 79.6427 27.4823 79.9516C27.5965 79.6194 27.6621 78.403 27.7213 77.3198C27.8779 74.4702 28.0725 70.9266 29.1514 69.9662C29.3609 69.78 29.5999 69.6911 29.8559 69.7081C30.8037 69.7652 30.865 71.6142 30.9666 74.6754C31.0618 77.5758 31.193 81.5488 32.2402 85.0395C32.7902 86.8695 33.2577 88.4857 33.6703 89.9137C35.46 96.0933 36.6426 100.176 41.4724 111.526C41.519 111.634 41.4682 111.759 41.3603 111.803C41.3328 111.814 41.3053 111.82 41.2778 111.82L41.282 111.814Z" fill="#004952"/>
<path d="M13.2299 107.847C13.1135 107.847 13.0183 107.752 13.0183 107.636C13.0183 107.519 13.1135 107.424 13.2299 107.424C19.7712 107.424 26.4627 105.609 31.5929 102.444C37.0108 99.0995 40.3788 94.4939 41.0727 89.4716C41.0896 89.3552 41.1954 89.2727 41.3117 89.2918C41.4281 89.3087 41.5085 89.4145 41.4916 89.5308C40.7786 94.6801 37.343 99.3935 31.815 102.806C26.6213 106.011 19.8473 107.849 13.2299 107.849V107.847Z" fill="#004952"/>
<path d="M123.677 68.7941C123.677 68.7941 123.66 68.7941 123.649 68.7941C123.533 68.7793 123.452 68.6735 123.467 68.5571C123.683 66.8753 124.104 65.3246 124.512 64.7005C125.227 63.6088 126.522 62.3712 127.823 62.4876C128.684 62.5638 129.376 63.2005 129.877 64.3768C129.924 64.4847 129.873 64.6095 129.765 64.6539C129.657 64.7005 129.535 64.6497 129.488 64.5418C129.052 63.52 128.481 62.9699 127.787 62.9086C126.742 62.8113 125.57 63.8585 124.868 64.9311C124.497 65.498 124.095 67.0107 123.888 68.61C123.873 68.7158 123.782 68.7941 123.679 68.7941H123.677Z" fill="#004952"/>
<path d="M125.318 74.688C124.984 74.688 124.688 74.5928 124.425 74.4024C124.33 74.3326 124.311 74.2014 124.379 74.1062C124.449 74.011 124.58 73.992 124.675 74.0597C125.286 74.5061 126.226 74.2205 127.468 73.2113C127.559 73.1373 127.692 73.1521 127.766 73.2431C127.84 73.334 127.825 73.4673 127.734 73.5414C126.793 74.3051 125.985 74.688 125.318 74.688Z" fill="#004952"/>
<path d="M102.479 112.22C102.434 112.22 102.39 112.205 102.352 112.178C102.259 112.108 102.24 111.975 102.312 111.882C112.413 98.5747 113.913 91.0137 115.813 81.4408C116.173 79.6278 116.545 77.7555 116.991 75.7585C118.405 69.4604 121.5 68.6904 125.1 68.3773C127.214 68.1932 128.815 68.6798 129.38 69.6741C129.693 70.2242 129.632 70.8736 129.213 71.4575C128.117 72.9828 125.507 74.0766 123.281 74.6351C124.324 75.5342 127.193 78.6377 125.98 84.8046C125.957 84.9188 125.845 84.9929 125.733 84.9717C125.619 84.9484 125.542 84.8384 125.566 84.7242C126.3 80.986 125.479 78.4621 124.662 77.0045C123.776 75.4242 122.703 74.7176 122.691 74.7091C122.619 74.6626 122.583 74.578 122.598 74.4933C122.612 74.4087 122.676 74.3431 122.758 74.3241C125.566 73.6916 127.965 72.4688 128.868 71.21C129.192 70.7615 129.243 70.2897 129.012 69.8814C128.64 69.2277 127.425 68.5973 125.136 68.7962C121.582 69.105 118.756 69.818 117.404 75.8473C116.958 77.838 116.585 79.7103 116.228 81.5191C114.317 91.1449 112.809 98.7482 102.648 112.133C102.606 112.188 102.542 112.218 102.479 112.218V112.22Z" fill="#004952"/>
<path d="M128.026 69.012C128.009 69.012 127.992 69.012 127.975 69.0056C127.861 68.9781 127.791 68.8639 127.819 68.7496C128.257 66.9429 128.915 65.3436 129.336 64.6983C130.051 63.6067 131.347 62.3691 132.646 62.4855C133.507 62.5616 134.199 63.1984 134.701 64.3747C134.747 64.4826 134.696 64.6074 134.589 64.6518C134.481 64.6983 134.358 64.6476 134.311 64.5397C133.876 63.5179 133.304 62.9678 132.61 62.9065C131.57 62.8134 130.393 63.8563 129.691 64.9289C129.289 65.5446 128.659 67.0889 128.231 68.8491C128.208 68.9464 128.121 69.0098 128.026 69.0098V69.012Z" fill="#004952"/>
<path d="M129.469 74.8847C129.044 74.8847 128.678 74.7811 128.375 74.5738C127.87 74.2289 127.554 73.6048 127.44 72.7205C127.425 72.6042 127.506 72.4984 127.622 72.4836C127.736 72.4667 127.844 72.5492 127.859 72.6655C127.959 73.425 128.212 73.9518 128.614 74.2247C128.989 74.4807 129.511 74.5293 130.169 74.3685C130.284 74.341 130.398 74.4109 130.425 74.523C130.453 74.6372 130.383 74.7515 130.271 74.779C129.985 74.8488 129.717 74.8847 129.469 74.8847V74.8847Z" fill="#004952"/>
<path d="M132.562 76.4101C131.635 76.4101 130.952 76.0525 130.531 75.348C129.754 74.047 130.068 71.8405 130.467 70.2221C130.956 68.2482 131.728 66.45 132.242 65.6165C132.799 64.711 133.588 64.2498 134.407 64.3598C135.395 64.4889 136.243 65.4303 136.679 66.8795C136.713 66.9916 136.649 67.1101 136.537 67.1439C136.425 67.1778 136.306 67.1143 136.272 67.0022C135.887 65.718 135.168 64.8866 134.352 64.7808C133.706 64.6983 133.07 65.0834 132.604 65.8407C132.092 66.6743 131.335 68.4831 130.88 70.3278C130.34 72.509 130.347 74.2162 130.895 75.1365C131.267 75.7585 131.876 76.0377 132.756 75.9869C132.871 75.9806 132.972 76.0694 132.979 76.1858C132.985 76.3022 132.896 76.4016 132.78 76.4079C132.706 76.4122 132.634 76.4143 132.562 76.4143V76.4101Z" fill="#004952"/>
<path d="M129.08 112.22C129.058 112.22 129.037 112.218 129.016 112.209C128.904 112.174 128.843 112.055 128.876 111.945C131.555 103.394 133.207 98.3717 134.533 94.3352C135.951 90.0237 137.072 86.6176 138.756 80.9945C141.303 72.4899 140.116 70.0147 139.408 68.536C139.37 68.4556 139.334 68.3794 139.3 68.3075C138.993 67.6496 138.335 67.2222 137.54 67.1651C136.622 67.0974 135.752 67.5501 135.215 68.371C134.271 69.8138 132.285 75.1852 133.429 77.0426C133.717 77.5102 134.189 77.7027 134.87 77.6244C135.951 77.5017 136.562 75.0413 136.651 73.7487C136.66 73.6323 136.763 73.5456 136.878 73.552C136.994 73.5604 137.083 73.6598 137.074 73.7783C137.002 74.8297 136.454 77.8719 134.919 78.0454C134.07 78.1406 133.448 77.8783 133.07 77.2648C131.785 75.1767 133.941 69.5451 134.861 68.1382C135.483 67.1862 136.499 66.6637 137.571 66.742C138.509 66.8097 139.317 67.3407 139.685 68.1298C139.719 68.2017 139.755 68.2779 139.793 68.354C140.529 69.8878 141.758 72.454 139.164 81.1172C137.478 86.7467 136.357 90.1548 134.938 94.4685C133.611 98.5028 131.959 103.523 129.283 112.072C129.255 112.163 129.171 112.22 129.082 112.22H129.08Z" fill="#004952"/>
<path d="M129.881 101.145C125.47 101.145 121.233 100.35 117.503 98.7376C111.402 96.0974 107.26 91.5638 105.525 85.6254C105.493 85.5133 105.557 85.3969 105.669 85.3631C105.781 85.3292 105.897 85.3948 105.931 85.5069C107.63 91.3205 111.69 95.761 117.673 98.3505C126.435 102.139 138.069 101.35 148.035 96.2857C148.139 96.2328 148.266 96.2751 148.318 96.3788C148.371 96.4824 148.329 96.6094 148.225 96.6623C142.382 99.6304 135.968 101.145 129.881 101.145V101.145Z" fill="#004952"/>
<path d="M155.666 112.22H1.33411C1.21776 112.22 1.12256 112.125 1.12256 112.009C1.12256 111.892 1.21776 111.797 1.33411 111.797H155.666C155.782 111.797 155.878 111.892 155.878 112.009C155.878 112.125 155.782 112.22 155.666 112.22Z" fill="#004952"/>
</g>
<defs>
<clipPath id="clip0_8585_37311">
<rect width="154.755" height="68.4403" fill="white" transform="translate(1.12256 43.7798)"/>
</clipPath>
</defs>
</svg>
