<svg width="157" height="156" viewBox="0 0 157 156" fill="none" xmlns="http://www.w3.org/2000/svg">
<g clip-path="url(#clip0_8585_37255)">
<path d="M93.9 89.002C91.6896 89.002 89.9991 88.6311 89.1538 87.7737C88.4059 87.0166 88.3572 85.9676 89.0018 84.6572C89.5096 83.6234 91.4464 82.9241 93.9 82.0393C97.7644 80.6438 102.571 78.9077 103.988 75.1801C104.803 73.0304 104.368 70.3792 102.69 67.2992C101.611 65.3198 99.8593 64.0185 97.4817 63.4378C92.0453 62.1061 84.6783 64.8972 82.1212 66.6151C81.4341 67.0742 80.7013 67.6032 79.926 68.1596C76.6606 70.5069 73.2857 72.9331 71.7533 71.7018C71.4766 71.4798 71.1664 71.0389 71.2546 70.1998C71.5708 67.1806 77.0558 60.4216 85.2712 56.2775C88.7586 54.517 91.2943 53.5107 92.9727 52.8448C94.4625 52.2549 95.4476 51.8627 95.5601 51.5283C95.5723 51.4948 95.6057 51.3945 95.4415 51.1269C95.2074 50.7408 93.526 50.5979 89.5643 51.4614C86.5056 52.1272 83.2797 53.1245 81.7959 53.7265C81.1574 53.985 80.522 54.2495 79.8987 54.511C75.7119 56.2562 72.0968 57.7612 71.1725 55.8184C71.0023 55.4566 71.0296 55.04 71.2607 54.5748C72.8417 51.3793 84.6479 45.5021 93.0396 43.7325C93.2037 43.696 93.3649 43.8024 93.4014 43.9666C93.4379 44.1308 93.3314 44.292 93.1673 44.3254C85.0766 46.0311 73.2978 51.8323 71.808 54.8424C71.6651 55.1312 71.6377 55.3714 71.7228 55.5569C72.3978 56.9768 75.9278 55.5052 79.6645 53.9485C80.2878 53.687 80.9263 53.4225 81.5679 53.164C84.0793 52.1455 94.8091 48.9196 95.9645 50.8138C96.0983 51.0327 96.2594 51.3641 96.1408 51.7259C95.9402 52.3279 95.0827 52.6684 93.2007 53.4134C91.5315 54.0762 89.0109 55.0765 85.5479 56.8248C77.6366 60.8169 72.1576 67.4542 71.8627 70.2667C71.8141 70.7227 71.9083 71.045 72.1364 71.2305C73.3069 72.173 76.7822 69.6738 79.5733 67.6701C80.3547 67.1076 81.0905 66.5786 81.7868 66.1134C84.505 64.2891 91.9419 61.4554 97.6307 62.8479C100.182 63.4712 102.064 64.8729 103.228 67.0103C104.995 70.2515 105.442 73.076 104.56 75.399C103.046 79.3881 98.0898 81.1758 94.1098 82.614C91.8781 83.4197 89.9535 84.116 89.5521 84.9278C89.0261 85.998 89.0383 86.7885 89.5917 87.351C92.2794 90.0783 107.339 87.1504 118.89 81.6593C133.587 74.6693 147.71 56.8856 153.742 49.2935C154.165 48.7584 154.548 48.2811 154.883 47.8615C154.989 47.7307 155.178 47.7094 155.311 47.8159C155.442 47.9223 155.463 48.1138 155.357 48.2446C155.022 48.6611 154.642 49.1415 154.22 49.6736C148.163 57.3021 133.976 75.1618 119.151 82.2126C111.857 85.6818 100.537 89.0111 93.9061 89.0111L93.9 89.002Z" fill="#004952"/>
<path d="M89.6037 45.2223C89.5368 45.2223 89.4699 45.2011 89.4121 45.1555C87.1926 43.3768 84.1065 43.0028 81.6255 42.7018C79.2539 42.416 77.381 42.188 77.0374 40.8502C76.8368 40.0657 76.9645 39.409 77.4236 38.9043C79.3269 36.8003 86.8582 37.9526 92.9087 38.8769C95.3015 39.2417 97.366 39.558 98.7585 39.6309C98.9258 39.64 99.0565 39.7829 99.0474 39.9502C99.0383 40.1174 98.8953 40.2451 98.7281 40.239C97.3052 40.166 95.2255 39.8468 92.8175 39.4789C87.223 38.6215 79.561 37.4509 77.8766 39.3117C77.5604 39.6613 77.4783 40.1144 77.6273 40.6981C77.8675 41.6346 79.6431 41.8505 81.6985 42.0998C84.2555 42.4099 87.4389 42.793 89.7922 44.6811C89.9229 44.7876 89.9442 44.9791 89.8378 45.1098C89.777 45.1859 89.6888 45.2223 89.6006 45.2223H89.6037Z" fill="#004952"/>
<path d="M97.062 40.017C97.0073 40.017 96.9495 40.0018 96.8978 39.9684C96.1408 39.488 89.4852 35.2161 89.0595 33.3128C88.8619 32.4311 88.9774 31.826 89.4092 31.4642C90.5493 30.5156 93.6384 31.8291 97.5515 33.4922C99.5886 34.3587 101.696 35.2557 103.769 35.9428C110.236 38.0863 115.578 37.9738 120.583 35.5901C124.977 33.4983 129.166 29.7159 134.597 22.9509C134.703 22.8202 134.891 22.7989 135.025 22.9053C135.156 23.0117 135.177 23.2033 135.071 23.334C125.588 35.1523 117.397 41.0994 103.578 36.5235C101.48 35.8303 99.2663 34.8878 97.3113 34.0547C93.8878 32.5983 90.6527 31.221 89.7983 31.9324C89.5612 32.1301 89.5125 32.5497 89.6524 33.179C89.9321 34.4347 94.3317 37.6181 97.2232 39.4545C97.3661 39.5458 97.4056 39.7312 97.3174 39.8741C97.2596 39.9653 97.1623 40.014 97.059 40.014L97.062 40.017Z" fill="#004952"/>
<path d="M138.969 79.5857C138.905 79.5857 138.841 79.5644 138.786 79.5249C138.653 79.4246 138.625 79.233 138.726 79.0993C140.869 76.2595 143.681 68.7069 142.636 59.5308C140.975 44.9244 130.763 34.3801 122.486 28.1076C122.353 28.0073 122.325 27.8157 122.429 27.6819C122.529 27.5482 122.721 27.5208 122.854 27.6242C131.225 33.9696 141.553 44.6447 143.241 59.4639C144.387 69.5491 141.106 76.9588 139.212 79.4671C139.151 79.5462 139.06 79.5888 138.969 79.5888V79.5857Z" fill="#004952"/>
<path d="M151.836 133.159H116.515C116.348 133.159 116.211 133.022 116.211 132.855C116.211 132.687 116.348 132.551 116.515 132.551H151.836C152.003 132.551 152.14 132.687 152.14 132.855C152.14 133.022 152.003 133.159 151.836 133.159Z" fill="#004952"/>
<path d="M21.7832 133.159H1.88339C1.71617 133.159 1.57935 133.022 1.57935 132.855C1.57935 132.687 1.71617 132.551 1.88339 132.551H21.7832C21.9505 132.551 22.0873 132.687 22.0873 132.855C22.0873 133.022 21.9505 133.159 21.7832 133.159Z" fill="#004952"/>
<path d="M66.2228 133.159H29.0135C26.7849 133.159 24.9697 131.344 24.9697 129.115V124.037C24.9697 123.87 25.1065 123.733 25.2738 123.733C25.441 123.733 25.5778 123.87 25.5778 124.037V129.115C25.5778 131.009 27.1193 132.551 29.0135 132.551H66.2228C68.117 132.551 69.6585 131.009 69.6585 129.115V118.963C69.6585 117.069 68.117 115.527 66.2228 115.527H29.0135C27.1193 115.527 25.5778 117.069 25.5778 118.963C25.5778 119.13 25.441 119.267 25.2738 119.267C25.1065 119.267 24.9697 119.13 24.9697 118.963C24.9697 116.734 26.7849 114.919 29.0135 114.919H66.2228C68.4514 114.919 70.2666 116.734 70.2666 118.963V129.115C70.2666 131.344 68.4514 133.159 66.2228 133.159Z" fill="#004952"/>
<path d="M110.911 133.159H73.7023C71.4736 133.159 69.6584 131.344 69.6584 129.115V118.963C69.6584 116.734 71.4736 114.919 73.7023 114.919H110.911C113.14 114.919 114.955 116.734 114.955 118.963V129.115C114.955 131.344 113.14 133.159 110.911 133.159ZM73.7023 115.527C71.8081 115.527 70.2665 117.069 70.2665 118.963V129.115C70.2665 131.009 71.8081 132.551 73.7023 132.551H110.911C112.806 132.551 114.347 131.009 114.347 129.115V118.963C114.347 117.069 112.806 115.527 110.911 115.527H73.7023Z" fill="#004952"/>
<path d="M88.567 115.527H51.3578C49.1291 115.527 47.314 113.712 47.314 111.483V101.331C47.314 99.1024 49.1291 97.2872 51.3578 97.2872H54.0577C54.2249 97.2872 54.3618 97.4241 54.3618 97.5913C54.3618 97.7585 54.2249 97.8953 54.0577 97.8953H51.3578C49.4636 97.8953 47.9221 99.4368 47.9221 101.331V111.483C47.9221 113.377 49.4636 114.919 51.3578 114.919H88.567C90.4612 114.919 92.0027 113.377 92.0027 111.483V101.331C92.0027 99.4368 90.4612 97.8953 88.567 97.8953H61.5069C61.3396 97.8953 61.2028 97.7585 61.2028 97.5913C61.2028 97.4241 61.3396 97.2872 61.5069 97.2872H88.567C90.7957 97.2872 92.6108 99.1024 92.6108 101.331V111.483C92.6108 113.712 90.7957 115.527 88.567 115.527Z" fill="#004952"/>
<path d="M86.1885 66.3518L51.9019 80.8068C49.9987 81.6092 49.1063 83.8025 49.9086 85.7057L53.8525 95.0604C54.6549 96.9636 56.8482 97.856 58.7514 97.0537L93.0381 82.5986C94.9413 81.7962 95.8337 79.6029 95.0313 77.6997L91.0874 68.345C90.285 66.4418 88.0917 65.5494 86.1885 66.3518Z" fill="#FF8D6E"/>
</g>
<defs>
<clipPath id="clip0_8585_37255">
<rect width="153.841" height="110.317" fill="white" transform="translate(1.57935 22.8414)"/>
</clipPath>
</defs>
</svg>
