<?xml version="1.0" encoding="UTF-8"?>
<svg xmlns="http://www.w3.org/2000/svg" width="72" height="72" viewBox="0 0 72 72" fill="none">
  <g clip-path="url(#clip0_5240_19103)">
    <path d="M21.6662 67.5H9.09601C7.91017 67.5312 6.76036 67.0908 5.89877 66.2754C5.03717 65.46 4.53414 64.3362 4.5 63.1504V8.84951C4.53414 7.66374 5.03717 6.53992 5.89877 5.72454C6.76036 4.90915 7.91017 4.46876 9.09601 4.49997H41.6306C42.836 4.49694 43.9972 4.95315 44.8782 5.77583L62.8418 22.797C63.3068 23.2375 63.6687 23.7751 63.9018 24.3716C64.1348 24.9681 64.2333 25.6087 64.1902 26.2477" stroke="#004952" stroke-width="2.89969" stroke-linecap="round" stroke-linejoin="round"></path>
    <path d="M41.239 4.5V21.8982C41.2732 23.0839 41.7762 24.2077 42.6378 25.0231C43.4994 25.8385 44.6492 26.2789 45.835 26.2477H64.1901" stroke="#004952" stroke-width="2.89969" stroke-linecap="round" stroke-linejoin="round"></path>
    <path d="M35.1114 55.1356C35.0212 55.2257 34.9564 55.338 34.9236 55.4612L31.9366 66.6498C31.7928 67.1884 32.2854 67.6809 32.8239 67.5372L44.0125 64.5502C44.1357 64.5173 44.248 64.4525 44.3381 64.3624L62.25 46.4505C65.0024 43.6981 65.1681 39.4014 62.6202 36.8535C60.0723 34.3056 55.7756 34.4714 53.0232 37.2237L35.1114 55.1356Z" stroke="#004952" stroke-width="2.89969" stroke-linejoin="round"></path>
    <path d="M10.2993 22.839C10.2993 24.8463 10.8945 26.8085 12.0097 28.4774C13.1249 30.1464 14.7099 31.4472 16.5644 32.2154C18.4189 32.9835 20.4595 33.1845 22.4282 32.7929C24.3969 32.4013 26.2053 31.4347 27.6246 30.0154C29.044 28.596 30.0106 26.7876 30.4022 24.8189C30.7938 22.8502 30.5928 20.8096 29.8246 18.9552C29.0565 17.1007 27.7557 15.5156 26.0867 14.4005C24.4177 13.2853 22.4555 12.6901 20.4482 12.6901C17.7566 12.6901 15.1752 13.7593 13.2719 15.6626C11.3686 17.5659 10.2993 20.1473 10.2993 22.839Z" fill="#FF8D6E"></path>
    <path d="M10.2993 49.3422C10.2993 51.3494 10.8945 53.3116 12.0097 54.9806C13.1249 56.6496 14.7099 57.9504 16.5644 58.7186C18.4189 59.4867 20.4595 59.6877 22.4282 59.2961C24.3969 58.9045 26.2053 57.9379 27.6246 56.5185C29.044 55.0992 30.0106 53.2908 30.4022 51.3221C30.7938 49.3534 30.5928 47.3128 29.8246 45.4583C29.0565 43.6039 27.7557 42.0188 26.0867 40.9036C24.4177 39.7885 22.4555 39.1932 20.4482 39.1932C17.7566 39.1932 15.1752 40.2625 13.2719 42.1658C11.3686 44.0691 10.2993 46.6505 10.2993 49.3422Z" fill="#FF8D6E"></path>
    <path d="M27.6832 44.2822L18.6942 56.258L12.7063 50.2701" stroke="#004952" stroke-width="2.89969" stroke-linecap="round" stroke-linejoin="round"></path>
    <path d="M20.4485 22.4185C22.7305 22.4185 24.5805 20.5686 24.5805 18.2865C24.5805 16.0044 22.7305 14.1544 20.4485 14.1544C18.1664 14.1544 16.3164 16.0044 16.3164 18.2865C16.3164 20.5686 18.1664 22.4185 20.4485 22.4185Z" stroke="#004952" stroke-width="2.89969" stroke-linecap="round" stroke-linejoin="round"></path>
    <path d="M27.2482 28.2758C26.5949 27.0408 25.6172 26.0072 24.4204 25.2863C23.2236 24.5654 21.8528 24.1844 20.4556 24.1844C19.0584 24.1844 17.6877 24.5654 16.4908 25.2863C15.294 26.0072 14.3164 27.0408 13.6631 28.2758" stroke="#004952" stroke-width="2.89969" stroke-linecap="round" stroke-linejoin="round"></path>
  </g>
  <defs>
    <clipPath id="clip0_5240_19103">
      <rect width="72" height="72" fill="white"></rect>
    </clipPath>
  </defs>
</svg>
