<svg width="552" height="425" viewBox="0 0 552 425" fill="none" xmlns="http://www.w3.org/2000/svg">
<g opacity="0.5">
<path d="M496.285 141.353L705.833 29.9345C707.391 29.0972 708.675 27.8307 709.522 26.294C710.369 24.7572 710.742 23.0185 710.594 21.296C710.446 19.5735 709.784 17.9438 708.691 16.6112C707.598 15.2786 706.122 14.3025 704.449 13.8053L633.547 -6.79671C632.322 -7.15428 631.027 -7.24434 629.751 -7.06072C628.475 -6.8771 627.248 -6.42418 626.155 -5.73308L622.521 -3.42884L502.583 75.4213L546.031 -21.8783C546.559 -23.0316 546.833 -24.2772 546.834 -25.5317C546.836 -26.7861 546.565 -28.0203 546.039 -29.1514C545.514 -30.2825 544.747 -31.2844 543.788 -32.0898C542.83 -32.8951 541.703 -33.4854 540.484 -33.8209L488.878 -48.7113C487.683 -49.0503 486.423 -49.1375 485.18 -48.9673C483.937 -48.7971 482.738 -48.3733 481.661 -47.7232C480.583 -47.073 479.651 -46.2109 478.923 -45.1923C478.195 -44.1737 477.689 -43.0212 477.436 -41.8088L456.496 61.9894L403.147 -67.1253L401.501 -70.9409C401.006 -72.0994 400.256 -73.1312 399.305 -73.9633C398.353 -74.7954 397.223 -75.4076 395.995 -75.7568L325.164 -96.5832C323.485 -97.0612 321.689 -97.037 320 -96.5136C318.312 -95.9902 316.807 -94.9909 315.674 -93.641C314.541 -92.291 313.83 -90.6506 313.631 -88.9254C313.432 -87.2001 313.754 -85.4669 314.555 -83.943L422.983 119.98L496.285 141.353Z" fill="#82A4A7" fill-opacity="0.1"/>
<path d="M145.429 327.907L354.977 216.489L378.278 143.825L269.82 -60.156C269.004 -61.6726 267.747 -62.9082 266.205 -63.7079C264.664 -64.5076 262.907 -64.8358 261.154 -64.6514C259.401 -64.4669 257.731 -63.778 256.353 -62.671C254.975 -61.5641 253.95 -60.0883 253.408 -58.4288L230.885 11.8855C230.46 13.1004 230.311 14.3866 230.448 15.6522C230.586 16.9179 231.006 18.1317 231.679 19.207L233.922 22.7055L311.13 139.134L213.43 98.5666C212.271 98.0748 211.013 97.834 209.741 97.8603C208.468 97.8865 207.21 98.1792 206.049 98.7188C204.889 99.2584 203.853 100.033 203.01 100.99C202.167 101.947 201.536 103.066 201.16 104.271L185.142 155.305C184.738 156.503 184.597 157.767 184.729 159.012C184.861 160.257 185.262 161.453 185.906 162.521C186.55 163.589 187.422 164.504 188.463 165.204C189.504 165.905 190.69 166.374 191.941 166.581L296.794 184.842L164.326 240.198L160.384 241.922C159.2 242.442 158.139 243.206 157.273 244.161C156.407 245.116 155.758 246.24 155.369 247.456L132.831 317.741C132.307 319.406 132.291 321.175 132.785 322.827C133.278 324.478 134.259 325.938 135.605 327.024C136.95 328.11 138.6 328.773 140.348 328.93C142.095 329.087 143.863 328.731 145.429 327.907Z" fill="#82A4A7" fill-opacity="0.1"/>
<path d="M728.986 79.0724L170.012 376.284C168.445 377.116 167.154 378.381 166.302 379.92C165.45 381.459 165.077 383.203 165.228 384.929C165.379 386.655 166.049 388.287 167.153 389.617C168.256 390.946 169.743 391.914 171.425 392.398L242.026 412.936C243.251 413.294 244.546 413.384 245.822 413.2C247.098 413.017 248.325 412.564 249.418 411.873L253.021 409.584L450.13 280.022L534.879 473.229C535.358 474.328 536.065 475.313 536.955 476.121C537.844 476.93 538.898 477.545 540.05 477.929C541.202 478.312 542.427 478.456 543.649 478.35C544.871 478.244 546.063 477.892 547.151 477.314L595.765 451.466C596.853 450.887 597.811 450.095 598.582 449.141C599.353 448.187 599.92 447.091 600.246 445.922C600.572 444.753 600.651 443.535 600.478 442.345C600.305 441.155 599.884 440.019 599.241 439.007L486.456 260.707L710.19 166.541L714.102 164.833C715.286 164.314 716.347 163.55 717.213 162.595C718.079 161.639 718.729 160.515 719.117 159.3L741.569 89.2838C742.12 87.6152 742.157 85.8337 741.675 84.1673C741.193 82.5009 740.214 81.0252 738.863 79.9289C737.512 78.8326 735.851 78.1655 734.091 78.013C732.332 77.8604 730.554 78.2293 728.986 79.0724Z" fill="#82A4A7" fill-opacity="0.1"/>
</g>
</svg>
