<?xml version="1.0" encoding="UTF-8"?>
<svg xmlns="http://www.w3.org/2000/svg" width="186" height="178" viewBox="0 0 186 178" fill="none">
  <path d="M154 93.5V65.8462C154 60.9631 150.048 57 145.178 57L57.8218 57C52.9522 57 49 60.9631 49 65.8462V122.462C49 127.345 52.9522 131.308 57.8218 131.308H116.084L137.239 149L132.987 131.308H145.178C150.048 131.308 154 127.345 154 122.462V115.5" stroke="#004952" stroke-width="2" stroke-linecap="round" stroke-linejoin="round"></path>
  <path d="M160.146 68L160.146 65.1313C160.146 57.3188 153.812 50.9856 146 50.9856L146 32C163.121 32 177 45.8792 177 63L177 68L160.146 68Z" fill="#C5D6D7"></path>
  <path d="M146.493 107.931L166.051 98.2918" stroke="#004952" stroke-width="2" stroke-linecap="round" stroke-linejoin="round"></path>
  <path d="M120.929 94.3717L136.396 104.661" stroke="#004952" stroke-width="2" stroke-linecap="round" stroke-linejoin="round"></path>
  <path d="M94.5545 99.343L111.05 93.5772" stroke="#004952" stroke-width="2" stroke-linecap="round" stroke-linejoin="round"></path>
  <path d="M142.597 103.035C139.581 102.011 136.305 103.625 135.281 106.641C134.256 109.657 135.871 112.932 138.886 113.957C141.902 114.981 145.178 113.367 146.202 110.351C147.227 107.335 145.613 104.06 142.597 103.035Z" stroke="#004952" stroke-width="2" stroke-linecap="round" stroke-linejoin="round"></path>
  <rect x="92.6245" y="93.7983" width="12.0875" height="12.0875" transform="rotate(63.9967 92.6245 93.7983)" fill="#82A4A7"></rect>
  <path d="M118.073 85.5658C115.057 84.5412 111.781 86.1555 110.757 89.1714C109.732 92.1872 111.347 95.4626 114.363 96.4872C117.378 97.5117 120.654 95.8974 121.678 92.8816C122.703 89.8657 121.089 86.5903 118.073 85.5658Z" stroke="#FF8D6E" stroke-width="2" stroke-linecap="round" stroke-linejoin="round"></path>
  <path d="M176.913 94.8829L169.146 105.912L163.478 93.6715L176.913 94.8829Z" fill="#3A6D71"></path>
  <path fill-rule="evenodd" clip-rule="evenodd" d="M79.1384 77.8566C79.1384 92.8065 67.0191 104.926 52.0692 104.926C37.1193 104.926 25 92.8065 25 77.8566C25 62.9067 37.1193 50.7874 52.0692 50.7874C67.0191 50.7874 79.1384 62.9067 79.1384 77.8566ZM62.7427 78.5603C63.4094 78.1754 63.4094 77.2132 62.7427 76.8283L48.6311 68.6809C47.9644 68.296 47.1311 68.7771 47.1311 69.5469V85.8417C47.1311 86.6115 47.9644 87.0926 48.6311 86.7077L62.7427 78.5603Z" fill="#FF8D6E"></path>
  <path d="M62.7427 76.8281C63.4093 77.213 63.4093 78.1753 62.7427 78.5602L48.631 86.7075C47.9644 87.0924 47.131 86.6113 47.131 85.8415L47.131 69.5468C47.131 68.777 47.9644 68.2959 48.631 68.6808L62.7427 76.8281Z" fill="#F8F3EB"></path>
  <path d="M40.2044 115.822C19.0279 110.148 6.46086 88.3808 12.1351 67.2043C17.8093 46.0278 39.5761 33.4607 60.7526 39.1349" stroke="#FF8D6E" stroke-width="2" stroke-linecap="round" stroke-linejoin="round"></path>
</svg>
