<?xml version="1.0" encoding="UTF-8"?>
<svg xmlns="http://www.w3.org/2000/svg" width="206" height="178" viewBox="0 0 206 178" fill="none">
  <g clip-path="url(#clip0_2453_638)">
    <path d="M150.849 81.8714L141.669 124.141L141.294 123.864L138.383 102.3C138.662 101.882 138.851 101.39 138.924 100.861L142.51 74.5236L144.433 74.5575C148.459 74.6284 151.495 78.0843 150.849 81.8804L150.849 81.8714Z" fill="#FF8D6E"></path>
    <path d="M108.113 48.0012L106.336 61.0404L82.8438 57.8631C80.9245 57.6043 79.1573 58.9414 78.8971 60.8632L77.3793 72.0077L73.4152 71.9378C72.5393 71.9224 71.6964 71.5745 71.0839 70.9696L65.1279 65.0946C64.5154 64.4897 63.6816 64.1419 62.7967 64.1263L56.7015 64.019L59.7689 41.4696C60.0289 39.5568 61.7962 38.2107 63.7154 38.4785L105.094 44.0683C107.013 44.3271 108.355 46.0881 108.095 48.0009L108.113 48.0012Z" fill="#82A4A7"></path>
    <path d="M67.8301 50.3586C67.3247 50.7421 66.6348 50.9012 65.9361 50.8679L65.8385 51.652L65.251 51.5794L65.3485 50.7954C64.6005 50.6501 64.0328 50.3357 63.6428 49.8742C63.2266 49.377 62.9799 48.6991 63.067 47.9992L64.0429 48.1197C63.9883 48.5588 64.153 49.0251 64.4224 49.3556C64.6616 49.6498 65.043 49.8353 65.4571 49.9394L65.781 47.3366L65.4615 47.2442C64.3715 46.9407 63.5992 46.2182 63.7462 45.0371C63.815 44.4837 64.1128 43.9789 64.5579 43.6531C65.062 43.2796 65.637 43.1083 66.3037 43.1356L66.405 42.3215L66.9926 42.394L66.8898 43.2202C67.4809 43.3461 68.0164 43.6565 68.3875 44.1055C68.7848 44.5902 68.9602 45.1514 68.9022 45.7816L67.9263 45.6611C67.9516 45.2936 67.8552 44.9519 67.6759 44.6854C67.489 44.3977 67.184 44.189 66.7832 44.0764L66.4763 46.5429C66.6006 46.5786 66.7226 46.616 66.8569 46.653C68.0722 46.9842 68.7855 47.8358 68.6401 49.0048C68.5635 49.6204 68.2445 50.0494 67.8321 50.3588L67.8301 50.3586ZM66.1952 43.9916C65.7714 43.9821 65.4058 44.0957 65.0945 44.3647C64.8782 44.56 64.7524 44.7989 64.7107 45.1338C64.6276 45.8016 65.1249 46.1724 65.6713 46.3132L65.8987 46.3738L66.1952 43.9916ZM66.5804 47.5615L66.353 47.5009L66.0409 50.0094C66.4855 50.0317 66.8572 49.9514 67.1733 49.7257C67.4307 49.5457 67.61 49.3032 67.6594 48.9062C67.731 48.3307 67.4446 47.8087 66.5802 47.5635L66.5804 47.5615Z" fill="#004952"></path>
    <path d="M78.9486 60.5619L64.3774 58.5852" stroke="#004952" stroke-width="2" stroke-linecap="round" stroke-linejoin="round"></path>
    <path d="M77.8386 68.6237L67.2593 67.1946" stroke="#004952" stroke-width="2" stroke-linecap="round" stroke-linejoin="round"></path>
    <path d="M142.223 75.4151L138.922 100.866C138.849 101.396 138.66 101.887 138.381 102.306L135.31 79.5761C135.014 77.4015 133.792 75.5436 132.034 74.3334C130.74 73.4464 129.169 72.9147 127.48 72.8849L77.3825 72.0025L78.9004 60.8581C79.1603 58.9453 80.9277 57.5992 82.8471 57.858L140.273 65.1832C142.116 65.4183 143.409 67.116 143.146 68.9549L142.223 75.4151Z" fill="#F8F3EB" stroke="#004952" stroke-width="2" stroke-linecap="round" stroke-linejoin="round"></path>
    <path d="M137.963 127.246C139.796 127.278 141.302 125.891 141.334 124.145L141.352 124.146L141.311 123.875L138.4 102.309L135.328 79.5793C135.033 77.4046 133.81 75.5467 132.052 74.3365C130.767 73.4497 129.187 72.9178 127.499 72.888L73.4271 71.9357C72.5421 71.9201 71.7083 71.5723 71.0958 70.9674L65.1398 65.0923C64.5273 64.4874 63.6935 64.1397 62.8085 64.1241L36.5674 63.6619C34.7343 63.6296 33.228 65.0254 33.197 66.7622L40.0264 122.361C39.9952 124.107 41.4509 125.546 43.284 125.578L45.2949 125.613L66.9538 125.995L90.6236 126.412L137.963 127.246Z" fill="#F8F3EB" stroke="#004952" stroke-width="2" stroke-linecap="round" stroke-linejoin="round"></path>
    <path d="M142.65 55.4803L163.115 52.9757L155.052 71.9508L142.65 55.4803Z" fill="#FEC3B8"></path>
  </g>
  <path d="M94.9922 142.997C120.795 147.823 135.987 143.679 149.536 134.098C163.086 124.516 167.704 117.334 172.377 106.535" stroke="#FF8D6E" stroke-width="2" stroke-linecap="round" stroke-linejoin="round"></path>
  <path d="M174.522 110.628L172.837 105.699L168.212 107.844" stroke="#FF8D6E" stroke-width="2" stroke-linecap="round" stroke-linejoin="round"></path>
  <rect x="165.594" y="91.2266" width="8.98552" height="8.98552" transform="rotate(-68.1333 165.594 91.2266)" fill="#3A6D71"></rect>
  <defs>
    <clipPath id="clip0_2453_638">
      <rect width="203" height="145" fill="white" transform="translate(2.5 5.40332)"></rect>
    </clipPath>
  </defs>
</svg>
